<svg width="68" height="24" viewBox="0 0 68 24" fill="none" xmlns="http://www.w3.org/2000/svg">
<g clip-path="url(#clip0_1997_60220)">
<path d="M39.3116 11.2309V14.6998C39.3116 15.1644 39.2201 15.6246 39.0423 16.0539C38.8644 16.4832 38.6038 16.8732 38.2752 17.2018C37.9467 17.5304 37.5566 17.791 37.1273 17.9688C36.698 18.1466 36.2379 18.2382 35.7732 18.2382C35.624 18.2461 35.4744 18.2461 35.3251 18.2382C34.8753 18.1677 34.4429 18.013 34.0504 17.7823C33.4906 17.4619 33.0266 16.9978 32.7061 16.4381C32.4087 15.9069 32.2518 15.3086 32.2503 14.6998V5.66839C32.2492 5.53961 32.274 5.41192 32.323 5.29284C32.372 5.17376 32.4444 5.06569 32.5358 4.97498C32.6272 4.88428 32.7359 4.81278 32.8553 4.76469C32.9748 4.71659 33.1027 4.69288 33.2314 4.69495C33.3594 4.69385 33.4863 4.7186 33.6044 4.76772C33.7226 4.81684 33.8296 4.88931 33.919 4.9808C33.9716 5.02924 34.0183 5.0837 34.0581 5.14304C34.1542 5.30142 34.205 5.48314 34.2049 5.66839V14.6998C34.2049 15.1198 34.3717 15.5227 34.6688 15.8197C34.9658 16.1167 35.3686 16.2836 35.7887 16.2836C36.2087 16.2836 36.6115 16.1167 36.9086 15.8197C37.2056 15.5227 37.3724 15.1198 37.3724 14.6998V11.2696C37.3888 11.0246 37.4965 10.7946 37.6741 10.6251C37.8518 10.4556 38.0865 10.3589 38.332 10.3541C38.5775 10.3492 38.8159 10.4366 39.0001 10.5989C39.1843 10.7613 39.301 10.9868 39.3271 11.2309H39.3116Z" fill="black"/>
<path d="M25.3202 13.1002V14.514C25.3105 14.737 25.2847 14.9591 25.2429 15.1784C25.0506 16.0689 24.5497 16.8628 23.8287 17.4198C23.1077 17.9768 22.2131 18.2611 21.3028 18.2223H21.2642C21.0867 18.2339 20.9086 18.2339 20.7311 18.2223H20.6616C20.4288 18.1788 20.2193 18.0533 20.0713 17.8684C19.9232 17.6836 19.8465 17.4518 19.8549 17.2151C19.8633 16.9784 19.9564 16.7526 20.1172 16.5788C20.278 16.4049 20.4958 16.2945 20.7311 16.2677H20.8238C21.4997 16.2647 22.1621 16.0777 22.7398 15.7269C22.9158 15.6121 23.0616 15.4568 23.1651 15.274C23.2687 15.0911 23.3268 14.8862 23.3347 14.6762V13.1697C23.3347 12.8581 23.2345 12.5547 23.0488 12.3044C22.8959 12.0838 22.693 11.9023 22.4567 11.7748C22.2205 11.6473 21.9575 11.5773 21.6891 11.5705C21.5251 11.5469 21.3586 11.5469 21.1947 11.5705H21.1406C20.9928 11.6147 20.8367 11.6241 20.6847 11.5978C20.5326 11.5714 20.3888 11.5102 20.2644 11.4188C20.1401 11.3274 20.0387 11.2084 19.9682 11.0712C19.8977 10.934 19.86 10.7822 19.8581 10.6279C19.8537 10.4464 19.8998 10.2673 19.9912 10.1105C20.0826 9.9536 20.2157 9.82518 20.3757 9.73947L20.6384 9.63903C21.0102 9.51803 21.3985 9.45548 21.7895 9.45361H21.9286C22.8576 9.49968 23.7319 9.90658 24.3654 10.5877C24.9989 11.2688 25.3415 12.1703 25.3202 13.1002Z" fill="black"/>
<path d="M30.5506 10.5276V16.1828C30.5448 16.4087 30.519 16.6337 30.4734 16.855C30.2812 17.7442 29.7815 18.537 29.0621 19.0939C28.3427 19.6507 27.4499 19.9358 26.541 19.8989H26.5023C26.3169 19.8989 26.1392 19.8989 25.9692 19.8989H25.8997C25.6354 19.8897 25.3856 19.7759 25.2052 19.5824C25.0248 19.389 24.9286 19.1319 24.9379 18.8675C24.9471 18.6032 25.0609 18.3534 25.2543 18.173C25.4478 17.9926 25.7049 17.8965 25.9692 17.9057H26.062C26.7345 17.9036 27.3939 17.7194 27.9702 17.3726C28.2259 17.2075 28.4127 16.9548 28.4956 16.6618C28.5482 16.4997 28.5743 16.3301 28.5728 16.1597V10.5044C28.5748 10.2407 28.6805 9.98842 28.867 9.80195C29.0534 9.61548 29.3057 9.50983 29.5694 9.50781C29.8338 9.51588 30.0845 9.62712 30.2679 9.81772C30.4513 10.0083 30.5528 10.2631 30.5506 10.5276Z" fill="black"/>
<path d="M42.935 5.77641C42.935 5.22599 42.4905 4.77979 41.9422 4.77979C41.3939 4.77979 40.9495 5.22599 40.9495 5.77641V17.365C40.9495 17.9154 41.3939 18.3616 41.9422 18.3616C42.4905 18.3616 42.935 17.9154 42.935 17.365V5.77641Z" fill="black"/>
<path d="M38.23 7.69246C38.7804 7.69246 39.2266 7.24626 39.2266 6.69584C39.2266 6.14542 38.7804 5.69922 38.23 5.69922C37.6796 5.69922 37.2334 6.14542 37.2334 6.69584C37.2334 7.24626 37.6796 7.69246 38.23 7.69246Z" fill="black"/>
<path d="M8.84891 7.69246C9.39933 7.69246 9.84553 7.24626 9.84553 6.69584C9.84553 6.14542 9.39933 5.69922 8.84891 5.69922C8.2985 5.69922 7.85229 6.14542 7.85229 6.69584C7.85229 7.24626 8.2985 7.69246 8.84891 7.69246Z" fill="black"/>
<path d="M9.78381 13.8263C10.0728 14.4372 10.2207 15.1052 10.2164 15.781C10.1645 16.6276 9.85142 17.4373 9.32026 18.0987C6.73987 21.4207 1.24687 20.1692 0.211619 16.0977C0.147308 15.8441 0.103389 15.5858 0.0802812 15.3251C0.0802812 15.1552 0.0802812 14.9852 0.0802812 14.8152V10.4966C0.0729982 10.2433 0.154858 9.99551 0.311581 9.79643C0.468304 9.59735 0.689943 9.45961 0.937838 9.40723H1.33185C1.58402 9.45481 1.81105 9.59049 1.97239 9.79005C2.13373 9.9896 2.21887 10.24 2.21258 10.4966C2.21258 12.6675 2.21258 12.2812 2.21258 14.4521C2.15797 15.089 2.29043 15.728 2.59372 16.2906C2.89701 16.8533 3.35795 17.3152 3.91997 17.6197C4.49544 17.9309 5.15484 18.0515 5.80321 17.964C6.45158 17.8765 7.05546 17.5856 7.52789 17.133C7.93554 16.6636 8.16001 16.0627 8.16001 15.441C8.16001 14.8193 7.93554 14.2185 7.52789 13.7491L5.46512 11.3464C5.26376 11.1153 5.16074 10.8146 5.17806 10.5086C5.19538 10.2026 5.33168 9.91543 5.55783 9.70853L5.73552 9.55402C5.88825 9.46443 6.06076 9.41401 6.23769 9.40723H9.69882C9.97219 9.40954 10.2351 9.51242 10.4375 9.69624C10.6398 9.88007 10.7674 10.132 10.7959 10.4038C10.8076 10.5519 10.7886 10.7007 10.7399 10.8409C10.6912 10.9812 10.614 11.1098 10.513 11.2187C10.4121 11.3277 10.2897 11.4144 10.1536 11.4736C10.0174 11.5328 9.87047 11.5632 9.722 11.5627H8.84899C8.7937 11.5631 8.73971 11.5796 8.69357 11.61C8.64743 11.6405 8.61112 11.6837 8.58904 11.7344C8.56696 11.7851 8.56006 11.8411 8.56918 11.8957C8.57829 11.9502 8.60303 12.0009 8.6404 12.0417C9.10934 12.5755 9.49484 13.1772 9.78381 13.8263Z" fill="black"/>
<path d="M15.1841 9.52345H15.0451C14.5639 9.52243 14.0872 9.61645 13.6425 9.80012C13.1977 9.9838 12.7936 10.2535 12.4534 10.5937C12.1131 10.934 11.8434 11.3381 11.6597 11.7829C11.4761 12.2276 11.382 12.7043 11.3831 13.1854C11.3854 13.3951 11.4035 13.6043 11.4371 13.8112C11.5862 14.6598 12.0297 15.4286 12.6895 15.9826C13.3494 16.5365 14.1835 16.84 15.0451 16.8397L16.5902 16.7393C16.2812 17.3187 15.5086 17.8054 14.0948 17.9059H14.0021C13.777 17.9461 13.5728 18.0632 13.4243 18.2371C13.2758 18.411 13.1921 18.631 13.1876 18.8596C13.183 19.0882 13.2578 19.3114 13.3993 19.4911C13.5408 19.6707 13.7401 19.7958 13.9635 19.845H14.033C14.2105 19.8566 14.3886 19.8566 14.5661 19.845H14.6047C15.515 19.8838 16.4096 19.5995 17.1306 19.0426C17.8516 18.4856 18.3525 17.6916 18.5448 16.8011C18.5871 16.5819 18.6129 16.3598 18.6221 16.1367V13.0464C18.6184 12.1278 18.2577 11.2466 17.6161 10.5891C16.9745 9.93167 16.1024 9.54951 15.1841 9.52345ZM13.5308 13.1854C13.5294 12.9674 13.5742 12.7515 13.6622 12.5519C13.7378 12.3835 13.8454 12.2313 13.9789 12.1038C14.119 11.9613 14.2862 11.8483 14.4706 11.7713C14.655 11.6944 14.853 11.6551 15.0528 11.6557C15.2999 11.6565 15.5432 11.7166 15.7624 11.8308C15.9815 11.9451 16.17 12.1103 16.3121 12.3124C16.4897 12.563 16.5843 12.8629 16.5825 13.17C16.5825 13.5798 16.4197 13.9728 16.1299 14.2626C15.8402 14.5523 15.4471 14.7151 15.0373 14.7151C14.6369 14.7051 14.2561 14.5401 13.975 14.2547C13.694 13.9693 13.5347 13.586 13.5308 13.1854Z" fill="black"/>
</g>
<path d="M60.3989 2.75601L60.6238 0.946792C60.6311 0.887513 60.621 0.827396 60.5948 0.773725C60.5686 0.720054 60.5274 0.675133 60.4762 0.644405C60.425 0.613678 60.366 0.598462 60.3063 0.600604C60.2466 0.602745 60.1888 0.62215 60.1399 0.656469L59.1261 1.3726C59.0699 1.4121 59.0021 1.43174 58.9335 1.4284C58.8649 1.42506 58.7994 1.39894 58.7473 1.35417L57.6478 0.40762C57.5919 0.359485 57.5206 0.333008 57.4468 0.333008C57.3731 0.333008 57.3018 0.359485 57.2459 0.40762L56.1464 1.35417C56.0943 1.39894 56.0287 1.42506 55.9601 1.4284C55.8915 1.43174 55.8238 1.4121 55.7676 1.3726L54.7537 0.656469C54.7049 0.62215 54.6471 0.602745 54.5874 0.600604C54.5277 0.598462 54.4687 0.613678 54.4175 0.644405C54.3663 0.675133 54.3251 0.720054 54.2989 0.773725C54.2727 0.827396 54.2626 0.887513 54.2699 0.946792L54.4948 2.75601C54.5054 2.84209 54.4858 2.9292 54.4392 3.00236C54.3926 3.07552 54.322 3.13018 54.2395 3.15693C52.0695 3.85318 50.1848 5.23605 48.8695 7.09701C47.5541 8.95797 46.8795 11.1961 46.9473 13.474C47.1095 19.0676 51.7021 23.5865 57.2966 23.6648C59.8124 23.6981 62.2566 22.8275 64.1849 21.2114C66.1131 19.5952 67.3975 17.3407 67.8043 14.8579C68.2112 12.375 67.7136 9.82852 66.402 7.68144C65.0903 5.53437 63.0518 3.92923 60.657 3.15786C60.574 3.13128 60.5028 3.07664 60.4557 3.00331C60.4086 2.92998 60.3886 2.84254 60.3989 2.75601Z" fill="#F82E11"/>
<path d="M57.8267 4.07691C58.3362 3.89168 58.8805 3.8221 59.4203 3.87322C64.082 4.26585 66.824 8.27138 66.824 13.1507C66.824 18.2898 63.6811 22.4594 58.6682 22.4594C54.1373 22.4594 53.7004 7.25203 57.3594 4.31838C57.5025 4.21542 57.6599 4.13406 57.8267 4.07691Z" fill="white"/>
<path d="M59.1262 4.87402C58.8031 4.87563 58.488 4.97456 58.222 5.15789C55.4838 6.9837 55.2441 17.1293 57.505 20.4114C57.8229 20.8878 58.2993 21.2362 58.8497 21.3948C58.9396 21.4216 59.0325 21.437 59.1262 21.4409C63.3308 21.4409 65.7925 17.7312 65.7925 13.157C65.7925 8.58279 63.3336 4.87402 59.1262 4.87402Z" fill="#FBB8AF"/>
<path d="M58.4514 16.6777C59.0266 16.6777 59.4929 16.2114 59.4929 15.6362C59.4929 15.061 59.0266 14.5947 58.4514 14.5947C57.8762 14.5947 57.4099 15.061 57.4099 15.6362C57.4099 16.2114 57.8762 16.6777 58.4514 16.6777Z" fill="#F82E11"/>
<path d="M60.5344 14.2324C61.1096 14.2324 61.5759 13.7661 61.5759 13.1909C61.5759 12.6157 61.1096 12.1494 60.5344 12.1494C59.9592 12.1494 59.4929 12.6157 59.4929 13.1909C59.4929 13.7661 59.9592 14.2324 60.5344 14.2324Z" fill="#F82E11"/>
<path d="M58.4514 11.8305C59.0266 11.8305 59.4929 11.3642 59.4929 10.789C59.4929 10.2138 59.0266 9.74756 58.4514 9.74756C57.8762 9.74756 57.4099 10.2138 57.4099 10.789C57.4099 11.3642 57.8762 11.8305 58.4514 11.8305Z" fill="#F82E11"/>
<path d="M60.6054 9.2011C61.2712 9.2011 61.811 8.66137 61.811 7.99557C61.811 7.32977 61.2712 6.79004 60.6054 6.79004C59.9396 6.79004 59.3999 7.32977 59.3999 7.99557C59.3999 8.66137 59.9396 9.2011 60.6054 9.2011Z" fill="#F82E11"/>
<path d="M60.6054 19.4521C61.2712 19.4521 61.811 18.9123 61.811 18.2465C61.811 17.5808 61.2712 17.041 60.6054 17.041C59.9396 17.041 59.3999 17.5808 59.3999 18.2465C59.3999 18.9123 59.9396 19.4521 60.6054 19.4521Z" fill="#F82E11"/>
<path d="M62.8588 11.1526C63.437 11.1526 63.9058 10.6838 63.9058 10.1056C63.9058 9.52735 63.437 9.05859 62.8588 9.05859C62.2805 9.05859 61.8118 9.52735 61.8118 10.1056C61.8118 10.6838 62.2805 11.1526 62.8588 11.1526Z" fill="#F82E11"/>
<path d="M63.6164 14.2372C64.1941 14.2372 64.6625 13.7688 64.6625 13.1911C64.6625 12.6134 64.1941 12.145 63.6164 12.145C63.0387 12.145 62.5703 12.6134 62.5703 13.1911C62.5703 13.7688 63.0387 14.2372 63.6164 14.2372Z" fill="#F82E11"/>
<path d="M62.8588 17.2279C63.4366 17.2279 63.9049 16.7596 63.9049 16.1818C63.9049 15.6041 63.4366 15.1357 62.8588 15.1357C62.2811 15.1357 61.8127 15.6041 61.8127 16.1818C61.8127 16.7596 62.2811 17.2279 62.8588 17.2279Z" fill="#F82E11"/>
<defs>
<clipPath id="clip0_1997_60220">
<rect width="42.8856" height="16" fill="white" transform="translate(0.0571289 3.99951)"/>
</clipPath>
</defs>
</svg>
