<svg width="62" height="24" viewBox="0 0 62 24" fill="none" xmlns="http://www.w3.org/2000/svg">
<path fill-rule="evenodd" clip-rule="evenodd" d="M17.3584 6.67743C19.2586 6.82056 23.1685 7.36457 23.6065 8.39529C23.3918 10.6553 22.621 15.7395 21.2554 17.9973C19.5484 20.8197 16.7464 23.3045 12.3019 23.3045C7.85738 23.3045 5.0554 20.8197 3.34841 17.9973C1.98281 15.7395 1.21202 10.6553 0.997314 8.39529C1.43532 7.36457 5.34524 6.82056 7.24545 6.67743C7.42798 6.16611 8.0313 4.70173 8.98462 2.93475C9.93795 1.16774 11.1747 0.695312 12.3019 0.695312C13.4292 0.695312 14.6659 1.16774 15.6192 2.93475C16.5725 4.70173 17.1758 6.16611 17.3584 6.67743ZM12.3019 2.62798C12.9783 2.62798 13.719 3.54831 14.0089 4.0698C14.2407 4.48703 14.8462 5.85932 15.1039 6.49334H9.49994C9.7576 5.85932 10.3631 4.48703 10.5949 4.0698C10.8848 3.54831 11.6255 2.62798 12.3019 2.62798Z" fill="url(#paint0_linear_1997_60158)"/>
<path d="M40.1692 12.8891C40.1692 13.9395 41.0216 14.792 42.0721 14.792C43.1248 14.792 43.9773 13.9395 43.9749 12.8891V3.46541C43.9749 2.41497 43.1225 1.5625 42.0721 1.5625C41.0216 1.5625 40.1692 2.41497 40.1692 3.46541V12.8891Z" fill="black"/>
<path d="M55.3359 12.928H59.1184C60.1596 12.928 61.0051 13.7712 61.0027 14.8147C61.0027 15.8557 60.1572 16.7012 59.1161 16.7012H54.3856C52.8159 16.7012 51.5442 15.4296 51.5442 13.8597V5.34908C51.5442 4.30097 52.3943 3.45312 53.4401 3.45312C54.4882 3.45312 55.3359 4.30332 55.3359 5.34908V12.928Z" fill="black"/>
<path d="M34.5038 7.20837C34.5038 6.16026 35.354 5.3125 36.3998 5.3125C37.4455 5.3125 38.2957 6.16026 38.2934 7.20837V13.8557C38.2934 15.4256 37.0216 16.6973 35.4518 16.6973H30.712C29.6709 16.6973 28.8254 15.8518 28.8254 14.8107C28.8254 13.7696 29.6709 12.9241 30.712 12.9241H34.5038V7.20837Z" fill="black"/>
<path d="M47.7591 9.08594C46.7133 9.08594 45.8632 9.93369 45.8632 10.9818V16.6975H42.0714C41.0302 16.6975 40.1848 17.543 40.1848 18.5841C40.1848 19.6252 41.0302 20.4707 42.0714 20.4707H46.8111C48.381 20.4707 49.6527 19.1989 49.6527 17.6292V10.9818C49.6527 9.93369 48.8049 9.08594 47.7591 9.08594Z" fill="black"/>
<path d="M47.7602 7.2446C48.8203 7.2446 49.6795 6.38536 49.6795 5.32542C49.6795 4.26549 48.8203 3.40625 47.7602 3.40625C46.7003 3.40625 45.8411 4.26549 45.8411 5.32542C45.8411 6.38536 46.7003 7.2446 47.7602 7.2446Z" fill="black"/>
<path d="M55.3826 20.4582C55.3826 21.5182 54.5234 22.3774 53.4634 22.3774C52.4034 22.3774 51.5442 21.5182 51.5442 20.4582C51.5442 19.3983 52.4034 18.5391 53.4634 18.5391C54.5234 18.5391 55.3826 19.3983 55.3826 20.4582Z" fill="black"/>
<defs>
<linearGradient id="paint0_linear_1997_60158" x1="12.3019" y1="0.695312" x2="12.3019" y2="23.3045" gradientUnits="userSpaceOnUse">
<stop stop-color="#8FC345"/>
<stop offset="1" stop-color="#118F4E"/>
</linearGradient>
</defs>
</svg>
