<svg width="68" height="16" viewBox="0 0 68 16" fill="none" xmlns="http://www.w3.org/2000/svg">
<path fill-rule="evenodd" clip-rule="evenodd" d="M0.814995 0.280739C0.638999 0.473156 0.537842 0.76931 0.537842 1.15414V14.8425C0.537842 15.2273 0.638999 15.5235 0.821574 15.7092L0.869274 15.7502L8.40916 8.0803V7.90796L0.862695 0.239746L0.814995 0.280739Z" fill="url(#paint0_linear_1997_60144)"/>
<path fill-rule="evenodd" clip-rule="evenodd" d="M10.9122 10.6464L8.39722 8.08729V7.90826L10.913 5.34912L10.9673 5.38342L13.9428 7.10346C14.7948 7.59203 14.7948 8.39683 13.9428 8.89209L10.9673 10.6121C10.9664 10.6121 10.9122 10.6464 10.9122 10.6464Z" fill="url(#paint1_linear_1997_60144)"/>
<path fill-rule="evenodd" clip-rule="evenodd" d="M10.9759 10.6119L8.40668 7.99756L0.819092 15.716C1.09625 16.0188 1.56255 16.0531 2.08396 15.757L10.9759 10.6119Z" fill="url(#paint2_linear_1997_60144)"/>
<path fill-rule="evenodd" clip-rule="evenodd" d="M10.9759 5.38265L2.08396 0.244297C1.56338 -0.0585499 1.09625 -0.0175568 0.819092 0.28529L8.40586 7.99617L10.9759 5.38265Z" fill="url(#paint3_linear_1997_60144)"/>
<path opacity="0.2" fill-rule="evenodd" clip-rule="evenodd" d="M10.915 10.5601L2.08396 15.6641C1.59052 15.9527 1.15052 15.9327 0.866792 15.6708L0.819092 15.7193L0.866792 15.7603C1.15052 16.0213 1.59052 16.0423 2.08396 15.7536L10.9759 10.6153L10.915 10.5601Z" fill="black"/>
<path opacity="0.12" fill-rule="evenodd" clip-rule="evenodd" d="M13.9492 8.80236L10.9128 10.5567L10.9671 10.6119L13.9426 8.89188C14.3686 8.64424 14.5783 8.32132 14.5783 7.99756C14.5512 8.29371 14.3349 8.57564 13.9492 8.80236Z" fill="black"/>
<path opacity="0.25" fill-rule="evenodd" clip-rule="evenodd" d="M2.07987 0.336052L13.9473 7.19444C14.333 7.41446 14.5493 7.70309 14.583 7.99924C14.583 7.67632 14.3733 7.35256 13.9473 7.10493L2.07987 0.246537C1.22785 -0.248726 0.537842 0.163714 0.537842 1.15424V1.24376C0.537842 0.253229 1.22785 -0.152518 2.07987 0.336052Z" fill="black"/>
<path fill-rule="evenodd" clip-rule="evenodd" d="M17.477 7.5615C17.477 5.36879 19.2888 3.5835 21.4443 3.5835C22.636 3.5835 23.4839 4.05952 24.1237 4.67943L23.3704 5.44575C22.9131 5.00905 22.293 4.67023 21.4435 4.67023C19.8694 4.67023 18.6391 5.95942 18.6391 7.56066C18.6391 9.1619 19.8694 10.4528 21.4427 10.4528C22.4633 10.4528 23.0439 10.0361 23.4165 9.65632C23.7216 9.34595 23.9214 8.90004 23.9987 8.2885H21.4443V7.20427H25.0399C25.0777 7.39836 25.0975 7.63093 25.0975 7.88275C25.0975 8.69675 24.8779 9.70652 24.1714 10.4252C23.4839 11.153 22.6072 11.5412 21.4435 11.5412C19.2871 11.5412 17.4753 9.75755 17.4753 7.56317L17.477 7.5615ZM28.0039 6.41704C26.6115 6.41704 25.475 7.49457 25.475 8.97785C25.475 10.4536 26.6107 11.5387 28.0039 11.5387C29.397 11.5387 30.5312 10.4519 30.5312 8.97701C30.5312 7.49373 29.3962 6.4162 28.0039 6.41704ZM28.0039 10.5314C27.2415 10.5314 26.5827 9.89141 26.5827 8.97868C26.5827 8.05676 27.2407 7.42597 28.0039 7.42597C28.7663 7.42597 29.4242 8.05592 29.4242 8.97868C29.4242 9.89057 28.7671 10.5314 28.0039 10.5314ZM33.5182 6.41704C32.1258 6.41704 30.9909 7.49457 30.9909 8.97785C30.9909 10.4536 32.1258 11.5387 33.5182 11.5387C34.9105 11.5387 36.0454 10.4519 36.0454 8.97701C36.0454 7.49373 34.9113 6.4162 33.5182 6.41704ZM33.5182 10.5314C32.7558 10.5314 32.097 9.89141 32.097 8.97868C32.097 8.05676 32.755 7.42597 33.5182 7.42597C34.2805 7.42597 34.9393 8.05592 34.9393 8.97868C34.9393 9.89057 34.2805 10.5314 33.5182 10.5314ZM40.2858 6.57264V6.98927H40.248C40.0004 6.68726 39.5234 6.4162 38.9231 6.4162C37.664 6.4162 36.5085 7.54225 36.5085 8.98872C36.5085 10.4235 37.6631 11.5403 38.9231 11.5403C39.5234 11.5403 40.0004 11.2693 40.248 10.9589H40.2858V11.327C40.2858 12.3067 39.771 12.8312 38.9412 12.8312C38.2635 12.8312 37.8441 12.3359 37.6722 11.9201L36.7083 12.3276C36.9846 13.006 37.7199 13.841 38.9403 13.841C40.2365 13.841 41.3336 13.0638 41.3336 11.1722V6.57181L40.2858 6.57264ZM39.0176 10.5314C38.2553 10.5314 37.6146 9.88053 37.6146 8.98872C37.6146 8.08688 38.2544 7.4268 39.0176 7.4268C39.771 7.4268 40.3623 8.08604 40.3623 8.98872C40.3631 9.88053 39.7718 10.5314 39.0176 10.5314ZM42.0976 3.85539H43.2045V11.3847H42.0976V3.85539ZM46.2384 10.5314C45.6759 10.5314 45.2746 10.2687 45.0188 9.75588L48.3858 8.33785L48.2698 8.04672C48.0609 7.47533 47.4211 6.41704 46.1143 6.41704C44.8173 6.41704 43.7391 7.45525 43.7391 8.97868C43.7391 10.4134 44.8074 11.5395 46.2384 11.5395C47.3931 11.5395 48.0609 10.8225 48.3372 10.4042L47.4786 9.82281C47.1916 10.2503 46.8001 10.5322 46.2384 10.5314ZM46.1521 7.40673C46.5904 7.40673 46.9622 7.6301 47.0863 7.94968L44.8346 8.90088C44.8066 7.91119 45.5887 7.40673 46.1521 7.40673Z" fill="black"/>
<path fill-rule="evenodd" clip-rule="evenodd" d="M53.2469 3.85693H50.6003V11.3863H51.7048V8.53433H53.2477C54.4723 8.53433 55.6763 7.63248 55.6763 6.19521C55.6763 4.76045 54.4731 3.85777 53.2493 3.85777L53.2469 3.85693ZM53.2757 7.48607H51.7048V4.90435H53.2757C54.1014 4.90435 54.5718 5.60123 54.5718 6.19521C54.5718 6.77915 54.1014 7.48607 53.2757 7.48607ZM57.3894 11.3863V3.85693H56.2849V11.3863H57.3894ZM62.351 11.3729V8.48664C62.351 7.14976 61.369 6.40436 60.1017 6.40436C59.3031 6.40436 58.475 6.76326 58.132 7.55718L59.1123 7.97297C59.322 7.55718 59.7119 7.42082 60.1222 7.42082C60.693 7.42082 61.2736 7.76968 61.2827 8.39043V8.46824C61.0828 8.35195 60.6552 8.1771 60.1305 8.1771C59.0737 8.1771 57.998 8.76774 57.998 9.87204C57.998 10.8801 58.8648 11.5285 59.836 11.5285C60.5795 11.5285 60.9882 11.1897 61.2448 10.7931H61.2827V11.3746H62.3502L62.351 11.3729ZM59.9701 10.5313C59.6082 10.5313 59.1033 10.3472 59.1033 9.89295C59.1033 9.31152 59.7324 9.08731 60.2752 9.08731C60.7613 9.08731 60.9891 9.19356 61.2851 9.33913C61.2004 10.0151 60.6387 10.5229 59.9701 10.5313ZM66.2352 6.56917L64.9687 9.83272H64.9309L63.6167 6.56917H62.4267L64.3972 11.1319L63.2729 13.6693H64.4251L67.4623 6.56917H66.2352Z" fill="black"/>
<defs>
<linearGradient id="paint0_linear_1997_60144" x1="7.73211" y1="1.00701" x2="-4.37245" y2="4.17761" gradientUnits="userSpaceOnUse">
<stop stop-color="#00A0FF"/>
<stop offset="0.007" stop-color="#00A1FF"/>
<stop offset="0.26" stop-color="#00BEFF"/>
<stop offset="0.512" stop-color="#00D2FF"/>
<stop offset="0.76" stop-color="#00DFFF"/>
<stop offset="1" stop-color="#00E3FF"/>
</linearGradient>
<linearGradient id="paint1_linear_1997_60144" x1="15.0515" y1="7.99815" x2="0.325401" y2="7.99815" gradientUnits="userSpaceOnUse">
<stop stop-color="#FFE000"/>
<stop offset="0.409" stop-color="#FFBD00"/>
<stop offset="0.775" stop-color="#FFA500"/>
<stop offset="1" stop-color="#FF9C00"/>
</linearGradient>
<linearGradient id="paint2_linear_1997_60144" x1="9.57883" y1="9.41979" x2="-0.364106" y2="25.8707" gradientUnits="userSpaceOnUse">
<stop stop-color="#FF3A44"/>
<stop offset="1" stop-color="#C31162"/>
</linearGradient>
<linearGradient id="paint3_linear_1997_60144" x1="-1.09089" y1="-4.27481" x2="3.34502" y2="3.07257" gradientUnits="userSpaceOnUse">
<stop stop-color="#32A071"/>
<stop offset="0.069" stop-color="#2DA771"/>
<stop offset="0.476" stop-color="#15CF74"/>
<stop offset="0.801" stop-color="#06E775"/>
<stop offset="1" stop-color="#00F076"/>
</linearGradient>
</defs>
</svg>
