<svg width="61" height="21" viewBox="0 0 61 21" fill="none" xmlns="http://www.w3.org/2000/svg">
<path d="M5.80028 10.7806C6.09494 10.7806 6.35277 10.6728 6.56149 10.4508C6.62287 10.3874 6.67198 10.3113 6.72109 10.2479C6.76406 10.324 6.81931 10.3874 6.87456 10.4508C7.08328 10.6664 7.32883 10.7806 7.62349 10.7806C7.91815 10.7806 8.17597 10.6728 8.37241 10.4508C8.58113 10.2352 8.67321 9.97522 8.67321 9.66448C8.67321 9.36009 8.56885 9.09374 8.37241 8.89081C8.17597 8.68788 7.91815 8.58008 7.62349 8.58008C7.32883 8.58008 7.071 8.68788 6.87456 8.89081C6.81317 8.95423 6.76406 9.02399 6.72109 9.09374C6.67812 9.01764 6.62287 8.95423 6.56149 8.89081C6.35277 8.6752 6.10108 8.58008 5.80028 8.58008C5.51176 8.58008 5.26008 8.68788 5.05136 8.9035C4.84264 9.11911 4.73828 9.37277 4.73828 9.67716C4.73828 9.98156 4.84264 10.2479 5.03908 10.4635C5.25394 10.6728 5.49948 10.7806 5.80028 10.7806Z" fill="#0091EA"/>
<path d="M27.4066 8.90982C27.1488 8.90982 26.9462 8.9986 26.7805 9.18885C26.6147 9.3791 26.5349 9.60105 26.5349 9.8674C26.5349 10.0576 26.584 10.3367 26.67 10.6981C26.7559 11.0596 26.805 11.345 26.805 11.5289C26.805 12.1947 26.3446 12.5245 25.4238 12.5245H25.0985H24.5767H24.3557C23.5331 12.5245 22.7535 12.1504 22.0107 11.4084C21.139 10.5142 20.5558 9.91813 20.255 9.60105C19.1869 8.52933 18.266 7.67322 17.4926 7.02638C17.3636 6.91858 17.3023 6.79809 17.3023 6.67126C17.3023 6.53809 17.3821 6.44296 17.5355 6.37321C19.0702 5.75173 20.7215 5.23173 22.4772 4.81953C23.0174 4.6927 23.2937 4.3883 23.2937 3.92537C23.2937 3.3039 22.9438 2.99316 22.2378 2.99316C22.115 2.99316 21.9738 3.01219 21.8142 3.05024C19.2421 3.67171 17.3637 4.36294 16.1666 5.12392C15.6325 5.46002 15.3686 6.01808 15.3686 6.77906C15.3686 7.15322 15.4238 7.44493 15.5466 7.67322C15.7553 8.05371 16.4428 8.77031 17.6092 9.80398C18.6466 10.7298 19.1684 11.3577 19.1684 11.6874C19.1684 12.1313 18.7264 12.3977 17.8425 12.4865C17.6522 12.5055 16.9339 12.5118 15.6878 12.5118H15.4238H15.1292C14.3004 12.5118 13.8216 12.163 13.6927 11.4655C13.619 11.0786 13.5699 10.8313 13.5576 10.7425C13.4471 10.4635 13.2323 10.324 12.9192 10.324C12.6307 10.324 12.4097 10.5142 12.2501 10.8947C11.9861 11.5035 11.8265 11.8586 11.7467 11.9601C11.1942 12.6767 9.73934 13.0318 7.39435 13.0318H6.25254C4.65647 13.0318 3.56378 12.8416 2.96832 12.4547C2.5693 12.1884 2.36673 11.7952 2.36673 11.2562C2.36673 11.0977 2.39742 10.863 2.46494 10.5523C2.52633 10.2415 2.56316 10.0069 2.56316 9.84837C2.56316 9.3791 2.34217 9.14446 1.88176 9.14446C1.45819 9.14446 1.12056 9.52495 0.899566 10.2859C0.739959 10.825 0.660156 11.3767 0.660156 11.9538C0.660156 14.1733 2.4895 15.2767 6.15433 15.2767C9.67796 15.2767 11.8572 14.706 12.6859 13.5709C13.0481 14.3572 13.7479 14.7504 14.7915 14.7504H14.8959H15.4299H15.4484C17.0383 14.7504 18.1555 14.6489 18.8124 14.446C19.813 14.1353 20.4269 13.4821 20.654 12.4991C21.6853 14.0021 22.9683 14.7504 24.4969 14.7504H24.5951H25.123H25.3317C26.363 14.7504 27.1672 14.4396 27.7504 13.8182C28.3336 13.1967 28.6221 12.3469 28.6221 11.2752C28.5975 9.69617 28.1985 8.90982 27.4066 8.90982Z" fill="#0091EA"/>
<path d="M25.8897 15.9482C25.6012 15.9482 25.3495 16.056 25.1408 16.2717C25.0057 16.4112 24.9198 16.5761 24.8707 16.7473C24.8215 16.5634 24.7356 16.4112 24.6005 16.2717C24.3918 16.056 24.1463 15.9482 23.8516 15.9482C23.557 15.9482 23.2991 16.056 23.0904 16.259C22.8817 16.4682 22.7773 16.7282 22.7773 17.0326C22.7773 17.337 22.8817 17.6034 23.0904 17.819C23.2991 18.0346 23.5508 18.1487 23.8516 18.1487C24.1524 18.1487 24.4041 18.0409 24.6005 17.819C24.7356 17.6795 24.8154 17.5146 24.8645 17.3307C24.9136 17.5146 24.9934 17.6795 25.1285 17.819C25.3372 18.0346 25.5827 18.1487 25.8774 18.1487C26.1721 18.1487 26.4299 18.0409 26.6386 17.819C26.8473 17.6034 26.9517 17.3434 26.9517 17.0326C26.9517 16.7219 26.8473 16.4619 26.6386 16.259C26.4238 16.056 26.1843 15.9482 25.8897 15.9482Z" fill="#0091EA"/>
<path d="M38.9429 10.4503C38.5623 9.82882 38.016 9.51808 37.3039 9.51808C36.7145 9.51808 36.1314 9.84784 35.5482 10.501C35.4254 10.6405 35.1307 11.0527 34.6703 11.7376C34.4616 12.0484 34.2529 12.264 34.0626 12.3718C33.8723 12.4796 33.6022 12.5367 33.24 12.5367H33.0006C32.0245 12.5367 31.5457 11.9152 31.5457 10.6913V4.23558C31.5457 3.37947 31.2265 2.94824 30.5942 2.94824C30.275 2.94824 30.0295 3.08776 29.8576 3.36044C29.7041 3.60142 29.6427 3.88679 29.6489 4.23558L29.8637 10.3298C29.919 11.8454 30.0724 12.8791 30.318 13.4308C30.7231 14.3313 31.5457 14.7752 32.7858 14.7752H32.884H33.4119H33.4671C34.1547 14.7752 34.7256 14.5279 35.1983 14.0396C35.7323 14.6991 36.4199 15.0289 37.2732 15.0289C37.9362 15.0289 38.4702 14.7562 38.8692 14.2045C39.2376 13.7098 39.4217 13.1137 39.4217 12.4035C39.4401 11.6235 39.2683 10.9703 38.9429 10.4503ZM37.2302 13.1708C37.0215 13.1708 36.8066 13.1074 36.5611 12.9806C36.2725 12.822 36.1375 12.6571 36.1375 12.4669C36.1375 12.2196 36.2603 11.9786 36.4997 11.7566C36.7391 11.5347 36.9785 11.4205 37.2179 11.4205C37.4573 11.4205 37.6476 11.5347 37.795 11.7693C37.9177 11.9659 37.9791 12.2006 37.9791 12.4732C37.973 12.9425 37.7274 13.1708 37.2302 13.1708Z" fill="#0091EA"/>
<path d="M51.2243 20.3005C56.4352 20.3005 60.6595 15.9367 60.6595 10.5536C60.6595 5.1705 56.4352 0.806641 51.2243 0.806641C46.0134 0.806641 41.7891 5.1705 41.7891 10.5536C41.7891 15.9367 46.0134 20.3005 51.2243 20.3005Z" fill="#0091EA"/>
<path d="M57.0146 9.40013C56.9348 7.55474 55.4676 6.08984 53.6629 6.08984C52.6622 6.08984 51.7599 6.54643 51.146 7.26303C50.5321 6.54643 49.6297 6.08984 48.6291 6.08984C46.8611 6.08984 45.4124 7.49766 45.2835 9.29866C45.2773 9.33671 45.2773 9.38744 45.2773 9.43183V13.3446C45.2773 13.8265 45.6518 14.2134 46.1184 14.2134H46.1368C46.6033 14.2134 46.9778 13.8265 46.9778 13.3446V9.55866H46.9839C46.9839 8.60743 47.7328 7.83377 48.6536 7.83377C49.5745 7.83377 50.3234 8.60743 50.3234 9.55866H50.3295V12.7548C50.3295 13.2368 50.704 13.6236 51.1705 13.6236H51.1889C51.6555 13.6236 52.03 13.2368 52.03 12.7548V9.55232C52.0361 8.60109 52.7789 7.84011 53.6997 7.84011C54.6205 7.84011 55.3694 8.61378 55.3694 9.56501H55.3756V13.3572C55.3756 13.8329 55.75 14.2134 56.2043 14.2134H56.2227C56.6831 14.2134 57.0514 13.8265 57.0514 13.3572V9.48891C57.0146 9.44452 57.0146 9.42549 57.0146 9.40013Z" fill="white"/>
<path d="M53.8425 14.5485C53.8057 14.4851 53.6829 14.6119 53.6829 14.6119C53.2163 15.132 52.2526 15.4681 51.252 15.4681C50.2513 15.4681 49.2937 15.132 48.821 14.6119C48.821 14.6119 48.6982 14.4788 48.6614 14.5485C48.6123 14.6246 48.686 14.7451 48.686 14.7451C49.2814 15.6329 50.19 16.0325 51.252 16.0325C52.314 16.0325 53.2225 15.6329 53.8179 14.7451C53.8241 14.7451 53.8916 14.6246 53.8425 14.5485Z" fill="white"/>
</svg>
