<svg width="101" height="24" viewBox="0 0 101 24" fill="none" xmlns="http://www.w3.org/2000/svg">
<path d="M7.97559 15C7.59798 15 7.29036 14.9056 7.05273 14.7168C7.04622 15.332 6.91276 15.848 6.65234 16.2646C6.39518 16.6846 6.04036 17.002 5.58789 17.2168C5.13542 17.4316 4.61296 17.5391 4.02051 17.5391C3.05697 17.5391 2.30827 17.2982 1.77441 16.8164C1.24382 16.3346 0.978516 15.638 0.978516 14.7266C0.978516 14.043 1.125 13.3447 1.41797 12.6318L2.1748 12.9395C1.93717 13.5645 1.81836 14.152 1.81836 14.7021C1.81836 15.3662 1.99577 15.8594 2.35059 16.1816C2.70866 16.5072 3.26042 16.6699 4.00586 16.6699C4.73503 16.6699 5.29004 16.4909 5.6709 16.1328C6.05176 15.778 6.24382 15.2376 6.24707 14.5117C6.24707 13.9193 6.10059 13.3187 5.80762 12.71L6.63281 12.4268L6.9209 13.3203C7.00553 13.5872 7.13249 13.7874 7.30176 13.9209C7.47428 14.0511 7.70215 14.1178 7.98535 14.1211C8.30762 14.1211 8.53874 14.0332 8.67871 13.8574C8.81868 13.6816 8.88867 13.4294 8.88867 13.1006C8.88867 13.0225 8.88379 12.9118 8.87402 12.7686C8.86751 12.6221 8.85612 12.443 8.83984 12.2314L9.64551 12.1338L9.72363 13.2373C9.73991 13.4847 9.8099 13.6947 9.93359 13.8672C10.0573 14.0365 10.2461 14.1211 10.5 14.1211C10.9525 14.1211 11.1787 13.7842 11.1787 13.1104C11.1787 12.9997 11.1738 12.863 11.1641 12.7002C11.1576 12.5374 11.1462 12.347 11.1299 12.1289L11.9355 12.0312L12.0137 13.2373C12.0527 13.8265 12.3538 14.1211 12.917 14.1211H13.0635V15H12.9268C12.6077 15 12.3376 14.943 12.1162 14.8291C11.8981 14.7152 11.7467 14.5394 11.6621 14.3018C11.5384 14.5394 11.3838 14.7152 11.1982 14.8291C11.016 14.943 10.7848 15 10.5049 15C9.94499 15 9.54948 14.7673 9.31836 14.3018C8.97982 14.7673 8.53223 15 7.97559 15ZM14.0205 10.1953C14.3298 10.4427 14.6471 10.6999 14.9727 10.9668C15.3014 11.2337 15.6042 11.5234 15.8809 11.8359C16.1576 12.1484 16.3724 12.5 16.5254 12.8906C16.6849 13.2943 16.8786 13.6003 17.1064 13.8086C17.3376 14.0169 17.6159 14.1211 17.9414 14.1211H18.083V15H17.9414C17.5833 15 17.2627 14.9268 16.9795 14.7803C16.6995 14.6305 16.4521 14.4124 16.2373 14.126C16.0485 14.4157 15.7637 14.6338 15.3828 14.7803C15.0052 14.9268 14.4714 15 13.7812 15H12.873V14.1211H13.7764C14.4469 14.1211 14.9287 14.0544 15.2217 13.9209C15.5146 13.7842 15.6611 13.5596 15.6611 13.2471C15.6611 13.0713 15.5944 12.8874 15.4609 12.6953C15.3275 12.5 15.1517 12.2982 14.9336 12.0898C14.7155 11.8783 14.4746 11.6634 14.2109 11.4453C13.9473 11.224 13.6852 11.001 13.4248 10.7764C13.2588 10.6364 13.1758 10.4443 13.1758 10.2002C13.1758 10.057 13.2148 9.91699 13.293 9.78027C13.3743 9.6403 13.5046 9.53613 13.6836 9.46777L17.3164 8.11523V8.97461L14.0205 10.1953ZM21.833 15H21.7158C21.3773 15 21.1038 14.9414 20.8955 14.8242C20.6872 14.7038 20.5212 14.5296 20.3975 14.3018C20.2314 14.5329 19.9954 14.707 19.6895 14.8242C19.3867 14.9414 19.0303 15 18.6201 15H17.8926V14.1211H18.6299C19.1149 14.1211 19.4567 14.0511 19.6553 13.9111C19.8538 13.7679 19.9548 13.501 19.958 13.1104C19.958 12.9508 19.9531 12.7848 19.9434 12.6123C19.9368 12.4398 19.9287 12.277 19.9189 12.124L20.7197 12.0312L20.7979 13.2373C20.8369 13.8265 21.1462 14.1211 21.7256 14.1211H21.833V15ZM19.6309 10.3271L20.3145 9.64355L21.0029 10.3271L20.3145 11.0205L19.6309 10.3271ZM18.0098 10.3271L18.6934 9.64355L19.3818 10.3271L18.6934 11.0205L18.0098 10.3271ZM25.583 15H25.4658C25.1273 15 24.8538 14.9414 24.6455 14.8242C24.4372 14.7038 24.2712 14.5296 24.1475 14.3018C23.9814 14.5329 23.7454 14.707 23.4395 14.8242C23.1367 14.9414 22.7803 15 22.3701 15H21.6426V14.1211H22.3799C22.8649 14.1211 23.2067 14.0511 23.4053 13.9111C23.6038 13.7679 23.7048 13.501 23.708 13.1104C23.708 12.9508 23.7031 12.7848 23.6934 12.6123C23.6868 12.4398 23.6787 12.277 23.6689 12.124L24.4697 12.0312L24.5479 13.2373C24.5869 13.8265 24.8962 14.1211 25.4756 14.1211H25.583V15ZM23.0439 16.4795L23.7275 15.7959L24.416 16.4795L23.7275 17.1729L23.0439 16.4795ZM21.4229 16.4795L22.1064 15.7959L22.7949 16.4795L22.1064 17.1729L21.4229 16.4795ZM27.9023 12.9688C27.9023 13.623 27.7412 14.126 27.4189 14.4775C27.0967 14.8258 26.6149 15 25.9736 15H25.3926V14.1211H25.9736C26.3512 14.1211 26.6279 14.0348 26.8037 13.8623C26.9795 13.6865 27.0674 13.3936 27.0674 12.9834C27.0674 12.7913 27.0511 12.57 27.0186 12.3193C26.986 12.0654 26.9421 11.8229 26.8867 11.5918L27.6875 11.3965C27.7624 11.6504 27.8161 11.9173 27.8486 12.1973C27.8844 12.474 27.9023 12.7311 27.9023 12.9688ZM25.7783 16.4795L26.4912 15.7715L27.2041 16.4795L26.4912 17.1924L25.7783 16.4795ZM30.4658 11.5234C30.9769 11.5234 31.3757 11.7367 31.6621 12.1631C31.9518 12.5863 32.126 13.2389 32.1846 14.1211H32.7559V15H32.126C32.0023 15.6673 31.6979 16.2305 31.2129 16.6895C30.7279 17.1517 30.0573 17.4642 29.2012 17.627L28.9082 16.875C29.6113 16.7415 30.1647 16.5072 30.5684 16.1719C30.972 15.8366 31.234 15.446 31.3545 15H30.6367C29.4518 15 28.8594 14.5182 28.8594 13.5547C28.8594 13.2324 28.9163 12.9167 29.0303 12.6074C29.1475 12.2949 29.3249 12.0361 29.5625 11.8311C29.8001 11.626 30.1012 11.5234 30.4658 11.5234ZM31.3887 14.1211C31.3529 13.5254 31.2552 13.0876 31.0957 12.8076C30.9362 12.5277 30.7116 12.3877 30.4219 12.3877C30.2266 12.3877 30.0736 12.4544 29.9629 12.5879C29.8522 12.7214 29.7741 12.8776 29.7285 13.0566C29.6862 13.2324 29.665 13.3903 29.665 13.5303C29.665 13.7419 29.7367 13.8932 29.8799 13.9844C30.0231 14.0755 30.2591 14.1211 30.5879 14.1211H31.3887ZM35.0703 12.9688C35.0703 13.623 34.9092 14.126 34.5869 14.4775C34.2646 14.8258 33.7829 15 33.1416 15H32.5605V14.1211H33.1416C33.5192 14.1211 33.7959 14.0348 33.9717 13.8623C34.1475 13.6865 34.2354 13.3936 34.2354 12.9834C34.2354 12.7913 34.2191 12.57 34.1865 12.3193C34.154 12.0654 34.11 11.8229 34.0547 11.5918L34.8555 11.3965C34.9303 11.6504 34.984 11.9173 35.0166 12.1973C35.0524 12.474 35.0703 12.7311 35.0703 12.9688ZM33.2734 9.92188L33.9863 9.21387L34.6992 9.92188L33.9863 10.6348L33.2734 9.92188ZM39.4746 10.7422L40.1875 10.0342L40.9004 10.7422L40.1875 11.4551L39.4746 10.7422ZM40.7734 12.4268C40.9167 12.7555 41.0192 13.0924 41.0811 13.4375C41.1429 13.7793 41.1738 14.1162 41.1738 14.4482C41.1738 14.9235 41.0811 15.3776 40.8955 15.8105C40.7132 16.2467 40.4251 16.626 40.0312 16.9482C39.6374 17.2705 39.1247 17.5033 38.4932 17.6465L38.1367 16.9238C38.9277 16.7318 39.4958 16.4193 39.8408 15.9863C40.1891 15.5534 40.3633 15.0667 40.3633 14.5264C40.3633 14.2432 40.3324 13.9486 40.2705 13.6426C40.2119 13.3366 40.1159 13.0257 39.9824 12.71L40.7734 12.4268ZM44.3232 15H44.2012C43.6055 15 43.1514 14.847 42.8389 14.541C42.5296 14.235 42.375 13.7288 42.375 13.0225V8.33008H43.2002V13.0273C43.2002 13.4408 43.2865 13.7272 43.459 13.8867C43.6315 14.043 43.8789 14.1211 44.2012 14.1211H44.3232V15ZM49.8604 14.1211C50.3128 14.1211 50.5391 13.7598 50.5391 13.0371C50.5391 12.6953 50.4674 12.2656 50.3242 11.748L51.125 11.5479C51.2031 11.7952 51.265 12.0361 51.3105 12.2705C51.3561 12.5016 51.3789 12.7327 51.3789 12.9639C51.3789 13.335 51.3301 13.6751 51.2324 13.9844C51.1348 14.2904 50.9753 14.5361 50.7539 14.7217C50.5326 14.904 50.2363 14.9967 49.8652 15C49.3053 15 48.9098 14.7673 48.6787 14.3018C48.3402 14.7673 47.8926 15 47.3359 15C46.6882 15 46.2585 14.7673 46.0469 14.3018C45.7767 14.7673 45.251 15 44.4697 15H44.1328V14.1211H44.4795C44.8766 14.1211 45.1729 14.0479 45.3682 13.9014C45.5635 13.7516 45.6611 13.4847 45.6611 13.1006C45.6611 13.016 45.6562 12.902 45.6465 12.7588C45.64 12.6156 45.6286 12.4398 45.6123 12.2314L46.418 12.1338L46.4961 13.2373C46.5156 13.4945 46.5954 13.7061 46.7354 13.8721C46.8753 14.0381 47.0788 14.1211 47.3457 14.1211C47.668 14.1211 47.8991 14.0332 48.0391 13.8574C48.179 13.6816 48.249 13.4294 48.249 13.1006C48.249 13.0225 48.2441 12.9118 48.2344 12.7686C48.2279 12.6221 48.2165 12.443 48.2002 12.2314L49.0059 12.1338L49.084 13.2373C49.1003 13.4847 49.1702 13.6947 49.2939 13.8672C49.4176 14.0365 49.6064 14.1211 49.8604 14.1211ZM52.3359 12.9883C52.3359 12.5098 52.5394 12.0866 52.9463 11.7188C53.3532 11.3509 53.9749 11.0384 54.8115 10.7812L54.7773 10.5615L55.5537 10.4004L55.9541 13.2764C55.9899 13.5433 56.0843 13.7516 56.2373 13.9014C56.3936 14.0479 56.6051 14.1211 56.8721 14.1211H57.0234V15H56.8525C56.4001 15 56.0452 14.9007 55.7881 14.7021C55.5342 14.5003 55.3649 14.2139 55.2803 13.8428C54.8831 14.1846 54.4437 14.3555 53.9619 14.3555C53.6657 14.3555 53.3939 14.3083 53.1465 14.2139C52.8991 14.1162 52.7021 13.9665 52.5557 13.7646C52.4092 13.5628 52.3359 13.304 52.3359 12.9883ZM54.9385 11.5674C54.3623 11.779 53.9261 11.9954 53.6299 12.2168C53.3337 12.4349 53.1855 12.6725 53.1855 12.9297C53.1855 13.3333 53.4346 13.5352 53.9326 13.5352C54.1149 13.5352 54.2939 13.4993 54.4697 13.4277C54.6455 13.3561 54.792 13.2552 54.9092 13.125C55.0264 12.9915 55.085 12.832 55.085 12.6465C55.085 12.5488 55.0785 12.4561 55.0654 12.3682L54.9385 11.5674ZM60.7686 15H60.6514C60.3128 15 60.0394 14.9414 59.8311 14.8242C59.6227 14.7038 59.4567 14.5296 59.333 14.3018C59.167 14.5329 58.931 14.707 58.625 14.8242C58.3223 14.9414 57.9658 15 57.5557 15H56.8281V14.1211H57.5654C58.0505 14.1211 58.3923 14.0511 58.5908 13.9111C58.7894 13.7679 58.8903 13.501 58.8936 13.1104C58.8936 12.9508 58.8887 12.7848 58.8789 12.6123C58.8724 12.4398 58.8643 12.277 58.8545 12.124L59.6553 12.0312L59.7334 13.2373C59.7725 13.8265 60.0817 14.1211 60.6611 14.1211H60.7686V15ZM58.2295 16.4795L58.9131 15.7959L59.6016 16.4795L58.9131 17.1729L58.2295 16.4795ZM56.6084 16.4795L57.292 15.7959L57.9805 16.4795L57.292 17.1729L56.6084 16.4795ZM64.1279 15H64.0107C63.682 15 63.4102 14.9414 63.1953 14.8242C62.9805 14.7038 62.8112 14.5296 62.6875 14.3018C62.5215 14.5296 62.3083 14.7038 62.0479 14.8242C61.7874 14.9414 61.4945 15 61.1689 15H60.5781V14.1211H61.1689C61.5596 14.1211 61.8379 14.0365 62.0039 13.8672C62.1699 13.6947 62.2529 13.4261 62.2529 13.0615C62.2529 12.9085 62.248 12.7523 62.2383 12.5928C62.2285 12.4333 62.2204 12.2786 62.2139 12.1289L63.0146 12.0312L63.0928 13.2324C63.1318 13.8249 63.4411 14.1211 64.0205 14.1211H64.1279V15ZM60.9639 16.4795L61.6768 15.7715L62.3896 16.4795L61.6768 17.1924L60.9639 16.4795ZM67.541 9.21875L68.1855 8.57422L68.835 9.21875L68.1855 9.86816L67.541 9.21875ZM68.3809 10.498L69.0254 9.85352L69.6748 10.498L69.0254 11.1475L68.3809 10.498ZM66.7207 10.498L67.3652 9.85352L68.0146 10.498L67.3652 11.1475L66.7207 10.498ZM69.665 14.1211C70.1175 14.1211 70.3438 13.7598 70.3438 13.0371C70.3438 12.6953 70.2721 12.2656 70.1289 11.748L70.9297 11.5479C71.0078 11.7952 71.0697 12.0361 71.1152 12.2705C71.1608 12.5016 71.1836 12.7327 71.1836 12.9639C71.1836 13.335 71.1348 13.6751 71.0371 13.9844C70.9395 14.2904 70.7799 14.5361 70.5586 14.7217C70.3372 14.904 70.041 14.9967 69.6699 15C69.11 15 68.7145 14.7673 68.4834 14.3018C68.1449 14.7673 67.6973 15 67.1406 15C66.4928 15 66.0632 14.7673 65.8516 14.3018C65.5814 14.7673 65.0557 15 64.2744 15H63.9375V14.1211H64.2842C64.6813 14.1211 64.9775 14.0479 65.1729 13.9014C65.3682 13.7516 65.4658 13.4847 65.4658 13.1006C65.4658 13.016 65.4609 12.902 65.4512 12.7588C65.4447 12.6156 65.4333 12.4398 65.417 12.2314L66.2227 12.1338L66.3008 13.2373C66.3203 13.4945 66.4001 13.7061 66.54 13.8721C66.68 14.0381 66.8835 14.1211 67.1504 14.1211C67.4727 14.1211 67.7038 14.0332 67.8438 13.8574C67.9837 13.6816 68.0537 13.4294 68.0537 13.1006C68.0537 13.0225 68.0488 12.9118 68.0391 12.7686C68.0326 12.6221 68.0212 12.443 68.0049 12.2314L68.8105 12.1338L68.8887 13.2373C68.9049 13.4847 68.9749 13.6947 69.0986 13.8672C69.2223 14.0365 69.4111 14.1211 69.665 14.1211Z" fill="#121212"/>
<path d="M88.1856 0.00344998C87.534 0.0203506 86.8849 0.090148 86.2446 0.212155C85.5437 0.345525 84.8564 0.542198 84.191 0.799752C83.9849 0.874066 83.7832 0.959867 83.5867 1.05675C83.5482 1.07285 83.5085 1.08722 83.4718 1.10447C82.7985 1.41649 82.155 1.78905 81.5492 2.21757C81.2196 2.45025 80.9022 2.69972 80.5983 2.965C79.9645 3.51878 79.3909 4.13799 78.8873 4.8123C78.4497 5.39595 78.0676 6.01922 77.746 6.67398C77.1548 7.87194 76.7662 9.15965 76.5962 10.4847C76.4768 11.4113 76.4685 12.3487 76.5715 13.2772C76.7154 14.6087 77.0828 15.9063 77.6581 17.1156C78.3732 18.6341 79.4007 19.9846 80.6736 21.0787C80.6943 21.1042 80.7228 21.1221 80.7546 21.1299C82.0881 17.5652 83.4212 13.9973 84.7538 10.4261C84.7952 10.4422 84.7987 10.4704 84.8113 10.4922C84.8556 10.5859 84.8987 10.6791 84.9418 10.7734C85.7533 12.553 86.5645 14.3327 87.3755 16.1123C87.433 16.2405 87.4508 16.2187 87.3111 16.2848C86.9179 16.4642 86.5244 16.6437 86.1308 16.8235C86.0992 16.8385 86.0566 16.8425 86.0417 16.8839C86.0451 16.887 86.0488 16.8899 86.0526 16.8925C86.3907 17.0201 86.7282 17.1495 87.0679 17.2725C87.1322 17.2847 87.1948 17.304 87.2548 17.33C87.3036 17.36 87.3557 17.3841 87.41 17.4019C87.5106 17.4387 87.613 17.4709 87.7119 17.5117C87.8999 17.5888 88.0913 17.6572 88.2828 17.7262C88.5099 17.8072 88.7375 17.886 88.9658 17.9648C89.0233 17.9849 89.0658 18.0332 89.1285 18.0378C89.1747 18.0641 89.2254 18.0814 89.278 18.089C89.3977 18.1473 89.5223 18.1948 89.6505 18.231C89.6546 18.2291 89.6591 18.228 89.6636 18.2278C89.6681 18.2277 89.6726 18.2284 89.6769 18.23C89.6811 18.2316 89.685 18.2341 89.6882 18.2372C89.6915 18.2403 89.6941 18.2441 89.6959 18.2482C89.8654 18.3203 90.0378 18.3851 90.2134 18.4426C90.2172 18.4484 90.2228 18.4528 90.2293 18.4552C90.2358 18.4576 90.2429 18.4578 90.2496 18.4558C90.2724 18.4723 90.2992 18.4826 90.3272 18.4857C90.3307 18.4918 90.3363 18.4965 90.3429 18.4989C90.3495 18.5013 90.3568 18.5013 90.3634 18.4989L90.9384 18.7191L90.9516 18.7036L84.5636 4.70824C84.5383 4.77206 84.521 4.8123 84.5061 4.8537C84.3985 5.14117 84.2939 5.42865 84.1829 5.71612C84.072 6.00359 83.9858 6.29739 83.8627 6.57854C83.8535 6.59629 83.8517 6.61693 83.8575 6.63603C83.8104 6.69353 83.8 6.7194 83.811 6.7746C83.7598 6.89246 83.7035 7.00917 83.658 7.12991C83.4238 7.75009 83.1914 8.37103 82.9607 8.99274C82.8399 9.31586 82.7163 9.63841 82.5979 9.96268C82.4467 10.3761 82.2817 10.7854 82.1431 11.2034C82.0718 11.4173 81.9856 11.6266 81.8999 11.8359C81.7746 12.1434 81.6648 12.4574 81.5481 12.769C81.4308 13.0833 81.3135 13.3976 81.1962 13.7119C81.0812 14.023 80.9662 14.3346 80.8466 14.6456C80.7282 14.9567 80.6167 15.2717 80.4971 15.5816C80.4396 15.7282 80.3942 15.8783 80.3413 16.0261C80.2487 16.2848 80.1446 16.5389 80.0573 16.7999C80.0486 16.8258 80.0463 16.8707 80.0049 16.8718C79.9647 16.8718 79.9618 16.8304 79.9475 16.8051C79.6874 16.3427 79.4649 15.8601 79.2823 15.362C78.857 14.2011 78.6563 12.9699 78.6907 11.7341C78.7056 11.1527 78.7732 10.5739 78.8924 10.0046C79.1397 8.81062 79.6076 7.67324 80.2723 6.65098C80.5868 6.16586 80.9441 5.70983 81.3399 5.28836C82.039 4.5429 82.85 3.91093 83.7437 3.41518C83.9835 3.28237 84.2307 3.16451 84.4762 3.04377C84.502 3.04074 84.5268 3.03232 84.5492 3.01904C85.0867 2.78184 85.6448 2.59421 86.2165 2.45847C87.0305 2.26468 87.8659 2.17522 88.7025 2.19227C89.4356 2.20631 90.1647 2.30274 90.8763 2.47974C91.5783 2.65467 92.2588 2.90689 92.9052 3.23178C93.4536 3.50783 93.9747 3.83509 94.4615 4.20919C94.4771 4.22126 94.4926 4.23276 94.5092 4.24311C94.513 4.24629 94.5175 4.24845 94.5224 4.24938C94.5272 4.25031 94.5322 4.24998 94.5369 4.24842C94.5416 4.24686 94.5458 4.24413 94.5491 4.24048C94.5524 4.23683 94.5547 4.23239 94.5558 4.22758C94.5621 4.21321 94.5679 4.19769 94.5736 4.18274L95.3049 2.22389C95.3337 2.14743 95.3337 2.14628 95.2658 2.10028C94.8689 1.82879 94.4559 1.5815 94.0292 1.35975C93.1961 0.926786 92.3155 0.592033 91.4052 0.362217C90.792 0.206362 90.1671 0.100608 89.5367 0.0459968C89.1877 0.0160996 88.8381 0 88.488 0C88.3862 0 88.2845 -1.74588e-08 88.1827 0.00402461L88.1856 0.00344998ZM96.2082 2.90061C96.2041 2.90981 96.2013 2.91843 96.1978 2.92763C95.9793 3.51408 95.7591 4.10052 95.5418 4.68697C95.4743 4.85056 95.4157 5.01774 95.3665 5.18775C95.3458 5.27169 95.2934 5.347 95.2704 5.4321C95.2388 5.54709 95.1796 5.65345 95.1388 5.76614C94.9485 6.28877 94.7363 6.80449 94.5639 7.33459C94.5334 7.43061 94.4931 7.52318 94.4564 7.61689C94.3989 7.7635 94.335 7.90897 94.2798 8.05673C93.8582 9.18707 93.4366 10.3178 93.015 11.4489C92.9155 11.7174 92.8075 11.983 92.7212 12.2538C92.6723 12.4096 92.6062 12.5603 92.5441 12.7138C92.4378 12.9696 92.3469 13.2312 92.2498 13.4928C92.2449 13.5183 92.231 13.5412 92.2107 13.5572C92.1986 13.5325 92.1883 13.513 92.1785 13.4928C92.0873 13.2935 91.996 13.094 91.9048 12.8943C91.1382 11.214 90.3717 9.53376 89.6051 7.85377C89.5539 7.74223 89.5355 7.75086 89.6626 7.69336C90.0654 7.51015 90.4679 7.32674 90.8699 7.14314C90.897 7.13106 90.9338 7.12876 90.947 7.08564L90.8653 7.05402L87.483 5.78914C87.0357 5.62164 86.5884 5.45471 86.1411 5.28836C86.1113 5.27686 86.0808 5.25099 86.044 5.27169C86.0498 5.3111 86.0637 5.34889 86.0848 5.38265C86.4332 6.14925 86.782 6.91584 87.1312 7.68244L88.9709 11.7186C89.7555 13.4403 90.5403 15.1615 91.3253 16.8822C91.6737 17.6457 92.0227 18.409 92.3722 19.1722C92.3832 19.1969 92.3843 19.2297 92.4297 19.2412C92.5807 18.8372 92.732 18.4332 92.8834 18.0292C93.0367 17.624 93.1879 17.2189 93.337 16.8137L93.7969 15.5891C93.9479 15.1843 94.0993 14.7792 94.2511 14.3737L94.7059 13.1588C94.8569 12.754 95.0081 12.3489 95.1595 11.9434C95.3105 11.5382 95.4619 11.1333 95.6137 10.7285C95.767 10.3211 95.9188 9.91361 96.069 9.50617C96.2202 9.10371 96.3691 8.69492 96.5238 8.29131C96.6773 7.88884 96.8176 7.48638 96.9774 7.08392C97.0029 7.10558 97.0227 7.13324 97.0349 7.16441C97.1608 7.38232 97.2758 7.60655 97.3799 7.83537C98.0027 9.16468 98.3171 10.6175 98.2997 12.0854C98.2935 12.7119 98.2279 13.3364 98.1037 13.9505C97.9583 14.6726 97.7305 15.3755 97.4247 16.0456C96.8213 17.3772 95.9263 18.5562 94.8059 19.4953C94.2397 19.9715 93.6216 20.3823 92.9633 20.7199C92.8603 20.7734 92.7517 20.8159 92.6539 20.8792C92.6416 20.8823 92.6295 20.8863 92.6177 20.8913C91.8843 21.2301 91.1119 21.4775 90.318 21.6278C89.604 21.7642 88.8769 21.8194 88.1505 21.7922C87.8085 21.7798 87.4673 21.75 87.1283 21.7031C86.5688 21.6246 86.0171 21.4979 85.4794 21.3242C84.4075 20.9792 83.4032 20.4515 82.5111 19.7644C82.4898 19.7477 82.4725 19.7201 82.4392 19.7241C82.421 19.7514 82.4076 19.7815 82.3995 19.8132C82.227 20.2439 82.0885 20.686 81.9137 21.1155C81.8286 21.3248 81.7539 21.5381 81.6757 21.7479C81.6446 21.8324 81.6251 21.8198 81.7211 21.8848C81.9118 22.0164 82.109 22.1383 82.3121 22.2499C82.6048 22.4062 82.8871 22.577 83.1814 22.7345C83.3717 22.8375 83.5712 22.922 83.7696 23.0065C84.8879 23.4835 86.0714 23.7901 87.2807 23.9161C87.3117 23.9195 87.3462 23.9126 87.3721 23.9385L88.1264 23.9776L88.5518 24C88.5475 23.9972 88.5444 23.9928 88.5433 23.9878C88.5421 23.9827 88.5429 23.9774 88.5455 23.973C88.6021 23.9768 88.6589 23.9753 88.7151 23.9684C88.7301 23.9494 88.745 23.9506 88.7605 23.9684C88.8232 23.9738 88.8864 23.9714 88.9485 23.9615C88.964 23.9425 88.979 23.9437 88.9939 23.9615C89.1607 23.9594 89.3273 23.9488 89.493 23.9299C89.5005 23.9161 89.5097 23.9143 89.52 23.927L89.6287 23.9172C89.6361 23.904 89.6453 23.9017 89.6563 23.9138L89.746 23.9046C89.7481 23.9017 89.7507 23.8992 89.7538 23.8974C89.7569 23.8955 89.7603 23.8943 89.7638 23.8938C89.7674 23.8934 89.771 23.8936 89.7744 23.8946C89.7779 23.8955 89.7811 23.8971 89.7839 23.8994L89.8627 23.8925C89.8648 23.8894 89.8676 23.8868 89.8708 23.8849C89.874 23.8829 89.8775 23.8816 89.8813 23.8811C89.885 23.8805 89.8888 23.8808 89.8924 23.8817C89.896 23.8827 89.8994 23.8844 89.9023 23.8867C89.9604 23.8852 90.0183 23.8777 90.0748 23.8643C90.0829 23.8499 90.0921 23.8476 90.1036 23.8603C90.126 23.8638 90.149 23.8606 90.1697 23.8511C90.1783 23.8379 90.1881 23.831 90.2007 23.8471C90.2235 23.8502 90.2468 23.8464 90.2674 23.8361C90.2766 23.8229 90.2864 23.8172 90.299 23.8321C90.3117 23.8321 90.3249 23.8321 90.3376 23.8321C90.7503 23.7676 91.1593 23.6809 91.5627 23.5722C92.0145 23.4533 92.4586 23.307 92.8925 23.1341C93.111 23.0467 93.3295 22.9616 93.5382 22.8507C93.683 22.7958 93.8234 22.7297 93.9579 22.6529C94.9688 22.1366 95.9006 21.4783 96.725 20.6981C97.4873 19.9794 98.1506 19.1625 98.6976 18.2689C99.3484 17.2074 99.8321 16.052 100.131 14.8434C100.254 14.3449 100.345 13.8393 100.406 13.3296C100.409 13.3037 100.39 13.26 100.443 13.256L100.5 12.1141C100.478 12.0992 100.481 12.075 100.48 12.0526C100.476 11.8801 100.474 11.7105 100.467 11.5403C100.445 10.9888 100.386 10.4394 100.289 9.89598C100.052 8.56129 99.5907 7.27644 98.9241 6.09616C98.2745 4.93928 97.4363 3.89907 96.4439 3.01847C96.3864 2.96902 96.3329 2.92016 96.2754 2.87243C96.2565 2.85634 96.2444 2.84771 96.2352 2.84771C96.2231 2.84771 96.2156 2.86209 96.2018 2.89313" fill="url(#paint0_linear_1997_60185)"/>
<defs>
<linearGradient id="paint0_linear_1997_60185" x1="82.567" y1="0.267506" x2="95.5907" y2="26.0056" gradientUnits="userSpaceOnUse">
<stop offset="0.1918" stop-color="#9F62FF"/>
<stop offset="0.4878" stop-color="#7344CB"/>
<stop offset="0.6593" stop-color="#5E35B1"/>
</linearGradient>
</defs>
</svg>
