<svg width="70" height="20" viewBox="0 0 70 20" fill="none" xmlns="http://www.w3.org/2000/svg">
<path d="M13.3274 14.3809L12.3312 12.4096C12.243 12.2347 12.1073 12.0877 11.9394 11.9848C11.7714 11.8819 11.5779 11.8273 11.3804 11.8271H0.928454C0.855626 11.8274 0.784066 11.846 0.720475 11.8811C0.656885 11.9163 0.603347 11.9668 0.564884 12.028C0.52642 12.0892 0.504289 12.159 0.500563 12.231C0.496838 12.303 0.511641 12.3747 0.543584 12.4395L1.21522 13.7313C1.3929 14.0702 1.66161 14.3541 1.9918 14.5517C2.32199 14.7493 2.70087 14.853 3.08676 14.8513H13.0255C13.0818 14.8517 13.1373 14.838 13.1868 14.8113C13.2362 14.7846 13.278 14.746 13.3082 14.6989C13.3384 14.6519 13.356 14.598 13.3593 14.5424C13.3627 14.4867 13.3517 14.4312 13.3274 14.3809Z" fill="black"/>
<path d="M7.81107 15.8818H6.24895C6.17618 15.8818 6.10628 15.9099 6.05413 15.9601C6.00198 16.0103 5.97169 16.0787 5.96973 16.1507V17.6441C5.97169 17.7161 6.00198 17.7844 6.05413 17.8346C6.10628 17.8848 6.17618 17.9129 6.24895 17.9129H7.81107C7.88384 17.9129 7.95374 17.8848 8.0059 17.8346C8.05805 17.7844 8.08833 17.7161 8.0903 17.6441V16.1507C8.08833 16.0787 8.05805 16.0103 8.0059 15.9601C7.95374 15.9099 7.88384 15.8818 7.81107 15.8818Z" fill="black"/>
<path d="M49.3848 11.8271H38.0046C37.9736 11.8279 37.9428 11.8212 37.915 11.8074C37.8872 11.7936 37.8633 11.7733 37.8454 11.7481C37.8275 11.723 37.8161 11.6939 37.8123 11.6634C37.8085 11.6329 37.8123 11.6019 37.8235 11.5732C38.0003 11.0767 38.0896 10.5539 38.0877 10.0275V8.48182C38.0877 8.38874 38.0503 8.29947 37.9838 8.23365C37.9172 8.16784 37.827 8.13086 37.733 8.13086H35.3181C35.224 8.13086 35.1338 8.16784 35.0673 8.23365C35.0008 8.29947 34.9634 8.38874 34.9634 8.48182V10.0499C34.9594 10.5226 34.7668 10.9746 34.4276 11.3075C34.0884 11.6404 33.63 11.8271 33.1522 11.8271H32.1033C32.0731 11.8275 32.0433 11.8207 32.0163 11.8073C31.9894 11.7939 31.966 11.7744 31.9483 11.7502C31.9306 11.7261 31.9189 11.6981 31.9144 11.6686C31.9098 11.6391 31.9125 11.609 31.9221 11.5807C32.0905 11.1003 32.1772 10.5957 32.1787 10.0873V8.51915C32.1787 8.47243 32.1693 8.42617 32.151 8.3831C32.1327 8.34002 32.1059 8.301 32.0722 8.26831C32.0385 8.23562 31.9985 8.20993 31.9545 8.19274C31.9106 8.17554 31.8637 8.1672 31.8165 8.1682H29.379C29.2842 8.16818 29.1932 8.20491 29.1255 8.27052C29.0578 8.33613 29.0187 8.42539 29.0167 8.51915V10.0649C29.0158 10.3005 28.9676 10.5336 28.8751 10.7507C28.7826 10.9679 28.6476 11.1647 28.4778 11.3299C28.308 11.4952 28.1069 11.6255 27.8859 11.7134C27.665 11.8013 27.4286 11.845 27.1905 11.842H20.1873C19.9898 11.8422 19.7963 11.8968 19.6283 11.9997C19.4604 12.1025 19.3247 12.2496 19.2365 12.4245L18.2403 14.3958C18.216 14.4461 18.205 14.5016 18.2084 14.5572C18.2117 14.6129 18.2293 14.6667 18.2595 14.7138C18.2897 14.7608 18.3315 14.7995 18.3809 14.8262C18.4304 14.8528 18.4859 14.8666 18.5422 14.8662H27.2056C27.9383 14.8688 28.6627 14.7123 29.3276 14.4078C29.9926 14.1034 30.582 13.6583 31.0543 13.104L31.7486 14.4779C31.8048 14.5885 31.8911 14.6813 31.9978 14.746C32.1044 14.8106 32.2272 14.8445 32.3523 14.8438H33.107C33.8814 14.8473 34.6459 14.6723 35.3402 14.3328C36.0344 13.9932 36.6392 13.4984 37.1066 12.8874L37.816 14.4705C37.8684 14.5878 37.954 14.6875 38.0625 14.7578C38.1709 14.828 38.2976 14.8657 38.4272 14.8662H47.2265C47.6139 14.8661 47.9939 14.7609 48.3251 14.5621C48.6564 14.3633 48.9263 14.0785 49.1056 13.7387L49.7546 12.4394C49.7882 12.376 49.8047 12.3051 49.8027 12.2336C49.8007 12.162 49.7802 12.0922 49.743 12.0307C49.7059 11.9693 49.6535 11.9183 49.5908 11.8826C49.5281 11.847 49.4571 11.8279 49.3848 11.8271Z" fill="black"/>
<path d="M36.457 15.8818H32.246C32.1733 15.8818 32.1034 15.9099 32.0512 15.9601C31.999 16.0103 31.9688 16.0787 31.9668 16.1507V17.6441C31.9688 17.7161 31.999 17.7844 32.0512 17.8346C32.1034 17.8848 32.1733 17.9129 32.246 17.9129H36.457C36.5297 17.9129 36.5996 17.8848 36.6518 17.8346C36.7039 17.7844 36.7342 17.7161 36.7362 17.6441V16.1507C36.7342 16.0787 36.7039 16.0103 36.6518 15.9601C36.5996 15.9099 36.5297 15.8818 36.457 15.8818Z" fill="black"/>
<path d="M13.2817 15.8818H9.07072C8.99796 15.8818 8.92806 15.9099 8.87591 15.9601C8.82375 16.0103 8.79347 16.0787 8.7915 16.1507V17.6441C8.79347 17.7161 8.82375 17.7844 8.87591 17.8346C8.92806 17.8848 8.99796 17.9129 9.07072 17.9129H13.2817C13.3544 17.9129 13.4243 17.8848 13.4765 17.8346C13.5286 17.7844 13.5589 17.7161 13.5609 17.6441V16.1507C13.5589 16.0787 13.5286 16.0103 13.4765 15.9601C13.4243 15.9099 13.3544 15.8818 13.2817 15.8818Z" fill="black"/>
<path d="M26.0352 15.8819H24.4806C24.4443 15.8809 24.4082 15.8872 24.3744 15.9002C24.3405 15.9133 24.3097 15.9329 24.2836 15.958C24.2576 15.983 24.2369 16.013 24.2228 16.0461C24.2087 16.0792 24.2014 16.1148 24.2014 16.1508V17.6442C24.2014 17.6801 24.2087 17.7157 24.2228 17.7488C24.2369 17.7819 24.2576 17.8119 24.2836 17.837C24.3097 17.862 24.3405 17.8817 24.3744 17.8947C24.4082 17.9078 24.4443 17.914 24.4806 17.913H26.0352C26.0715 17.914 26.1077 17.9078 26.1415 17.8947C26.1753 17.8817 26.2062 17.862 26.2322 17.837C26.2583 17.8119 26.2789 17.7819 26.2931 17.7488C26.3072 17.7157 26.3145 17.6801 26.3144 17.6442V16.1508C26.3145 16.1148 26.3072 16.0792 26.2931 16.0461C26.2789 16.013 26.2583 15.983 26.2322 15.958C26.2062 15.9329 26.1753 15.9133 26.1415 15.9002C26.1077 15.8872 26.0715 15.8809 26.0352 15.8819Z" fill="black"/>
<path d="M17.0852 5.22656H14.4968C14.426 5.22654 14.358 5.25383 14.3073 5.30264C14.2566 5.35145 14.2271 5.41792 14.2251 5.48791V14.5605C14.2271 14.6384 14.2597 14.7125 14.3161 14.7669C14.3725 14.8213 14.4482 14.8517 14.527 14.8517H17.055C17.1331 14.8517 17.208 14.821 17.2632 14.7664C17.3183 14.7118 17.3494 14.6377 17.3494 14.5605V5.48791C17.3494 5.4186 17.3215 5.35212 17.272 5.30311C17.2225 5.2541 17.1553 5.22656 17.0852 5.22656Z" fill="black"/>
<path d="M64.847 8.69065C65.7125 9.46136 66.2965 10.4934 66.508 11.6264C66.7195 12.7594 66.5468 13.9298 66.0167 14.9556C68.8316 10.3036 67.7675 6.64465 67.7675 6.64465C61.6549 3.61299 58.2212 6.19662 58.2212 6.19662C60.6655 6.18888 63.026 7.0774 64.847 8.69065Z" fill="black"/>
<path d="M57.9272 9.69112C58.6957 8.82934 59.7334 8.24657 60.8752 8.0355C62.017 7.82442 63.1973 7.99716 64.2285 8.52625C59.5497 5.72607 55.8745 6.77893 55.8745 6.77893C52.8559 12.8647 55.4217 16.2771 55.4217 16.2771C55.4115 13.8519 56.3033 11.5077 57.9272 9.69112Z" fill="black"/>
<path d="M59.0136 16.4718C58.1486 15.7025 57.5643 14.6723 57.3515 13.5408C57.1386 12.4094 57.3091 11.2401 57.8364 10.2144C55.0366 14.8589 56.0932 18.5253 56.0932 18.5253C62.2058 21.557 65.6319 18.9733 65.6319 18.9733C63.189 18.9786 60.8309 18.0873 59.0136 16.4718Z" fill="black"/>
<path d="M68.4696 8.87061C68.4791 11.2971 67.5844 13.6418 65.9566 15.4566C65.1893 16.3178 64.1529 16.9003 63.0124 17.1114C61.872 17.3225 60.6929 17.15 59.6628 16.6215C64.3341 19.4217 68.0168 18.3613 68.0168 18.3613C71.0656 12.2831 68.4696 8.87061 68.4696 8.87061Z" fill="black"/>
<path d="M66.2963 -0.000488281C61.9269 0.0816503 61.6401 3.86003 61.6401 3.86003C66.0322 4.22592 66.2963 -0.000488281 66.2963 -0.000488281Z" fill="black"/>
</svg>
