<svg width="70" height="20" viewBox="0 0 70 20" fill="none" xmlns="http://www.w3.org/2000/svg">
<path d="M24.1814 12.6767C24.4624 12.6767 24.737 12.7586 24.9707 12.9121C25.2043 13.0656 25.3864 13.2838 25.4939 13.539C25.6014 13.7943 25.6295 14.0752 25.5747 14.3461C25.5199 14.6171 25.3846 14.866 25.1859 15.0614C24.9873 15.2567 24.7341 15.3898 24.4586 15.4437C24.183 15.4976 23.8974 15.4699 23.6378 15.3642C23.3782 15.2585 23.1563 15.0794 23.0002 14.8497C22.8441 14.62 22.7608 14.3499 22.7608 14.0736C22.7608 13.7031 22.9105 13.3478 23.1769 13.0858C23.4433 12.8239 23.8047 12.6767 24.1814 12.6767ZM27.8892 12.6767C28.266 12.6767 28.6273 12.8239 28.8937 13.0858C29.1601 13.3478 29.3098 13.7031 29.3098 14.0736C29.3098 14.3499 29.2265 14.62 29.0704 14.8497C28.9143 15.0794 28.6924 15.2585 28.4328 15.3642C28.1732 15.4699 27.8876 15.4976 27.612 15.4437C27.3365 15.3898 27.0833 15.2567 26.8847 15.0614C26.686 14.866 26.5507 14.6171 26.4959 14.3461C26.4411 14.0752 26.4692 13.7943 26.5767 13.539C26.6842 13.2838 26.8663 13.0656 27.0999 12.9121C27.3336 12.7586 27.6082 12.6767 27.8892 12.6767ZM30.7304 12.6767C31.0114 12.6767 31.286 12.7586 31.5196 12.9121C31.7532 13.0656 31.9353 13.2838 32.0429 13.539C32.1504 13.7943 32.1785 14.0752 32.1237 14.3461C32.0689 14.6171 31.9336 14.866 31.7349 15.0614C31.5362 15.2567 31.2831 15.3898 31.0075 15.4437C30.732 15.4976 30.4463 15.4699 30.1867 15.3642C29.9272 15.2585 29.7053 15.0794 29.5492 14.8497C29.3931 14.62 29.3098 14.3499 29.3098 14.0736C29.3098 13.7031 29.4595 13.3478 29.7259 13.0858C29.9923 12.8239 30.3536 12.6767 30.7304 12.6767ZM14.7984 12.6767C15.1751 12.6767 15.5365 12.8239 15.8029 13.0858C16.0693 13.3478 16.219 13.7031 16.219 14.0736C16.219 14.3499 16.1356 14.62 15.9795 14.8497C15.8234 15.0794 15.6016 15.2585 15.342 15.3642C15.0824 15.4699 14.7968 15.4976 14.5212 15.4437C14.2456 15.3898 13.9925 15.2567 13.7938 15.0614C13.5952 14.866 13.4599 14.6171 13.405 14.3461C13.3502 14.0752 13.3784 13.7943 13.4859 13.539C13.5934 13.2838 13.7755 13.0656 14.0091 12.9121C14.2427 12.7586 14.5174 12.6767 14.7984 12.6767ZM11.9571 12.6767C12.3339 12.6767 12.6952 12.8239 12.9617 13.0858C13.2281 13.3478 13.3777 13.7031 13.3777 14.0736C13.3777 14.3499 13.2944 14.62 13.1383 14.8497C12.9822 15.0794 12.7604 15.2585 12.5008 15.3642C12.2412 15.4699 11.9556 15.4976 11.68 15.4437C11.4044 15.3898 11.1513 15.2567 10.9526 15.0614C10.754 14.866 10.6187 14.6171 10.5638 14.3461C10.509 14.0752 10.5372 13.7943 10.6447 13.539C10.7522 13.2838 10.9343 13.0656 11.1679 12.9121C11.4015 12.7586 11.6762 12.6767 11.9571 12.6767ZM17.6396 12.6767C17.9205 12.6767 18.1952 12.7586 18.4288 12.9121C18.6624 13.0656 18.8445 13.2838 18.952 13.539C19.0595 13.7943 19.0877 14.0752 19.0329 14.3461C18.978 14.6171 18.8427 14.866 18.6441 15.0614C18.4454 15.2567 18.1923 15.3898 17.9167 15.4437C17.6411 15.4976 17.3555 15.4699 17.0959 15.3642C16.8363 15.2585 16.6145 15.0794 16.4584 14.8497C16.3023 14.62 16.219 14.3499 16.219 14.0736C16.2189 13.7043 16.3676 13.3501 16.6325 13.0883C16.8974 12.8265 17.2569 12.6785 17.6324 12.6767H17.6396ZM25.2682 4.19741C25.3555 4.19739 25.4394 4.23102 25.5018 4.29108C25.5642 4.35114 25.6002 4.43286 25.602 4.5187V10.4207V10.4556C25.5934 10.8094 25.4485 11.1467 25.1967 11.3996C24.9449 11.6524 24.6049 11.8018 24.2453 11.8176H23.0876C23.0015 11.8158 22.9194 11.7814 22.8585 11.7215C22.7976 11.6616 22.7626 11.581 22.7608 11.4963V4.51172C22.7626 4.42707 22.7976 4.34638 22.8585 4.28651C22.9194 4.22664 23.0015 4.19221 23.0876 4.19043L25.2682 4.19741ZM28.983 4.19741C29.0691 4.1992 29.1512 4.23362 29.2121 4.29349C29.273 4.35336 29.308 4.43405 29.3098 4.5187V8.70946C29.3116 8.7953 29.3476 8.87702 29.41 8.93708C29.4725 8.99714 29.5563 9.03077 29.6436 9.03075H47.5361C47.5796 9.02982 47.6229 9.03744 47.6633 9.05317C47.7038 9.0689 47.7406 9.09242 47.7717 9.12234C47.8028 9.15227 47.8275 9.18801 47.8444 9.22745C47.8613 9.26689 47.87 9.30925 47.8699 9.35204V10.4137V10.4556C47.8614 10.8082 47.7175 11.1446 47.4672 11.3973C47.2169 11.6499 46.8786 11.8001 46.5204 11.8176H26.6888C26.6602 11.8176 26.6319 11.812 26.6056 11.801C26.5792 11.79 26.5554 11.774 26.5355 11.7538C26.5156 11.7336 26.5001 11.7096 26.4898 11.6834C26.4795 11.6572 26.4747 11.6292 26.4757 11.6011V4.53267C26.4757 4.44746 26.5101 4.36574 26.5714 4.30549C26.6327 4.24523 26.7158 4.21138 26.8024 4.21138L28.983 4.19741ZM5.09564 4.19741C6.11878 4.20354 7.11068 4.54471 7.91462 5.16702C8.71857 5.78934 9.28873 6.65732 9.53502 7.63383C9.76232 8.52087 9.74811 9.03075 10.5152 9.03075H18.8044C18.8604 9.029 18.9136 9.00636 18.9532 8.96744C18.9927 8.92851 19.0158 8.87623 19.0175 8.82121C19.0175 8.61167 19.0175 8.47896 19.0175 8.42309V8.38118C19.0175 8.01069 18.8679 7.65538 18.6014 7.39341C18.335 7.13144 17.9737 6.98426 17.5969 6.98426H13.9105C13.5008 6.99705 13.0931 6.92252 12.7155 6.76579C12.3379 6.60906 11.9992 6.37383 11.7227 6.07627C11.4769 5.62619 11.3384 5.12699 11.3179 4.61649V4.56061C11.312 4.47648 11.34 4.39344 11.3958 4.32941C11.4516 4.26539 11.5308 4.2255 11.6162 4.21837H17.5188C18.5698 4.13476 19.6186 4.40306 20.495 4.97969C20.95 5.36134 21.3134 5.83737 21.559 6.37358C21.8046 6.90979 21.9264 7.49284 21.9156 8.08084C21.9156 8.74438 21.9156 9.85493 21.9156 11.4195V11.5033C21.9137 11.5879 21.8787 11.6686 21.8179 11.7285C21.757 11.7884 21.6749 11.8228 21.5888 11.8246H9.66998C8.9038 11.8063 8.17585 11.4917 7.64398 10.9491C7.11211 10.4065 6.8192 9.67955 6.82878 8.92598V8.49992C6.81811 8.2872 6.76397 8.07877 6.66958 7.88707C6.57519 7.69538 6.4425 7.52435 6.27941 7.38419C6.11633 7.24404 5.9262 7.13763 5.72038 7.07132C5.51455 7.005 5.29725 6.98015 5.08144 6.99823C4.8651 6.98406 4.64807 7.01238 4.44298 7.08152C4.23789 7.15067 4.04884 7.25928 3.88687 7.401C3.7249 7.54272 3.59323 7.71472 3.49954 7.90699C3.40586 8.09926 3.35203 8.30794 3.3412 8.52087V8.92598C3.3412 11.3915 2.02715 11.8246 0.826738 11.8246C0.514205 11.8246 0.5 11.7268 0.5 11.4404V8.64659C0.520472 7.46079 1.01345 6.33027 1.8729 5.49822C2.73234 4.66617 3.88957 4.19907 5.09564 4.19741Z" fill="black"/>
<path d="M66.3448 6.35815C67.9515 7.50806 69.0374 9.2301 69.3707 11.1566C69.5732 12.2108 69.5376 13.296 69.2663 14.3352C68.995 15.3744 68.4948 16.3423 67.8009 17.1703L67.7512 17.2331C67.6857 17.313 67.5909 17.3643 67.4872 17.376C67.3836 17.3878 67.2794 17.3591 67.1971 17.296C67.1674 17.269 67.1411 17.2385 67.119 17.2052C66.4345 16.2899 65.8911 15.2802 65.5066 14.2088C65.3601 13.5384 65.2839 12.855 65.2793 12.1693C65.2416 11.5967 65.0552 11.0431 64.7382 10.5614C64.4211 10.0797 63.9838 9.68581 63.4681 9.4174C63.037 9.18866 62.562 9.05137 62.0737 9.01441C61.5853 8.97745 61.0945 9.04164 60.633 9.20283C60.1714 9.36402 59.7494 9.61862 59.3942 9.95019C59.0389 10.2818 58.7584 10.6829 58.5706 11.1278C58.3829 11.5726 58.2921 12.0512 58.3042 12.5327C58.3163 13.0142 58.431 13.4878 58.6408 13.923C58.8507 14.3582 59.151 14.7452 59.5225 15.0591C59.894 15.373 60.3283 15.6068 60.7973 15.7454C61.6755 15.9841 62.6127 15.892 63.4254 15.487C63.5141 15.4475 63.6143 15.4414 63.7073 15.4697C63.8002 15.498 63.8794 15.5588 63.9298 15.6407L65.6416 18.5462C65.6932 18.6343 65.7072 18.7388 65.6806 18.837C65.6539 18.9352 65.5888 19.019 65.4995 19.0701C63.759 19.9878 61.7338 20.2367 59.8171 19.7685C57.9173 19.2495 56.2848 18.048 55.2428 16.402C54.2954 14.8635 53.9354 13.0438 54.2271 11.2683C55.0297 5.82732 61.7989 2.97761 66.3448 6.35815ZM67.4599 0.0720239H67.5452C67.5963 0.0755251 67.6461 0.0890443 67.6918 0.111785C67.7374 0.134525 67.778 0.166026 67.8111 0.204431C67.8442 0.242836 67.8692 0.287368 67.8845 0.335402C67.8998 0.383436 67.9052 0.434 67.9003 0.484114C67.9077 0.523364 67.9077 0.563602 67.9003 0.602852C67.4839 1.65576 66.7376 2.55107 65.7694 3.15921C64.6652 3.7776 63.3852 4.02295 62.1256 3.85767H62.0404C61.9886 3.85422 61.9381 3.84049 61.8919 3.81732C61.8458 3.79414 61.8048 3.76199 61.7716 3.72282C61.7384 3.68365 61.7137 3.63827 61.6988 3.58941C61.684 3.54056 61.6793 3.48925 61.6852 3.43859C61.682 3.40374 61.682 3.36868 61.6852 3.33382C62.0837 2.28331 62.8128 1.38529 63.7664 0.770482C64.8822 0.134168 66.1817 -0.118932 67.4599 0.05107V0.0720239Z" fill="black"/>
</svg>
