<svg xmlns="http://www.w3.org/2000/svg" width="201" height="230" fill="none"><rect width="230" height="150" x="200.5" fill="#4B4B4B" rx="6" transform="rotate(90 200.5 0)"/><rect width="100" height="4" x="103.5" y="71" fill="#818181" rx="2" transform="rotate(90 103.5 71)"/><rect width="100" height="4" x="94.5" y="71" fill="#818181" rx="2" transform="rotate(90 94.5 71)"/><path fill="#fff" d="M77.822 211.609c0-.752.101-1.464.303-2.138a5.847 5.847 0 0 1 .889-1.812c.39-.534.804-.908 1.24-1.123l.234.693c-.459.349-.831.881-1.118 1.597-.283.713-.438 1.53-.464 2.451l-.005.42c0 .987.139 1.867.415 2.642.28.771.671 1.359 1.172 1.763l-.234.659c-.436-.215-.851-.591-1.245-1.128a5.922 5.922 0 0 1-.889-1.807 7.82 7.82 0 0 1-.298-2.217Zm3.242 1.651c.196.045.388.084.577.117.188.029.37.044.542.044.472 0 .85-.055 1.132-.166.284-.111.425-.298.425-.562 0-.078-.02-.182-.058-.312a2.895 2.895 0 0 0-.113-.318l-.82-2.065.938-.43 1.054 2.691c.16.407.313.703.46.888.146.186.322.279.527.279h.205v1.074h-.206c-.309 0-.579-.054-.81-.161-.228-.111-.428-.303-.6-.576-.225.244-.5.428-.826.551-.322.121-.734.181-1.235.181-.244 0-.46-.013-.65-.039a8.708 8.708 0 0 1-.541-.102v-1.094Zm8.228 1.24h-.117c-.612 0-1.056-.213-1.333-.64a1.662 1.662 0 0 1-.654.479 2.204 2.204 0 0 1-.855.161h-.59v-1.074h.59c.368 0 .623-.075.767-.225.146-.15.22-.395.22-.737 0-.163-.005-.332-.015-.508l-.03-.513.996-.117.084 1.304c.016.273.089.475.22.605.133.127.336.191.61.191h.107v1.074Zm-2.637-4.81.781-.776.782.776-.782.782-.78-.782Zm4.029 4.146a2.3 2.3 0 0 1-.645.493 1.615 1.615 0 0 1-.732.171h-.205v-1.074h.18a.762.762 0 0 0 .64-.327c.166-.222.31-.464.434-.728.222-.478.476-.841.762-1.089.29-.247.62-.371.991-.371.349 0 .645.077.889.23.244.149.44.351.586.605.15.251.257.527.322.83.062.3.152.516.269.65.117.133.255.2.415.2h.132v1.074h-.137c-.186 0-.361-.036-.527-.107a1.166 1.166 0 0 1-.435-.347c-.15.198-.324.342-.522.43a1.769 1.769 0 0 1-.713.131c-.32 0-.616-.065-.889-.195a3.522 3.522 0 0 1-.815-.576Zm.542-.918c.195.221.39.384.585.488.196.104.376.156.542.156.388 0 .582-.195.582-.585 0-.303-.074-.544-.22-.723a.714.714 0 0 0-.581-.269c-.183 0-.35.093-.503.279a3.035 3.035 0 0 0-.405.654Zm6.855-4.346.698-.698.703.698-.703.703-.698-.703Zm.84 1.28.698-.699.703.699-.703.703-.698-.703Zm-1.66 0 .698-.699.703.699-.703.703-.698-.703Zm2.998 3.574a.484.484 0 0 0 .425-.225c.104-.153.156-.407.156-.762 0-.172-.023-.379-.069-.62a6.918 6.918 0 0 0-.17-.737l.986-.249c.081.257.15.514.205.771.055.258.083.512.083.762 0 .378-.052.729-.156 1.055a1.62 1.62 0 0 1-.508.781c-.234.195-.55.295-.947.298-.547 0-.946-.212-1.197-.635-.345.423-.789.635-1.333.635-.621 0-1.054-.21-1.298-.63-.303.42-.826.63-1.568.63h-.337v-1.074h.347c.38 0 .656-.064.825-.191.173-.13.259-.374.259-.732 0-.078-.007-.208-.02-.391-.01-.182-.022-.371-.039-.566l1.001-.117.088 1.206c.016.241.087.433.21.576.124.143.305.215.542.215.293 0 .5-.075.62-.225.124-.153.186-.386.186-.698 0-.072-.007-.199-.02-.381-.01-.185-.02-.378-.034-.576l.996-.117.088 1.206c.016.237.078.429.186.576.107.143.271.215.493.215Zm6.269 1.074v-1.074h.406v1.074h-.406Zm-2.187-3.672c1.071 0 1.673.866 1.806 2.598h.484v1.074h-.552a3.04 3.04 0 0 1-.986 1.709c-.515.456-1.208.767-2.08.933l-.362-.938c.674-.127 1.213-.34 1.617-.64.403-.296.677-.651.82-1.064h-.576c-.609 0-1.074-.129-1.397-.386-.319-.257-.478-.643-.478-1.157 0-.247.034-.496.102-.747.069-.251.171-.48.308-.689.14-.208.317-.375.532-.502.215-.127.469-.191.762-.191Zm.815 2.598c-.042-.557-.136-.952-.283-1.187-.143-.234-.335-.351-.576-.351a.485.485 0 0 0-.396.18 1.13 1.13 0 0 0-.205.42 1.923 1.923 0 0 0-.058.445c0 .175.055.302.166.38.114.075.333.113.659.113h.693Zm4.497-3.794c.661.319 1.254.644 1.778.976.527.332.944.671 1.25 1.016.306.342.459.693.459 1.055 0 .586-.189 1.028-.567 1.328-.374.296-.856.444-1.445.444-.215 0-.443-.016-.684-.049a7.994 7.994 0 0 1-.683-.122 7.816 7.816 0 0 1-.557-.151 6.684 6.684 0 0 1-.952.264 5.439 5.439 0 0 1-1.05.107h-.464v-1.074h.406c.172 0 .322-.002.449-.005.13-.003.265-.013.405-.029-.342-.336-.513-.757-.513-1.265 0-.332.077-.62.23-.864.153-.244.356-.433.61-.567a1.96 1.96 0 0 1 .83-.229c.114 0 .218.01.313.029l-.23-.122.415-.742Zm.962 1.631a.99.99 0 0 1 .323.781 1.886 1.886 0 0 1-.562 1.367 5.338 5.338 0 0 0 .645.039c.712 0 1.069-.252 1.069-.757 0-.367-.492-.844-1.475-1.43Zm-1.323 1.86a1.24 1.24 0 0 0 .557-.425.998.998 0 0 0 .19-.556c0-.241-.067-.425-.2-.552-.134-.127-.314-.191-.542-.191-.244 0-.438.067-.581.201a.672.672 0 0 0-.21.517c0 .202.065.394.195.576.13.183.327.326.591.43Zm8.574-.557a5.323 5.323 0 0 0-.21.757 4.013 4.013 0 0 0-.078.786c0 .681.171 1.161.513 1.441.345.283.872.425 1.582.425.394 0 .763-.051 1.108-.152.349-.097.629-.226.84-.385.215-.16.322-.331.322-.513 0-.104-.053-.202-.161-.293-.107-.088-.288-.132-.542-.132h-.615c-.124 0-.213-.031-.269-.093a.573.573 0 0 1-.117-.244l-.117-.488c-.023-.098-.021-.163.005-.196.026-.035.081-.053.166-.053h2.983v1.074h-.459a1.045 1.045 0 0 1 .098.459c0 .407-.14.767-.42 1.079-.277.313-.659.557-1.147.733-.485.175-1.042.263-1.67.263-.987 0-1.755-.246-2.305-.737-.55-.492-.825-1.222-.825-2.193 0-.289.034-.613.102-.971.072-.358.17-.674.293-.947l.923.38Zm5.298 1.934v-1.074h.708v1.074h-.708Zm2.315-.645c-.17.212-.362.373-.577.484-.214.107-.519.161-.913.161h-.307v-1.074h.317c.368 0 .627-.075.776-.225.153-.153.23-.386.23-.698v-4.722h1.02v4.722c0 .322.062.557.186.703.127.147.355.22.684.22h.156v1.074h-.147c-.342 0-.623-.055-.844-.166a1.779 1.779 0 0 1-.581-.479Zm2.959-.019a2.242 2.242 0 0 1-.64.493 1.616 1.616 0 0 1-.733.171h-.21v-1.074h.186a.772.772 0 0 0 .635-.322c.166-.219.312-.463.439-.733.225-.482.48-.845.767-1.089.29-.247.618-.371.986-.371.371 0 .692.091.962.274.274.182.485.424.635.727.15.303.224.633.224.991 0 .528-.133.944-.4 1.25-.267.303-.649.454-1.147.454-.319 0-.616-.065-.889-.195a3.516 3.516 0 0 1-.815-.576Zm.541-.918c.196.221.391.384.586.488.196.104.376.156.542.156.388 0 .581-.195.581-.585 0-.303-.073-.544-.219-.723a.714.714 0 0 0-.581-.269c-.183 0-.35.093-.503.279a3.068 3.068 0 0 0-.406.654Zm10.489 1.582h-.659c-1.176 0-2.09-.203-2.745-.61-.651-.407-.976-1.024-.976-1.851 0-.244.029-.48.088-.708.058-.231.132-.449.22-.654l.927.342a2.91 2.91 0 0 0-.136.454 2.394 2.394 0 0 0-.049.478c.003.495.216.864.639 1.109.427.244 1.088.366 1.983.366h.674c.341 0 .664-.008.966-.025.306-.016.577-.06.811-.131.234-.072.418-.191.552-.357.133-.166.2-.399.2-.698 0-.143-.02-.334-.059-.571a9.665 9.665 0 0 0-.136-.723l.986-.239c.049.162.091.34.127.532.039.192.068.373.088.542.023.166.034.294.034.386 0 .514-.09.927-.269 1.24-.179.312-.429.55-.752.713a3.5 3.5 0 0 1-1.123.322c-.426.055-.89.083-1.391.083Zm-.313-4.346.738-.737.742.737-.742.747-.738-.747Zm-1.631 0 .738-.737.742.737-.742.747-.738-.747Zm7.725 1.553c.15.342.26.697.332 1.064.075.365.112.725.112 1.08 0 .504-.099.981-.297 1.43a3.061 3.061 0 0 1-.923 1.167c-.417.329-.954.567-1.612.713l-.444-.903c.791-.192 1.367-.492 1.729-.899.361-.403.542-.88.542-1.43 0-.603-.139-1.228-.416-1.875l.977-.347Zm3.496 2.793h-.122c-.618 0-1.094-.164-1.426-.493-.332-.329-.498-.856-.498-1.582v-4.644h1.021v4.649c0 .39.075.654.224.791.153.136.38.205.679.205h.122v1.074Zm3.555-1.836c-.003.622-.236 1.084-.698 1.387-.459.299-1.172.449-2.139.449h-.908v-1.074h.903c.677 0 1.144-.064 1.401-.191.258-.127.386-.322.386-.586 0-.205-.111-.434-.332-.688a7.603 7.603 0 0 0-.835-.815l-1.035-.894a.758.758 0 0 1-.215-.288 1 1 0 0 1-.068-.361c0-.173.047-.334.141-.484a.85.85 0 0 1 .43-.342l3.667-1.362v1.069l-3.101 1.143c.245.195.505.405.782.63.276.224.537.464.781.718.247.254.449.522.605.805.157.28.235.575.235.884Zm8.149-2.505.738-.737.742.737-.742.747-.738-.747Zm-1.631 0 .738-.737.742.737-.742.747-.738-.747Zm1.919 4.341h-.708c-1.175 0-2.09-.203-2.744-.61-.651-.407-.976-1.024-.976-1.851 0-.244.029-.48.087-.708.059-.231.132-.449.22-.654l.928.342a2.622 2.622 0 0 0-.186.947c.004.495.217.862.64 1.103.426.238 1.087.357 1.982.357h.733c1.25 0 2.039-.199 2.368-.596a.605.605 0 0 0 .103-.205c.029-.088.044-.199.044-.332a17.607 17.607 0 0 0-.04-.85l.982-.117.083 1.314c.016.273.088.473.215.6.127.124.329.186.605.186h.122v1.074h-.122c-.667 0-1.159-.272-1.474-.815-.297.276-.689.481-1.177.615a6.43 6.43 0 0 1-1.685.2Zm7.813-5.928.698-.698.703.698-.703.703-.698-.703Zm.84 1.28.698-.699.703.699-.703.703-.698-.703Zm-1.661 0 .699-.699.703.699-.703.703-.699-.703Zm2.999 3.574a.49.49 0 0 0 .429-.21c.101-.14.152-.375.152-.703 0-.108-.005-.259-.015-.454-.01-.199-.023-.404-.039-.616l1.001-.117.083 1.309c.036.527.304.791.806.791h.146v1.074h-.137c-.299 0-.56-.049-.781-.146a1 1 0 0 1-.488-.474c-.257.413-.642.62-1.153.62-.546 0-.945-.212-1.196-.635a1.642 1.642 0 0 1-1.333.635c-.625-.007-1.058-.216-1.299-.63-.299.42-.822.63-1.567.63H165v-1.074h.347c.381 0 .656-.064.825-.191.172-.13.259-.374.259-.732 0-.078-.007-.208-.02-.391-.01-.182-.021-.371-.034-.566l.996-.117.088 1.206c.019.241.089.433.21.576.12.143.301.215.542.215.293 0 .5-.075.62-.225.124-.15.186-.382.186-.698 0-.072-.007-.199-.02-.381a49.78 49.78 0 0 0-.034-.576l.996-.117.088 1.206c.016.237.078.429.185.576.108.143.272.215.494.215Zm3.759 2.383.699-.704.703.704-.703.698-.699-.698Zm-1.66 0 .698-.704.704.704-.704.698-.698-.698Zm.82 1.279.699-.703.703.703-.703.698-.699-.698Zm2.203-6.406c.078.267.138.551.18.854.043.3.064.578.064.835 0 .746-.189 1.288-.567 1.626-.374.335-.942.503-1.704.503h-.727v-1.074h.727c.316 0 .563-.025.742-.073a.572.572 0 0 0 .381-.298c.078-.15.117-.373.117-.669 0-.199-.019-.433-.058-.703a8.325 8.325 0 0 0-.142-.762l.987-.239Zm3.52 1.006c0 .722-.099 1.42-.298 2.094a5.875 5.875 0 0 1-.903 1.831c-.404.554-.825.936-1.265 1.148l-.234-.659c.488-.378.874-.954 1.157-1.729.287-.778.43-1.665.43-2.661v-.112c0-.905-.124-1.729-.371-2.471-.248-.746-.602-1.343-1.065-1.792l-.151-.137.234-.664c.417.202.821.56 1.211 1.074.391.515.69 1.091.899 1.729.208.635.325 1.291.351 1.968l.005.381Z"/><rect width="97" height="24" x=".5" y="3" fill="#D3BDFF" rx="12"/><path fill="#000" d="M6.806 16.1a5.649 5.649 0 0 0-.26.855c-.061.293-.092.55-.092.772 0 .625.148 1.072.444 1.342.3.27.78.406 1.44.406.593 0 1.036-.155 1.329-.464.296-.306.444-.786.444-1.44l.015-6.29h1.016l-.005 6.099c0 1.042-.236 1.828-.708 2.358-.469.534-1.167.801-2.095.801-.938 0-1.657-.236-2.158-.708-.502-.472-.752-1.173-.752-2.104 0-.287.039-.61.117-.967.081-.358.19-.705.327-1.04l.938.38Zm7.636 1.9h-.122c-.618 0-1.093-.164-1.425-.493-.332-.329-.498-.856-.498-1.582V11.28h1.02v4.649c0 .39.075.654.225.79.153.137.379.206.678.206h.122V18Zm2.564-3.818a6 6 0 0 1 .18.854c.043.3.064.578.064.835 0 .745-.189 1.287-.566 1.626-.375.335-.943.503-1.705.503h-.727v-1.074h.727c.316 0 .564-.025.743-.073a.569.569 0 0 0 .38-.298c.079-.15.118-.373.118-.67 0-.198-.02-.432-.059-.702a8.6 8.6 0 0 0-.142-.762l.987-.24Zm-1.402 5.298.738-.738.742.738-.742.747-.737-.747Zm-1.63 0 .737-.738.742.738-.742.747-.737-.747Zm6.86-1.68a3.3 3.3 0 0 1-.4 1.23 3.07 3.07 0 0 1-.918 1.001c-.397.287-.892.497-1.485.63l-.444-.903c.797-.195 1.375-.497 1.733-.903.358-.407.537-.89.537-1.45 0-.284-.035-.585-.107-.904a5.45 5.45 0 0 0-.308-.947l.987-.352.332 1.084c.081.238.179.404.293.498.117.095.28.142.488.142h.19V18h-.136c-.173 0-.324-.02-.454-.059a1.298 1.298 0 0 1-.308-.141Zm6.43-.874a.484.484 0 0 0 .425-.225c.105-.153.157-.407.157-.761 0-.173-.023-.38-.069-.62a6.85 6.85 0 0 0-.17-.738l.986-.249c.081.257.15.514.205.771a3.616 3.616 0 0 1-.073 1.817c-.101.322-.27.583-.508.781-.235.195-.55.295-.947.298-.547 0-.946-.212-1.197-.635-.345.423-.79.635-1.333.635-.621 0-1.054-.21-1.299-.63-.302.42-.825.63-1.567.63h-.337v-1.074h.347c.38 0 .656-.064.825-.19.172-.13.259-.375.259-.733 0-.078-.007-.208-.02-.39-.01-.183-.023-.372-.039-.567l1.001-.117.088 1.206c.016.24.086.433.21.576.124.143.304.215.542.215.293 0 .5-.075.62-.225.124-.153.186-.386.186-.698 0-.072-.007-.199-.02-.38-.01-.186-.021-.378-.034-.577l.996-.117.088 1.206c.016.237.078.43.186.576.107.143.271.215.493.215Zm6.417-3.662c.71.546 1.276 1.066 1.699 1.557.426.492.64.992.64 1.5 0 .507-.175.91-.523 1.21-.348.3-.797.45-1.348.45-.56 0-1.012-.14-1.357-.42-.342-.28-.513-.694-.513-1.24 0-.375.09-.714.269-1.016a7.2 7.2 0 0 1 .79-1.035l-.243-.22.586-.786Zm.405 1.699c-.28.257-.483.498-.61.723-.124.22-.186.424-.186.61a.6.6 0 0 0 .186.464c.127.11.35.166.669.166.325 0 .55-.05.673-.152.127-.1.19-.262.19-.483 0-.166-.074-.361-.224-.586-.146-.228-.38-.475-.698-.742Zm4.175.244c.15.342.26.697.332 1.064.075.365.112.725.112 1.08 0 .504-.1.981-.298 1.43-.198.45-.506.838-.923 1.167-.416.329-.953.567-1.611.713l-.444-.903c.79-.192 1.367-.492 1.728-.899.362-.403.542-.88.542-1.43 0-.602-.138-1.227-.415-1.875l.977-.347ZM41.757 18h-.122c-.619 0-1.094-.164-1.426-.493-.332-.329-.498-.856-.498-1.582V11.28h1.02v4.649c0 .39.075.654.225.79.153.137.38.206.679.206h.122V18Zm1.391-.664a2.3 2.3 0 0 1-.644.493c-.228.114-.472.171-.732.171h-.206v-1.074h.181c.264 0 .477-.11.64-.327.166-.222.31-.464.434-.728.222-.478.476-.841.762-1.089.29-.247.62-.37.991-.37.349 0 .645.076.889.229.244.15.44.351.586.605.15.25.257.527.322.83.062.3.151.516.269.65.117.133.255.2.415.2h.132V18h-.137c-.186 0-.361-.036-.527-.107a1.161 1.161 0 0 1-.435-.347c-.15.198-.324.342-.523.43a1.753 1.753 0 0 1-.712.131 2.04 2.04 0 0 1-.89-.195 3.55 3.55 0 0 1-.815-.576Zm.542-.918c.196.221.391.384.586.488.196.104.376.157.542.157.388 0 .581-.196.581-.586 0-.303-.073-.544-.22-.723a.714.714 0 0 0-.58-.269c-.183 0-.35.093-.503.279a3.057 3.057 0 0 0-.406.654Zm6.856-4.346.698-.698.703.698-.703.703-.698-.703Zm.84 1.28.698-.699.703.699-.703.703-.698-.703Zm-1.66 0 .698-.699.703.699-.703.703-.698-.703Zm2.998 3.574a.484.484 0 0 0 .424-.225c.105-.153.157-.407.157-.761 0-.173-.023-.38-.069-.62-.042-.245-.099-.49-.17-.738l.986-.249c.081.257.15.514.205.771a3.61 3.61 0 0 1-.073 1.817c-.101.322-.27.583-.508.781-.235.195-.55.295-.948.298-.546 0-.945-.212-1.196-.635-.345.423-.79.635-1.333.635-.621 0-1.054-.21-1.299-.63-.302.42-.825.63-1.567.63h-.337v-1.074h.347c.38 0 .656-.064.825-.19.172-.13.259-.375.259-.733 0-.078-.007-.208-.02-.39a19.21 19.21 0 0 0-.039-.567l1.001-.117.088 1.206c.016.24.086.433.21.576.124.143.304.215.542.215.293 0 .5-.075.62-.225.124-.153.186-.386.186-.698 0-.072-.007-.199-.02-.38-.01-.186-.021-.378-.034-.577l.996-.117.088 1.206c.016.237.078.43.185.576.108.143.272.215.494.215Zm8.413-1.724a18.181 18.181 0 0 0-.157-.063 13.938 13.938 0 0 0-.898-.347 1.33 1.33 0 0 0-.395-.093c-.166 0-.33.05-.494.152a1.52 1.52 0 0 0-.41.366l-.18.234-.904-.449.127-.215a2.51 2.51 0 0 1 .796-.835 1.923 1.923 0 0 1 1.07-.317c.218 0 .453.045.707.136.254.088.526.202.816.342.355.173.659.311.913.415.254.101.485.176.693.225.209.049.422.078.64.088l-.078 1.015a9.719 9.719 0 0 0-1.831.313c-.56.156-1.05.355-1.47.596-.42.237-.747.51-.981.815-.235.303-.352.63-.352.982 0 .57.202.997.605 1.284.407.286 1.04.43 1.9.43.368 0 .718-.032 1.05-.093.335-.059.665-.165.99-.318l.26 1.006a3.99 3.99 0 0 1-1.099.337c-.387.065-.81.098-1.27.098-.667 0-1.26-.095-1.777-.284-.517-.188-.924-.48-1.22-.874-.297-.393-.445-.896-.445-1.508 0-.782.29-1.478.87-2.09.582-.615 1.423-1.065 2.524-1.348Zm-.635 3.081.781-.776.782.776-.782.781-.781-.78Zm6.08-3.076c.149.342.26.697.331 1.064.075.365.112.725.112 1.08 0 .504-.099.981-.297 1.43-.199.45-.507.838-.923 1.167-.417.329-.954.567-1.612.713l-.444-.903c.791-.192 1.367-.492 1.729-.899.36-.403.541-.88.541-1.43 0-.602-.138-1.227-.415-1.875l.977-.347Zm1.205 1.567c.205.04.41.074.615.103.205.03.39.044.552.044.606 0 1.043-.07 1.314-.21.27-.14.405-.335.405-.586 0-.283-.18-.612-.537-.986-.358-.378-.866-.773-1.524-1.187l.586-.884c.808.482 1.43.975 1.87 1.48.44.504.66 1.025.66 1.562 0 .629-.232 1.099-.694 1.412-.462.312-1.134.468-2.016.468-.225 0-.44-.011-.645-.034a6.11 6.11 0 0 1-.586-.102v-1.08Zm8.726-.673a5.65 5.65 0 0 0-.26.854c-.06.293-.092.55-.092.772 0 .625.148 1.072.445 1.342.299.27.78.406 1.44.406.596 0 1.04-.155 1.333-.464.296-.306.444-.786.444-1.44l.01-6.29h1.016l-.005 4.702c0 .332.058.573.175.723.121.146.355.22.704.22h.151V18h-.142a1.56 1.56 0 0 1-.532-.073 1.406 1.406 0 0 1-.366-.225c-.04.921-.291 1.624-.757 2.11-.462.485-1.14.727-2.036.727-.938 0-1.657-.236-2.158-.708-.501-.469-.752-1.169-.752-2.1 0-.29.039-.613.117-.971.081-.358.19-.705.327-1.04l.938.38Zm11.44.014c-.15.017-.3.043-.45.078a3.182 3.182 0 0 0-.517.186c.02.182.127.319.323.41.195.091.496.137.903.137h.264V18h-.284c-.576 0-1.036-.091-1.381-.273-.342-.183-.556-.487-.64-.913-.596.322-1.2.6-1.812.834a5.228 5.228 0 0 1-1.894.352h-.781v-1.074h.796a4.6 4.6 0 0 0 1.108-.127 6.369 6.369 0 0 0 1.05-.361c.355-.157.747-.346 1.176-.567l.367-.19a2.294 2.294 0 0 1-.235-.088 8.826 8.826 0 0 0-.473-.2 18.14 18.14 0 0 0-.816-.318c-.211-.075-.364-.112-.459-.112-.166 0-.33.05-.493.151-.16.098-.296.22-.41.366l-.18.235-.904-.45.127-.214a2.51 2.51 0 0 1 .796-.835 1.923 1.923 0 0 1 1.777-.18c.254.087.526.201.816.341.354.172.659.31.913.415.254.1.483.176.688.225.209.048.42.078.635.088l-.01 1.01Zm1.914 1.22c-.198.216-.412.38-.64.494-.227.114-.472.171-.732.171h-.21v-1.074h.186a.769.769 0 0 0 .635-.322 4.04 4.04 0 0 0 .439-.733c.224-.482.48-.845.766-1.089.29-.247.619-.37.987-.37.37 0 .692.09.962.273.273.182.485.424.634.727.15.303.225.633.225.991 0 .528-.133.944-.4 1.25-.267.303-.65.454-1.148.454a2.04 2.04 0 0 1-.888-.195 3.548 3.548 0 0 1-.816-.576Zm.542-.917c.195.221.39.384.586.488.195.104.376.157.542.157.387 0 .581-.196.581-.586 0-.303-.073-.544-.22-.723a.713.713 0 0 0-.58-.269c-.183 0-.35.093-.504.279a3.057 3.057 0 0 0-.405.654Z"/><path fill="#818181" d="M136.153 29.334a2.663 2.663 0 0 0-2.653-2.667h-9.56c-.707 0-1.387.28-1.894.787l-6.426 6.426a2.674 2.674 0 0 0-.787 1.894v14.893c0 1.467 1.2 2.667 2.667 2.667h16.013c1.467 0 2.653-1.2 2.653-2.667l-.013-21.333Zm-15.987 20c-.733 0-1.333-.6-1.333-1.334 0-.733.6-1.333 1.333-1.333.734 0 1.334.6 1.334 1.333 0 .734-.6 1.334-1.334 1.334Zm10.667 0c-.733 0-1.333-.6-1.333-1.334 0-.733.6-1.333 1.333-1.333s1.333.6 1.333 1.333c0 .734-.6 1.334-1.333 1.334ZM120.166 44c-.733 0-1.333-.6-1.333-1.333V40c0-.733.6-1.333 1.333-1.333.734 0 1.334.6 1.334 1.333v2.667c0 .733-.6 1.333-1.334 1.333Zm5.334 5.334c-.734 0-1.334-.6-1.334-1.334v-2.666c0-.734.6-1.334 1.334-1.334.733 0 1.333.6 1.333 1.334V48c0 .734-.6 1.334-1.333 1.334Zm0-8c-.734 0-1.334-.6-1.334-1.334 0-.733.6-1.333 1.334-1.333.733 0 1.333.6 1.333 1.333 0 .734-.6 1.334-1.333 1.334ZM130.833 44c-.733 0-1.333-.6-1.333-1.333V40c0-.733.6-1.333 1.333-1.333s1.333.6 1.333 1.333v2.667c0 .733-.6 1.333-1.333 1.333Z"/><path fill="#fff" d="m148.448 14.205.8-1.47h1.011l-1.242 2.115 1.274 2.15h-1.022l-.821-1.494-.82 1.494h-1.023l1.275-2.15-1.242-2.116h1.01l.8 1.471Zm3.815 0 .799-1.47h1.011l-1.242 2.115 1.274 2.15h-1.022l-.82-1.494-.821 1.494h-1.022l1.274-2.15-1.242-2.116h1.011l.8 1.471Zm3.814 0 .8-1.47h1.011l-1.242 2.115L157.92 17h-1.023l-.82-1.494-.82 1.494h-1.023l1.275-2.15-1.242-2.116h1.01l.8 1.471Zm3.815 0 .799-1.47h1.011l-1.242 2.115 1.274 2.15h-1.022l-.82-1.494-.821 1.494h-1.022l1.274-2.15-1.242-2.116h1.011l.8 1.471Zm3.814 0 .8-1.47h1.011l-1.243 2.115 1.275 2.15h-1.023l-.82-1.494-.82 1.494h-1.023l1.275-2.15-1.242-2.116h1.01l.8 1.471Zm3.815 0 .799-1.47h1.011l-1.242 2.115 1.274 2.15h-1.022l-.82-1.494L166.7 17h-1.022l1.274-2.15-1.242-2.116h1.011l.8 1.471Zm3.814 0 .8-1.47h1.011l-1.243 2.115 1.275 2.15h-1.023l-.82-1.494-.82 1.494h-1.023l1.275-2.15-1.243-2.116h1.011l.8 1.471Zm3.814 0 .8-1.47h1.011l-1.242 2.115 1.274 2.15h-1.022l-.821-1.494-.82 1.494h-1.022l1.274-2.15-1.242-2.116h1.011l.799 1.471Zm3.815 0 .8-1.47h1.01l-1.242 2.115 1.275 2.15h-1.023l-.82-1.494-.82 1.494h-1.023l1.275-2.15-1.243-2.116h1.011l.8 1.471Zm3.814 0 .8-1.47h1.011l-1.242 2.115 1.274 2.15h-1.022l-.821-1.494-.82 1.494h-1.022l1.274-2.15-1.242-2.116h1.011l.799 1.471Zm3.815 0 .8-1.47h1.01l-1.242 2.115 1.275 2.15h-1.023l-.82-1.494-.821 1.494h-1.022l1.274-2.15-1.242-2.116h1.011l.8 1.471Z"/><rect width="13" height="49" x="192" y="8.5" stroke="#9371DA" rx=".5" transform="rotate(90 192 8.5)"/><path fill="#9371DA" d="M101.646 14.646a.5.5 0 0 0 0 .708l3.182 3.181a.501.501 0 0 0 .708-.707L102.707 15l2.829-2.828a.5.5 0 0 0-.708-.708l-3.182 3.182ZM142 14.5h-1v1h1v-1Zm-3 0h-2v1h2v-1Zm-4 0h-2v1h2v-1Zm-4 0h-2v1h2v-1Zm-4 0h-2v1h2v-1Zm-4 0h-2v1h2v-1Zm-4 0h-2v1h2v-1Zm-4 0h-2v1h2v-1Zm-4 0h-2v1h2v-1Zm-4 0h-2v1h2v-1Zm-4 0h-1v1h1v-1Z"/></svg>