<svg xmlns="http://www.w3.org/2000/svg" xmlns:xlink="http://www.w3.org/1999/xlink" width="182.968" height="61.502" xmlns:v="https://vecta.io/nano"><defs><clipPath id="A"><path d="M160.934 344.221l-8.263-4.757-15.918-9.193c-.894-.501-1.753-.215-1.753.859v37.452c0 .787.644 1.145 1.4.715l16.276-9.408 8.263-4.758 7.941-4.579c.93-.537.859-1.288.072-1.681l-8.018-4.65z" transform="translate(-135 -330.032)"/></clipPath><linearGradient id="B" x1=".5" x2=".5" y2="1"><stop offset="0" stop-color="#2079b0"/><stop offset=".286" stop-color="#4a93b8"/><stop offset=".767" stop-color="#83bebf"/><stop offset="1" stop-color="#97cfbf"/></linearGradient><linearGradient id="C" y1=".5" x2="1" y2=".5"><stop offset="0" stop-color="#5abcab"/><stop offset="1" stop-color="#e6e99a"/></linearGradient><linearGradient id="D" x1=".5" y1=".001" x2=".5" y2="1"><stop offset="0" stop-color="#e53432"/><stop offset=".167" stop-color="#d73948"/><stop offset=".575" stop-color="#b33f72"/><stop offset=".862" stop-color="#9a4189"/><stop offset="1" stop-color="#904192"/></linearGradient><linearGradient id="E" x1=".501" y1=".001" x2=".501" y2=".998"><stop offset="0" stop-color="#f18779"/><stop offset=".119" stop-color="#f2917a"/><stop offset=".713" stop-color="#fabc77"/><stop offset="1" stop-color="#fdcb73"/></linearGradient><path id="F" d="M93.828 39.704a5.81 5.81 0 0 1-6.01-5.795 6.1 6.1 0 0 1 6.367-5.974 5.74 5.74 0 0 1 5.866 5.795 5.99 5.99 0 0 1-6.223 5.974zm3.076-2c.544-.798.808-1.755.751-2.719 0-2.182-1.037-6.3-4.078-6.3a3.53 3.53 0 0 0-2.218.823 3.7 3.7 0 0 0-1.145 3c0 2.432 1.216 6.439 4.185 6.439.982-.007 1.907-.467 2.505-1.246z"/><path id="G" d="M70.87 14.611a2.84 2.84 0 0 1-.715 1.9 2.46 2.46 0 0 1-1.967.823c-.393 0-.894 0-1.574-.036l.036-2.611-.036-2.4h1.61c.734-.078 1.466.171 2 .68.423.442.655 1.032.646 1.644zm-1.037.179a1.9 1.9 0 0 0-.429-1.252 1.67 1.67 0 0 0-1.324-.5c-.156-.002-.311.01-.465.036l.036 1.61.036 1.824c.165.03.333.042.5.036.461.031.91-.153 1.216-.5a1.97 1.97 0 0 0 .429-1.258z"/></defs><path d="M182.933 53.194a8.19 8.19 0 0 1-8.084 8.308H8.084A8.19 8.19 0 0 1 0 53.194V8.308A8.19 8.19 0 0 1 8.084 0h166.8a8.19 8.19 0 0 1 8.084 8.308v44.886z"/><g transform="translate(12.827 12.709)"><g clip-path="url(#A)"><path d="M0-.619V39.91l20.425-20.282z" fill="url(#B)"/></g><g clip-path="url(#A)"><path d="M25.934 14.189l-8.263-4.758L0-.763v.143l20.425 20.246z" fill="url(#C)"/></g><g clip-path="url(#A)"><path d="M0 39.909v.143l17.671-10.195 8.263-4.758-5.509-5.473z" fill="url(#D)"/></g><g clip-path="url(#A)"><path d="M25.934 14.19l-5.509 5.437 5.509 5.473 9.408-5.473z" fill="url(#E)"/></g></g><g fill="#f9f9f9"><path d="M143.242 40.052c-.726.006-1.445-.14-2.11-.429a3.83 3.83 0 0 1-1.61-1.323h-.107a18.89 18.89 0 0 1 .143 1.967v4.865h-1.789V28.067h1.467l.25 1.61h.072c.408-.597.962-1.079 1.61-1.4.663-.296 1.384-.443 2.11-.429 1.393-.076 2.738.523 3.613 1.61a8.53 8.53 0 0 1 0 9.014 4.63 4.63 0 0 1-3.649 1.58zm-.25-10.7c-.98-.1-1.948.272-2.611 1a5.07 5.07 0 0 0-.823 3.184v.393a6 6 0 0 0 .823 3.541 3.11 3.11 0 0 0 2.647 1.073 2.8 2.8 0 0 0 2.4-1.252 5.9 5.9 0 0 0 .858-3.4 5.75 5.75 0 0 0-.858-3.4 2.91 2.91 0 0 0-2.436-1.139zm9.265 10.483h-1.789V23.094h1.789zm10.265 0l-.358-1.681h-.072a4.69 4.69 0 0 1-1.753 1.5c-.693.277-1.436.411-2.182.393a3.93 3.93 0 0 1-2.754-.894c-.698-.668-1.064-1.612-1-2.576 0-2.4 1.9-3.613 5.723-3.756l2-.072v-.715a2.95 2.95 0 0 0-.608-2.039 2.48 2.48 0 0 0-1.9-.644 7.62 7.62 0 0 0-3.327.894l-.537-1.359a8.06 8.06 0 0 1 1.9-.751c.678-.182 1.376-.277 2.078-.283 1.116-.083 2.224.248 3.112.93.747.811 1.111 1.903 1 3v8.048zm-4.006-1.252c.959.047 1.898-.288 2.611-.93a3.37 3.37 0 0 0 .966-2.576v-1.073l-1.788.072a6.3 6.3 0 0 0-3.076.68 1.96 1.96 0 0 0-.93 1.824 1.79 1.79 0 0 0 .572 1.467 2.34 2.34 0 0 0 1.645.536zm6.367-10.553h1.9l2.575 6.725a20.62 20.62 0 0 1 1.037 3.327h.072l.572-1.86 2.933-8.156h1.932l-5.011 13.414a6.73 6.73 0 0 1-1.753 2.826 3.68 3.68 0 0 1-2.468.823c-.541-.006-1.081-.066-1.61-.179v-1.431c.436.089.879.137 1.323.143a2.69 2.69 0 0 0 2.611-2.075l.644-1.681zm-55.531 1.121c1.081.766 1.733 2.002 1.753 3.327 0 1.824-1.037 2.683-2.075 3.506a1.75 1.75 0 0 0-.68 1.216 1.4 1.4 0 0 0 .644 1.073l.894.68c1.073.93 2.075 1.753 2.075 3.47 0 2.325-2.254 4.65-6.475 4.65-3.577 0-5.294-1.717-5.294-3.541a3.5 3.5 0 0 1 1.9-3 10.77 10.77 0 0 1 4.722-1.145 2.47 2.47 0 0 1-.751-1.681c-.003-.338.083-.672.25-.966a6.08 6.08 0 0 1-.787.036c-1.06.056-2.097-.326-2.868-1.056s-1.208-1.745-1.21-2.807c.012-1.276.589-2.481 1.574-3.291 1.263-.954 2.82-1.434 4.4-1.359h5.079l-1.574.894h-1.574zm-1.757 10.946a2.89 2.89 0 0 0-.572-.036 9.3 9.3 0 0 0-2.576.393 2.75 2.75 0 0 0-2.111 2.54c0 1.753 1.717 3 4.328 3 2.361 0 3.613-1.145 3.613-2.647.005-1.247-.817-1.926-2.682-3.25zm.715-4.686c.433-.491.652-1.135.608-1.789 0-1.789-1.073-4.543-3.112-4.543a2.26 2.26 0 0 0-1.717.823 2.75 2.75 0 0 0-.537 1.824c0 1.645.966 4.4 3.076 4.4a2.86 2.86 0 0 0 1.687-.715z"/><use xlink:href="#F"/><use xlink:href="#F" x="-13.342"/><path d="M72.58 39.309l-3.541.823a27.24 27.24 0 0 1-4.078.429c-6.832 0-9.444-5.008-9.444-8.943 0-4.793 3.684-9.265 9.98-9.265a14.49 14.49 0 0 1 3.792.537 10.02 10.02 0 0 1 3.255 1.538l-2.039 1.967-.859.215.608-1a7.05 7.05 0 0 0-5.294-2.325c-3.9 0-6.868 2.969-6.868 7.3-.075 2.37.815 4.668 2.468 6.368s3.925 2.655 6.296 2.646a7.68 7.68 0 0 0 3.148-.608V35.02l-3.72.215 1.967-1.073h5.258l-.644.608a.54.54 0 0 0-.25.393c-.036.215-.036.93-.036 1.18v2.969zm44.57-.715c-.823-.072-1-.215-1-1.18V23.249c.107-.859.358-1 1.109-1.467h-3.543l-1.86.894h1.9V37.95c0 .5-.107.572-.68 1.323h4.364l.93-.537c-.361-.07-.791-.07-1.22-.142zm10.088.251a9.18 9.18 0 0 1-.823.429 5.94 5.94 0 0 1-2.4.465 5.09 5.09 0 0 1-3.255-.966 6.3 6.3 0 0 1-2.5-5.187 5.6 5.6 0 0 1 5.616-5.688 4.83 4.83 0 0 1 2.54.68c.852.572 1.463 1.438 1.717 2.432l-5.759 2.325-1.9.143c.608 3.112 2.719 4.936 5.08 4.936a6.33 6.33 0 0 0 3-.859zm-2.325-7.333c.465-.179.715-.322.715-.68a2.45 2.45 0 0 0-2.432-2.111c-1 0-2.826.751-2.826 3.4 0 .429.036.858.071 1.288zm4.686-3.434v1.61h-.215v-1.61h-.536v-.179h1.252v.179zm2.218 1.646v-1.646h0l-.5 1.646h-.143l-.5-1.646h0v1.646h-.181v-1.789h.322l.465 1.431h0l.465-1.431h.322v1.789z"/></g><g fill="#fcfcfd"><path d="M60.353 17.294h-1.216c-.067-.489-.187-.968-.358-1.431h-1.791c-.171.463-.291.942-.358 1.431h-1.142c.248-.84.547-1.664.894-2.468.361-.823.66-1.672.894-2.54h1.467a25.55 25.55 0 0 0 .823 2.5l.787 2.508zm-1.789-2.182a21.96 21.96 0 0 1-.644-2.146h-.072c-.182.729-.409 1.446-.68 2.146zm6.726 2.182h-.966a10.48 10.48 0 0 0-1.073-1.681 8.93 8.93 0 0 1-1.252-2.182h-.072a12.37 12.37 0 0 1 .107 1.538l.072 2.325h-.93l.072-2.611-.072-2.4h1.145a6.73 6.73 0 0 0 .966 1.61 7.88 7.88 0 0 1 1.145 2.039h.072a12.37 12.37 0 0 1-.107-1.538l-.072-2.146h.966l-.072 2.4.071 2.646z"/><use xlink:href="#G"/><path d="M76.02 17.294h-1.142c-.164-.584-.392-1.147-.68-1.681a.88.88 0 0 0-.751-.322h-.429l.036 2h-1.076l.036-2.611-.036-2.4h1.824c1.18 0 1.753.393 1.753 1.216.019.621-.397 1.172-1 1.324v.072a1.22 1.22 0 0 1 .68.608 14.78 14.78 0 0 1 .785 1.794zm-1.467-3.541c0-.5-.322-.751-1-.751-.217-.016-.436.009-.644.072.036.393.036.93.036 1.538h.358c.857-.001 1.25-.287 1.25-.859zm6.976.93a2.89 2.89 0 0 1-.715 1.967 2.38 2.38 0 0 1-1.789.787c-.637.015-1.25-.246-1.681-.715-.468-.488-.714-1.148-.68-1.824a2.89 2.89 0 0 1 .715-1.967 2.38 2.38 0 0 1 1.789-.787c.637-.015 1.25.246 1.681.715a2.73 2.73 0 0 1 .68 1.824zm-1.073.107c.018-.461-.12-.915-.393-1.288-.229-.315-.594-.501-.984-.501a1.21 1.21 0 0 0-.983.501c-.273.373-.411.827-.393 1.288-.024.468.129.928.429 1.288.229.315.594.501.983.501s.755-.186.983-.501a2.29 2.29 0 0 0 .357-1.288zm3.219 2.504h-1.073l.036-2.611-.036-2.4h1.073l-.036 2.4.036 2.611z"/><use xlink:href="#G" x="18.386"/><path d="M96.661 17.294h-1.216c-.067-.489-.187-.968-.358-1.431h-1.791c-.171.463-.291.942-.358 1.431h-1.142c.248-.84.547-1.664.894-2.468.361-.823.66-1.672.894-2.54h1.467a25.56 25.56 0 0 0 .823 2.5l.787 2.508zm-1.789-2.182a22.1 22.1 0 0 1-.644-2.146h-.072a18.04 18.04 0 0 1-.68 2.146zm6.26-1.502a1.48 1.48 0 0 1-.68 1.359 3.09 3.09 0 0 1-1.681.429h-.25l.036 1.9h-1.074l.036-2.611-.036-2.4h1.932a2.12 2.12 0 0 1 1.216.322 1.12 1.12 0 0 1 .501 1.001zm-1 .215c0-.537-.358-.823-1.109-.823-.192.009-.384.033-.572.072l.036 1.645h.215c.963-.033 1.428-.323 1.428-.895zm5.615-.215a1.48 1.48 0 0 1-.68 1.359 3.09 3.09 0 0 1-1.681.429h-.25l.036 1.9h-1.074l.036-2.611-.036-2.4h1.932a2.12 2.12 0 0 1 1.216.322 1.12 1.12 0 0 1 .501 1.001zm-1 .215c0-.537-.358-.823-1.109-.823-.192.009-.384.033-.572.072l.036 1.645h.215c.963-.033 1.428-.323 1.428-.895zm8.511.858a2.89 2.89 0 0 1-.715 1.967 2.38 2.38 0 0 1-1.789.787c-.637.015-1.25-.246-1.681-.715-.468-.488-.714-1.148-.68-1.824a2.89 2.89 0 0 1 .716-1.967 2.38 2.38 0 0 1 1.788-.787c.637-.015 1.25.246 1.681.715a2.57 2.57 0 0 1 .68 1.824zm-1.037.107c.018-.461-.12-.915-.393-1.288-.229-.315-.594-.501-.983-.501s-.755.186-.983.501c-.273.373-.411.827-.393 1.288-.024.468.129.928.429 1.288.229.315.594.501.983.501s.755-.186.983-.501a2.29 2.29 0 0 0 .356-1.288zm6.26 2.504h-.966a10.45 10.45 0 0 0-1.073-1.681 8.93 8.93 0 0 1-1.252-2.182h-.072a12.38 12.38 0 0 1 .107 1.538l.071 2.325h-.93l.072-2.611-.072-2.4h1.145a6.73 6.73 0 0 0 .966 1.61c.481.619.867 1.306 1.145 2.039h.072a12.37 12.37 0 0 1-.107-1.538l-.072-2.146h.966l-.072 2.4.072 2.646z"/></g></svg>
