<svg id="Layer_1" data-name="Layer 1" xmlns="http://www.w3.org/2000/svg" viewBox="0 0 64 64"><path d="M57.91,6.6a8.66,8.66,0,0,0-6.19-2.49H12.27a8.51,8.51,0,0,0-8.67,8.7V41.93a8.55,8.55,0,0,0,8.73,8.7H21.7a1.49,1.49,0,0,1,1.28.61q2.64,3.38,5.31,6.73a5.4,5.4,0,0,0,1,1,4.49,4.49,0,0,0,6.4-1c1.74-2.2,3.47-4.4,5.18-6.62a1.7,1.7,0,0,1,1.49-.75h0c3.11,0,6.44,0,9.75,0a8.51,8.51,0,0,0,8.29-8.45V12.8A8.72,8.72,0,0,0,57.91,6.6ZM56.88,42a5,5,0,0,1-5.27,5.07H40.87A2.16,2.16,0,0,0,39,48l-4.22,5.4L33.1,55.57c-.37.48-.67.81-1.11.81h0c-.44,0-.75-.34-1.13-.82L29.23,53.5Q27.07,50.77,24.92,48a2.18,2.18,0,0,0-1.86-.91h0c-2.6,0-5.2,0-7.8,0H12.48a5,5,0,0,1-5.36-5.36V13a5.05,5.05,0,0,1,5.39-5.39h39A5.05,5.05,0,0,1,56.88,13Z"/><path d="M33.76,26V37.86A1.77,1.77,0,0,1,32,39.79a1.67,1.67,0,0,1-1.25-.52,2,2,0,0,1-.51-1.41V26a1.77,1.77,0,1,1,3.52,0Z"/><path d="M33.76,18.08A1.76,1.76,0,0,1,32,19.82h0a1.76,1.76,0,0,1,0-3.52h0A1.77,1.77,0,0,1,33.76,18.08Z"/></svg>