<svg id="Layer_1" data-name="Layer 1" xmlns="http://www.w3.org/2000/svg" viewBox="0 0 64 64"><path d="M64.24,14.18A10.71,10.71,0,0,0,55.78,3.71l-.08,0a1.65,1.65,0,0,0-.87-.21H48.61c-6.69,0-14.26,0-20,0a10.59,10.59,0,0,0-9.83,6.84,11.71,11.71,0,0,0-.71,4.51c0,1,0,2,0,3V19H15.43c-1.6,0-3.2,0-4.8,0A10.7,10.7,0,0,0-.24,29.91c0,2.54,0,7.23,0,10.35V42c0,.36,0,.72,0,1.09a1.2,1.2,0,0,0,.2.61A2.09,2.09,0,0,0,0,44a2.2,2.2,0,0,0,.1.62,10.58,10.58,0,0,0,8.17,7.92,14.09,14.09,0,0,0,1.71.25l.58.06v.81c0,.87,0,1.73,0,2.59a5.61,5.61,0,0,0,.19,1.42,4,4,0,0,0,3,2.8,3.69,3.69,0,0,0,.93.11,4.08,4.08,0,0,0,3-1.36c1.52-1.67,3-3.41,4.48-5.09l.88-1a.82.82,0,0,1,.7-.33h0c3.83,0,7.67,0,11.5,0a10.7,10.7,0,0,0,10.28-7.9c.13-.49.22-1,.31-1.49a2,2,0,0,0,0-.24l0,0c.25.28.48.54.75.79a3.89,3.89,0,0,0,4,.86,3.73,3.73,0,0,0,2.73-3.14,17.47,17.47,0,0,0,.1-2.28c0-.31,0-.62,0-.93v-1.2l.4,0a10.75,10.75,0,0,0,10.37-11Q64.25,20.21,64.24,14.18Zm-8.77-8.1a8.32,8.32,0,0,1,6.4,8.18V16.2c0,3.4,0,6.91,0,10.36a8.06,8.06,0,0,1-4.54,7.36,9.45,9.45,0,0,1-4.72.93,1.61,1.61,0,0,0-1.15.32,1.51,1.51,0,0,0-.34,1.14v4.31A1.75,1.75,0,0,1,50,42.51a1.73,1.73,0,0,1-2.05-.67l-1.32-1.51c-1.35-1.54-2.75-3.12-4.1-4.71a2.08,2.08,0,0,0-1.73-.79h0c-4,0-8,0-11.74,0a8.28,8.28,0,0,1-8.5-8.54c0-2.1,0-4.19,0-6.29,0-1.94,0-3.89,0-5.83a7.82,7.82,0,0,1,1.06-4A8.16,8.16,0,0,1,29,5.86H54.85a1.38,1.38,0,0,0,.37.16ZM11.59,50.37H10.21A8.32,8.32,0,0,1,2.6,44.75c-.06-.18-.11-.36-.16-.55a5.83,5.83,0,0,0-.22-.71,1.15,1.15,0,0,0-.12-.25.36.36,0,0,0,0-.11,3.1,3.1,0,0,0,0-.43V39c0-3.17,0-7.11,0-9.53a8.25,8.25,0,0,1,7-8,25.13,25.13,0,0,1,3.13-.13h5.83v5.15a10.31,10.31,0,0,0,.73,3.87A10.73,10.73,0,0,0,29,37.22q5.63,0,11.25,0h0a.79.79,0,0,1,.71.31l.14.18a15.71,15.71,0,0,0,1.49,1.68,2.87,2.87,0,0,1,.91,2.4,8.38,8.38,0,0,1-8.6,8.58H32.7c-3.17,0-6.34,0-9.52,0h0a1.93,1.93,0,0,0-1.57.73c-1.73,2-3.59,4.14-5.52,6.28a2.33,2.33,0,0,1-1.2.74,1.6,1.6,0,0,1-1.32-.3,1.93,1.93,0,0,1-.64-1.48c0-.88,0-1.76,0-2.63v-2A1.19,1.19,0,0,0,11.59,50.37Z"/><path d="M40.15,11.13A6.11,6.11,0,0,0,35,17a1.72,1.72,0,0,0,.59,1.15,1.08,1.08,0,0,0,1.18,0A1.94,1.94,0,0,0,37.37,17a4.05,4.05,0,0,1,1.48-2.8,3.56,3.56,0,0,1,2.71-.78A3.79,3.79,0,0,1,41.32,21c-.92.06-1.32.47-1.32,1.37s0,1.67,0,2.5a1.22,1.22,0,0,0,1.17,1.36h0a1.23,1.23,0,0,0,1.19-1.34c0-.42,0-.83,0-1.25v-.37l.28-.07a6.17,6.17,0,0,0-2.5-12.07Z"/><path d="M41.2,27.52h0a1.12,1.12,0,0,0-.81.33,1.16,1.16,0,0,0-.37.87A1.18,1.18,0,0,0,41.16,30h0a1.18,1.18,0,0,0,.82-.34,1.25,1.25,0,0,0,.37-.86A1.21,1.21,0,0,0,41.2,27.52Z"/><path d="M23,41.5h0a1.16,1.16,0,0,0,.83-.34,1.28,1.28,0,0,0,.35-.86A1.18,1.18,0,0,0,23,39.09h0a1.19,1.19,0,0,0-.84.35,1.15,1.15,0,0,0-.35.85A1.19,1.19,0,0,0,23,41.5Z"/><path d="M27.21,41.5h0a1.18,1.18,0,0,0,1.18-1.21h0a1.19,1.19,0,0,0-.34-.85,1.13,1.13,0,0,0-.84-.35h0a1.17,1.17,0,0,0-.84.36,1.21,1.21,0,0,0,.85,2Z"/><path d="M18.44,41.5h0a1.21,1.21,0,0,0,.82-2.07,1.18,1.18,0,0,0-1.68,0,1.21,1.21,0,0,0-.34.86A1.19,1.19,0,0,0,18.44,41.5Z"/></svg>