<svg id="Layer_1" data-name="Layer 1" xmlns="http://www.w3.org/2000/svg" viewBox="0 0 64 64"><g id="RSldAs.tif"><path d="M36.4,60.23V54.9c-.27,0-.52,0-.77,0a1.26,1.26,0,0,1-1.2-1.24,1.28,1.28,0,0,1,1.19-1.25,5.42,5.42,0,0,1,.57,0h9.74a2.63,2.63,0,0,0,2.93-2.93V36.18a4.38,4.38,0,0,1,0-.63,1.24,1.24,0,0,1,2.48.07c0,.17,0,.34,0,.51V49.41a5.16,5.16,0,0,1-5.51,5.5H38.94v.71c0,2.23,0,4.47,0,6.7a1.32,1.32,0,0,1-2.26,1.19C32.84,60.75,29,58,25.15,55.27a2,2,0,0,0-1.09-.35c-6.18,0-12.36,0-18.54,0A5.17,5.17,0,0,1,0,49.42V5.51A5.13,5.13,0,0,1,4.12.18,6.42,6.42,0,0,1,5.44.08h40.5a5.09,5.09,0,0,1,5.44,5.46c0,2.3,0,4.6,0,6.9v.61l.2.15a9.48,9.48,0,0,1,.62-.77c1.09-1.11,2.2-2.22,3.31-3.31a3.66,3.66,0,0,1,5.5,0c.58.57,1.16,1.16,1.74,1.75a3.67,3.67,0,0,1,0,5.54L40,39.2c-.79.79-1.59,1.56-2.36,2.38a3.08,3.08,0,0,1-1.55.89c-2.25.55-4.49,1.14-6.74,1.7-1.24.31-2-.46-1.66-1.69.62-2.32,1.23-4.64,1.89-6.95a2.91,2.91,0,0,1,.72-1.15q9-9.08,18.12-18.12a1.55,1.55,0,0,0,.5-1.21c0-3.19,0-6.37,0-9.56a2.66,2.66,0,0,0-2.94-2.94H5.42A2.65,2.65,0,0,0,2.49,5.49v44A2.63,2.63,0,0,0,5.42,52.4H24.53a2.7,2.7,0,0,1,1.64.53C29.54,55.35,32.92,57.75,36.4,60.23Zm-.17-21L58.87,16.55,55.3,13,32.66,35.61ZM60.82,14.73c.87-.73.91-1.33.11-2.14-.56-.57-1.12-1.14-1.69-1.69a1.19,1.19,0,0,0-2.06.16ZM31.44,38.22l-.86,3,3.06-.84Z"/><path d="M28.38,25.65c-2.21,0-14.28,0-16.49,0a1.27,1.27,0,0,1-1.37-1.27,1.31,1.31,0,0,1,1.42-1.23c.16,0,.33,0,.5,0H34.07c.31,0,.63,0,.94,0a1.26,1.26,0,1,1,0,2.51C32.81,25.66,30.6,25.65,28.38,25.65Z"/><path d="M17.78,39.47c-1.94,0-3.88,0-5.82,0a1.28,1.28,0,0,1-1.43-1.38A1.24,1.24,0,0,1,11.79,37h12A1.23,1.23,0,0,1,25,38.22a1.25,1.25,0,0,1-1.32,1.24C21.7,39.48,19.74,39.47,17.78,39.47Z"/><path d="M16.88,12.66h-5a1.21,1.21,0,0,1-1.18-.7,1.05,1.05,0,0,1,.17-1.29,1.75,1.75,0,0,1,1-.47c3.32,0,6.65,0,10,0a1.24,1.24,0,1,1,0,2.47Z"/></g></svg>