<svg id="Layer_1" data-name="Layer 1" xmlns="http://www.w3.org/2000/svg" viewBox="0 0 64 64"><defs><style>.cls-1{fill:#212121;}</style></defs><g id="JxYP97.tif"><path class="cls-1" d="M59.5,49.66c0,2.31,0,4.64,0,7a1.9,1.9,0,0,1-1.35,1.95,1.87,1.87,0,0,1-2.39-1.83c0-2.19,0-4.37,0-6.56a.72.72,0,0,0-.49-.78,5.62,5.62,0,0,1-.08-10.16.86.86,0,0,0,.57-.93q0-7.78,0-15.55v-.71l-3.86,1.38c-1.05.37-1.05.37-1.05,1.49,0,3.54,0,7.08,0,10.62a3.85,3.85,0,0,1-1.47,3.16A13.33,13.33,0,0,1,45,41a41.75,41.75,0,0,1-14.77,1.9,36.76,36.76,0,0,1-11.8-2.17,19.5,19.5,0,0,1-3.61-1.91,3.61,3.61,0,0,1-1.61-3.27c0-3.68,0-7.37,0-11.05a.79.79,0,0,0-.61-.9c-3.73-1.29-7.45-2.63-11.17-3.95A1.88,1.88,0,0,1,.17,17,2,2,0,0,1,1.47,16l17.29-6.1C22.84,8.42,26.92,7,31,5.54a2.81,2.81,0,0,1,2,0Q47.69,10.73,62.4,15.9c1.3.46,1.87,1.43,1.48,2.52a1.88,1.88,0,0,1-1.21,1.17c-.89.33-1.79.66-2.7,1a.58.58,0,0,0-.48.65c0,5.77,0,11.54,0,17.3a.79.79,0,0,0,.34.61,5.67,5.67,0,0,1-.15,10.44ZM7.56,17.79l.68.28q11.52,4.09,23,8.19a2,2,0,0,0,1.48,0l19.87-7.06,3.83-1.38-.58-.22q-11.66-4.11-23.3-8.21a1.86,1.86,0,0,0-1.12,0C26.73,11,22,12.7,17.28,14.36ZM17,25.18a1.91,1.91,0,0,0,0,.29c0,3.31,0,6.62,0,9.93a.87.87,0,0,0,.43.66,24.18,24.18,0,0,0,3.47,1.52,39.91,39.91,0,0,0,20.24.58,17.6,17.6,0,0,0,5.42-2,1,1,0,0,0,.57-1c0-3.1,0-6.2,0-9.3,0-.22,0-.43,0-.71l-.74.26L33,30.14a2.79,2.79,0,0,1-2,0q-6.63-2.38-13.28-4.73Zm38.75,19.1a1.88,1.88,0,1,0,3.76.06,1.88,1.88,0,0,0-3.76-.06Z"/></g></svg>