<svg id="Layer_1" data-name="Layer 1" xmlns="http://www.w3.org/2000/svg" xmlns:xlink="http://www.w3.org/1999/xlink" viewBox="0 0 500 500"><defs><style>.cls-1{fill:#24005b;}.cls-2{fill:#e1deff;}.cls-3{fill:#f4f0ff;}.cls-4{opacity:0.6;fill:url(#linear-gradient);}.cls-5{fill:none;stroke:#5525ac;stroke-miterlimit:10;}.cls-6{fill:#5525ac;}.cls-7{fill:#fff;}.cls-8{fill:#121212;}</style><linearGradient id="linear-gradient" x1="250" y1="248.21" x2="250" y2="374.95" gradientUnits="userSpaceOnUse"><stop offset="0" stop-color="#5525ac" stop-opacity="0.7"/><stop offset="0.12" stop-color="#5525ac" stop-opacity="0.57"/><stop offset="0.4" stop-color="#5525ac" stop-opacity="0.33"/><stop offset="0.64" stop-color="#5525ac" stop-opacity="0.15"/><stop offset="0.85" stop-color="#5525ac" stop-opacity="0.04"/><stop offset="1" stop-color="#5525ac" stop-opacity="0"/></linearGradient></defs><path class="cls-1" d="M480.11,426.67l-.52,0a9.44,9.44,0,0,0,9.44-9.44V113.69a9.43,9.43,0,0,0-9.44-9.43H177.46a9.44,9.44,0,0,1-7.64-3.91L159.54,84a9.45,9.45,0,0,0-7.64-3.92H9.43A9.41,9.41,0,0,0,.16,87.83l-.09-.14c.52-18.51,10.28-21,20.35-21.7H162.89a9.45,9.45,0,0,1,7.64,3.89l10.28,16.37a9.4,9.4,0,0,0,7.64,3.89H490.56A9.44,9.44,0,0,1,500,99.57V403.11C500,408.32,501.08,424.57,480.11,426.67Z"/><path class="cls-2" d="M489,113.69v18.87c-.26.12-401.27,0-478,0H0v-43a8.53,8.53,0,0,1,.16-1.7,9.41,9.41,0,0,1,9.27-7.74H151.9A9.45,9.45,0,0,1,159.54,84l10.28,16.34a9.44,9.44,0,0,0,7.64,3.91H479.59A9.43,9.43,0,0,1,489,113.69Z"/><path class="cls-3" d="M489,132.56V417.21a9.44,9.44,0,0,1-9.44,9.44H9.43A9.44,9.44,0,0,1,0,417.21V132.56H11C87.76,132.58,488.77,132.68,489,132.56Z"/><path class="cls-4" d="M35.33,317.28s27.42-23.66,68.46-29.51c32.05-4.56,52.62-41.44,97.7-41.44,55,0,94.37,34.87,186-12.41,59.39-30.63,77.14-44.79,77.14-44.79V373.27H35.33Z"/><path class="cls-5" d="M35.33,317.28s27.42-23.66,68.46-29.51c32.05-4.56,52.62-41.44,97.7-41.44,55,0,94.37,34.87,186-12.41,59.39-30.63,77.14-44.79,77.14-44.79"/><rect class="cls-6" x="103.79" y="327.5" width="268.38" height="71.13" rx="4"/><path class="cls-7" d="M231.62,372a2.32,2.32,0,0,0-1.65,4,2.21,2.21,0,0,0,1.65.68,2.18,2.18,0,0,0,1.63-.68,2.32,2.32,0,0,0,0-3.28A2.22,2.22,0,0,0,231.62,372Z"/><path class="cls-7" d="M225.09,372a2.32,2.32,0,0,0-1.65,4,2.32,2.32,0,0,0,3.28,0,2.32,2.32,0,0,0-1.63-4Z"/><path class="cls-7" d="M234.24,359.56c-.08-.48-.16-1-.25-1.44s-.18-.92-.26-1.31-.16-.72-.23-1-.11-.44-.13-.52l-3.67,1.11c0,.16.09.38.17.67s.15.6.22.95.15.72.22,1.11.15.77.21,1.15.11.73.15,1a7.16,7.16,0,0,1,.06.84,2.69,2.69,0,0,1-.27,1.31,2.06,2.06,0,0,1-.61.71,1.94,1.94,0,0,1-.71.29,4.66,4.66,0,0,1-.54.05h-6.22v0h-1.26a1.4,1.4,0,0,1-.86-.39,7,7,0,0,1-1-1,14.87,14.87,0,0,1-1-1.33l-.95-1.43-5.58-8.45L208.48,354l5.54,7.8.49.75a4.39,4.39,0,0,1,.27.5.86.86,0,0,1,.09.34.93.93,0,0,1-.08.34,1.34,1.34,0,0,1-.67.7,3.32,3.32,0,0,1-1.05.34,7.92,7.92,0,0,1-1,.07l-.68,0a13.82,13.82,0,0,1-1.86-.22c-.65-.12-1.31-.28-2-.47s-1.33-.42-2-.67l-1.12,3.74c.92.28,1.72.51,2.39.69s1.26.33,1.77.44,1,.19,1.38.24.81.07,1.21.07a15.09,15.09,0,0,0,1.6-.1,9.27,9.27,0,0,0,1.65-.33,6.58,6.58,0,0,0,1.52-.63,4.46,4.46,0,0,0,1.23-1,5.68,5.68,0,0,0,4,1.83h7.38a6.43,6.43,0,0,0,2.14-.37,5.64,5.64,0,0,0,1.93-1.14A5.75,5.75,0,0,0,234,365a6.68,6.68,0,0,0,.53-2.79q0-.51-.06-1.2C234.38,360.52,234.31,360.05,234.24,359.56Z"/><path class="cls-7" d="M256.78,350.93a2.44,2.44,0,1,0-1.74-4.17,2.44,2.44,0,0,0,0,3.46A2.4,2.4,0,0,0,256.78,350.93Z"/><path class="cls-7" d="M270.81,359.05l-.72-.25-1.39-.5-1.86-.68-2.12-.77-2.18-.75c-.73-.24-1.41-.45-2.05-.64s-1.2-.34-1.7-.45a5.18,5.18,0,0,0-1.15-.17,4.49,4.49,0,0,0-3.29,1.31,5.45,5.45,0,0,0-1,1.43,10.65,10.65,0,0,0-.73,1.76l3.58,1.08c.14-.3.27-.55.39-.76a2.33,2.33,0,0,1,.41-.5,1.36,1.36,0,0,1,.49-.29,2.35,2.35,0,0,1,.63-.08,5.89,5.89,0,0,1,.94.11c.4.07.85.17,1.34.29s1,.27,1.62.44l1.73.49,1.71.52,1.56.48a28.65,28.65,0,0,1-2.65,1.2c-1,.41-2.09.77-3.21,1.1a33.5,33.5,0,0,1-3.43.81,18.18,18.18,0,0,1-3.26.31h-4.71a3.41,3.41,0,0,1-.51-.08,2.53,2.53,0,0,1-.78-.32,2.37,2.37,0,0,1-.7-.68,2,2,0,0,1-.3-1.15v-4.68h-3.89v9.52a9.08,9.08,0,0,1-.35,2.68,4.24,4.24,0,0,1-1.05,1.79,4.12,4.12,0,0,1-1.79,1,9.5,9.5,0,0,1-2.6.31h-2v3.89h2a10.72,10.72,0,0,0,3.83-.64,8.41,8.41,0,0,0,4.89-4.61,11.32,11.32,0,0,0,.92-3.65,2.82,2.82,0,0,0,1.12.43,8.87,8.87,0,0,0,1.18.08h4.74a19.24,19.24,0,0,0,4.05-.44,30.21,30.21,0,0,0,3.85-1.12,35.59,35.59,0,0,0,3.44-1.45c1.07-.52,2-1,2.79-1.48s1.42-.86,1.9-1.18l.81-.55Z"/><polygon class="cls-1" points="164.56 426.72 182.9 367.58 181.29 363.06 122.97 383.87 142.32 392.58 119.09 416.81 120.7 421.32 131.81 431.98 155.05 407.76 164.56 426.72"/><path class="cls-7" d="M119.26,416.8l23.15-24.14a.11.11,0,0,0,0-.11.11.11,0,0,0-.07-.09l-19.06-8.58,57.79-20.61-18.18,58.6-9.37-18.69a.13.13,0,0,0-.09-.07h0a.13.13,0,0,0-.09,0L130.2,427.29Z"/><path class="cls-8" d="M180.91,363.47l-18,58.07-9.23-18.41a.25.25,0,0,0-.19-.14h0a.23.23,0,0,0-.18.07L130.2,427.11,119.44,416.8l23.06-24.05a.26.26,0,0,0,.07-.22.25.25,0,0,0-.15-.18l-18.78-8.45,57.27-20.43m.38-.41L123,383.87l19.35,8.71-23.23,24.23,11.11,10.66,23.24-24.23,9.51,19,18.34-59.14Z"/></svg>