<svg id="Layer_1" data-name="Layer 1" xmlns="http://www.w3.org/2000/svg" viewBox="0 0 500 500"><defs><style>.cls-1{fill:#24005b;}.cls-2{fill:#e1deff;}.cls-3{fill:#5525ac;}.cls-4{fill:#f4f0ff;}</style></defs><path class="cls-1" d="M459.2,148.15v35.73A328,328,0,0,1,316.41,454.57L250,500l-9.27-6.33,62.71-42.92a312.52,312.52,0,0,0,136.09-258v-34a49.78,49.78,0,0,0-23.85-42.52L266.13,24.86a49.75,49.75,0,0,0-51.93,0L64.64,116.24A49.84,49.84,0,0,0,40.8,158.76V148.15a52.25,52.25,0,0,1,25-44.6L222.74,7.67a52.26,52.26,0,0,1,54.52,0L434.2,103.55A52.28,52.28,0,0,1,459.2,148.15Z"/><path class="cls-2" d="M415.68,116.24,266.13,24.86a49.75,49.75,0,0,0-51.93,0L64.64,116.24A49.84,49.84,0,0,0,40.8,158.76v25.12A328,328,0,0,0,183.59,454.57l57.14,39.1,62.71-42.92a312.52,312.52,0,0,0,136.09-258v-34A49.78,49.78,0,0,0,415.68,116.24Zm-1.4,84.53A273,273,0,0,1,295.43,426.05l-55.25,37.82L184.9,426.05A273,273,0,0,1,66.05,200.77V171a43.57,43.57,0,0,1,20.8-37.13L217.49,54.1a43.47,43.47,0,0,1,45.35,0l130.63,79.81A43.51,43.51,0,0,1,414.28,171Z"/><path class="cls-3" d="M290.76,238.66h-4.9v-18.9a44.38,44.38,0,0,0-88.75,0v18.9h-4.9a9,9,0,0,0-9,9v70.71a9,9,0,0,0,9,9h98.55a9,9,0,0,0,9-9V247.68A9,9,0,0,0,290.76,238.66Zm-45.43,58.57V311.3h-7.89V297.15a7.67,7.67,0,1,1,7.89.08Zm24.75-58.57H212.89v-18.9a28.6,28.6,0,0,1,57.19,0Z"/><path class="cls-4" d="M393.47,133.91,262.84,54.1a43.47,43.47,0,0,0-45.35,0L86.85,133.91A43.57,43.57,0,0,0,66.05,171v29.73A273,273,0,0,0,184.9,426.05l55.28,37.82,55.25-37.82A273,273,0,0,0,414.28,200.77V171A43.51,43.51,0,0,0,393.47,133.91ZM299.78,318.39a9,9,0,0,1-9,9H192.21a9,9,0,0,1-9-9V247.68a9,9,0,0,1,9-9h4.9v-18.9a44.38,44.38,0,0,1,88.75,0v18.9h4.9a9,9,0,0,1,9,9Z"/><path class="cls-4" d="M241.48,283a7.64,7.64,0,0,0-4,14.12V311.3h7.89V297.23a7.62,7.62,0,0,0-3.85-14.2Z"/><path class="cls-4" d="M241.48,191.17a28.64,28.64,0,0,0-28.59,28.59v18.9h57.19v-18.9A28.64,28.64,0,0,0,241.48,191.17Z"/></svg>