<svg id="Layer_1" data-name="Layer 1" xmlns="http://www.w3.org/2000/svg" viewBox="0 0 500 500"><defs><style>.cls-1{fill:#24005b;}.cls-2{fill:#e1deff;}.cls-3{fill:#5525ac;}</style></defs><polygon class="cls-1" points="284.7 327.45 209.37 252.12 209.37 262.14 288.46 341.23 424.56 204.94 415.9 196.27 284.7 327.45"/><polygon class="cls-1" points="486.22 50.67 458.18 238.01 469.16 248.99 500 48.61 486.22 50.67"/><polygon class="cls-2" points="486.24 50.58 486.22 50.67 458.18 238.01 424.83 204.67 424.56 204.94 415.9 196.27 284.7 327.45 209.37 252.12 340.54 120.92 298.33 78.71 486.24 50.58"/><polygon class="cls-1" points="116.07 241.47 74.74 200.14 74.74 205.64 118.13 249.03 192.81 174.25 188.05 169.5 116.07 241.47"/><polygon class="cls-1" points="226.63 89.61 211.25 192.4 217.27 198.42 234.19 88.48 226.63 89.61"/><polygon class="cls-2" points="226.64 89.57 226.63 89.61 211.25 192.4 192.96 174.11 192.81 174.25 188.05 169.5 116.07 241.47 74.74 200.14 146.71 128.16 123.55 105 226.64 89.57"/><rect class="cls-3" x="236.36" y="397.74" width="118.94" height="13.6" transform="translate(-199.39 327.63) rotate(-45)"/><rect class="cls-3" x="34.35" y="320.65" width="152.18" height="13.6" transform="translate(-199.18 173.97) rotate(-45)"/><rect class="cls-3" x="-6.27" y="170.4" width="75.6" height="13.6" transform="translate(-116.05 74.19) rotate(-45)"/><rect class="cls-3" x="404.77" y="314.28" width="75.6" height="13.6" transform="translate(-97.42 406.94) rotate(-45)"/></svg>