<svg xmlns="http://www.w3.org/2000/svg" width="32" height="32" fill="none" xmlns:v="https://vecta.io/nano"><path d="M0 4a4 4 0 0 1 4-4h24a4 4 0 0 1 4 4v24a4 4 0 0 1-4 4H4a4 4 0 0 1-4-4V4z" fill="#fff"/><path d="M7.361 4C5.345 4 4 5.345 4 7.36v17.28C4 26.655 5.345 28 7.361 28h17.278C26.655 28 28 26.655 28 24.64V7.36C28 5.345 26.655 4 24.639 4H7.361z" fill="#752d1e"/><path d="M5.012 7.406c0-1.441.958-2.398 2.399-2.398h17.183c1.441 0 2.399.957 2.399 2.398v3.073c0 3.36-1.199 5.325-3.311 5.325-3.648 0-8.062-4.559-11.761-4.559-2.832 0-5.281 1.869-6.909 5.95V7.406zM26.997 24.59c0 1.441-.958 2.398-2.399 2.398H7.411c-1.441 0-2.399-.957-2.399-2.398v-3.073c0-3.36 1.199-5.325 3.311-5.325 3.648 0 8.062 4.559 11.761 4.559 2.832 0 5.281-1.869 6.913-5.95v9.789zM7.361 4C5.345 4 4 5.345 4 7.36v17.28C4 26.655 5.345 28 7.361 28h17.278C26.655 28 28 26.655 28 24.64V7.36C28 5.345 26.655 4 24.639 4H7.361h0z" fill="#d99d2a"/></svg>