<svg xmlns="http://www.w3.org/2000/svg" width="32" height="32" fill="none" xmlns:v="https://vecta.io/nano"><path d="M0 4a4 4 0 0 1 4-4h24a4 4 0 0 1 4 4v24a4 4 0 0 1-4 4H4a4 4 0 0 1-4-4V4z" fill="#fff"/><g fill="#008b9a"><path d="M8.519 14.828c-1.065 0-2.012.541-2.545 1.469-.523.912-.537 2.031 0 2.941.52.881 1.5 1.348 2.505 1.348 3.107 0 5.124-3.158 6.757-5.716l1.067-1.613.597-.773c.281-.334.579-.65.9-.939 1.191-1.072 2.695-1.788 4.767-1.795h.033v3.507c-.94 0-1.834.345-2.706.899-.407.259-.81.563-1.21.899-.919.772-1.758 1.63-2.596 2.487L13.3 20.188l-.949.713-.72.45c-.96.543-2.018.899-3.131.899-.974-.002-1.921-.314-2.7-.899-.182-.137-.354-.288-.513-.45A4.48 4.48 0 0 1 4 17.754c0-.47.072-.923.206-1.349.285-.907.85-1.69 1.594-2.248.778-.584 1.728-.899 2.7-.899 1.202.003 2.342.349 3.401.899.478.248.944.537 1.399.853l.066.046.068.043.09.057.322.219.006.004-.85 1.229c-1.276-.927-2.863-1.78-4.483-1.78z"/><path d="M22.6 13.257v3.461c1.068.004 1.935.88 1.935 1.935 0 1.067-.867 1.921-1.927 1.935H22.6h.003l-.023-.001v.001c-.118 0-.236-.007-.354-.018-1.596-.304-3.512-1.945-4.797-3.046l-.037-.031-1.108 1.107c1.935 1.705 4.492 3.637 7.191 3.651h.047a4.48 4.48 0 0 0 2.677-.899 4.53 4.53 0 0 0 .513-.45A4.48 4.48 0 0 0 28 17.753a4.5 4.5 0 0 0-.206-1.349c-.285-.907-.85-1.69-1.594-2.248a4.48 4.48 0 0 0-2.677-.899H22.6z"/></g></svg>