<svg xmlns="http://www.w3.org/2000/svg" xmlns:xlink="http://www.w3.org/1999/xlink" width="32" height="32" fill="none" xmlns:v="https://vecta.io/nano"><path d="M0 4a4 4 0 0 1 4-4h24a4 4 0 0 1 4 4v24a4 4 0 0 1-4 4H4a4 4 0 0 1-4-4V4z" fill="#fff"/><path d="M7.607 11.684a3.6 3.6 0 0 0 3.607-3.592A3.6 3.6 0 0 0 7.607 4.5 3.6 3.6 0 0 0 4 8.092a3.6 3.6 0 0 0 3.607 3.592z" fill="url(#A)"/><path d="M24.391 27.5a3.6 3.6 0 0 0 3.607-3.592 3.6 3.6 0 1 0-7.215 0 3.6 3.6 0 0 0 3.607 3.592z" fill="url(#B)"/><g fill-rule="evenodd"><path d="M14.486 6.628L10.373 27.5H4L14.486 6.628z" fill="url(#C)"/><path d="M21.53 4.5l-4.216 21.261a3.39 3.39 0 0 1-2.964 1.739h-3.977l4.113-20.872.132-.264a3.39 3.39 0 0 1 3.03-1.864h3.882z" fill="url(#D)"/><path d="M28.001 4.5L17.316 25.761C17.29 25.811 21.532 4.5 21.532 4.5h6.469z" fill="url(#E)"/></g><defs><radialGradient id="A" cx="0" cy="0" r="1" gradientTransform="translate(11.2147 8.09217) rotate(180) scale(8.06181 8.02776)" xlink:href="#F"><stop stop-color="#6850a1"/><stop offset="1" stop-color="#afaad4"/></radialGradient><radialGradient id="B" cx="0" cy="0" r="1" gradientTransform="translate(27.9979 23.9078) rotate(180) scale(7.21473 7.18426)" xlink:href="#F"><stop stop-color="#6850a1"/><stop offset="1" stop-color="#afaad4"/></radialGradient><radialGradient id="C" cx="0" cy="0" r="1" gradientTransform="translate(14.4864 6.62773) rotate(-168.943) scale(21.357 21.2735)" xlink:href="#F"><stop stop-color="#6850a1"/><stop offset=".47" stop-color="#7b69af"/><stop offset="1" stop-color="#afaad4"/></radialGradient><radialGradient id="D" cx="0" cy="0" r="1" gradientTransform="translate(21.5295 4.5) rotate(-168.833) scale(24.7439 24.6472)" xlink:href="#F"><stop stop-color="#6850a1"/><stop offset="1" stop-color="#afaad4"/></radialGradient><radialGradient id="E" cx="0" cy="0" r="1" gradientTransform="translate(28.0005 4.5) rotate(-153.51) scale(10.9848 10.957)" xlink:href="#F"><stop stop-color="#6850a1"/><stop offset="1" stop-color="#afaad4"/></radialGradient><linearGradient id="F" gradientUnits="userSpaceOnUse"/></defs></svg>