<svg xmlns="http://www.w3.org/2000/svg" width="32" height="32" fill="none" xmlns:v="https://vecta.io/nano"><path d="M0 4a4 4 0 0 1 4-4h24a4 4 0 0 1 4 4v24a4 4 0 0 1-4 4H4a4 4 0 0 1-4-4V4z" fill="#fff"/><g fill-rule="evenodd"><path d="M6.155 19.733L10 26.392h2.867l-3.83-6.603.731-1.265 4.543 7.868H22l1.435-2.486-7.644.003L11.225 16l1.663-2.88H9.973l-3.818 6.613zm18 2.927L28 16l-1.433-2.483-3.803 6.618h-1.461l4.543-7.868L22 5.608h-2.871l3.825 6.618-4.567 7.91h-3.325l1.457 2.524h7.636zM16.93 9.341l-.73-1.265-7.633.015L10 5.608h7.69l3.818 6.613-1.457 2.524-1.663-2.88H9.254l-3.819 6.621L4 16l3.845-6.659h9.085z" fill="#b11116"/><path d="M16 13.13c1.608 0 2.914 1.306 2.914 2.914S17.609 18.959 16 18.959s-2.914-1.306-2.914-2.914S14.392 13.13 16 13.13z" fill="#00a1bf"/></g></svg>