<svg xmlns="http://www.w3.org/2000/svg" width="32" height="32" fill="none" xmlns:v="https://vecta.io/nano"><path d="M0 4a4 4 0 0 1 4-4h24a4 4 0 0 1 4 4v24a4 4 0 0 1-4 4H4a4 4 0 0 1-4-4V4z" fill="#fff"/><path fill-rule="evenodd" d="M14.139 5.875a10.11 10.11 0 0 1 6.887 2.695c-2.855 2.785-4.304 5.968-4.608 6.81-.046.139-.176.151-.253.021-1.084-2.61-3.892-4.572-6.588-4.5-.117.004-.165.129-.081.218 2.069 2.96.925 9.379 6.604 12.206.226.116.337.015.35-.144.802-6.929 5.823-14.076 11.296-15.868.032-.013.136-.027.205.045s.051.176.028.214c-1.381 2.232-2.073 6.324-3.288 9.953-1.642 4.9-5.09 8.6-10.552 8.6C8.54 26.125 4 21.591 4 16S8.54 5.875 14.139 5.875z" fill="#7ec242"/></svg>