<svg xmlns="http://www.w3.org/2000/svg" width="32" height="32" fill="none" xmlns:v="https://vecta.io/nano"><path d="M0 4a4 4 0 0 1 4-4h24a4 4 0 0 1 4 4v24a4 4 0 0 1-4 4H4a4 4 0 0 1-4-4V4z" fill="#fff"/><path d="M9.145 7.709H22.5L18.41 4H5.917C4.739 4 4.5 5.653 4.5 5.653v11.753S4.816 23 12.518 23s6.763-5.2 6.763-5.2-.709 3.152-4.952 3.152-5.183-3.624-5.183-3.624v-9.62zm13.71 16.582H9.5L13.59 28h12.492c1.178 0 1.418-1.653 1.418-1.653V14.602S27.184 9 19.482 9s-6.763 5.2-6.763 5.2.709-3.152 4.953-3.152 5.183 3.624 5.183 3.624v9.62z" fill="#007d3d"/><path d="M16.202 20.412a4.44 4.44 0 1 0 0-8.892 4.44 4.44 0 1 0 0 8.892z" fill="#fff400"/></svg>