<svg xmlns="http://www.w3.org/2000/svg" width="32" height="32" fill="none" xmlns:v="https://vecta.io/nano"><path d="M0 4a4 4 0 0 1 4-4h24a4 4 0 0 1 4 4v24a4 4 0 0 1-4 4H4a4 4 0 0 1-4-4V4z" fill="#fff"/><path d="M19.639 7.702c0 2.039-1.624 3.702-3.615 3.702S12.41 9.741 12.41 7.702 14.034 4 16.025 4s3.615 1.663 3.615 3.702zm-7.278 4.584c0 1.512-1.204 2.745-2.68 2.745S7 13.797 7 12.286 8.204 9.54 9.68 9.54s2.68 1.233 2.68 2.745zm12.639.05c0 1.512-1.204 2.745-2.68 2.745s-2.68-1.233-2.68-2.745 1.204-2.745 2.68-2.745S25 10.824 25 12.336zm-8.975 6.371c1.476 0 2.68-1.233 2.68-2.745s-1.204-2.745-2.68-2.745-2.68 1.233-2.68 2.745 1.204 2.745 2.68 2.745zm-5.41 1.814c.962 0 1.746-.803 1.746-1.788s-.784-1.788-1.746-1.788-1.746.803-1.746 1.788.784 1.788 1.746 1.788zm12.59-1.789c0 .985-.784 1.788-1.746 1.788s-1.746-.803-1.746-1.788.784-1.788 1.746-1.788 1.746.803 1.746 1.788zM16 24.248c.962 0 1.746-.803 1.746-1.788s-.784-1.788-1.746-1.788-1.746.803-1.746 1.788.784 1.788 1.746 1.788zm-3.541.982c0 .513-.409.932-.91.932s-.91-.419-.91-.932.409-.932.91-.932.91.419.91.932zm8.115.932c.501 0 .91-.419.91-.932s-.409-.932-.91-.932-.91.419-.91.932.409.932.91.932zm-3.615.906c0 .513-.409.932-.91.932s-.91-.419-.91-.932.409-.932.91-.932.91.419.91.932z" fill="#324c88"/></svg>