<svg xmlns="http://www.w3.org/2000/svg" width="32" height="32" fill="none" xmlns:v="https://vecta.io/nano"><path d="M0 4a4 4 0 0 1 4-4h24a4 4 0 0 1 4 4v24a4 4 0 0 1-4 4H4a4 4 0 0 1-4-4V4z" fill="#fff"/><g fill-rule="evenodd"><path d="M19.76 21.283C8.981 30.41-1.72 16.552 7.506 7.213 3.21 17.338 11.113 25.001 19.76 21.283zm1.486-9.185c9.282 10.654-4.361 21.612-13.828 12.518 10.169 4.139 17.679-3.912 13.828-12.518zm-9.044-1.441c10.72-9.197 21.51 4.592 12.344 13.991 4.231-10.153-3.721-17.765-12.344-13.991zm-1.793 8.645C2.176 7.814 16.792-1.798 25.357 8.155c-9.732-5.086-17.969 2.214-14.949 11.147z" fill="#4c2a93"/><path d="M16 20.5a4.51 4.51 0 0 0 4.5-4.5 4.51 4.51 0 0 0-4.5-4.5 4.51 4.51 0 0 0-4.5 4.5 4.51 4.51 0 0 0 4.5 4.5z" fill="#f10b7c"/></g></svg>