<svg width="66" height="45" viewBox="0 0 66 45" fill="none" xmlns="http://www.w3.org/2000/svg">
  <path d="M12.4805 9.54248C12.4805 4.27232 16.7528 0 22.023 0H42.9851C48.2553 0 52.5276 4.27232 52.5276 9.54248V30.5047C52.5276 35.7748 48.2553 40.0471 42.9851 40.0471H22.023C16.7528 40.0471 12.4805 35.7748 12.4805 30.5047V9.54248Z" fill="url(#paint0_linear_12515_13661)"></path>
  <path fill-rule="evenodd" clip-rule="evenodd" d="M20.5517 7.25168C21.1375 7.00906 21.8118 7.1432 22.2601 7.59156L33.6232 18.9559C34.2354 19.5681 34.2353 20.5607 33.6231 21.1728C33.0109 21.785 32.0184 21.7849 31.4062 21.1727L22.7192 12.4847V20.8867C22.7192 24.3727 24.5454 27.4331 27.3007 29.1614C28.0341 29.6215 28.2557 30.589 27.7956 31.3224C27.3356 32.0558 26.3681 32.2774 25.6347 31.8173C22.0036 29.5396 19.584 25.4963 19.584 20.8867V8.69995C19.584 8.06591 19.9659 7.4943 20.5517 7.25168ZM43.8032 7.13237C44.6689 7.13237 45.3707 7.8342 45.3707 8.69995V20.8867C45.3707 28.008 39.5983 33.7813 32.4774 33.7813C31.6116 33.7813 30.9098 33.0795 30.9098 32.2137C30.9098 31.348 31.6116 30.6461 32.4774 30.6461C37.8665 30.6461 42.2356 26.2768 42.2356 20.8867V8.69995C42.2356 7.8342 42.9374 7.13237 43.8032 7.13237Z" fill="white"></path>
  <defs>
    <linearGradient id="paint0_linear_12515_13661" x1="49.7305" y1="37.25" x2="15.2646" y2="2.78415" gradientUnits="userSpaceOnUse">
      <stop stop-color="#433DD7"></stop>
      <stop offset="1" stop-color="#226CE9"></stop>
    </linearGradient>
  </defs>
</svg>