<svg xmlns="http://www.w3.org/2000/svg" width="32" height="32" fill="none" xmlns:v="https://vecta.io/nano"><path d="M0 4a4 4 0 0 1 4-4h24a4 4 0 0 1 4 4v24a4 4 0 0 1-4 4H4a4 4 0 0 1-4-4V4z" fill="#fff"/><path fill-rule="evenodd" d="M4.005 15.386c.144-1.224 2.689-4.122 5.469-6.606 2.875-2.568 7.111-4.769 8.352-4.78 1.196-.011 3.626 2.805 6.116 5.725l2.514 3.02c.77.943 1.522 1.824 1.543 2.596.038 1.415-1.391 1.565-7.995 7.267-2.137 1.845-4.213 3.776-5.503 4.938a1.76 1.76 0 0 1-2.546-.198l-3.888-4.863c-1.65-2.133-4.192-5.992-4.062-7.1zm7.967 11.204l.081.05a1.81 1.81 0 0 0 2.085-.138l3.028-2.439 8.477-6.633c-1.694 1.32-8.63 7.611-11.635 9.909-.313.197-.693.257-1.052.166s-.663-.326-.843-.649c-.048-.086-.095-.175-.141-.265zm-.229-1.072l.124.076a1.81 1.81 0 0 0 2.034-.098l10.33-7.785c-1.683 1.311-7.642 6.503-10.446 8.572-.312.196-.692.256-1.049.165s-.662-.325-.842-.647l-.151-.282zm-.254-1.071l.154.094a1.81 1.81 0 0 0 1.995-.07l9.204-6.561c-1.67 1.302-6.707 5.477-9.306 7.319-.312.195-.69.254-1.046.163s-.66-.323-.84-.644l-.161-.301zm-.198-1.006l.171.104a1.81 1.81 0 0 0 1.973-.054l7.704-5.317c-1.664 1.297-5.531 4.435-7.822 6.006a1.35 1.35 0 0 1-1.027.167c-.351-.084-.653-.305-.839-.614l-.159-.292zm-6.365-9.482l-.173.428a1.8 1.8 0 0 0 .077 1.518l1.339 2.445c.9 1.587 3.826 5.875 3.826 5.875-1.065-1.407-2.166-2.822-3.213-4.329-.799-1.15-1.565-2.395-2.356-3.838a1.34 1.34 0 0 1-.151-.834c.044-.319.123-.615.651-1.266zm6.176 8.414l.252.133a1.81 1.81 0 0 0 1.8-.062l6.32-3.919c-1.641 1.279-4.362 3.327-6.342 4.609-.305.188-.672.247-1.021.163s-.649-.302-.836-.607l-.173-.317zm-5.572-8.8l-.179.495a1.8 1.8 0 0 0 .084 1.422c.31.611.797 1.543 1.338 2.475.743 1.279 2.756 4.497 2.756 4.497-1.065-1.407-1.096-1.444-2.143-2.951-.803-1.156-1.509-2.348-2.294-3.79a1.34 1.34 0 0 1-.16-.738c.025-.372.024-.703.597-1.408zm5.298 7.702l.173.116a1.81 1.81 0 0 0 1.874.087l4.857-2.643a78.31 78.31 0 0 1-4.819 3.277 1.35 1.35 0 0 1-1.031.17c-.352-.084-.656-.307-.842-.617l-.212-.39zm-4.593-8.086l-.179.495a1.8 1.8 0 0 0 .084 1.422c.31.611.705 1.516 1.245 2.447l2.485 4.355c-1.038-1.425-1.253-1.823-2.219-3.383-.743-1.199-1.075-1.659-1.829-3.053-.134-.248-.245-.703-.209-.982.043-.343.079-.633.622-1.3zm4.364 7.018l.167.115a1.81 1.81 0 0 0 1.698.185l3.653-1.471-3.45 2.047a1.35 1.35 0 0 1-1.84-.459l-.228-.418zm-3.638-7.42s-.104.226-.179.495c-.152.547-.139.993.032 1.394.269.63.519 1.103 1.029 2.09l2.153 4.25c-1.038-1.425-2.694-4.551-3.448-5.945-.134-.248-.245-.703-.209-.982.043-.343.079-.633.622-1.3zM18.761 9.05a.84.84 0 0 0-.42-.543c-.211-.113-.46-.131-.686-.049l-7.606 2.758c-.406.147-.649.561-.58.987l1.165 7.173c.047.29.219.545.47.698a1.01 1.01 0 0 0 .837.097l7.91-2.575c.511-.166.808-.697.681-1.218L18.761 9.05zM7.738 12.321a3.39 3.39 0 0 0-.256.748c-.092.413-.07.783.101 1.184.269.63.433.989.897 1.997l1.39 3.071c-1.124-1.709-1.773-3.123-2.527-4.517a2.64 2.64 0 0 1-.235-1.14c.043-.343.087-.676.629-1.344zm.804-.435c-.109.224-.195.476-.256.748-.092.413-.02.765.101 1.184.205.705 1.396 4.092 1.396 4.092-1.051-2.054-1.113-2.322-1.681-3.575-.116-.257-.254-.819-.218-1.098.043-.343.116-.684.658-1.351zm11.983 5.666l.115-.167c.343-.498.467-1.188.274-1.761-.488-1.453-1-3.302-1-3.302l1.445 3.227c.249.701.217 1.393-.415 1.775l-.418.228zm.977-.122l.115-.167c.342-.498.492-1.209.252-1.763l-2.396-5.333s2.686 4.72 2.868 5.22c.32.884.212 1.433-.42 1.816l-.418.228zm1.001-.126l.115-.167c.342-.498.487-1.277.252-1.763-.779-1.613-3.397-6.426-3.397-6.426s3.653 5.627 3.869 6.313c.282.897.155 1.368-.42 1.815-.124.096-.275.154-.418.228zm1.037-.109l.115-.167c.343-.498.491-1.313.252-1.763-.917-1.725-4.682-7.73-4.682-7.73s4.916 6.888 5.196 7.607c.341.876.112 1.377-.463 1.824-.123.096-.275.154-.418.228zm.939-.116l.115-.167c.342-.498.518-1.328.252-1.763-1.367-2.234-5.621-8.518-5.621-8.518.596.637 5.259 6.676 6.135 8.396.427.838.112 1.377-.463 1.824-.123.096-.275.154-.418.228zm1.094-.154l.115-.167c.343-.498.477-1.521.177-1.933l-6.64-8.943c.931.916 6.039 7.24 7.229 8.991.333.49.111 1.377-.463 1.824-.123.096-.275.155-.418.228zM19.062 5.092l-.037-.028c.004-.001.016.009.037.028 1.385 1.076 7.316 7.815 8.392 9.62.314.528.112 1.377-.463 1.825-.123.096-.275.154-.418.228l.115-.167c.342-.498.531-1.316.219-1.809-1.492-2.363-7.32-9.205-7.845-9.696zm-9.712 6.377c-.109.224-.188.413-.249.685-.092.413-.081.714-.001 1.143a103.91 103.91 0 0 1 .427 2.525l-.629-2.023c-.081-.27-.263-.732-.227-1.011.043-.343.071-.642.678-1.318zm-2.248.088c3.027-3.646 9.01-7.393 10.628-7.336.489.017.856.498.856.498s-.449-.192-.856-.194c-1.714-.009-7.493 3.712-10.628 7.032zm.984-.483c2.701-2.917 8.026-6.374 9.644-6.317.489.017.793.445.793.445s-.387-.139-.793-.141c-1.714-.009-6.373 3.093-9.644 6.014zm.58-.076c2.663-2.624 7.603-5.757 9.064-5.722.557.013.731.438.731.438s-.325-.132-.731-.134c-1.565-.009-5.797 2.799-9.064 5.418zm.861-.286c2.527-2.345 6.91-4.944 8.229-4.856.556.037.731.438.731.438s-.325-.127-.731-.134c-1.314-.022-4.861 2.12-8.229 4.553zm1.07-.377c2.727-2.103 6.127-3.963 7.159-3.922.557.022.731.438.731.438s-.326-.106-.731-.134c-.741-.051-3.837 1.469-7.159 3.618zm1.373-.4c2.405-1.615 4.754-2.894 5.786-2.853.557.023.731.379.731.379s-.294-.065-.758-.072c-.743-.011-2.667.861-5.76 2.546zm1.334-.304c1.656-1.087 3.555-1.888 4.452-1.888.558 0 .731.378.731.378s-.295-.107-.758-.072c-.921.071-2.507.733-4.426 1.581z" fill="url(#A)"/><defs><linearGradient id="A" x1="28" y1="15.395" x2="4" y2="15.395" gradientUnits="userSpaceOnUse"><stop stop-color="#007773"/><stop offset="1" stop-color="#0ed068"/></linearGradient></defs></svg>