<svg xmlns="http://www.w3.org/2000/svg" width="32" height="32" fill="none" xmlns:v="https://vecta.io/nano"><path d="M0 4a4 4 0 0 1 4-4h24a4 4 0 0 1 4 4v24a4 4 0 0 1-4 4H4a4 4 0 0 1-4-4V4z" fill="#fff"/><g fill-rule="evenodd"><path d="M16.969 28h-1.94v-1.471h-.883v-1.815l-3.911-.004.005-4.626h-.922l-.003-.407H8.177v-.622h-.714v-.927h.714v-.815h1.111l-.32-.493H7.113c-.258 0-.426.32-.426.32l-.318-.1c.029-.132.071-.26.123-.384l.163-.419.015-.038.08-.18c.15-.36.416-.659.757-.85.045-.022.092-.041.141-.056a1.11 1.11 0 0 1 .266-.05h.082l.008-.019.011-.027c.033-.074.075-.144.126-.207.033-.039.069-.075.108-.109.157-.141.349-.24.556-.284l-.01-1.737.937.003-.002-1.231.917-.005.004-.82.559-.003L10.56 9.5h-.87l1.45-1.453 2.496.003V5.3h1.414V4h1.9v1.3h1.412v2.75l2.496-.003L22.309 9.5h-.87l-.65 1.123.559.002.003.82.916.006-.004 1.229.937-.003-.009 1.738a1.22 1.22 0 0 1 .558.285.9.9 0 0 1 .11.114.97.97 0 0 1 .126.208l.012.027.007.018h.083a1.11 1.11 0 0 1 .266.05 1.08 1.08 0 0 1 .141.056c.34.191.606.49.756.85l.081.18.015.038.164.419c.052.124.094.253.123.384l-.318.1s-.169-.32-.427-.32h-1.855l-.32.493h1.111v.815h.715v.918h-.718v.622h-1.134l-.003.407h-.921l.005 4.627-3.911.004v1.816h-.886V28z" fill="url(#A)"/><path d="M16.562 27.6h-1.125v-1.471h-.882v-1.42h.884v.814h1.121v-.814h.884v1.42h-.883V27.6zm4.785-3.291H10.652v-4.45h10.694v4.45zm-1.761-.535c.005.025.003.05-.006.074a.53.53 0 0 1-.04.09.33.33 0 0 1-.073.091c-.012.014-.028.024-.046.027-.019-.006-.036-.017-.05-.031l-.066-.053c-.018-.013-.034-.028-.05-.043-.011-.008-.019-.021-.021-.035l.032-.069.053-.11.064-.107.021-.031c.007.006.014.012.021.017l.029.017c.036.027.07.056.1.09.017.021.028.046.032.072h-.002zm-2.678-.496a2.43 2.43 0 0 0 .48-.046 2.95 2.95 0 0 0 .413-.112c.122-.044.237-.104.343-.179a1.35 1.35 0 0 0 .268-.244l.1-.131.046-.062.015.044-.016.133a1.47 1.47 0 0 0-.012.179.66.66 0 0 0 .044.261c.026.066.092.108.163.103.05 0 .099-.037.146-.111.057-.098.096-.204.118-.315l.009-.044a.25.25 0 0 0 .006-.041c0-.023-.006-.035-.018-.035s-.018.011-.023.031l-.016.055c-.026.071-.056.107-.089.107-.039.001-.078-.01-.111-.031-.057-.048-.087-.122-.079-.196v-.053c0-.041.004-.103.011-.184l.032-.27.075-.361.011-.053.083-.056.334-.253.286-.187.243-.169.29-.215.183-.144a1.29 1.29 0 0 0 .105-.096l.123-.128c.035-.041.068-.084.097-.129.029-.039.052-.083.068-.129.005-.008.007-.018.007-.027 0 .004-.089.08-.268.227l-.282.233-.315.236-.457.316c-.148.105-.289.218-.424.339-.032.027-.06.059-.082.095-.004.006-.008.012-.012.018-.016.027-.031.056-.044.085l-.016.031a1.34 1.34 0 0 0-.078.176l-.05.196a.85.85 0 0 1-.118.255.86.86 0 0 1-.275.237 2.2 2.2 0 0 1-.958.271 3.96 3.96 0 0 1-.325.011c-.163.022-.329-.014-.468-.103-.029-.033-.047-.075-.05-.119s-.009-.067-.016-.067c-.019 0-.034.039-.044.117s-.016.151-.016.227a.29.29 0 0 0 .056.195.36.36 0 0 0 .209.091c.083.013.166.019.25.018l.05.005zm-3.672-.929c-.002.046-.008.092-.018.137l-.036.168-.043.169-.057.141a1.05 1.05 0 0 1-.059.107c-.015.024-.034.046-.056.064a.62.62 0 0 1-.097.056l-.128.05c-.028.009-.056.015-.084.02s-.056.012-.084.014c-.012 0-.019-.004-.021-.012s.001-.021.007-.029c.025-.033.055-.062.09-.085l.145-.106.121-.114a.77.77 0 0 0 .107-.141c.012-.023.022-.046.03-.071l.063-.173.043-.124c.005-.018.012-.041.021-.067s.021-.04.036-.04c.009.01.015.022.018.035l.001.001zm2.615.389v.003l.089-.09c.037-.042.068-.09.089-.142.029-.072.05-.147.063-.224a1.28 1.28 0 0 0 .027-.215v-.189c0-.066.004-.133.012-.2l.003-.117c.008-.013.017-.018.028-.026l.105-.072.255-.173.296-.195.25-.177.3-.226.19-.15c.037-.031.074-.065.111-.103l.13-.136c.038-.044.072-.091.104-.14a.57.57 0 0 0 .075-.14c.005-.009.008-.02.008-.03 0 .005-.093.085-.28.241l-.295.247-.328.25-.474.331c-.122.081-.239.169-.35.264-.034.029-.063.063-.087.1a.91.91 0 0 0-.064.116l-.006.014v.003l-.121.281c-.011.028-.017.058-.018.088l-.003.136.003.224a.52.52 0 0 1-.035.214c-.011.023-.025.045-.041.065a.16.16 0 0 1-.041.039l-.021.01c-.017.002-.034 0-.05-.006l-.036.05c-.019.025-.045.044-.075.053-.014.008-.032.005-.043-.007l-.046.047c-.022.024-.053.038-.086.04a.61.61 0 0 1-.097-.007l-.154.107c-.043.027-.092.041-.143.04-.085.007-.167-.032-.214-.104a.32.32 0 0 1-.039-.17c0-.027 0-.07.007-.131l.025-.214.061-.408.014-.087c.004-.018.005-.036.003-.053l-.014.006-.085.187-.057.137-.064.473-.04.35c.001.031.003.062.007.092s.008.058.018.085c.025.104.119.177.226.177.099-.005.188-.06.236-.147.067-.098.12-.147.161-.147l.05.005c.014.002.027.002.041 0 .026-.01.049-.025.069-.043a.64.64 0 0 1 .065-.05.12.12 0 0 1 .05-.015c.015-.001.03-.006.043-.014.019-.018.035-.032.05-.042a.18.18 0 0 1 .039-.024l.081-.038.021-.017.003-.006zm-2.958-1.347c.003-.008.001-.016-.003-.022s-.015-.015-.025-.02c-.044.01-.086.026-.125.05a1.11 1.11 0 0 0-.133.079l-.111.082a1.96 1.96 0 0 0-.182.184c-.076.085-.14.181-.19.284a.59.59 0 0 0-.068.238.15.15 0 0 0 .029.097c.022.026.05.046.082.058.016.008.033.013.05.018l.072.019c.033.01.05.024.05.044-.002.039-.015.078-.037.11a.69.69 0 0 1-.109.131c-.052.049-.113.089-.178.118a.71.71 0 0 1-.296.065.47.47 0 0 1-.287-.076c-.065-.048-.103-.125-.1-.206a1.07 1.07 0 0 1 .104-.369l.043-.09.064-.13.05-.105c.006-.021.019-.047.034-.08.005-.011.008-.023.007-.035 0-.02-.009-.029-.025-.029-.007 0-.016.009-.027.026l-.03.05-.082.159-.104.204a2 2 0 0 0-.111.262 1.12 1.12 0 0 0-.043.167.99.99 0 0 0-.014.17.53.53 0 0 0 .021.144c.015.052.041.101.075.144a.39.39 0 0 0 .333.136c.122.003.242-.029.346-.09a.77.77 0 0 0 .147-.11 1.17 1.17 0 0 0 .118-.13 1.17 1.17 0 0 0 .161-.329 1.12 1.12 0 0 0 .061-.335c.007-.054-.014-.108-.057-.142-.011-.008-.024-.015-.037-.02l-.045-.016-.064-.03c-.015-.015-.024-.034-.025-.055.009-.032.026-.061.05-.084.043-.052.091-.098.145-.14a.62.62 0 0 1 .146-.097.3.3 0 0 1 .114-.033c.008 0 .016.003.023.008l.027.018c.014 0 .031-.013.05-.039a.9.9 0 0 0 .041-.076 1.12 1.12 0 0 0 .05-.104c.009-.025.017-.05.021-.076h-.003zm1.492 1.389l-.05.127a.75.75 0 0 1-.077.129c-.02.03-.045.057-.073.079a.55.55 0 0 1-.107.047l-.075.027-.114.038c-.037.012-.075.021-.114.024l-.014-.007c0-.016.043-.05.128-.103l.139-.096.079-.059c.033-.027.065-.056.094-.088s.052-.067.066-.106c0-.007.002-.014.003-.021l-.093.007a.15.15 0 0 1-.107-.04c-.027-.021-.04-.054-.036-.088a.3.3 0 0 1 .018-.066 1.77 1.77 0 0 1 .065-.137.78.78 0 0 1 .065-.11c.031-.041.061-.062.089-.062.048 0 .094.022.125.059a.2.2 0 0 1 .053.141c0 .028-.002.055-.007.082l-.012.072-.016.074a.42.42 0 0 1-.025.074l-.003.002zm-.538-.459c-.002.046-.008.092-.018.137l-.036.169-.043.171-.057.141a1.05 1.05 0 0 1-.059.107c-.015.024-.034.046-.055.064a.63.63 0 0 1-.097.056l-.129.05c-.028.009-.056.015-.084.02s-.056.012-.084.014c-.012 0-.019-.004-.021-.012s.001-.021.007-.029a.36.36 0 0 1 .091-.086l.145-.107.121-.113a.77.77 0 0 0 .107-.141c.012-.023.022-.046.03-.07l.063-.174.043-.124.021-.067c.01-.027.021-.04.036-.04.009.009.015.021.018.034zm5.535.272c0-.027 0-.072.007-.134l.025-.22.061-.419.014-.09c.004-.018.006-.037.004-.055l-.015.007-.086.192-.057.141-.064.487-.04.358a.66.66 0 0 0 .044.262c.026.066.092.108.163.103.05 0 .099-.037.146-.112.057-.098.096-.204.118-.314l.009-.044a.25.25 0 0 0 .006-.041c0-.023-.006-.035-.018-.035s-.017.011-.023.031l-.016.055c-.026.071-.056.107-.09.107-.039.001-.078-.01-.111-.031-.057-.048-.087-.122-.078-.196v-.05-.001zm-5.982-1.023c.005.025.003.05-.005.074-.011.031-.024.061-.04.09a.33.33 0 0 1-.073.091c-.012.014-.028.024-.046.027-.019-.006-.036-.017-.05-.031l-.068-.054a.5.5 0 0 1-.05-.043c-.011-.008-.019-.021-.021-.034l.032-.069.053-.11.065-.107.021-.031c.007.007.014.012.021.018l.029.017c.036.026.07.056.1.09.017.021.028.046.032.072zm1.874-.457c-.004-.026-.015-.051-.032-.072a.68.68 0 0 0-.1-.09l-.028-.017c-.008-.005-.015-.011-.021-.017l-.021.031-.065.107-.053.11-.032.069c.003.014.01.026.021.035a.5.5 0 0 0 .05.043l.068.053c.014.014.031.025.05.031.018-.003.035-.013.046-.027.03-.026.055-.056.074-.091a.53.53 0 0 0 .04-.089c.008-.024.01-.049.005-.074h-.001zm.368-.02c.005.025.003.05-.005.074a.53.53 0 0 1-.04.09c-.019.035-.043.065-.073.091-.012.014-.028.024-.046.027-.019-.006-.036-.017-.05-.031l-.068-.053c-.018-.013-.034-.028-.05-.043-.011-.008-.019-.021-.021-.035l.032-.069.053-.11a.82.82 0 0 1 .065-.107l.021-.031c.006.006.014.012.021.017l.028.018c.036.026.07.056.1.089.017.021.028.046.033.072h-.001zm3.284-.026c.005.025.003.05-.005.074a.53.53 0 0 1-.04.09c-.019.034-.044.065-.073.091-.012.014-.028.024-.047.027-.019-.006-.036-.017-.05-.031l-.068-.054c-.018-.013-.034-.027-.05-.043-.011-.008-.019-.021-.021-.034l.032-.069.053-.11.064-.107.021-.031c.007.007.014.012.022.018l.028.017a.67.67 0 0 1 .1.09c.017.021.028.046.032.072zm-3.469-.4c-.005-.026-.016-.051-.032-.072a.66.66 0 0 0-.1-.089l-.028-.017c-.008-.005-.015-.011-.021-.017l-.021.031-.065.106-.053.11-.033.069c.002.014.01.026.021.034l.05.045.068.053c.014.013.031.023.05.029.018-.003.035-.013.046-.027a.33.33 0 0 0 .073-.091c.016-.029.029-.058.039-.09.008-.024.01-.049.006-.074h0zM13.771 8.425l.635 1.1v5.216l1.393 1.013v3.709h-1.621v-3.416l-1.6-1.6V10.59l-.935-1.62h-.854l.55-.55 2.433.004zm-1.392 6.389l1.4 1.4v3.25h-1.315l-1.979-3.044H7.022c.276-.718.73-1.15 1.3-.862.006-.457.171-.742.942-.742l3.115-.002zm-2.112 2.004l1.72 2.644h-.818l-1.716-2.644h.814zm7.553 2.644h-1.621v-3.709l1.392-1.012V9.525l.636-1.1h2.431l.55.55h-.854l-.935 1.62v3.855l-1.6 1.6.002 3.412zm3.693-3.044l-1.98 3.044h-1.313v-3.25l1.4-1.4h3.114c.771 0 .936.284.942.742.572-.289 1.026.144 1.3.863l-3.463.002zm-1.5 3.044l1.72-2.644h.814l-1.718 2.644h-.816zm-9.785-.716h-.962v-.455h.667l.296.455zm12.505 0h-.963l.296-.455h.666l.001.455zM16.539 5.7h1.411l.004 2.4-.762 1.32v5.119l-.992.72v-1.187l.356-.259V6.418h-1.112v7.394l.356.259v1.187l-.992-.722V9.418L14.045 8.1l.005-2.4h1.411V4.4h1.08v1.3zm-5.568 8.714h.4v-1.193h-.4v1.193zm.81 0h.4V10.7l-.766-1.327h-.453l.819 1.42v3.621zm8.85 0h.4v-1.193h-.4v1.193zm-.41 0h-.4V10.7l.766-1.327h.454l-.82 1.42v3.621z" fill="#1f261a"/></g><defs><linearGradient id="A" x1="25.632" y1="4" x2="6.368" y2="4" gradientUnits="userSpaceOnUse"><stop stop-color="#d8ac4e"/><stop offset="1" stop-color="#ece482"/></linearGradient></defs></svg>