<svg xmlns="http://www.w3.org/2000/svg" width="32" height="32" fill="none" xmlns:v="https://vecta.io/nano"><path d="M0 4a4 4 0 0 1 4-4h24a4 4 0 0 1 4 4v24a4 4 0 0 1-4 4H4a4 4 0 0 1-4-4V4z" fill="#fff"/><g fill="#f29200"><path d="M25.234 8.89l2.765-1.037V6.112l-2.886 1.444 2.886-2.319V4h-1.152l-2.584 2.801L25.98 4h-1.624l-1.462 2.667a4.43 4.43 0 0 1 2.341 2.223zm2.765 4.731l-2.7-1.134a4.4 4.4 0 0 0 .337-1.387c.054-.699-.058-1.372-.303-1.981l2.666-.645v1.164l-1.591.431 1.591.304v1.167l-1.256.049 1.256.465v1.566zm-23.998 3.3l12.951-5.073a4.43 4.43 0 0 0 1.747 2.53l-8.022 13.621H7.296l7.195-10.434L4.001 28v-5.232l8.986-7.033-8.986 4.52v-3.334zm9.281 11.077l5.668-13.457a4.39 4.39 0 0 0 1.944.622 4.43 4.43 0 0 0 1.342-.101l3.413 12.936h-2.647l-1.82-8.723-.119 8.723H18.36l.628-8.547-2.431 8.547h-3.275z"/><path d="M22.571 14.97l5.406 12.975.023.053v-6.024l-2.902-5.003L28 19.663v-2.066l-1.816-2.43L28 16.07v-1.59l-2.838-1.697c-.537 1.042-1.472 1.833-2.59 2.189zM23.678 4l-.993 2.589a4.43 4.43 0 0 0-1.113-.232 4.4 4.4 0 0 0-1.821.242L19.123 4h1.288l.298 1.107L20.751 4h1.183l-.086 1.425L22.29 4h1.388zm-4.151 2.686L18.475 4h-1.527l.56 1.256L16.497 4H14.48l1.668 1.824L13.575 4H9.6l7.841 4.495a4.43 4.43 0 0 1 2.086-1.809zM6.873 4l10.439 4.727a4.4 4.4 0 0 0-.482 1.694 4.42 4.42 0 0 0 .062 1.154L4.001 15.043v-3.061l8.423-1.134-8.423-.538V7.783l9.011 1.171-9.011-2.596V4h2.872z"/></g></svg>