<svg xmlns="http://www.w3.org/2000/svg" width="32" height="32" fill="none" xmlns:v="https://vecta.io/nano"><path d="M0 4a4 4 0 0 1 4-4h24a4 4 0 0 1 4 4v24a4 4 0 0 1-4 4H4a4 4 0 0 1-4-4V4z" fill="#fff"/><path fill-rule="evenodd" d="M22.587 22.851c-1.656 1.593-3.866 2.484-6.164 2.484a8.91 8.91 0 0 1-8.297-5.696c-.025-.068-.083-.118-.153-.133s-.144.002-.197.051l-3.704 3.381c-.044.039-.07.095-.071.153s.019.116.06.158a12.61 12.61 0 0 0 9.153 3.938c3.828 0 7.455-1.744 9.846-4.734.005-.006.007-.013.007-.02 0-.017-.014-.031-.031-.031-.009 0-.018.004-.024.011a11.74 11.74 0 0 1-.425.439zm-4.713-11.746c3.792 1.096 6.422 4.593 6.422 8.541 0 2.034-.698 4.007-1.976 5.589-.046.056-.061.131-.039.2s.074.124.143.145l4.78 1.517a.22.22 0 0 0 .275-.146 12.61 12.61 0 0 0 .522-3.59c0-6.204-4.578-11.532-10.711-12.466-.016-.003-.031.007-.035.022-.001.023.009.036.023.039.2.042.399.092.597.149zm-7.815 9.956a8.89 8.89 0 0 1-.26-2.133c0-4.877 4.013-8.891 8.891-8.891a8.9 8.9 0 0 1 1.38.108c.011.002.021.002.032.002.121 0 .22-.099.22-.22 0-.015-.002-.03-.005-.045l-1.077-4.897c-.012-.057-.047-.107-.097-.138s-.11-.042-.167-.027c-5.654 1.351-9.675 6.447-9.675 12.26 0 1.57.293 3.127.865 4.59.006.015.022.023.037.019s.023-.016.023-.03a10.14 10.14 0 0 1-.168-.599z" fill="#832d6a"/><path d="M19.907 9.604l-.945-4.297a.12.12 0 0 0-.056-.079c-.029-.018-.064-.023-.096-.014-5.272 1.376-9.025 6.108-9.164 11.555-.001.016.012.03.028.032s.031-.008.034-.023A9.28 9.28 0 0 1 19.77 9.756c.083.001.14-.056.14-.124 0-.009-.001-.018-.003-.027z" fill="url(#A)"/><path d="M22.871 25.362l4.194 1.33c.012.004.025.006.038.006.056 0 .106-.038.121-.091a12.3 12.3 0 0 0-5.425-13.71c-.032-.004-.047.011-.047.028 0 .008.003.016.009.022a9.28 9.28 0 0 1 1.049 12.226c-.024.032-.031.075-.018.113s.043.065.08.076z" fill="url(#B)"/><path d="M7.742 20.051l-3.249 2.964a.12.12 0 0 0-.041.089c-.001.034.012.067.036.091a12.3 12.3 0 0 0 14.589 2.158c.015-.008.021-.025.014-.04s-.022-.022-.037-.018A9.28 9.28 0 0 1 7.94 20.09a.12.12 0 0 0-.088-.072c-.04-.009-.082.003-.11.033z" fill="url(#C)"/><g fill-rule="evenodd"><path d="M16.132 14a4.4 4.4 0 0 1 5.047 3.632 4.4 4.4 0 0 1-3.632 5.047 4.4 4.4 0 0 1-5.047-3.632A4.4 4.4 0 0 1 16.132 14z" fill="#faa61a"/><path d="M20.646 16.93c-.777-2.102-3.114-3.178-5.216-2.401s-3.178 3.114-2.401 5.216 3.114 3.178 5.216 2.401 3.178-3.114 2.401-5.216z" fill="url(#D)"/></g><defs><radialGradient id="A" cx="0" cy="0" r="1" gradientUnits="userSpaceOnUse" gradientTransform="translate(13.2508 9.99859) rotate(-27.4744) scale(7.0445 7.59552)"><stop stop-color="#ec008c" stop-opacity=".408"/><stop offset="1" stop-color="#621a4f"/></radialGradient><radialGradient id="B" cx="0" cy="0" r="1" gradientUnits="userSpaceOnUse" gradientTransform="translate(27.0001 20.9986) rotate(-92.7263) scale(5.25595 27.5992)"><stop stop-color="#ec008c" stop-opacity=".408"/><stop offset="1" stop-color="#621a4f"/></radialGradient><radialGradient id="C" cx="0" cy="0" r="1" gradientUnits="userSpaceOnUse" gradientTransform="translate(10.4991 25.7486) rotate(19.179) scale(6.0879 5.729)"><stop stop-color="#ec008c" stop-opacity=".408"/><stop offset="1" stop-color="#621a4f"/></radialGradient><radialGradient id="D" cx="0" cy="0" r="1" gradientUnits="userSpaceOnUse" gradientTransform="translate(14.9841 16.2095) rotate(180) scale(5.95153)"><stop stop-color="#ffe293"/><stop offset="1" stop-color="#faa61a"/></radialGradient></defs></svg>