<svg xmlns="http://www.w3.org/2000/svg" width="32" height="32" fill="none" xmlns:v="https://vecta.io/nano"><path d="M0 4a4 4 0 0 1 4-4h24a4 4 0 0 1 4 4v24a4 4 0 0 1-4 4H4a4 4 0 0 1-4-4V4z" fill="#fff"/><path fill-rule="evenodd" d="M16.836 27.654a1.18 1.18 0 0 1-1.671 0l-2.169-2.169h2.253c.466 0 .912-.185 1.242-.514l5.495-5.495.024 3.005-5.174 5.174zm-8.073-5.478c.329.329.774.513 1.239.513h7.772l-2.107 2.142H7.169v-4.249l1.594 1.594zm16.069 2.655h-4.249l1.594-1.594c.329-.329.513-.775.513-1.239v-7.772l2.142 2.107v8.498zM4.346 16.836a1.18 1.18 0 0 1 0-1.671l2.169-2.169v2.253c0 .466.185.912.514 1.242l5.495 5.495-3.005.024-5.174-5.174zM16 10.492c3.04 0 5.508 2.468 5.508 5.508S19.04 21.508 16 21.508 10.492 19.04 10.492 16 12.96 10.492 16 10.492zm11.654 4.673a1.18 1.18 0 0 1 0 1.671l-2.169 2.169v-2.253c0-.466-.185-.912-.514-1.242l-5.495-5.495 3.005-.024 5.174 5.174zM7.169 7.169h4.249L9.824 8.763c-.329.329-.513.774-.513 1.239v7.772l-2.142-2.107V7.169zm11.836-.654h-2.253c-.466 0-.912.185-1.242.514l-5.495 5.495-.024-3.005 5.174-5.174a1.18 1.18 0 0 1 1.671 0l2.169 2.169zm5.827.654v4.249l-1.594-1.594c-.329-.329-.775-.513-1.239-.513h-7.772l2.107-2.142h8.498z" fill="#00194a"/></svg>