<svg xmlns="http://www.w3.org/2000/svg" width="32" height="32" fill="none" xmlns:v="https://vecta.io/nano"><path d="M0 4a4 4 0 0 1 4-4h24a4 4 0 0 1 4 4v24a4 4 0 0 1-4 4H4a4 4 0 0 1-4-4V4z" fill="#fff"/><g fill="#029a4c"><path d="M16.028 4l2.648 2.651-6.641 6.675c-1.952 1.963-5.279 1.152-6.54-1.713l.258.024c1.231.115 2.423.227 3.445-.816L16.028 4z"/><path d="M6.648 13.355L4 16.006l6.813 6.838c1.042 1.025.93 2.218.815 3.45l-.024.257c2.862-1.262 3.672-4.593 1.711-6.548l-6.668-6.648z"/><path d="M13.341 25.35L15.989 28l6.83-6.821c1.024-1.043 2.216-.931 3.447-.816l.256.024c-1.261-2.865-4.588-3.676-6.54-1.713l-6.64 6.676z"/><path d="M25.352 18.639L28 15.988l-6.813-6.838c-1.042-1.024-.93-2.218-.815-3.449l.024-.258c-2.862 1.262-3.671 4.593-1.711 6.548l6.668 6.648z"/></g><path fill-rule="evenodd" d="M12.25 16.001a3.75 3.75 0 1 1 7.5 0 3.75 3.75 0 1 1-7.5 0z" fill="#eb8c30"/></svg>