<svg xmlns="http://www.w3.org/2000/svg" width="32" height="32" fill="none" xmlns:v="https://vecta.io/nano"><path d="M0 4a4 4 0 0 1 4-4h24a4 4 0 0 1 4 4v24a4 4 0 0 1-4 4H4a4 4 0 0 1-4-4V4z" fill="#fff"/><path fill-rule="evenodd" d="M12.138 9.283c-.335.373-.436.593-.454.986-.02.453.006.522.504 1.358.396.665.48.721.771.522l.347-.238c.531-.365 1.242-.642 1.925-.752.591-.095.597-.112.368-1.036-.196-.79-.24-.89-.513-1.166-.371-.375-.896-.52-1.566-.432-.543.071-.98.311-1.382.758zm4.286.795c-.247.956-.238.986.358 1.081.793.127 1.569.46 2.192.939.246.189.448.182.582-.021.833-1.26.968-1.85.565-2.474-.525-.813-1.347-1.195-2.312-1.076-.788.098-1.099.446-1.384 1.551zm-7.74 4.628c.219.464.511.645 1.405.871.936.237.997.221 1.066-.28.105-.772.428-1.554.915-2.217.311-.424.288-.471-.447-.911-.904-.54-1.195-.617-1.702-.444-1.089.371-1.734 1.925-1.236 2.981zm11.708-2.537c-.732.438-.759.492-.453.906a5.02 5.02 0 0 1 .922 2.237c.071.485.129.499 1.056.267 1.034-.259 1.374-.528 1.523-1.202.325-1.469-.876-2.989-2.118-2.682-.203.05-.324.112-.93.474zM8.969 16.915c-1.256 1.262.231 3.922 1.868 3.34.199-.071 1.281-.704 1.346-.788.111-.144.08-.291-.116-.555-.47-.631-.814-1.467-.915-2.228-.065-.485-.141-.506-1.026-.278-.811.209-.896.246-1.157.508zm11.893-.25c-.118.819-.434 1.592-.928 2.265-.305.416-.281.461.483.917 1.143.681 1.616.674 2.36-.035 1.003-.956.952-2.704-.092-3.169-.121-.054-1.443-.408-1.508-.404-.008.001-.052.017-.096.036-.134.058-.186.151-.22.39zm-8.929 4.131c-.434.755-.345 1.367.293 2.013.967.979 2.653.906 3.138-.136.07-.151.391-1.38.391-1.497 0-.179-.131-.271-.457-.323-.819-.131-1.577-.443-2.203-.908-.234-.174-.384-.217-.517-.15-.057.029-.338.465-.646 1zm4.823.048c-.562.083-.574.118-.341 1.041.198.782.251.903.518 1.168 1.07 1.061 3.401.094 3.405-1.412.001-.38-.143-.7-.745-1.654-.173-.275-.341-.298-.617-.086-.621.476-1.455.831-2.221.944z" fill="#ff7f31"/><g fill="#37389a"><path d="M16 4c-3.081 0-5.634 2.282-6.057 5.247a8.98 8.98 0 0 1 12.114 0C21.634 6.282 19.081 4 16 4zM9.256 9.942A9.09 9.09 0 0 0 6.956 16a9.09 9.09 0 0 0 2.3 6.058C6.287 21.639 4 19.084 4 16s2.287-5.639 5.256-6.058zM28 16c0-3.084-2.287-5.639-5.256-6.058a9.09 9.09 0 0 1 2.3 6.058 9.09 9.09 0 0 1-2.3 6.058C25.713 21.639 28 19.084 28 16z"/><path fill-rule="evenodd" d="M15.61 11.514c-2.821.211-4.749 3.075-3.913 5.814 1.12 3.67 6.088 4.326 8.11 1.071 1.959-3.153-.485-7.162-4.197-6.884zm.035 6.9a8.59 8.59 0 0 1-.007 1.117c-.07.044-.905-1.061-.858-1.137.026-.042.849-.023.865.02zm3.213-.013c.063.103-.747.733-1.268.987-.408.198-.426.191-.228-.085.188-.261.387-.59.476-.785l.065-.142h.469c.3 0 .475.009.485.026zm-4.9-.026h-.405c-.326 0-.405.007-.405.034 0 .159 1.216 1.062 1.43 1.062.033 0-.002-.063-.201-.362l-.317-.528-.102-.207zm2.759 0h-.359v.51c0 .399.007.507.031.497.094-.041.731-.936.7-.985-.007-.012-.175-.021-.372-.021zm-1.068-1.987c.008.031.011.331.007.666l-.007.611-1.23.013-.063-.208c-.115-.377-.236-1.055-.199-1.115.009-.015.3-.024.747-.024h.732l.014.056zm-2.49 1.29l.512-.019c0-.01-.033-.15-.074-.31-.066-.262-.138-.685-.156-.918l-.007-.087-.561-.007c-.309-.004-.569.001-.578.01-.071.072.089.756.27 1.149l.083.181h.511zm4.287 0l.079-.273c.102-.351.171-.694.181-.899l.007-.162-.661-.007c-.363-.004-.669.001-.678.01s-.017.312-.017.673v.656h1.088zm1.917 0l.089-.214c.138-.33.304-1.007.27-1.101-.013-.035-1.262-.047-1.283-.012-.006.01-.019.091-.028.181-.03.283-.114.763-.164.939l-.049.189c0 .01.262.019.582.019h.582zm-3.717-3.424c.008.022.015.329.015.683l-.015.683c-.018.047-1.461.061-1.49.015-.06-.097.222-1.34.318-1.401.065-.041 1.155-.023 1.172.02zm-2.459-.04H12.7l-.097.193c-.173.345-.368 1.084-.319 1.21.015.04.065.043.582.036l.566-.007.029-.262a5.2 5.2 0 0 1 .175-.889c.034-.117.056-.229.048-.247-.01-.027-.109-.034-.499-.034zm4.246.1c.112.229.323 1.206.284 1.31-.012.031-.114.036-.68.03l-.666-.007-.007-.685.006-.717c.009-.025.124-.031.517-.025l.504.007.043.087zm2.296 1.333l-.008-.1a3.98 3.98 0 0 0-.323-1.134l-.092-.187-1.138-.013.014.069.078.318a7.31 7.31 0 0 1 .157.897l.019.149h1.293zm-4.067-2.679l-.015.534a2.51 2.51 0 0 1-.817.016c-.041-.066.748-1.098.809-1.06.013.008.023.231.023.509zm2.663.574c.293 0 .449-.009.46-.027.057-.092-.756-.721-1.172-.907l-.016-.007c-.227-.102-.336-.15-.355-.127s.041.106.154.266l.009.012.336.534.14.255h.444zm-4.331 0l.091-.181c.082-.164.389-.646.473-.743.019-.022.034-.053.034-.069 0-.045-.018-.038-.316.118-.418.219-1.111.774-1.063.852.007.012.186.022.398.022h.384zm2.546-.773c.217.264.521.726.495.752-.012.012-.167.019-.344.015l-.321-.007-.007-.511c-.004-.274-.006-.39.026-.399.023-.007.064.043.136.13l.015.019z"/><path d="M22.057 22.753C21.634 25.718 19.081 28 16 28s-5.634-2.282-6.057-5.247a8.98 8.98 0 0 0 12.114 0z"/></g></svg>