<svg xmlns="http://www.w3.org/2000/svg" width="32" height="32" fill="none" xmlns:v="https://vecta.io/nano"><path d="M0 4a4 4 0 0 1 4-4h24a4 4 0 0 1 4 4v24a4 4 0 0 1-4 4H4a4 4 0 0 1-4-4V4z" fill="#fff"/><g fill-rule="evenodd"><path d="M15.592 4.128L9.749 7.485l-.033.018a1.91 1.91 0 0 0-.948 1.648v11.822l3.151-1.81-.018-.041-.001-.003-.02-.048-.019-.047-.003-.007-.019-.048-.018-.048v-.002h-.001l-.018-.049-.017-.05-.001-.001-.017-.05-.016-.052v-.001-.001l-.004-.015-.005-.014-.021-.073v-.001l-.014-.052-.014-.053v-.002-.001l-.007-.03-.008-.03-.034-.152v-.001l-.011-.054-.01-.052v-.002l-.001-.002v-.001l-.01-.053-.008-.053-.028-.221v-.002l-.005-.053-.005-.057-.004-.056-.003-.054v-.002h0l-.003-.057-.002-.055v-.001l-.001-.058v-.057-.055l.001-.055.001-.037v-.011l.002-.062.002-.038v-.008l.001-.006.003-.055.009-.108.005-.051.007-.058.006-.047.008-.059.008-.049.01-.058.008-.046.011-.059.009-.047.013-.059.01-.042.015-.06.011-.045.013-.049.004-.016.009-.034.009-.032.01-.033.014-.046.015-.046.015-.045.006-.017.028-.08.014-.037v-.001l.002-.007.021-.053.019-.047.018-.045.027-.062.016-.036.022-.048.02-.043.024-.049.023-.046.024-.047.022-.041.014-.025.013-.025.023-.04.002-.004.027-.046.022-.038v-.001l.004-.007.025-.041.023-.037.034-.053.008-.012.028-.043.029-.042.154-.21.036-.046.024-.029.017-.021.022-.027.023-.027.021-.025.02-.023.021-.023.028-.031.022-.024.022-.023.024-.026.024-.026.025-.026.017-.017.028-.029.029-.028.011-.011.029-.028.03-.028.016-.015.03-.028.031-.028.005-.004.034-.03.035-.03.004-.003.001-.001.063-.052.064-.051.341-.244.005-.003.039-.025.039-.025.005-.003.039-.023.038-.023.012-.007.011-.006.011-.006.053-.03.013-.007.037-.02.037-.02.017-.009.039-.02.038-.019.006-.003.043-.021.043-.021.002-.001.114-.052.116-.048a4.39 4.39 0 0 1 .62-.198l.004-.001.047-.011.046-.01.008-.002.048-.01.049-.009h.003l.047-.009.048-.008.012-.002.046-.007.047-.007.006-.001.048-.006.047-.006h.004l.044-.006v-.044-4.739a.4.4 0 0 1 .044-.196c.024-.042.056-.073.093-.094s.081-.031.127-.031c.06 0 .123.017.183.05l7.277 4.185v-2.99a1.91 1.91 0 0 0-.898-1.617l-5.916-3.397c-.156-.089-.285-.135-.415-.137a.79.79 0 0 0-.408.128zm.905 8.865l.045.005h.003l.051.007.05.007.007.001.051.008.051.008.002.001.053.009.052.01h.002l.052.011.053.011.002.001.015.003.014.003.075.018h.001l.053.013.053.014h.002 0l.03.008.029.008.149.046h.001l.052.018.05.018h.001l.002.001h.001l.051.019.051.019h0l.206.086.002.001.049.023.051.024.051.025.048.024.002.001h.001l.051.026.049.026h.001l.051.028.049.028.047.028.047.028.041.025.053.034.032.021.007.004.005.004.007.004.04.027.041.028.048.034.042.03.047.035.038.029.047.037.039.031.046.037.036.03.046.039.036.032.045.041.032.029.045.043.033.032.036.036.037.037.023.024.023.025.034.035.032.036.032.035.012.014.056.065.025.031h.001l.004.006.036.044.032.04.03.038.035.046.006.008.023.032.031.043.028.039.031.045.029.043.029.044.025.04.016.025.015.024.023.04.002.004.027.045.022.039v.001l.004.007.023.042.02.039.015.028.015.028.006.013h0 0l.023.045.023.046.106.237.008.02.014.034.014.035.022.058.012.033.011.03.01.029.01.029.013.04.01.031.01.03.02.067.01.034.007.023.021.078.004.015.01.04.009.039.005.02.009.04.009.041.001.007.009.045.009.045.001.005v.001l.014.08.013.08.043.416v.006l.002.047.002.046v.006l.001.045.001.044v.038.061l-.001.056-.002.042v.019l-.005.086v.007l-.003.048-.004.047v.002l-.012.124-.016.124c-.03.213-.076.424-.138.633l-.001.004-.014.046-.014.046-.002.008-.015.046-.016.047v.003l-.016.044-.017.046-.004.012-.017.044-.017.043-.002.006-.019.044-.018.044-.002.004-.017.041.038.022 4.125 2.369a.4.4 0 0 1 .148.136c.025.041.036.084.035.127s-.014.085-.037.125c-.03.052-.077.098-.135.133l-7.206 4.134-.076.043.076.044 2.527 1.451a1.93 1.93 0 0 0 1.857.036l5.915-3.398c.155-.09.26-.178.327-.289s.094-.242.092-.416v-6.75a1.91 1.91 0 0 0-.961-1.641L16.497 9.373v3.62zM5.21 15.286a1.91 1.91 0 0 0-.96 1.582l.001 6.795c.001.178.025.313.088.426s.164.202.316.288l5.844 3.356.032.019a1.93 1.93 0 0 0 1.909-.008l10.216-5.867.076-.044-3.112-1.787-.039-.022-.027.036h0l-.002.002-.031.041-.031.04-.005.006-.032.04-.033.04-.001.002v.001l-.034.04-.035.04-.001.001-.035.04-.037.04h-.001l-.001.001-.01.011-.01.011-.053.055h-.001l-.038.038-.039.039-.001.001h0l-.022.022-.022.021-.115.105h0l-.042.036-.041.035-.001.001-.002.001-.001.001-.042.035-.042.034-.178.135-.002.001-.044.031-.047.032-.047.032-.045.029-.002.001h-.001l-.048.031-.047.029h-.001l-.05.03-.049.029-.048.027-.048.026-.033.017-.009.005-.056.029-.034.017-.008.004-.005.003-.007.004-.043.021-.098.046-.047.021-.098.041-.056.022-.046.018-.055.021-.044.016-.057.02-.046.015-.058.018-.041.013-.06.017-.044.012-.05.013-.016.004-.034.009-.033.008-.033.008-.047.011-.047.01-.046.01-.018.003-.084.016-.039.006h-.001l-.007.001-.057.009-.051.007-.048.006-.057.007-.01.001-.039.004-.053.005-.048.004-.055.004-.052.003-.053.003-.047.002-.057.002-.046.001h-.004-.053-.045-.009l-.048-.001-.044-.002-.064-.002-.014-.001h-.001-.001l-.051-.003-.051-.004-.26-.027-.021-.003-.036-.005-.037-.006-.026-.004-.035-.006-.035-.006-.032-.006-.03-.006-.03-.006-.041-.008-.063-.014-.034-.008-.034-.008-.035-.009-.024-.006-.039-.01-.039-.011-.015-.004-.04-.011-.039-.011-.02-.006-.04-.012-.04-.013-.006-.002-.044-.015-.044-.015-.005-.002h-.001l-.077-.028-.076-.029-.383-.172-.005-.003-.041-.021-.041-.021-.006-.003-.04-.021-.039-.022-.012-.007-.011-.006-.01-.006-.053-.03-.012-.007-.036-.022-.036-.022-.053-.034-.036-.023-.005-.004-.04-.027-.039-.027-.001-.001-.102-.073-.101-.076a4.39 4.39 0 0 1-.482-.435l-.002-.003-.033-.035-.032-.035-.006-.006-.032-.037-.032-.037-.002-.002-.031-.036-.031-.037-.008-.01-.03-.036-.029-.037-.004-.005-.03-.038-.029-.038-.002-.003-.027-.035-4.164 2.392c-.071.041-.136.059-.192.06a.24.24 0 0 1-.128-.034c-.036-.022-.067-.054-.09-.094a.38.38 0 0 1-.048-.183l.004-8.362-2.603 1.495z" fill="#ba0b22"/><path d="M12.5 17.358a3.5 3.5 0 1 0 7 0 3.5 3.5 0 1 0-7 0z" fill="#ffc730"/></g></svg>