<svg xmlns="http://www.w3.org/2000/svg" width="32" height="32" fill="none" xmlns:v="https://vecta.io/nano"><path d="M0 4a4 4 0 0 1 4-4h24a4 4 0 0 1 4 4v24a4 4 0 0 1-4 4H4a4 4 0 0 1-4-4V4z" fill="#fff"/><g fill-rule="evenodd"><path d="M19.811 26.921c0-.131-.052-.256-.144-.348a.49.49 0 0 0-.348-.144h-6.353a.49.49 0 0 0-.348.144c-.092.092-.144.218-.144.348v.586c0 .131.052.256.144.348a.49.49 0 0 0 .348.144h6.353a.49.49 0 0 0 .348-.144c.092-.092.144-.218.144-.348v-.586zm-3.446-7.424s2.317-2.611 4.514-3.845c2.591-1.456 6.497-1.118 6.497-1.118s-3.106.936-4.979 3.682c-1.678 2.46-2.719 7.549-2.719 7.549s-1.568-3.82-3.312-6.268zm2.407 6.213h-6.284s-.875-1.154-1.197-2.742c-.349-1.72-.917-3.763-1.795-4.888-1.662-2.13-4.871-3.455-4.871-3.455s6.043-1.001 9.732 3.65c1.789 2.256 4.412 7.431 4.414 7.436z" fill="#002263"/><path d="M16 11.386c1.66 0 3.008 1.37 3.008 3.057S17.66 17.5 16 17.5s-3.008-1.37-3.008-3.057S14.34 11.386 16 11.386zm3.565 1.873c1.154-.685 3.563-2.061 4.862-2.414a1.23 1.23 0 0 1 .327-.043h.008c.547.005 1.047.377 1.195.938.178.675-.217 1.369-.883 1.55-1.176.319-3.552.373-4.985.373h-.05c-.132 0-.255-.001-.369-.001a3.81 3.81 0 0 0-.106-.403zm-7.235.403c-1.338.009-4.103-.019-5.403-.372-.666-.181-1.062-.875-.883-1.55s.864-1.076 1.53-.895c1.3.353 3.708 1.729 4.862 2.414-.042.131-.078.266-.106.403zm.441-1.155c-1.27-.428-3.878-1.354-4.996-2.112-.573-.388-.728-1.175-.345-1.755a1.24 1.24 0 0 1 1.733-.349c1.118.757 2.96 2.842 3.837 3.868a3.84 3.84 0 0 0-.229.348zm6.209-.378c.873-1.027 2.713-3.119 3.83-3.88a1.24 1.24 0 0 1 1.734.345c.384.58.232 1.367-.34 1.756-1.117.76-3.722 1.693-4.992 2.124a3.83 3.83 0 0 0-.232-.345zm-5.417-.581c-1.066-.823-3.232-2.555-4.047-3.638-.418-.556-.312-1.35.236-1.774a1.24 1.24 0 0 1 1.751.239c.814 1.083 1.888 3.656 2.389 4.916a3.77 3.77 0 0 0-.329.256zm4.529-.268c.5-1.255 1.579-3.841 2.397-4.927a1.24 1.24 0 0 1 1.751-.238c.548.424.654 1.219.235 1.774-.817 1.085-2.994 2.821-4.057 3.641-.104-.089-.213-.173-.326-.25zm-3.487-.375c-.75-1.127-2.25-3.468-2.679-4.757a1.27 1.27 0 0 1 .786-1.603c.653-.223 1.363.134 1.582.796.428 1.289.63 4.071.706 5.428a3.7 3.7 0 0 0-.395.136zM17 10.77c.075-1.357.277-4.14.705-5.429.22-.662.929-1.019 1.582-.796a1.27 1.27 0 0 1 .786 1.603c-.428 1.289-1.928 3.63-2.678 4.757A3.7 3.7 0 0 0 17 10.77zm-1.208-.131c-.355-1.311-1.04-4.013-1.04-5.373C14.751 4.567 15.311 4 16 4s1.249.567 1.249 1.266c0 1.36-.685 4.062-1.041 5.373L16 10.632l-.209.006z" fill="#0bbbb9"/></g></svg>