<svg xmlns="http://www.w3.org/2000/svg" width="32" height="32" fill="none" xmlns:v="https://vecta.io/nano"><path d="M0 4a4 4 0 0 1 4-4h24a4 4 0 0 1 4 4v24a4 4 0 0 1-4 4H4a4 4 0 0 1-4-4V4z" fill="#fff"/><g fill-rule="evenodd"><path d="M26.422 28H16.38v-9.821c.134-1.583.373-3.04.957-4.081.347.195.967 1.056 1.151 2.723.453-.818 1.005-1.735 2.006-2.317.067 1.805-.04 2.492-.546 3.749-.71 1.764-2.665 2.175-2.665 2.175v6.669h8.236l-.001-16.283a3.29 3.29 0 0 0-.009-.163c-.025-.262-.087-.519-.19-.761a2.57 2.57 0 0 0-1.328-1.343h-.001a8.53 8.53 0 0 1 .543-.742c.324.165.621.38.879.638a3.46 3.46 0 0 1 .815 1.292 3.51 3.51 0 0 1 .195 1.146V28zm-10.801 0H5.579V10.881a3.51 3.51 0 0 1 .195-1.146 3.46 3.46 0 0 1 .815-1.292c.257-.257.555-.473.879-.638a8.55 8.55 0 0 1 .543.742H8.01A2.57 2.57 0 0 0 6.682 9.89c-.103.243-.165.499-.19.761a3.23 3.23 0 0 0-.009.163c-.103 5.427-.001 10.855-.001 16.283h8.236v-6.669s-1.954-.411-2.665-2.175c-.506-1.257-.613-1.944-.546-3.749 1.001.582 1.553 1.499 2.005 2.317.185-1.667.804-2.528 1.152-2.723.584 1.04.822 2.498.956 4.081V28zm4.174-23.386c-.008.082-.02.164-.034.246-.02.114-.046.227-.077.339-.255.92-.847 1.702-1.489 2.39a17.37 17.37 0 0 1-.364.377l-.35.348a17.33 17.33 0 0 0 .659 1.648 18.12 18.12 0 0 0 .316.651c.31-.48.653-.939 1.024-1.372a12.57 12.57 0 0 1 .898-.947c-.239-.454-.377-.958-.464-1.463-.126-.731-.151-1.476-.12-2.217zm-7.59 0a3.4 3.4 0 0 0 .034.246 3.64 3.64 0 0 0 .077.339c.255.92.847 1.702 1.489 2.39.119.128.241.253.364.377l.35.348a17.33 17.33 0 0 1-.659 1.648c-.101.219-.206.436-.316.651-.31-.48-.653-.939-1.024-1.372a12.55 12.55 0 0 0-.899-.947c.239-.454.377-.958.464-1.463.126-.731.151-1.476.12-2.217z" fill="#b27d53"/><path d="M25.49 6.278c-1.586 1.143-3.442 3.641-3.66 6.27-.178 2.141-.544 3.077-.817 3.477.121-.722.12-1.704-.015-2.495-.303.134-.806.443-1.267.901-.057-.187-.527-1.15-2.076-.723l.248-.711c.219-.56.483-1.102.788-1.62.334-.567.707-1.097 1.119-1.595a11.91 11.91 0 0 1 1.135-1.194.29.29 0 0 0 .034-.031c.296-.268.605-.52.928-.754.904-.655 1.924-1.178 3.018-1.425l.566-.1zm-18.982 0c1.586 1.143 3.442 3.641 3.66 6.27.178 2.141.544 3.077.817 3.477-.121-.722-.12-1.704.015-2.495.303.134.806.443 1.267.901.057-.187.527-1.15 2.076-.723l-.248-.711c-.219-.56-.483-1.102-.788-1.62a12.17 12.17 0 0 0-1.119-1.595c-.35-.423-.729-.823-1.135-1.194-.012-.009-.024-.02-.034-.031a10.96 10.96 0 0 0-.928-.754c-.904-.655-1.924-1.178-3.018-1.425l-.565-.1zm10.45 7.665c-.174-.127-.448-.355-.965-.353s-.785.231-.953.353c-.129-.812-.662-1.786-1.131-2.728.21-.398.839-1.781 1.007-2.304L16 4.897l1.083 4.014c.178.52.797 1.907 1.007 2.304-.469.942-1.002 1.916-1.131 2.728zm3.506-8.329c.12-.952 1.196-1.022 1.859-.8.953.319 1.282 1.21.516 1.704l-1.126.684-.873.675-.005-.01c-.322-1.036-.439-1.721-.372-2.253zm-8.931 0c-.12-.952-1.196-1.022-1.859-.8-.953.319-1.282 1.21-.516 1.704l1.126.684.873.675.004-.01c.322-1.036.439-1.721.372-2.253zm5.194-.444c-.11-.752.677-1.243 1.24-1.16.37.054 1.374.311 1.092 1.172-.11.336-.274.653-.466.949-.337.519-.758.973-1.191 1.411l-.128.128c-.167-.564-.305-1.137-.415-1.715l-.132-.785zm-1.458 0c.111-.752-.677-1.243-1.24-1.16-.37.054-1.374.311-1.092 1.172.11.336.274.653.466.949.336.519.758.973 1.191 1.411l.128.128a17.58 17.58 0 0 0 .415-1.715l.132-.785z" fill="#000"/></g></svg>