<svg xmlns="http://www.w3.org/2000/svg" width="32" height="32" fill="none" xmlns:v="https://vecta.io/nano"><path d="M0 4a4 4 0 0 1 4-4h24a4 4 0 0 1 4 4v24a4 4 0 0 1-4 4H4a4 4 0 0 1-4-4V4z" fill="#fff"/><path fill-rule="evenodd" d="M5.5 28h21v-.221h-21V28zm0-.32h21v-.527h-21v.527zM18.036 9.775l-1.502 9.5s-.104 1.677.763 2.625c.419.459.932.586 1.409.86.421.242.899.68.973 1.2.116.818-.75.928-1.21.753-.49-.186-.862-.253-1.351-.233-1.09.046-1.335.833-1.332 1.121.012.982.94 1.345.94 1.345l-1.623.011c-4.172.038-5.601-2.824-6.134-6.127L7.184 9.775h10.852zm7.17 17.161h-7.294s-1.556-.03-1.537-1.14c.015-.9 1.006-1.19 2.166-.802.315.105.819.107 1.44.188.629.082 1.38-.029 2.327.387.074.033.244-.002.445.005.182.006.396.055.445.038.273-.094.413-.239.679-.233.104.002.195.09.257.165.077-.063.126-.111.223-.112.227-.001.315.335.456.544.385.087.669.558.731.803.013.05-.116.119-.156.086-.181-.151-.923-1.127-1.035-1.126-.05 0 .077.261.103.348-.198-.127-.553-.621-.696-.476-.176.178.437.609.181.697-.139.047-.437-.233-.797-.349-.298-.095-.905-.04-.99-.092-.687-.423-2.408-.363-3.674-.46-.215-.017-.47-.144-.783-.171-.421-.036-.857.113-.852.605.002.244.227.71.887.73l4.371-.022-.349-.256-3.84-.051c-.33-.015-.416-.374-.381-.481.079-.24.457-.173.457-.173l.614.061c.65.034 2.437.176 3.268.423.238.071.661.042.953.096.534.098.753.216 1.153.526l.316-.002s-.048-.283-.007-.349.111-.047.186-.019.151.13.212.147.082-.066.149-.053c.14.028.25.214.329.339.035.056.045.178.045.18zm-10.673-1.685c-.09.295.03.485.277.591l-1.408.411c-.187.055-.383-.053-.438-.24-.045-.155.043-.317.198-.362l1.371-.4zm1.236-.354l-.111.698-.574.167c-.168-.033-.344-.115-.369-.308-.017-.128.061-.229.161-.304l.893-.254zm-1.227-.446c-.183.251-.095.48.214.61l-1.404.41c-.187.055-.383-.053-.438-.24-.045-.155.043-.317.198-.362l1.43-.417zm5.3-8.986c-.741.346-1.799 1.43-2.229 2.285l-.155.296c-.105.197-.302.658-.35.821l-.202.823c-.142.826-.018 1.482.359 1.909.278.315.504.446 1.484.86a4.44 4.44 0 0 1 .432.216 1.68 1.68 0 0 1 .784 2.111c-.051.128-.076.133.583.188.754.063 1.33.163 1.535.265l-.375-4.708c-.01-.092-.058-.104-.108-.105-.164-.003-.458-.007-.633-.099a.92.92 0 0 1 .264-.228l-.326-.013c-.48-.047-.591-.266-.147-.494 0 0-.619.075-.618-.454 0-.101.014-.138.103-.116.084.021.281.018.28-.005-.002-.055-.117-.082-.176-.106-.138-.055-.201-.156-.242-.279s.01-.151.189-.232c.239-.108.247-.206.038-.206-.434 0-.428-.673-.025-1.023.202-.175.214-.234.077-.279-.206-.067-.492-.414-.477-.734.021-.466 1.08-.711 1.252-.284.045.112.245.135.239-.006-.003-.072.131-.198.285-.263.068-.029-.113-.148-.245-.213-.22-.109-.694-.143-1.042-.078-.337.063-.404.085-.552.154zm-4.032 8.616c.005.249-.006.474-.026.68l-.726.212c-.381-.044-.514-.304-.304-.584l1.055-.308zm.242.681s.115-1.95-.523-3.302c-.685-1.453-2.247-3-3.144-4.023-.092-.105-.222-.397-.203-.618.082-.958 1.441-.736 1.441-.736s.036.311.094.455c.448 1.122 1.836 2.516 2.492 3.811.67 1.322 1.38 3.994 1.38 3.994-.755-.09-1.274.044-1.537.419zm-1.638-1.074a.44.44 0 0 0 .253.599l-1.401.409c-.187.055-.383-.053-.438-.24-.045-.155.043-.317.198-.362l1.388-.405zm1.328-.388c.035.235.055.452.064.654l-.764.223c-.167-.004-.301-.058-.372-.154-.084-.112-.082-.286.068-.43l1.005-.293zm-1.495-.359c-.155.225-.036.493.251.599l-1.434.419c-.09.026-.187.016-.269-.029s-.143-.121-.169-.211h0c-.045-.155.044-.317.198-.362l1.423-.415zm1.344-.392l.133.634-.927.27c-.37-.032-.454-.256-.33-.576l1.124-.328zm-1.601-.33c-.111.418.085.515.311.582l-1.465.428c-.187.055-.383-.053-.438-.24-.045-.155.043-.317.198-.362l1.393-.407zm1.386-.404l.186.618-1.052.307c-.177-.045-.293-.201-.32-.3-.036-.133.015-.233.08-.302l1.107-.323zm-1.688-.281c-.123.246-.009.509.277.568l-1.45.423a.35.35 0 0 1-.436-.239.29.29 0 0 1 .2-.361l1.408-.391zm1.386-.425c.105.194.194.391.263.592l-1.121.327c-.146-.016-.32-.084-.363-.31-.02-.089.03-.187.094-.263l1.127-.347zm-1.797-.238c-.094.314.068.486.3.546l-1.459.426a.34.34 0 0 1-.419-.227.28.28 0 0 1 .19-.35l1.388-.395zm1.371-.431c.132.182.255.368.364.558l-1.173.342c-.262-.023-.449-.246-.345-.536l1.154-.364zm-1.945-.197c.085.321.185.484.314.54l-1.364.398c-.085.025-.177.015-.254-.028s-.135-.114-.16-.199c-.02-.07-.012-.144.023-.207s.093-.11.162-.13l1.279-.373zm1.451-.424l.413.511-1.235.36c-.218-.043-.435-.287-.279-.55l1.101-.321zm-2.028-.195c.026.012.05.026.068.04.139.108-.045.305.363.473l-1.449.423c-.179.052-.366-.05-.418-.229-.02-.07-.012-.146.023-.21s.094-.112.164-.132l1.249-.365zm8.52-1.613c.092-.018.092.12.01.33-.089.227-.385.248-.357.294.123.201.512.121.617.155.076.025-.041.29-.29.454-.182.119-.122.175.118.193.11.008.265-.101.412-.1.052.001.041.278-.109.391-.351.266-.066.255.374.131.245-.069.201.007.107.187-.057.108-.172.165-.138.198.046.045.414.103.688-.244.051-.064.065-.158-.072-.26-.48-.358-.676-.788-.837-1.433a5.62 5.62 0 0 1-.039-1.277c.027-.121-.004-.117-.308.036-.732.37-.857 1.076-.175.946zm1.997.487c-1.012.009-1.279.681-.499 1.155.123.074.096.097.096.2 0 .146.143.236.263.246.267.023.413-.074.462-.407.024-.163.07-.248.236-.471.079-.106.114-.175.093-.182-.039-.014-.142.009-.223.147-.273.462-.972.355-1.129.022-.109-.232.085-.549.786-.552.494-.002.512.018.557.185.036.133.121.079.3-.191.295-.445.256-.522-.045-.358-.285.155-.533.202-.898.206zm-9.051.698l.459.504-1.195.349c-.115-.028-.224-.096-.306-.205-.069-.091-.064-.239.037-.355l1.005-.293zm-1.841-.248c-.079.296.007.428.297.522l-1.455.425c-.085.025-.177.015-.255-.028s-.136-.114-.161-.2c-.021-.071-.012-.147.024-.211s.096-.111.167-.13l1.383-.378zm1.245-.383l.466.492-1.162.339c-.307-.063-.405-.315-.26-.536l.955-.295zm-1.823-.24c-.022.332.195.439.421.48l-1.493.436a.38.38 0 0 1-.469-.247l-.023-.072c-.019-.058-.013-.121.017-.175s.081-.091.141-.104l1.407-.318zm11.238.599c.197-.001.369.012.553.203.017.018.038-.042.051-.07.03-.063.089-.13.027-.173-.121-.085-.467-.107-.732-.026-.158.048-.088.068.1.067zm-9.969-.98l.431.488-1.031.301c-.406-.011-.477-.337-.446-.522l.141-.087.906-.18zm-1.69-.285c.052.243.201.358.359.457l-1.562.39c-.12.03-.245-.02-.311-.125l-.141-.223c-.042-.067-.047-.151-.012-.221s.103-.119.182-.127l1.485-.15zm11.646.378c-.05.083-.124.196-.246.301-.084.073.874-.008 1.12-.149.172-.099.363-.081.412-.069.071.018.059-.087-.006-.278-.133-.39-.364-.507-.685-.396-.208.072-.385.242-.595.59zm-.03-.817l-.312.275c-.373.26-.54.518-.396.66.245.243.703-.165.71-.653.003-.206.18-.405.668-.463.13-.015.167-.066.023-.063l-.307.013a.93.93 0 0 0-.386.231zm-10.346.117c.08.152.188.311.317.477l-1.006.246c-.208-.102-.498-.429-.255-.644v-.002l.943-.078zm10.87-.102c.134-.017.332-.041.468.01.296.112.504.396.514.6.005.109.072.16.103.035.021-.083.11-.292.114-.494.001-.038-.004-.103-.036-.123s-.176-.008-.24-.019a1.22 1.22 0 0 1-.29-.084c-.162-.085-.485-.059-.662-.008-.041.012-.106.1.029.082zm-12.196.325l-1.564.044c-.142.004-.265-.097-.29-.237l-.028-.161c-.022-.129.018-.26.107-.355s.218-.143.348-.129l1.11.124a1.25 1.25 0 0 0 .317.715zm10.807-.173a.4.4 0 0 0 .553-.044c.306-.394.551-.496.929-.498.128-.001.07-.059-.047-.168a.48.48 0 0 0-.439-.148c-.143.008-.192-.001-.192-.044 0-.174-.303-.282-.51-.153-.365.226-.528.825-.295 1.055zm1.255-.663c.012.019-.308.11-.438.201-.054.038-.086.077-.136.104-.011.006-.204.002-.277-.082-.079-.091-.034-.301.113-.299.089.001.038.075.004.158-.018.046-.011.107.019.116.27.082.188-.344.027-.371-.118-.02-.348.067-.361.252-.006.086.004.168.109.249.089.069.198.05.288.043-.119.124-.242.227-.383.219-.188-.01-.211-.348-.09-.59.071-.142.245-.302.382-.295.187.009.167.133.252.218.049.05.42-.03.49.077zm-10.747.464l-1.152.049c-.317-.232-.331-1.142-.172-1.259.33.387.798.528 1.277.602-.017.079-.028.167-.032.263-.004.091.003.253.079.345zm9.315-1.001c-.096.088-.129.084-.237-.078-.114-.17-.261-.242-.398-.244-.314-.004-.582.288-.604.333-.019.038.037.051.055.12.06.227.292.545.602.563.239.013.444-.071.605-.33.158-.253.315-.422.484-.483.238-.086.465.009.678.227.034.035.138.05.171.049.065-.003.217.11.294.202.157.189.228.197.191.073-.028-.092-.351-.436-.531-.495-.164-.053-.344-.342-.618-.399-.12-.025-.22.055-.319.141l-.374.32zm-10.958.505l-1.397-.237c-.091-.015-.172-.065-.226-.14s-.076-.168-.061-.259l.04-.243c.016-.096.075-.179.16-.226s.188-.051.277-.013l1.208.534a4.1 4.1 0 0 0-.001.583zm1.625-.226c-.431-.064-.714-.171-1.18-.552-.255-.299.316-1.049.585-.846.166.565.464.778.814 1.037a.84.84 0 0 0-.218.361zm.296-.427c-.281-.248-.564-.607-.656-.93-.021-.072-.029-.192.002-.243.211-.345.748-.302.938-.275a.07.07 0 0 1 .056.072c-.049.392.021.691.122.945.006.017.033.246-.003.252-.168.028-.327.082-.46.179zm-1.892-.084l-1.26-.662c-.092-.048-.161-.132-.192-.231a.39.39 0 0 1 .028-.299l.017-.031a.44.44 0 0 1 .677-.13l.948.804c-.082.139-.17.353-.218.549zm2.591-.119c-.162-.221-.207-.803-.182-1.154.005-.067.053-.089.071-.088a1.26 1.26 0 0 1 .87.354c.031.028.038.102.024.122-.165.231-.232.493-.218.78l-.565-.014zm-2.301-.541l-.995-.885c-.1-.597.458-.949.827-.814.102.146.465.92.601 1.209a2.09 2.09 0 0 0-.433.49zm2.872-.795l.838-.947c.137-.129.383-.193.499-.099.107.086.29.276.324.424.047.211-.005.357-.173.465-.197.127-.804.461-1.06.6-.119-.201-.257-.345-.428-.443zm-2.31.21l-.631-1.288c-.027-.066-.042-.168.016-.234a1.41 1.41 0 0 1 .973-.388.15.15 0 0 1 .159.162l.043 1.448c-.199.067-.395.183-.56.3zm1.525-.387l.47-1.233c.025-.062.074-.228.162-.276a.86.86 0 0 1 .496-.037c.161.04.338.176.394.283s.027.232-.039.334c-.127.197-.596.79-.804 1.052-.184-.08-.405-.117-.678-.124zm-.832.051l.019-1.529c.017-.125.107-.226.229-.261a1.82 1.82 0 0 1 .727.006c.128.043.237.158.217.292-.037.248-.357 1.093-.492 1.44l-.592.035c-.036.003-.071.009-.107.017zm6.117-4.733H7.162l-.024-.15h10.942l-.024.15zm.069-.433H7.092l-.051-.317c.037-.009.074-.019.111-.032.119-.043.229-.108.324-.192.09-.079.165-.174.228-.276.047-.076.087-.156.122-.238l.021-.053v-.307c-.009.002-.019.006-.028.01-.054.023-.092.069-.118.12-.017.033-.028.069-.042.104l-.02.048-.052.111c-.046.089-.1.174-.166.249a.82.82 0 0 1-.407.255l-.006.002-.637-3.946h12.459l-.627 3.968a.94.94 0 0 1-.12-.023.82.82 0 0 1-.407-.255c-.066-.075-.12-.16-.166-.249l-.052-.111-.02-.048-.042-.104c-.026-.051-.064-.096-.118-.12-.009-.004-.018-.007-.028-.01v.307l.021.053c.035.082.075.162.122.238.063.102.139.196.228.276.095.084.205.149.324.192a1.11 1.11 0 0 0 .225.053l-.047.296zm-6.743-.487l.115-.002a.95.95 0 0 0 .187-.03.82.82 0 0 0 .407-.255c.066-.075.12-.16.166-.249l.052-.111.019-.048.042-.104c.026-.051.064-.096.118-.12.009-.004.018-.007.028-.01v.307l-.021.053c-.035.082-.075.162-.122.238-.063.102-.139.196-.228.276-.095.084-.205.149-.324.192-.1.036-.205.054-.311.062l-.133.003a3.16 3.16 0 0 1-.121-.003c-.106-.008-.211-.027-.311-.062-.119-.043-.229-.108-.324-.192-.09-.079-.165-.174-.228-.276-.047-.076-.087-.156-.122-.238l-.021-.053v-.307c.009.002.019.006.028.01.053.023.092.069.118.12.017.033.028.069.042.104l.019.048.052.111a1.25 1.25 0 0 0 .166.249.82.82 0 0 0 .407.255.95.95 0 0 0 .187.03l.115.002zm4.669.203l-.127-.003c-.106-.008-.211-.027-.311-.062-.119-.043-.229-.108-.324-.192a1.22 1.22 0 0 1-.228-.276c-.047-.076-.087-.156-.122-.238l-.021-.053v-.307c.01.002.019.006.028.01.054.023.092.069.118.12.017.033.028.069.042.104l.02.048.052.111a1.24 1.24 0 0 0 .166.249.82.82 0 0 0 .407.255.95.95 0 0 0 .187.03l.115.002.114-.002a.95.95 0 0 0 .187-.03.82.82 0 0 0 .407-.255c.066-.075.12-.16.166-.249l.052-.111.02-.048.042-.104c.026-.051.064-.096.118-.12.009-.004.018-.007.028-.01v.307l-.021.053a1.74 1.74 0 0 1-.122.238c-.063.102-.139.196-.228.276-.095.084-.205.149-.324.192-.1.036-.205.054-.311.062l-.127.003zm-2.329-.203l.109-.002a.95.95 0 0 0 .187-.03.82.82 0 0 0 .407-.255c.066-.075.12-.16.166-.249l.052-.111.019-.048.042-.104c.026-.051.064-.096.118-.12.009-.004.018-.007.028-.01v.307l-.021.053a1.74 1.74 0 0 1-.122.238 1.22 1.22 0 0 1-.228.276c-.095.084-.205.149-.324.192-.1.036-.205.054-.311.062l-.127.003c-.031 0-.096-.001-.127-.003-.106-.008-.211-.027-.311-.062-.119-.043-.229-.108-.324-.192-.09-.079-.165-.174-.228-.276-.047-.076-.087-.156-.122-.238l-.021-.053v-.307a.19.19 0 0 1 .028.01c.053.023.092.069.118.12.017.033.028.069.042.104l.02.048.052.111a1.24 1.24 0 0 0 .166.249.82.82 0 0 0 .407.255.95.95 0 0 0 .187.03l.12.002zm-4.789-.002a5.83 5.83 0 0 0 .229 0 .95.95 0 0 0 .187-.03.82.82 0 0 0 .407-.255c.066-.075.12-.16.166-.249l.052-.111.02-.048.042-.104c.026-.051.064-.096.118-.12.009-.004.018-.007.028-.01v.307l-.021.053c-.035.082-.075.162-.122.238-.063.102-.138.196-.228.276-.095.084-.205.149-.324.192-.1.036-.205.054-.311.062h-.254c-.106-.008-.211-.027-.311-.062-.119-.043-.229-.108-.324-.192-.09-.079-.165-.174-.228-.276-.047-.076-.087-.156-.122-.238l-.021-.053v-.307c.009.002.019.006.028.01.054.023.092.069.118.12.017.033.028.069.042.104l.02.048.052.111c.046.089.1.174.166.249a.82.82 0 0 0 .407.255.95.95 0 0 0 .187.03zM7.815 7.7l-.08.07c-.023 0-.047-.01-.061-.032.029-.037.141-.136.187-.176.011-.01.028-.01.039 0l.184.162c-.011.036-.036.046-.053.047a4.47 4.47 0 0 1-.14-.12c-.006-.006-.016-.006-.022 0l-.054.048zm2.334 0l-.08.07c-.023 0-.047-.01-.061-.032.03-.037.141-.136.187-.176.011-.01.028-.01.039 0l.184.162c-.011.036-.036.046-.053.047-.021-.016-.108-.092-.14-.12-.006-.006-.016-.006-.022 0l-.054.048zm2.334 0l-.08.07c-.023 0-.047-.01-.061-.032.03-.037.141-.136.187-.176.011-.01.028-.01.039 0l.184.162c-.011.036-.036.046-.053.047-.021-.016-.108-.092-.14-.12-.006-.006-.016-.006-.022 0l-.054.048zm2.334 0l-.08.07c-.023 0-.047-.01-.061-.032.03-.037.141-.136.187-.176.011-.01.028-.01.039 0l.184.162c-.011.036-.036.046-.053.047-.021-.016-.109-.092-.14-.12-.006-.006-.016-.006-.022 0l-.054.048zm2.334 0l-.08.07c-.023 0-.047-.01-.061-.032.029-.037.141-.136.187-.176.011-.01.028-.01.039 0l.184.162c-.011.036-.035.046-.053.047a4.53 4.53 0 0 1-.14-.12c-.006-.006-.016-.006-.022 0l-.054.048zm.066-1.095l.33-.306.504-.488c.061-.053.124-.05.124-.05s-.397.738-.395 1.173c.002.476-.313.741-.313.741l-.249-.22-.249.22s-.314-.265-.313-.741c.002-.436-.395-1.173-.395-1.173s.063-.003.124.05l.504.488.33.306zm-9.338 0l.33-.306.504-.488c.061-.053.124-.05.124-.05s-.397.738-.395 1.173c.002.476-.313.741-.313.741l-.249-.22-.249.22s-.314-.265-.313-.741c.002-.436-.395-1.173-.395-1.173s.063-.003.124.05l.504.488.33.306zm2.334 0l.33-.306.504-.488c.061-.053.124-.05.124-.05s-.397.738-.395 1.173c.002.476-.313.741-.313.741l-.249-.22-.249.22s-.314-.265-.313-.741c.002-.436-.395-1.173-.395-1.173s.063-.003.124.05l.504.488.33.306zm2.335 0l.33-.306.504-.488c.061-.053.124-.05.124-.05s-.397.738-.395 1.173c.002.476-.313.741-.313.741l-.249-.22-.249.22s-.314-.265-.313-.741c.002-.436-.395-1.173-.395-1.173s.063-.003.124.05l.504.488.33.306zm2.334 0l.33-.306.504-.488c.061-.053.124-.05.124-.05s-.397.738-.395 1.173c.002.476-.313.741-.313.741l-.249-.22-.249.22s-.314-.265-.313-.741c.002-.436-.395-1.173-.395-1.173s.063-.003.124.05l.504.488.33.306zm-2.613-.362l-.485-.45a.13.13 0 0 1 .005-.195c.029-.025.067-.036.104-.03a.13.13 0 0 1 .09.059l.333.517c-.022.029-.038.063-.047.1zm4.669 0l-.485-.45a.13.13 0 0 1 .005-.195c.029-.025.067-.036.104-.03a.13.13 0 0 1 .09.059l.333.517a.29.29 0 0 0-.047.1zm-7.003 0l-.485-.45a.13.13 0 0 1 .005-.195c.029-.025.067-.036.104-.03s.07.027.09.059l.333.517c-.022.029-.038.063-.047.1zm4.669 0l-.485-.45a.13.13 0 0 1 .005-.195c.029-.025.067-.036.104-.03a.13.13 0 0 1 .09.059l.333.517c-.022.029-.038.063-.047.1zm-7.003 0l-.485-.45a.13.13 0 0 1 .005-.195c.029-.025.067-.036.104-.03a.13.13 0 0 1 .09.059l.333.517c-.022.029-.038.063-.047.1zm.51-.1l.333-.516a.13.13 0 0 1 .193-.029c.03.024.047.059.048.097s-.014.074-.042.099l-.485.449c-.009-.037-.026-.07-.047-.1zm9.338 0l.333-.516a.13.13 0 0 1 .193-.029c.03.024.047.059.048.097a.13.13 0 0 1-.042.099l-.485.449c-.009-.037-.026-.07-.047-.1zm-2.334 0l.333-.516a.13.13 0 0 1 .193-.029c.03.024.047.059.048.097a.13.13 0 0 1-.042.099l-.485.449c-.009-.037-.026-.07-.047-.1zm-2.334 0l.333-.516a.13.13 0 0 1 .193-.029c.03.024.047.059.048.097a.13.13 0 0 1-.042.099l-.485.449c-.009-.037-.026-.07-.047-.1zm-2.335 0l.333-.516a.13.13 0 0 1 .193-.029c.03.024.047.059.048.097a.13.13 0 0 1-.042.099l-.484.449c-.009-.037-.026-.07-.048-.1zm4.236-.034l-.274-.534a.13.13 0 0 1 .071-.182c.036-.014.075-.011.108.007s.056.049.065.086l.127.559c-.037.014-.07.036-.098.063zm-2.335 0l-.273-.534a.13.13 0 0 1 .071-.182c.036-.014.075-.011.108.007s.056.049.065.086l.127.559a.29.29 0 0 0-.098.063zm-2.334 0l-.274-.534a.13.13 0 0 1 .071-.182c.036-.014.075-.011.108.007a.13.13 0 0 1 .065.086l.127.559c-.037.014-.07.036-.098.063zm7.003 0l-.274-.534a.13.13 0 0 1 .071-.182c.036-.014.075-.011.108.007a.13.13 0 0 1 .065.086l.128.559c-.037.014-.07.036-.098.063zm-9.338 0l-.274-.534a.13.13 0 0 1 .071-.182c.036-.014.075-.011.108.007a.13.13 0 0 1 .065.086l.127.559c-.037.014-.07.036-.097.063zm2.64-.063l.128-.559a.13.13 0 0 1 .171-.093h.001c.035.013.063.04.077.075s.012.074-.006.107l-.274.533c-.028-.027-.061-.049-.098-.063zm7.003 0l.128-.559a.13.13 0 0 1 .171-.093h.001c.035.013.063.04.077.075s.012.074-.006.107l-.274.533a.29.29 0 0 0-.098-.063zm-9.338 0l.128-.559a.13.13 0 0 1 .171-.093h.001a.13.13 0 0 1 .071.182l-.274.533c-.028-.027-.061-.049-.098-.063zm4.669 0l.128-.559a.13.13 0 0 1 .171-.093h.001a.13.13 0 0 1 .077.075c.014.035.012.074-.005.107l-.274.533c-.028-.027-.061-.049-.098-.063zm2.334 0l.128-.559a.13.13 0 0 1 .171-.093h.001a.13.13 0 0 1 .077.075c.014.035.012.074-.005.107l-.274.533c-.028-.027-.061-.049-.098-.063zm2.178-.014l-.079-.707c-.004-.037.008-.074.033-.102s.061-.044.098-.044a.13.13 0 0 1 .1.043c.025.028.037.065.033.103l-.079.707c-.017-.003-.035-.005-.052-.005s-.036.002-.053.005zm-2.334 0l-.079-.707c-.004-.037.008-.074.033-.102s.061-.044.098-.044a.13.13 0 0 1 .1.043c.025.028.037.065.033.103l-.079.707c-.017-.003-.034-.005-.052-.005s-.036.002-.053.005zm-4.669 0l-.079-.707c-.004-.037.008-.074.033-.102s.061-.044.098-.044a.13.13 0 0 1 .1.043c.025.028.037.065.033.103l-.079.707c-.017-.003-.034-.005-.052-.005s-.036.002-.053.005zm-2.334 0l-.079-.707c-.004-.037.008-.074.033-.102s.061-.044.098-.044a.13.13 0 0 1 .1.043c.025.028.037.065.033.103l-.079.707c-.017-.003-.034-.005-.052-.005s-.036.002-.053.005zm4.669 0l-.079-.707c-.004-.037.008-.074.033-.102s.061-.044.098-.044a.13.13 0 0 1 .1.043c.025.028.037.065.033.103l-.079.707c-.017-.003-.034-.005-.052-.005s-.036.002-.053.005zm6.379-1.571H6.326L6.252 4h12.696l-.073.46z" fill="#fecc09"/></svg>