<svg xmlns="http://www.w3.org/2000/svg" width="32" height="32" fill="none" xmlns:v="https://vecta.io/nano"><path d="M0 4a4 4 0 0 1 4-4h24a4 4 0 0 1 4 4v24a4 4 0 0 1-4 4H4a4 4 0 0 1-4-4V4z" fill="#fff"/><path fill-rule="evenodd" d="M17.512 4.052A12.03 12.03 0 0 1 28 15.953c0 6.607-5.391 11.995-12 11.995S4 22.559 4 15.953c0-1.718.364-3.353 1.02-4.833l.62.797.036.044s.118.139.258.26a1.69 1.69 0 0 0 .408.255c.088.035.176.066.268.084.406.08.823.075 1.124.061l.411-.024c1.568-.073 2.168.633 2.576 1.114.374.44 4.033 5.313 4.033 5.313l1.819-1.821-2.205-2.82c-.758-.975-1.306-1.676-1.641-1.959-.732-.617-2.35-.69-2.72-.753 0 0-1.366-.167-2.181-1.003-.192-.197-.325-.371-.325-.371l-1.17-1.437c.3-.407.625-.795.972-1.16l1.262 1.625c.246.314.381.496.63.744.634.632 1.529.718 1.529.718 1.867.336 2.887.425 3.479 1.11.71.822.848 1.01 1.441 1.775l1.935 2.525 1.763-1.766-1.784-2.315c-.321-.422-.829-1.081-1.204-1.349-.773-.553-1.46-.471-2.161-.545-.602-.064-1.157-.076-1.879-.42 0 0-.312-.069-.956-.899l-.826-1.069-1.383-1.722a12.04 12.04 0 0 1 1.274-.777l1.363 1.767.681.887c.98 1.252 1.614 1.266 2.268 1.343 1.037.123 2.013.057 2.857.694.489.368.744.758 1.095 1.211l1.674 2.17 1.765-1.767-1.41-1.811c-.131-.165-.356-.374-.689-.59-.527-.342-1.052-.448-2.4-.647s-1.786-.433-2.423-1.129c-.304-.333-.473-.569-.678-.834l-1.765-2.228a11.89 11.89 0 0 1 1.695-.346l1.203 1.66c.404.489.764 1.127 1.788 1.583 1.233.549 2.165.42 3.009.638a3.28 3.28 0 0 0 .483.167c.269.119.444.295.611.485.279.315.524.622.579.694l1.047 1.304 1.744-1.745-.722-.918c-.198-.25-.284-.34-.45-.441a1.74 1.74 0 0 0-.518-.212c-.254-.059-.6-.103-1.197-.127-1.572-.063-2.153-.188-3.154-1.385l-.742-.9-.627-.807z" fill="#14763e"/></svg>