<svg xmlns="http://www.w3.org/2000/svg" width="32" height="32" fill="none" xmlns:v="https://vecta.io/nano"><path d="M0 4a4 4 0 0 1 4-4h24a4 4 0 0 1 4 4v24a4 4 0 0 1-4 4H4a4 4 0 0 1-4-4V4z" fill="#fff"/><path fill-rule="evenodd" d="M16 20.5a3 3 0 1 1 0 6 3 3 0 1 1 0-6zm9.684-.765H6.316C4.86 18.111 4 16.107 4 13.941c0-2.042.764-3.938 2.07-5.51h6.643c-2.379 1.031-4.012 3.146-4.012 5.585 0 2.005 1.103 3.79 2.817 4.935h8.963c1.714-1.145 2.817-2.931 2.817-4.935 0-2.439-1.633-4.554-4.012-5.585h6.643c1.306 1.571 2.07 3.468 2.07 5.51 0 2.166-.86 4.17-2.316 5.794zm-8.972-2.931H9.986c2.556-.973 4.34-3.169 4.34-5.719 0-2.439-1.633-4.554-4.012-5.585h6.643c1.306 1.571 2.07 3.468 2.07 5.51 0 2.166-.86 4.17-2.316 5.794z" fill="#173576"/></svg>