<svg xmlns="http://www.w3.org/2000/svg" width="32" height="32" fill="none" xmlns:v="https://vecta.io/nano"><path d="M0 4a4 4 0 0 1 4-4h24a4 4 0 0 1 4 4v24a4 4 0 0 1-4 4H4a4 4 0 0 1-4-4V4z" fill="#fff"/><path fill-rule="evenodd" d="M6.986 24.569c-.909-.22-1.785-.799-2.468-1.97-1.202-2.061-.045-4.096.763-5.489-2.477 5.166.871 6.747 4.835 3.268l6.211-6.218c.627-.628 1.561-1.044 2.491-.936 1.387.162 2.32.953 2.881 1.193.368.158.702-.073.575-.379-.129-.311-.404-.643-.924-1.164L17.916 9.53c-1.1-1.059-1.539-2.023-1.479-2.971.095-1.502 1.49-2.395 2.431-2.435-.572.681-.522 1.262-.187 1.686l5.415 5.423c.669.669 1.528 3.462-.916 4.192-.294.088-.588.082-.921-.014-.87-.252-2.186-.491-3.084.391l-7.266 7.276c-.453.432-1.818 1.506-3.769 1.595.467 1.655 2.728 1.437 5.378-.889l6.211-6.218c.627-.628 1.555-.95 2.491-.936.686.01 1.186.193 1.567.468.774.558 1.05 1.089 1.161 1.682-.9-.523-1.473-.454-2.371.429l-6.021 6.027c.007.138.052.261.165.348.4.306 1.318.311 1.753-.123l4.764-4.77c.627-.628 1.441-.999 2.377-.985a1.91 1.91 0 0 1 1.324.44c.774.558.951 1.283 1.062 1.875-.813-.574-1.259-.333-1.915.312l-4.59 4.587c-.543.545-1.957 1.247-3.556.681-.901-.319-1.51-1.278-1.899-1.841-.108.389-5.335 4.515-8.352.07-.295-.435-.507-.834-.701-1.26zm1.911-9.894c-.151-.275-.237-.592-.237-.928 0-1.067.865-1.933 1.931-1.933s1.931.866 1.931 1.933-.865 1.933-1.931 1.933a1.92 1.92 0 0 1-.926-.237c.151.275.237.592.237.928 0 1.067-.865 1.933-1.931 1.933s-1.931-.866-1.931-1.933.865-1.933 1.931-1.933a1.92 1.92 0 0 1 .926.237z" fill="#00bbe6"/></svg>