<svg xmlns="http://www.w3.org/2000/svg" width="32" height="32" fill="none" xmlns:v="https://vecta.io/nano"><path d="M0 4a4 4 0 0 1 4-4h24a4 4 0 0 1 4 4v24a4 4 0 0 1-4 4H4a4 4 0 0 1-4-4V4z" fill="#fff"/><path d="M19.905 28h7.845V8.062C25.007 1.58 15.267 4.179 14.571 6.809c2.409-1.345 4.414-1.617 5.334.518V28zm-7.81-24H4.25v19.938c2.743 6.482 12.483 3.883 13.179 1.253-2.409 1.345-4.414 1.617-5.334-.518V4zm7.747 12c0 2.102-1.726 3.817-3.842 3.817S12.158 18.102 12.158 16s1.726-3.817 3.842-3.817 3.842 1.715 3.842 3.817z" fill="#2d2a68"/></svg>