<svg xmlns="http://www.w3.org/2000/svg" width="32" height="32" fill="none" xmlns:v="https://vecta.io/nano"><path d="M0 4a4 4 0 0 1 4-4h24a4 4 0 0 1 4 4v24a4 4 0 0 1-4 4H4a4 4 0 0 1-4-4V4z" fill="#fff"/><g fill-rule="evenodd"><path d="M12.219 8.19h0c.932-1.368 2.26-2.747 3.704-4.044.835 1.002 1.566 2.257 1.828 3.706 1.034-.594 2.199-1.089 3.427-1.5l2.483-.711c-.104 1.879-.46 3.874-1.275 5.665h0 0c1.92.04 3.854.603 5.615 1.37-1.406 1.807-2.983 3.499-4.655 4.702h0 0c1.201.992 2.03 2.378 2.588 3.769-1.892.794-3.796 1.423-5.484 1.642h0 0c.218 1.206 0 2.488-.367 3.617l-1.768-.212c-.876-.142-1.701-.341-2.424-.62h-.001.001c-.409.898-1.118 1.672-1.841 2.279-.948-.59-1.852-1.268-2.494-2.011h0 0c-.662.474-1.482.753-2.243.911-.471-.752-.89-1.577-1.095-2.377-.436.056-.894.032-1.339-.042-.271-.044-.539-.106-.795-.178-.105-.776-.141-1.613-.008-2.358h0 0c-.638-.245-1.252-.698-1.78-1.182.2-.734.488-1.504.907-2.119h0c-.49-.569-.888-1.341-1.203-2.116.489-.62 1.092-1.238 1.759-1.623l-.005-.021c-.225-.901-.28-1.986-.251-3.059.295-.144.605-.273.925-.381.527-.176 1.073-.286 1.602-.277h0c.221-1.225.729-2.6 1.336-3.944.995.13 2.045.447 2.852 1.115h0z" fill="#7dcdf1"/><path d="M13.851 11.232h0c.601-.716 1.321-1.447 2.161-2.164.52-.449 1.106-.851 1.737-1.216.102.566.131 1.154.066 1.755a13.59 13.59 0 0 1-.62 2.844 17.22 17.22 0 0 1 3.064-.954c.695-.148 1.407-.207 2.126-.191a10.19 10.19 0 0 1-1.12 1.901 18.46 18.46 0 0 1-2.219 2.469c.904.14 1.836.393 2.757.77a5.99 5.99 0 0 1 1.541.933c-.619.444-1.25.822-1.894 1.116-1.029.47-2.01.813-2.92 1.046h0 0a8.67 8.67 0 0 1 1.436 1.885 4.32 4.32 0 0 1 .483 1.365 8.82 8.82 0 0 1-1.799.065c-.919-.068-1.752-.212-2.494-.414a7.27 7.27 0 0 1 .059 1.987c-.043.396-.158.78-.325 1.146-.45-.174-.865-.378-1.229-.621-.601-.4-1.12-.832-1.556-1.28l-.003-.003.003.003c-.211.522-.491 1.021-.837 1.479a3.27 3.27 0 0 1-.713.689c-.25-.288-.463-.59-.627-.905-.277-.526-.482-1.056-.625-1.575h0a5.63 5.63 0 0 1-1.256.784 2.87 2.87 0 0 1-.83.23c-.082-.319-.13-.636-.134-.947-.009-.528.04-1.04.137-1.524h0 0c-.44.086-.896.113-1.353.079a2.75 2.75 0 0 1-.791-.186c.056-.302.138-.592.256-.857a6.39 6.39 0 0 1 .739-1.256h0a5.32 5.32 0 0 1-1.226-.61c-.231-.155-.445-.351-.642-.579a3.41 3.41 0 0 1 .583-.666 5.75 5.75 0 0 1 1.206-.798h0 0a6.83 6.83 0 0 1-.872-1.299c-.152-.291-.271-.621-.362-.977a2.99 2.99 0 0 1 .854-.339c.506-.108 1.013-.139 1.505-.099-.127-.593-.2-1.246-.211-1.953-.008-.426.037-.878.123-1.347.348.007.685.068.999.197.539.22 1.033.525 1.47.897h0 0c.193-.748.471-1.547.846-2.384.23-.514.525-1.028.872-1.539a3.46 3.46 0 0 1 .823.974c.366.647.634 1.349.809 2.068h0z" fill="#00aae7"/><path d="M11.995 14.121c-.011.026.012.026 0 0v-.001-.001c.403-.915 1.024-1.897 1.856-2.887.251 1.045.299 2.111.159 3.101-.019.016-.02.034-.008.056l.008-.056c.844-.702 1.919-1.351 3.185-1.883-.42 1.255-.997 2.365-1.662 3.263h0 0l.622-.099c.895-.11 1.872-.097 2.891.062-1.042.96-2.097 1.683-3.088 2.157.901.353 1.788.93 2.571 1.707-1.012.259-1.948.382-2.779.384-.199 0-.392-.006-.578-.019h0 0c.48.715.822 1.585.983 2.536-1.036-.284-1.91-.689-2.592-1.174h0 0c.016.789-.139 1.617-.458 2.407-.626-.642-1.095-1.329-1.394-2.016.009-.017-.012-.028 0 0a5.7 5.7 0 0 1-1.408 1.704c-.208-.766-.28-1.523-.218-2.225h0 0 0a5.01 5.01 0 0 1-1.865.768c.148-.729.409-1.403.766-1.979.022-.002.016-.025 0 0l-.382.017a4.68 4.68 0 0 1-1.534-.258c.434-.577.952-1.054 1.515-1.398-.574-.277-1.116-.702-1.593-1.255a5 5 0 0 1 1.588-.484 4.04 4.04 0 0 1 .399-.03c.015.023.028-.001 0 0-.383-.596-.679-1.34-.861-2.2.748.063 1.453.293 2.052.665h0c.001.026.022.014 0 0h0c-.049-.843.057-1.816.329-2.871.653.556 1.164 1.249 1.496 2.006v.001.001z" fill="#006fba"/><path d="M14.011 14.322c-.679.576-1.216 1.182-1.591 1.8.004-.671-.142-1.354-.426-2.001-.33.75-.522 1.467-.566 2.123-.303-.507-.736-.934-1.259-1.259.039.706.188 1.334.441 1.855-.491-.234-1.048-.338-1.632-.32-.007-.01-.02-.009-.038.001l.038-.001c.327.51.724.92 1.176 1.2-.535.063-1.07.263-1.57.569.5.243 1.029.372 1.557.369-.45.325-.842.761-1.156 1.27.556-.05 1.092-.212 1.573-.485-.261.508-.419 1.085-.474 1.696.494-.335.915-.755 1.231-1.242.004.581.141 1.176.395 1.762.303-.567.49-1.169.541-1.765.303.509.748.974 1.311 1.375h0c-.014-.683-.156-1.325-.426-1.876.562.286 1.25.46 2.036.515-.405-.603-.902-1.086-1.457-1.412.689-.059 1.449-.281 2.243-.661-.737-.288-1.479-.422-2.175-.395.617-.414 1.212-.998 1.75-1.724h0c-.849.168-1.607.454-2.235.842.354-.646.597-1.402.713-2.222z" fill="#fff"/></g></svg>