<svg xmlns="http://www.w3.org/2000/svg" width="32" height="32" fill="none" xmlns:v="https://vecta.io/nano"><path d="M0 4a4 4 0 0 1 4-4h24a4 4 0 0 1 4 4v24a4 4 0 0 1-4 4H4a4 4 0 0 1-4-4V4z" fill="#fff"/><path fill-rule="evenodd" d="M16 22.504l4.561-4.561L18.618 16 16 18.618 13.382 16H9.496l-2.748 2.748h5.496L16 22.504zM9.366 6.748H6.748v18.504h18.504V6.748h-2.618l-4.691 4.691 1.813 1.813h5.496L22.504 16h-3.886L16 13.382 13.382 16l-1.943-1.943 2.618-2.618-4.691-4.691zM28 4v24H4V4h6.504L16 9.496 21.496 4H28z" fill="#9b814c"/></svg>