<svg xmlns="http://www.w3.org/2000/svg" width="32" height="32" fill="none" xmlns:v="https://vecta.io/nano"><path d="M0 4a4 4 0 0 1 4-4h24a4 4 0 0 1 4 4v24a4 4 0 0 1-4 4H4a4 4 0 0 1-4-4V4z" fill="#fff"/><path d="M11.284 12.186v7.017c4.496-.085 8.992-1.805 13.488-7.173L24.752 4c-4.073 4.896-8.485 8.025-13.468 8.186zm9.564 12.795c0 1.663-1.356 3.019-3.019 3.019s-3.019-1.356-3.019-3.019 1.356-3.019 3.019-3.019 3.019 1.356 3.019 3.019z" fill="#1f1f48"/><path fill-rule="evenodd" d="M20.717 12.797v7.017c-4.983.161-9.395 3.29-13.468 8.186l-.019-8.03c4.496-5.368 8.992-7.088 13.488-7.173z" fill="#afb2ae"/></svg>