<svg xmlns="http://www.w3.org/2000/svg" width="32" height="32" fill="none" xmlns:v="https://vecta.io/nano"><path d="M0 4a4 4 0 0 1 4-4h24a4 4 0 0 1 4 4v24a4 4 0 0 1-4 4H4a4 4 0 0 1-4-4V4z" fill="#fff"/><g fill-rule="evenodd"><path d="M7.825 21.482c-1.565-1.806-2.528-4.135-2.573-6.685C5.147 8.959 9.888 4.107 15.81 4.002L16.038 4l.152.002c5.922.105 10.663 4.957 10.558 10.795a10.46 10.46 0 0 1-2.573 6.685c.268.163.5.418.677.771.202.397.191.869-.025 1.251-.362.649-.768 1.502-1.12 2.218-.241.491-.46.924-.678 1.22-.243.329-.513.531-.778.626-.663.282-1.323.424-1.981.433a.83.83 0 0 1-.129-.008c-.971-.137-1.524-.56-1.762-1.138-.776-.306-1.566-.472-2.376-.473h-.023a6.46 6.46 0 0 0-2.357.473c-.238.579-.791 1.001-1.762 1.139-.043.006-.086.009-.129.008-.658-.009-1.318-.151-1.981-.433-.265-.095-.536-.296-.778-.626-.218-.296-.437-.729-.678-1.22-.352-.717-.759-1.569-1.117-2.213a1.33 1.33 0 0 1-.03-1.253c.178-.354.411-.609.679-.773zm.62.148c-1.716-1.792-2.787-4.192-2.834-6.84C5.51 9.149 10.093 4.462 15.817 4.36l.224-.002.143.002c5.724.102 10.307 4.789 10.206 10.43-.047 2.648-1.118 5.049-2.834 6.84.402.062.744.322.977.784a.97.97 0 0 1-.019.915c-.364.654-.774 1.512-1.129 2.235-.23.468-.437.883-.645 1.165-.195.264-.407.431-.619.504-.621.265-1.239.401-1.855.409-.025 0-.049-.001-.074-.005-.88-.124-1.366-.504-1.528-1.055-.868-.363-1.753-.559-2.662-.56h-.024c-.903.004-1.78.2-2.641.56-.162.551-.647.93-1.527 1.055-.024.004-.049.005-.074.005-.616-.008-1.234-.143-1.855-.409-.213-.073-.425-.24-.619-.504-.208-.282-.415-.697-.645-1.165-.354-.722-.765-1.581-1.127-2.232a.97.97 0 0 1-.021-.916c.233-.463.576-.724.978-.786z" fill="#e95b00"/><path d="M15.976 25.544c-1.049.005-2.065.25-3.062.7-.044.508-.435.815-1.172.92-.562-.008-1.125-.134-1.691-.378-.354-.107-.645-.701-1.004-1.432l-1.14-2.257c-.081-.144-.086-.319-.011-.467.219-.435.579-.609.998-.503a.39.39 0 0 1 .252.199l.141.272a7.21 7.21 0 0 0 1.382.323l.059-.049-.037-.024c-2.712-1.704-4.54-4.671-4.6-8.067-.096-5.379 4.277-9.846 9.735-9.943l.219-.002.131.002c5.458.097 9.831 4.564 9.735 9.943-.061 3.395-1.888 6.363-4.6 8.067-.012.007-.024.016-.037.024l.059.049a7.21 7.21 0 0 0 1.383-.323l.141-.272a.39.39 0 0 1 .252-.199c.419-.106.779.068.998.503.075.147.071.322-.011.467-.368.66-.782 1.527-1.14 2.257s-.649 1.325-1.004 1.432c-.566.245-1.13.371-1.691.378-.738-.105-1.128-.411-1.172-.92-1.004-.454-2.029-.699-3.086-.7h-.025zm-6.544-2.561l.404 1.08.692 1.693c.119.291.362.512-.263.839.008.022.015.043.023.072.383.125.729.243 1.088.237.043-.023.087-.038.124-.053l-1.711-3.519c-.18-.37-.228-.39-.357-.349zm13.138 0l-.404 1.08-.692 1.693c-.119.291-.362.512.263.839-.008.022-.015.043-.023.072-.383.125-.729.243-1.088.237-.043-.023-.087-.038-.124-.053l1.711-3.519c.18-.37.228-.39.356-.349zm-2.325-.396c-1.202-.651-2.719-.907-4.244-.864l-.052-.001c-2.186-.052-4.346.514-5.582 1.975-.024.192 1.1 2.324 1.335 2.633.104.101.141.114.23.127 1.036-.876 2.55-1.248 4.069-1.227h.036c1.508-.015 3.005.357 4.033 1.227.088-.013.125-.027.23-.127.235-.309 1.359-2.441 1.335-2.633-.376-.445-.837-.806-1.358-1.092-.008.012-.026.031-.052.056a1.66 1.66 0 0 1-.228.179c-.084.055-.169.099-.256.133l-.217.089-.222.067c-.075.023-.149.042-.224.058l-.096.124-.104.17-.055.1a1.77 1.77 0 0 0-.106.216c-.031.075-.059.149-.086.224v.001c-.034.094-.047.168-.04.223s.038.092.093.112c.02.007.038.008.056.002a.15.15 0 0 0 .048-.028.26.26 0 0 0 .041-.043c.013-.016.023-.031.032-.045.016-.022.028-.031.036-.026s.009.017.002.037a1.61 1.61 0 0 1-.078.149c-.032.056-.069.107-.109.153a.5.5 0 0 1-.126.107c-.044.025-.087.03-.13.015a.16.16 0 0 1-.095-.078c-.017-.035-.026-.074-.027-.117a.48.48 0 0 1 .017-.13c.012-.044.024-.081.035-.112h.001c.019-.049.042-.1.066-.153l.072-.158c.012-.022.017-.037.016-.045s-.016-.001-.046.02a2.22 2.22 0 0 1-.242.155c-.079.043-.164.077-.253.103-.133.039-.268.058-.407.057s-.279-.016-.42-.046c-.109-.023-.22-.053-.331-.09s-.225-.083-.342-.138a.98.98 0 0 1-.136-.077c-.039-.027-.07-.059-.093-.095s-.039-.079-.045-.128-.002-.107.015-.174c.011-.043.027-.086.047-.13s.041-.086.065-.126.039-.051.052-.046.012.028.001.07a.29.29 0 0 0-.009.109.19.19 0 0 0 .042.094.62.62 0 0 0 .212.163c.083.039.166.075.25.107.304.119.639.183 1.006.194a1.32 1.32 0 0 0 .219-.011.87.87 0 0 0 .21-.056.73.73 0 0 0 .262-.17c.07-.073.088-.087.146-.184.012-.023.026-.043.041-.059l.149-.152c.025-.025.052-.051.079-.075-.005-.004.005-.018.03-.044a3.78 3.78 0 0 0 .097-.086.4.4 0 0 1 .108-.071 5.33 5.33 0 0 1 .133-.053l.362-.133a6.01 6.01 0 0 0 .428-.192l.077-.033zm1.58 3.822c-.084-.04-.208-.107-.205-.253.184-.055.418-.066.509.228-.09.066-.237.057-.304.026zm-11.649 0c.084-.04.208-.107.205-.253-.184-.055-.418-.066-.508.228.09.066.237.057.304.026zm-1.342-4.058c-.424-.134-.743.199-.658.536l1.591 3.276c.159-.195.315-.214.471-.224l-1.404-3.588zm14.333 0c.424-.134.743.199.658.536l-1.591 3.276c-.159-.195-.315-.214-.471-.224l1.404-3.588zm-4.357 2.954a.49.49 0 0 1 .118-.131c.069-.063.111-.092.124-.087.043.015.077.051.102.105s.03.102.016.142-.048.075-.106.118-.097.059-.118.051c-.01-.004-.037-.036-.081-.096l-.045-.061c-.011-.015-.015-.029-.011-.04zm-6.084.041c-.001-.009.016-.057.05-.146s.058-.133.068-.135c.03-.005.067.008.113.038s.072.064.077.097c.006.038-.006.09-.037.155s-.055.097-.072.1c-.009.001-.023-.004-.043-.016s-.04-.025-.059-.037l-.065-.026c-.02-.009-.031-.019-.033-.031zm-.242-.295c-.002-.014.016-.068.054-.163s.063-.143.073-.145c.023-.003.058.007.107.031s.08.05.1.075c.018-.042.037-.084.057-.127.028-.06.046-.09.053-.091.031-.005.073.008.124.039s.081.07.086.106-.009.096-.046.165c-.037.063-.064.096-.083.099-.014.002-.038-.007-.071-.029-.048-.032-.087-.054-.118-.067-.048.134-.092.204-.132.21-.007.001-.042-.015-.107-.047s-.097-.051-.097-.057zm7.215-1.592c.015-.014.022-.019.027-.021.006.015-.001.03-.014.051-.081.136-.157.275-.227.418-.19.385-.052.103-.149.344-.034.094-.047.169-.04.224s.038.092.093.112c.02.007.038.008.055.002a.15.15 0 0 0 .048-.027c.015-.012.029-.027.041-.043s.023-.031.031-.045c.015-.022.028-.031.036-.026s.009.017.002.037c-.019.043-.045.093-.078.148a.98.98 0 0 1-.109.153c-.04.046-.082.082-.126.108a.15.15 0 0 1-.13.015c-.046-.017-.078-.043-.095-.078s-.026-.074-.026-.118.005-.086.017-.13a1.44 1.44 0 0 1 .035-.112l.004-.004c.029-.079.074-.178.135-.298.137-.271-.067.12.202-.392.023-.044.051-.086.085-.126a3.29 3.29 0 0 1 .071-.08l.112-.112zm-5.744.225a5.1 5.1 0 0 0 .432-.076c.14-.031.277-.075.413-.132a2.66 2.66 0 0 0 .348-.179c.111-.068.218-.141.32-.217a4.59 4.59 0 0 0 .403-.34l.383-.358a2.48 2.48 0 0 1 .117-.104c.039-.033.082-.064.127-.092s.072-.034.09-.024.018.037.002.079l-.035.099a.62.62 0 0 1-.044.095c-.008.015-.017.028-.027.038s-.023.019-.04.029c-.023.012-.056.038-.098.077l-.161.151-.227.221c-.075.075-.152.149-.231.222s-.158.144-.239.212-.165.133-.252.193c-.364.255-.771.418-1.22.489l-.296.04c-.082.01-.152.014-.21.011a2.14 2.14 0 0 1-.188-.021.99.99 0 0 1-.181-.046l-.054-.021c-.013-.005-.025-.008-.036-.008s-.021.004-.03.013-.021.023-.036.043a.88.88 0 0 0-.041.063l-.051.085c-.037.058-.084.101-.141.13s-.12.039-.19.029a1.74 1.74 0 0 1-.105-.021c-.031-.007-.067-.006-.106.004s-.071.022-.104.037-.065.039-.096.069c-.047.043-.077.062-.092.059s-.007-.034.023-.09c.034-.066.074-.13.12-.193a1.05 1.05 0 0 1 .157-.169.81.81 0 0 1 .097-.073c.035-.022.072-.035.113-.038.034-.002.067.002.101.011s.068.015.102.018.072 0 .101-.013.055-.033.077-.06a.66.66 0 0 0 .069-.086l.061-.09a.27.27 0 0 1 .083-.081c.026-.014.066-.015.12-.004.121.022.234.035.339.038s.216-.003.333-.019zm5.135-.238c.008-.023.047-.066.117-.129s.111-.092.124-.087c.043.016.077.051.102.106s.03.102.016.141-.048.075-.105.116-.096.058-.118.05c-.01-.003-.037-.036-.08-.096a1.08 1.08 0 0 1-.046-.059c-.011-.017-.014-.031-.01-.043zm1.181-1.154c.203.086.749.413.697.397l.131-.083c2.646-1.644 4.432-4.528 4.491-7.829.094-5.205-4.138-9.527-9.42-9.621L16 5.154l-.169.001c-5.281.094-9.513 4.416-9.42 9.621.059 3.302 1.845 6.185 4.491 7.829l.118.075a3.74 3.74 0 0 1 .63-.35 1.48 1.48 0 0 1-.222-.065c-.255-.097-.48-.264-.666-.462-.041-.044-.08-.089-.118-.136a1.9 1.9 0 0 1-.107-.148l-.038-.063c-.087-.027-.171-.061-.252-.103-.218-.113-.404-.282-.555-.474a2.25 2.25 0 0 1-.072-.098c-.039-.055-.075-.112-.108-.17-.027-.046-.052-.094-.074-.142l-.039-.09.048-.01c-.134-.062-.261-.14-.373-.237-.186-.16-.328-.367-.432-.589a2.27 2.27 0 0 1-.048-.111 2.21 2.21 0 0 1-.066-.19 1.73 1.73 0 0 1-.039-.155l-.017-.096.113.004a1.69 1.69 0 0 1-.466-.429c-.144-.199-.234-.433-.283-.672a2.47 2.47 0 0 1-.021-.119c-.01-.067-.016-.134-.02-.201a1.7 1.7 0 0 1-.002-.16l.006-.098.089.024c.049.014.097.03.144.049.042.016.083.033.124.052-.016-.01-.031-.021-.047-.032-.033-.023-.066-.047-.098-.072a1.74 1.74 0 0 1-.477-.553c-.114-.217-.171-.461-.185-.705-.002-.04-.004-.08-.004-.121a2.26 2.26 0 0 1 .008-.202 1.79 1.79 0 0 1 .021-.159l.019-.096.084.036c.046.02.091.044.135.068.055.031.154.092.15.088a2.12 2.12 0 0 1-.085-.086c-.167-.179-.305-.388-.383-.621s-.095-.482-.071-.725c.004-.04.009-.08.016-.12a2.22 2.22 0 0 1 .04-.198c.013-.052.028-.103.046-.154l.034-.091.078.049a1.61 1.61 0 0 1 .123.089 2.26 2.26 0 0 1 .156.135l.061.06.003-.006c-.038-.05-.075-.101-.109-.154-.022-.034-.043-.069-.063-.104-.121-.213-.207-.448-.229-.693a1.73 1.73 0 0 1 .099-.722 2.13 2.13 0 0 1 .043-.114c.025-.062.054-.123.085-.183.025-.048.051-.094.08-.139l.054-.081.064.066a1.55 1.55 0 0 1 .099.115c-.046-.177-.074-.378-.06-.578a1.73 1.73 0 0 1 .213-.697c.019-.036.039-.071.061-.105.035-.057.073-.113.113-.167a1.68 1.68 0 0 1 .101-.124l.067-.071.053.075a1.55 1.55 0 0 1 .079.129l.001.002c-.009-.186.008-.374.061-.553.07-.235.2-.449.361-.634a2.4 2.4 0 0 1 .082-.089 2.29 2.29 0 0 1 .147-.138c.041-.035.083-.069.126-.099l.081-.055.047.114c.024-.145.066-.286.129-.419.105-.222.267-.413.454-.572.031-.026.063-.051.095-.076a2.22 2.22 0 0 1 .166-.114c.045-.028.092-.055.14-.079l.088-.042.022.089c.011.049.02.099.027.149.009.068.015.137.018.205.001.028.002.057.002.085l.013-.005c.038-.096.088-.187.151-.269.018-.024.038-.047.058-.069.118-.127.267-.222.425-.29.078-.033.159-.061.241-.079l.101-.021-.002.096c-.001.036-.005.073-.009.109a1.49 1.49 0 0 1-.023.135 1.22 1.22 0 0 1-.244.522 1.12 1.12 0 0 1-.295.246l-.002.006.079-.007a2.3 2.3 0 0 1 .122-.005h.033c.059 0 .118.003.176.009l.097.012-.032.092a1.72 1.72 0 0 1-.062.148 2.23 2.23 0 0 1-.089.169c-.02.035-.041.069-.064.102-.137.207-.311.393-.523.526a1.54 1.54 0 0 1-.245.123c-.008.035-.017.069-.027.103a2.23 2.23 0 0 1-.067.195 2.25 2.25 0 0 1-.047.111 1.73 1.73 0 0 1-.459.618 1.54 1.54 0 0 1-.226.154l-.002.03a2.26 2.26 0 0 1-.022.205c-.006.04-.013.079-.022.118-.054.253-.153.498-.313.703-.063.081-.135.155-.213.223a1.69 1.69 0 0 1 .013.104c.007.068.011.137.011.206 0 .04 0 .08-.002.12-.013.258-.072.516-.196.744a1.57 1.57 0 0 1-.188.271l.025.053a1.49 1.49 0 0 1 .055.141c.023.065.042.131.058.198a2.25 2.25 0 0 1 .025.117c.047.254.05.519-.019.769-.03.109-.072.214-.125.314l.029.043c.028.042.053.086.077.13.032.061.062.123.089.186a2.02 2.02 0 0 1 .044.112c.087.243.132.504.104.762-.025.234-.108.46-.223.664l-.066.11.029.028.019-.044c.028-.061.058-.121.092-.18.026-.047.055-.092.085-.136l.057-.079.062.068a1.61 1.61 0 0 1 .095.118 2.25 2.25 0 0 1 .114.172 1.99 1.99 0 0 1 .059.105c.121.228.201.481.21.74a1.49 1.49 0 0 1-.007.201l.006-.014.076.052a1.61 1.61 0 0 1 .12.093 2.2 2.2 0 0 1 .151.141c.028.028.055.058.082.088.171.194.308.421.377.671.013.046.023.093.032.14.041.017.081.036.12.056a2.24 2.24 0 0 1 .18.102c.034.021.067.044.1.067.207.147.389.332.514.554.026.046.049.093.07.142a1.59 1.59 0 0 1 .091.029 2.12 2.12 0 0 1 .192.077 2.07 2.07 0 0 1 .108.053 1.73 1.73 0 0 1 .594.49c.143.192.236.418.29.65.009.039.017.078.024.118a1.46 1.46 0 0 1 .008.051l.005-.002c.881-.316 1.754-.455 3.057-.457l.188-.005.188.005c1.46.002 2.381.176 3.377.579a1.37 1.37 0 0 1-.03-.122c-.038-.184-.043-.378.007-.561s.153-.347.279-.487c.057-.062.118-.121.186-.172l.083-.06.038.088a1.35 1.35 0 0 1 .037.103c.014.043.025.087.035.132a1.41 1.41 0 0 1 .03.222c.023-.013.047-.026.071-.037-.035-.179-.038-.367.011-.544.05-.182.152-.347.279-.487a1.4 1.4 0 0 1 .186-.172l.083-.061.038.088a1.09 1.09 0 0 1 .037.102 1.44 1.44 0 0 1 .035.132c.016.073.026.147.03.221-.021-.18-.022-.361.025-.532.05-.183.153-.347.279-.487a1.39 1.39 0 0 1 .185-.172l.083-.061.052.122c.003-.035.008-.07.015-.104a1.21 1.21 0 0 1 .243-.506c.052-.066.11-.129.172-.185l.079-.066.056.108a.94.94 0 0 1 .001-.075c.009-.189.073-.372.167-.536a1.38 1.38 0 0 1 .144-.208l.068-.077.056.078c.021.03.04.06.058.092a1.52 1.52 0 0 1 .063.121c.031.068.058.138.078.21.014-.012.027-.024.041-.036-.094-.143-.164-.305-.188-.475-.027-.187.002-.379.062-.557.027-.08.061-.158.102-.231l.052-.088.07.066a1.1 1.1 0 0 1 .075.079 1.53 1.53 0 0 1 .085.107 1.42 1.42 0 0 1 .116.191l.018-.023c-.114-.132-.206-.286-.252-.455-.05-.182-.046-.376-.008-.561a1.4 1.4 0 0 1 .072-.242l.041-.094.078.056a1.09 1.09 0 0 1 .084.069 1.37 1.37 0 0 1 .097.096c.012.012.031.035.033.036a1.08 1.08 0 0 1-.14-.223c-.079-.172-.107-.364-.1-.552.003-.084.013-.168.031-.25l.024-.1.086.043c.029.015.058.032.086.049a.87.87 0 0 1-.047-.064 1.21 1.21 0 0 1-.187-.529 1.39 1.39 0 0 1-.009-.252l.008-.102.092.029c.035.011.069.024.102.039a1.49 1.49 0 0 1 .123.06c.066.035.129.076.188.122l.007-.032c-.126-.068-.242-.157-.334-.267-.122-.145-.199-.323-.241-.507-.019-.082-.032-.166-.035-.25l-.002-.102.094.019c.029.006.057.014.085.022l-.022-.02c-.138-.13-.235-.298-.299-.475a1.39 1.39 0 0 1-.064-.244l-.014-.102.096.008c.036.003.072.009.108.015l.023.004c-.012-.008-.024-.016-.036-.025a1.21 1.21 0 0 1-.357-.433 1.39 1.39 0 0 1-.095-.234l-.027-.099.103-.005h.081a.82.82 0 0 1-.034-.014c-.172-.079-.319-.207-.436-.354-.052-.066-.1-.136-.14-.21l-.046-.092.1-.025.106-.023c-.025-.009-.05-.019-.075-.03-.161-.072-.301-.184-.417-.316a1.4 1.4 0 0 1-.151-.203l-.051-.089.098-.03c.013-.004.027-.007.041-.011-.166-.074-.31-.193-.427-.33a1.39 1.39 0 0 1-.147-.206l-.049-.09.073-.021c-.17-.078-.316-.204-.433-.349a1.39 1.39 0 0 1-.141-.21l-.047-.091a1.49 1.49 0 0 1-.332-.264c-.058-.061-.112-.127-.157-.198l-.054-.087.097-.033c.051-.016.102-.029.155-.038.08-.015.16-.024.241-.026h.061a1.41 1.41 0 0 1-.071-.188c-.024-.081-.042-.163-.051-.247l-.009-.102.095.013c.036.005.072.013.107.021.044.011.088.024.131.038a1.38 1.38 0 0 1 .252.114c.002-.09.014-.18.034-.268.018-.082.044-.163.077-.241l.043-.093.077.058a1.22 1.22 0 0 1 .083.071 1.47 1.47 0 0 1 .095.097c.133.149.239.326.285.522.003.012.011.028.011.028l.024-.048.047-.084.072.064c.027.024.052.05.077.077a1.53 1.53 0 0 1 .087.105c.11.145.196.311.233.49l.051-.098.073.062a1.24 1.24 0 0 1 .079.075c.032.033.062.067.09.102.098.121.178.259.226.408l.073.059c.028.023.055.048.081.074a1.52 1.52 0 0 1 .092.101c.128.153.228.334.267.531l.023-.018.071.064a1.17 1.17 0 0 1 .077.078c.03.034.059.069.087.105.12.16.211.345.239.544.018.124.012.251-.012.375h0a1.37 1.37 0 0 1 .105-.148l.067-.078.058.077c.021.029.041.06.06.091a1.47 1.47 0 0 1 .064.12c.086.18.138.38.127.58a1.05 1.05 0 0 1-.019.147l.076-.068.047.084a1.17 1.17 0 0 1 .047.098c.018.042.034.084.048.127a1.2 1.2 0 0 1 .052.592 1.03 1.03 0 0 1-.044.161l.039-.03.079-.055.037.088c.014.034.025.068.036.103.013.044.024.088.033.132.04.196.041.402-.018.594a1.09 1.09 0 0 1-.108.238l.064-.04.084-.047.028.092a1.14 1.14 0 0 1 .025.106c.008.045.015.09.019.135.019.198-.001.404-.08.589-.049.113-.118.216-.2.307l.003-.002c.057-.033.117-.062.178-.086l.097-.035.012.095a1.16 1.16 0 0 1 .007.109 1.51 1.51 0 0 1-.003.136c-.013.199-.066.399-.174.568-.068.107-.157.2-.256.279.055-.019.111-.036.168-.048l.101-.019-.003.096c-.002.036-.006.073-.011.108-.006.045-.015.09-.025.134-.046.194-.13.383-.265.532a1.22 1.22 0 0 1-.448.305 1.39 1.39 0 0 1-.124.045c0 .015-.001.03-.001.046a1.37 1.37 0 0 1 .253-.095c.081-.022.165-.038.249-.045l.103-.006-.016.095c-.006.036-.014.071-.024.106a1.53 1.53 0 0 1-.042.13c-.07.187-.177.363-.329.495a1.22 1.22 0 0 1-.483.247 1.43 1.43 0 0 1-.165.035c-.005.026-.01.052-.016.078.087-.024.177-.039.266-.046.031-.002.063-.004.094-.004.012 0 .024 0 .035 0l.131.008.096.012-.035.096c-.031.078-.07.154-.114.225-.1.16-.23.304-.393.402s-.351.147-.539.162c-.032.002-.064.004-.096.004-.003.008-.006.015-.009.023a1.38 1.38 0 0 1 .147-.01l.094.002c.053.003.105.008.158.017l.128.026.092.026-.049.09a1.39 1.39 0 0 1-.146.206c-.122.144-.272.267-.447.341-.134.056-.28.082-.425.085.057.005.113.013.168.024a1.35 1.35 0 0 1 .166.044l.097.035-.056.086a1.4 1.4 0 0 1-.161.195c-.132.135-.291.247-.47.308-.078.026-.158.043-.239.05-.003-.001.075.019.115.032l.097.035-.056.087c-.047.07-.102.135-.161.195-.132.135-.291.247-.47.308s-.374.068-.561.041c-.039-.006-.079-.013-.117-.021-.006.015-.013.029-.02.043l.079-.002c.091.001.182.011.271.028.056.011.112.025.166.044l.097.035-.056.086a1.38 1.38 0 0 1-.161.195c-.132.135-.291.247-.47.308-.089.03-.181.047-.274.053zm-8.257-.133c-.178-.053-.349-.132-.5-.241a1.7 1.7 0 0 1-.432-.472 2.08 2.08 0 0 0-.372.061l-.004.001c.056.077.118.15.184.218.024.026.05.05.075.074a1.57 1.57 0 0 0 .565.348c.116.039.236.061.357.07-.01.005.075-.035.127-.058zm7.92-.035c.032.006.064.012.096.015a1.04 1.04 0 0 0 .491-.047c.131-.049.249-.13.35-.225a1.37 1.37 0 0 0 .065-.065l.064-.075c-.028-.007-.056-.013-.085-.018-.073-.013-.146-.02-.221-.021a1.15 1.15 0 0 0-.169.012c-.027.039-.057.077-.09.112-.125.133-.285.23-.455.296l-.047.017zm-7.423-.177c-.058-.128-.128-.25-.212-.362s-.18-.214-.292-.298a1.48 1.48 0 0 0-.429-.22 1.91 1.91 0 0 0-.241-.062c-.106-.02-.213-.032-.321-.036h-.004a2.12 2.12 0 0 0 .129.288c.039.072.083.142.132.209.094.13.207.248.338.341.121.086.256.15.396.197.073.024.148.043.223.058l.09-.038c-.091-.062-.181-.127-.27-.192a7.3 7.3 0 0 1-.297-.233 4.07 4.07 0 0 1-.283-.254h.001c.117.052.229.111.338.173a7.76 7.76 0 0 1 .324.194c.106.068.211.137.313.21l.045.032.02-.008zm7.427.021a1.06 1.06 0 0 0 .421-.288 1.05 1.05 0 0 0 .194-.367 1.42 1.42 0 0 0 .024-.089l.019-.097-.095.03a1.49 1.49 0 0 0-.086.034c-.136.059-.263.141-.363.252a1.04 1.04 0 0 0-.211.387c.036-.032.079-.079.122-.125a3.39 3.39 0 0 1 .18-.175c.063-.056.128-.11.2-.159h0c-.036.079-.08.151-.125.222a3.49 3.49 0 0 1-.144.206c-.045.058-.09.115-.138.169zm.15-.753c.002-.074-.004-.147-.016-.22-.005-.03-.011-.06-.018-.09l-.026-.095-.071.069a1.37 1.37 0 0 0-.061.068c-.095.113-.172.244-.211.387s-.039.294-.015.44a1.6 1.6 0 0 0 .017.078c.051-.189.134-.365.261-.506.042-.047.089-.09.14-.129l.003-.002zm-7.5.558c-.019-.095-.046-.189-.08-.28a1.48 1.48 0 0 0-.197-.367c-.096-.13-.217-.24-.35-.331-.071-.049-.146-.093-.223-.132a2.09 2.09 0 0 0-.289-.119l-.004-.001c.007.108.021.211.043.313a1.43 1.43 0 0 0 .008.037 1.73 1.73 0 0 1 .514.22 1.4 1.4 0 0 1 .108.077 1.63 1.63 0 0 1 .266.267c.078.098.145.204.204.315zm8.118-.404c.032.006.064.011.097.015.164.02.335.011.491-.047.131-.049.249-.13.35-.225a1.33 1.33 0 0 0 .065-.066l.064-.075c-.032-.008-.064-.015-.097-.02-.069-.012-.139-.018-.209-.019h-.015c-.052 0-.103.004-.154.012-.028.039-.058.076-.091.112a1.22 1.22 0 0 1-.455.296 1.56 1.56 0 0 1-.047.018zm-10.002-.009a4.5 4.5 0 0 1 .145-.03c-.181-.079-.351-.185-.494-.322a1.69 1.69 0 0 1-.363-.527c-.029-.002-.057-.003-.085-.004h-.06a2.27 2.27 0 0 0-.219.012l-.017.002.021.038a2 2 0 0 0 .328.433 1.49 1.49 0 0 0 .344.258 1.45 1.45 0 0 0 .4.14zm.503-.52c-.08-.158-.184-.305-.315-.425-.111-.103-.241-.185-.377-.25-.162-.076-.334-.13-.51-.161l-.016-.003a2.13 2.13 0 0 0 .088.303c.029.077.063.152.102.225.073.138.166.266.278.375s.245.195.386.263c.038.018.076.035.115.051-.021-.046-.042-.093-.06-.14s-.044-.126-.043-.123a6.81 6.81 0 0 1-.219-.228c-.085-.093-.168-.188-.246-.29v-.001a4.05 4.05 0 0 1 .311.218 6.64 6.64 0 0 1 .218.173l.056-.001a2.19 2.19 0 0 1 .232.015zm9.525.364c.151-.063.293-.154.399-.279.09-.107.153-.234.194-.367.009-.029.017-.059.024-.089l.019-.097-.095.03a1.39 1.39 0 0 0-.086.034c-.136.059-.263.141-.362.252a.97.97 0 0 0-.172.28l.079-.013.004-.004c.058-.06.117-.119.181-.175a1.9 1.9 0 0 1 .2-.159h.001c-.036.079-.08.151-.125.222s-.094.139-.145.206c-.036.047-.073.094-.112.139l-.004.021zm-.251-.191c.05-.154.127-.301.236-.423a1.05 1.05 0 0 1 .142-.131c.002-.074-.004-.147-.016-.22-.005-.03-.011-.06-.018-.09l-.026-.095-.071.069c-.021.022-.042.045-.062.069-.095.113-.172.244-.211.387s-.039.294-.015.44l.001.008.04-.014zm-9.183-.591a1.32 1.32 0 0 0-.065-.125 1.5 1.5 0 0 0-.299-.357c-.136-.121-.291-.222-.455-.302l-.004-.002a2.09 2.09 0 0 0 0 .326l.002.027c.205.084.398.202.554.359.116.116.211.25.287.394l-.015-.13c-.005-.053-.007-.192-.007-.192zm10.143.245a1.55 1.55 0 0 0 .075.011c.164.02.335.011.491-.047.131-.049.249-.13.35-.225a1.33 1.33 0 0 0 .065-.065l.064-.075a1.21 1.21 0 0 0-.097-.02c-.069-.012-.139-.018-.209-.019a1.15 1.15 0 0 0-.169.011.99.99 0 0 1-.091.112 1.22 1.22 0 0 1-.455.296l-.021.008zm.052-.468a2.84 2.84 0 0 1 .138-.131 1.84 1.84 0 0 1 .2-.159h.001a1.88 1.88 0 0 1-.125.222c-.045.071-.094.139-.145.206l-.05.064a1.55 1.55 0 0 1-.014.074c.132-.061.253-.145.347-.256s.153-.234.194-.367c.009-.029.017-.059.024-.089l.019-.097-.094.03a1.41 1.41 0 0 0-.086.034c-.136.059-.263.141-.363.252-.064.071-.114.152-.154.238l.108-.02zm-11.704.135c-.208-.133-.396-.303-.531-.512-.117-.18-.191-.385-.232-.596-.116-.036-.236-.061-.357-.075l-.017-.002c.028.104.063.203.105.298.033.075.071.149.114.219.081.134.18.257.299.359s.249.178.389.238a3.28 3.28 0 0 0 .204.072c.009 0 .018-.001.027-.001zm11.417-.061c.05-.142.124-.276.225-.389.043-.048.091-.091.142-.131a1.18 1.18 0 0 0-.016-.22 1.43 1.43 0 0 0-.018-.09l-.026-.095-.071.069a1.47 1.47 0 0 0-.062.068c-.095.113-.172.244-.211.387-.038.137-.039.282-.018.422l.055-.022zm-11.074-.391a1.85 1.85 0 0 0-.022-.088c-.038-.134-.091-.264-.165-.383-.085-.137-.196-.257-.32-.359-.067-.055-.138-.105-.211-.15a2.12 2.12 0 0 0-.278-.143l-.004-.001c-.002.108.003.212.016.315a1.93 1.93 0 0 0 .047.242 1.49 1.49 0 0 0 .192.439 1.5 1.5 0 0 0 .308.333c.063.052.199.137.199.137a2.17 2.17 0 0 1-.036-.134l-.016-.07-.055-.085c-.066-.107-.132-.214-.193-.324a4.06 4.06 0 0 1-.172-.338h0c.09.091.173.186.253.283a7.4 7.4 0 0 1 .225.287l-.086-.007.092.008c.05.005.1.013.15.022a2.08 2.08 0 0 1 .075.016zm12.044.016l-.013.04.028.002a1.04 1.04 0 0 0 .486-.083c.127-.058.239-.147.333-.25a1.24 1.24 0 0 0 .06-.07l.059-.079a1.36 1.36 0 0 0-.204-.02h-.036c-.079.001-.158.009-.235.026a1.04 1.04 0 0 1-.082.118c-.106.131-.244.233-.393.309l-.002.007zm-11.844-.288a1.4 1.4 0 0 0-.044-.241c-.044-.159-.119-.309-.213-.444a1.86 1.86 0 0 0-.154-.193c-.07-.077-.146-.149-.226-.215l-.003-.003c-.033.103-.057.205-.073.308l-.006.038c.18.129.34.287.457.476a1.71 1.71 0 0 1 .22.589l.039.012c-.001-.016-.002-.032-.003-.048-.003-.067-.002-.135.001-.201.001-.026.003-.051.005-.076zm11.907-.028l-.014.116a.96.96 0 0 0 .26-.24 1.05 1.05 0 0 0 .167-.38c.007-.03.013-.06.018-.09l.012-.098-.092.037c-.028.012-.056.026-.083.04a1.04 1.04 0 0 0-.343.277c-.068.088-.117.188-.152.293a1.32 1.32 0 0 1 .079-.021l.003-.004a3.29 3.29 0 0 1 .168-.188 1.81 1.81 0 0 1 .188-.173h.001c-.031.081-.069.157-.109.23-.031.058-.065.114-.1.17l-.002.032zm-.397.015a1.17 1.17 0 0 1 .206-.444c.039-.05.083-.096.13-.139l.002-.002c-.003-.073-.015-.146-.032-.218a1.23 1.23 0 0 0-.025-.088l-.033-.093v.001a1.57 1.57 0 0 0-.065.073 1.47 1.47 0 0 0-.056.073 1.04 1.04 0 0 0-.182.401c-.028.146-.017.297.017.44.015.007.027.002.039-.003zm-5.026-1.576c.645.235 1.335.342 2.029.308-.816.264-1.651.296-2.434.131l-.006.161-.404.554-.404-.554-.006-.161c-.783.164-1.618.133-2.434-.131.694.034 1.384-.073 2.029-.308-1.056-.552-1.906-1.5-2.304-2.721-.59-1.808-.032-3.793 1.414-5.033-1.571 2.318-1.006 5.449 1.249 7.081l-.157-3.864v-3.04c.244-.117.455-.293.612-.513a1.61 1.61 0 0 0 .612.513v3.04l-.156 3.864c2.254-1.632 2.82-4.763 1.249-7.081 1.446 1.24 2.003 3.225 1.414 5.033-.398 1.22-1.247 2.169-2.304 2.721zm5.972 1.112a1.33 1.33 0 0 0 .066-.005c.165-.015.329-.062.469-.152.117-.076.215-.18.293-.295a1.3 1.3 0 0 0 .049-.078l.047-.087c-.014-.001-.028-.001-.041-.001-.027 0-.055.001-.083.003-.117.008-.235.03-.345.073l-.001.003a.99.99 0 0 1-.063.126 1.22 1.22 0 0 1-.38.387l-.006.004-.005.022zM8.283 17.67a1.67 1.67 0 0 0-.038-.022c-.097-.054-.199-.101-.303-.139l-.004-.001c.003.108.014.212.033.314.015.081.034.161.059.24.048.149.115.292.207.418s.2.23.323.321c.073.054.15.103.23.146l-.028-.028c-.169-.177-.311-.384-.392-.615-.072-.202-.096-.419-.087-.633zm.921.957a1.54 1.54 0 0 0-.083-.602c-.053-.146-.133-.282-.229-.405-.112-.144-.246-.271-.393-.38l-.003-.002a2.11 2.11 0 0 0-.058.311c-.009.082-.012.164-.011.247.004.156.028.312.08.459a1.49 1.49 0 0 0 .226.408 1.91 1.91 0 0 0 .156.178c.032.032.065.063.099.093l-.002-.052a7.76 7.76 0 0 1-.127-.346c-.04-.119-.078-.239-.112-.36s-.066-.243-.089-.369h0a3.94 3.94 0 0 1 .18.334c.056.113.107.228.157.343l.033.078.061.02c.039.013.077.028.115.045zm13.626.163l-.005.113a.98.98 0 0 0 .248-.297c.065-.124.098-.262.11-.401.003-.03.004-.061.005-.092l-.002-.098-.085.049c-.026.016-.052.034-.076.052-.12.087-.226.194-.299.324-.055.098-.089.205-.108.315l.068-.023.01-.017c.044-.071.089-.142.138-.21s.101-.135.161-.198h0c-.018.085-.045.165-.074.244-.027.073-.057.145-.089.216v.024zm-.371.032c.016-.159.059-.315.137-.454.032-.056.069-.109.111-.158a1.18 1.18 0 0 0-.064-.211 1.21 1.21 0 0 0-.037-.084l-.046-.087-.055.082c-.016.026-.031.053-.045.08a1.03 1.03 0 0 0-.122.423c-.007.147.025.294.08.43l.041-.021zM9.37 18.706a1.8 1.8 0 0 0 .06-.192c.035-.139.053-.283.047-.427-.007-.157-.043-.311-.099-.457-.066-.174-.16-.338-.272-.486l-.01-.013c-.056.093-.103.186-.143.282l-.014.036c.145.167.264.358.334.569.072.217.091.45.073.677-.003-.002.013.007.024.012zm14-.525a1.19 1.19 0 0 0 .095-.024 1.04 1.04 0 0 0 .432-.238c.101-.097.177-.218.232-.345a1.47 1.47 0 0 0 .033-.085l.029-.094-.097.02c-.03.007-.059.016-.089.025a1.15 1.15 0 0 0-.261.118 1.04 1.04 0 0 1-.038.139 1.22 1.22 0 0 1-.299.451.93.93 0 0 1-.037.035zm-.16-.339l.021-.058c.029-.078.06-.156.096-.232a1.86 1.86 0 0 1 .12-.225h.001c-.002.086-.013.17-.027.253a3.31 3.31 0 0 1-.05.246l-.041.153.002.037a1.03 1.03 0 0 0 .251-.411 1.05 1.05 0 0 0 .032-.414 1.27 1.27 0 0 0-.013-.091l-.021-.096-.075.065a1.14 1.14 0 0 0-.065.065 1.03 1.03 0 0 0-.232.374c-.038.114-.051.235-.046.356l.053-.024-.005.002zm-.188.1c-.015-.161-.003-.326.048-.48.021-.061.047-.12.079-.176a1.2 1.2 0 0 0-.103-.195 1.24 1.24 0 0 0-.052-.075l-.062-.077-.038.091a1.32 1.32 0 0 0-.029.087c-.042.142-.061.292-.04.439s.081.285.161.409l.035-.023zm-3.804-.532c1.886-1.081 2.535-3.497 1.439-5.386a3.96 3.96 0 0 0-2.469-1.856c2.29 1.716 2.751 4.959 1.029 7.242zm-7.872-5.386c-1.095 1.889-.447 4.305 1.448 5.397-1.73-2.294-1.27-5.537 1.021-7.253a3.96 3.96 0 0 0-2.469 1.856zm-2.85 5.038a1.83 1.83 0 0 1 .079.053c.062-.24.08-.495.026-.738-.032-.144-.089-.282-.161-.41-.09-.159-.204-.304-.333-.432l-.012-.012a2.12 2.12 0 0 0-.101.3c-.02.08-.036.161-.046.242-.018.155-.016.313.015.466a1.48 1.48 0 0 0 .167.436c.04.072.086.14.136.207.024.031.048.062.074.093l.011-.043a7.57 7.57 0 0 1-.078-.364c-.023-.124-.044-.247-.06-.372a4.02 4.02 0 0 1-.036-.378h.001c.051.117.092.236.131.356a7.49 7.49 0 0 1 .107.362l.055.218.027.017zm-.672-1.141c-.095-.076-.197-.143-.304-.201l-.015-.008a2.11 2.11 0 0 0-.012.326c.003.079.012.157.025.235.027.158.076.313.152.455.07.13.163.248.268.351.065.064.134.123.208.176l-.023-.032c-.143-.199-.253-.424-.301-.664-.042-.21-.036-.428.003-.639zm15.946 1.258c.031-.011.061-.023.091-.036a1.04 1.04 0 0 0 .399-.29c.088-.109.148-.238.186-.371a1.53 1.53 0 0 0 .023-.089l.017-.097-.094.032c-.029.011-.057.023-.085.035-.087.04-.17.089-.244.15-.003.048-.01.095-.021.142-.039.178-.128.343-.24.485l-.032.039zm-15.061-.002a1.92 1.92 0 0 0 .131-.26 1.48 1.48 0 0 0 .106-.416c.015-.156.001-.314-.034-.466-.041-.182-.111-.357-.201-.52l-.008-.014c-.068.084-.128.169-.181.259l-.019.033a1.67 1.67 0 0 1 .25.61 1.75 1.75 0 0 1-.03.711l-.016.063zm14.683-.2c-.034-.155-.042-.317-.011-.474.013-.063.032-.125.056-.185-.036-.064-.079-.125-.126-.181-.02-.024-.041-.046-.062-.068L23.177 16l-.026.095c-.007.03-.013.06-.018.09a1.03 1.03 0 0 0 .016.44c.039.142.116.271.209.383l.033-.032zm.337.018c.088-.124.154-.264.18-.413a1.05 1.05 0 0 0-.02-.415c-.007-.03-.015-.059-.024-.089l-.033-.093-.066.074a1.43 1.43 0 0 0-.056.072 1.04 1.04 0 0 0-.183.4.97.97 0 0 0-.005.336l.056-.04.006-.025c.019-.081.04-.162.066-.242a1.82 1.82 0 0 1 .091-.238h.001c.009.086.009.171.005.255a3.3 3.3 0 0 1-.019.25l-.014.102.017.066zm.372-.808c.029-.016.057-.032.084-.05a1.04 1.04 0 0 0 .346-.351 1.05 1.05 0 0 0 .123-.397c.003-.03.006-.061.007-.092l.001-.099-.087.047a1.33 1.33 0 0 0-.078.049c-.079.053-.153.116-.216.187.004.048.006.096.003.144a1.22 1.22 0 0 1-.157.518 1.38 1.38 0 0 1-.025.044zm-.663-.125c.027.033.052.067.075.102-.021-.042-.049-.071-.075-.102zm.422-.299c.005-.056.011-.112.019-.168a1.84 1.84 0 0 1 .051-.25c.023.083.037.167.048.25a3.3 3.3 0 0 1 .022.25c.002.064.004.128.004.191l.008.011c.077-.146.128-.309.128-.475a1.05 1.05 0 0 0-.088-.406 1.32 1.32 0 0 0-.039-.084l-.048-.087-.053.083c-.015.027-.03.053-.044.081-.066.132-.11.277-.115.425a.92.92 0 0 0 .026.245c.007-.006.081-.069.081-.069zm-.198.192c-.038-.12-.059-.246-.055-.372.002-.065.011-.129.025-.191a1.18 1.18 0 0 0-.154-.158 1.13 1.13 0 0 0-.072-.057l-.081-.056-.01.098c-.002.031-.003.061-.003.092a1.03 1.03 0 0 0 .088.432.99.99 0 0 0 .205.285l.058-.072zm-15.269-.394c.021-.024.04-.049.06-.074.135-.176.242-.377.292-.594.033-.144.041-.292.031-.439a2.01 2.01 0 0 0-.115-.533l-.006-.015a2.07 2.07 0 0 0-.22.227l-.024.03c.09.202.146.42.15.642a1.75 1.75 0 0 1-.143.697c-.008.02-.017.04-.026.06zm-.956-1.637l-.001.004c-.028.1-.048.202-.061.306a1.88 1.88 0 0 0-.014.246 1.48 1.48 0 0 0 .074.461c.05.148.127.286.22.411a1.89 1.89 0 0 0 .161.188c.003-.003-.003-.014-.009-.025-.109-.219-.183-.458-.192-.703a1.69 1.69 0 0 1 .104-.63 2.1 2.1 0 0 0-.268-.247l-.013-.01zm.829 1.565a1.86 1.86 0 0 0 .096-.269c.038-.139.058-.282.054-.426-.005-.157-.038-.312-.092-.459a1.88 1.88 0 0 0-.1-.227 2.06 2.06 0 0 0-.171-.273l-.002-.004c-.059.095-.109.19-.151.289a1.89 1.89 0 0 0-.083.234 1.47 1.47 0 0 0-.056.464 1.49 1.49 0 0 0 .094.443 1.94 1.94 0 0 0 .099.222l.052-.113.013-.024-.007-.169c-.003-.126-.004-.251 0-.377s.009-.252.024-.379h.001a4.02 4.02 0 0 1 .073.373c.02.124.035.249.048.374l.02.231.088.089zm15.967-.314c.026-.02.051-.041.075-.063.123-.111.227-.246.285-.402.048-.131.064-.272.058-.411-.001-.031-.004-.061-.007-.091l-.015-.098-.079.06c-.024.019-.047.04-.069.061a1.14 1.14 0 0 0-.183.219.97.97 0 0 1 .026.141 1.21 1.21 0 0 1-.072.536c-.006.016-.012.032-.018.047zm-.461-.14c-.062-.118-.106-.245-.123-.377a1.02 1.02 0 0 1-.006-.193c-.055-.049-.115-.093-.178-.131a1.26 1.26 0 0 0-.08-.045l-.089-.042.006.098c.003.031.007.061.012.091.024.146.073.289.156.412a1 1 0 0 0 .265.26l.038-.073zm.321-.107a1.55 1.55 0 0 1 .045.08 1.01 1.01 0 0 0 .036-.443 1.05 1.05 0 0 0-.152-.387 1.29 1.29 0 0 0-.052-.076l-.061-.078-.039.091a1.35 1.35 0 0 0-.03.087 1.03 1.03 0 0 0-.046.438c.011.087.036.171.071.251l.064-.08c-.005-.061-.008-.122-.009-.183a1.77 1.77 0 0 1 .01-.254h.001c.036.079.063.159.087.239s.044.162.062.243l.014.072zm.151-.778c.024-.023.046-.046.068-.07.11-.123.2-.268.241-.429a1.04 1.04 0 0 0 .015-.415 1.15 1.15 0 0 0-.017-.09l-.025-.095-.072.068c-.022.022-.042.044-.063.068-.062.072-.117.152-.159.237a.99.99 0 0 1 .04.138c.038.178.027.365-.016.541-.004.016-.008.033-.013.049zm-.495-.125a1.11 1.11 0 0 1-.14-.329c-.015-.062-.023-.125-.026-.188v-.003c-.059-.043-.124-.08-.19-.112a1.37 1.37 0 0 0-.085-.037l-.093-.033.016.098a1.35 1.35 0 0 0 .021.089c.039.142.102.28.198.394a.98.98 0 0 0 .264.216l.036-.095zm.052-.985c-.011.031-.021.062-.029.093s-.015.059-.021.089c-.029.144-.034.296 0 .44a.94.94 0 0 0 .077.205l.05-.083.023.022c-.01-.056-.019-.112-.026-.169-.01-.083-.018-.168-.017-.254h0c.044.075.079.152.111.229a3.17 3.17 0 0 1 .087.236 3.8 3.8 0 0 1 .061.21 1.06 1.06 0 0 0 .003-.509 1.05 1.05 0 0 0-.192-.369c-.019-.024-.039-.048-.059-.071l-.069-.071v.001zM8.954 12.36s-.126.089-.193.126c-.034.019-.069.037-.105.055a1.66 1.66 0 0 1-.005.648 1.76 1.76 0 0 1-.3.646c-.013.018-.026.035-.039.052a1.8 1.8 0 0 0 .075-.059c.172-.14.323-.311.422-.511a1.5 1.5 0 0 0 .132-.42 2 2 0 0 0 .013-.537zm-.754 1.433l.002-.002c.154-.202.273-.435.317-.686.026-.149.026-.302.007-.452a2.01 2.01 0 0 0-.14-.515l-.006-.015c-.077.076-.146.155-.208.238-.049.066-.095.135-.135.207-.076.136-.135.283-.165.437s-.032.311-.013.466a1.9 1.9 0 0 0 .046.242l.013.049.067-.099c.014-.08.03-.159.046-.238a7.21 7.21 0 0 1 .087-.367 4 4 0 0 1 .112-.363h.001c.002.128-.005.254-.015.379a7.51 7.51 0 0 1-.04.375l-.039.256.064.087zm-.439-1.72l-.002.004c-.05.091-.094.186-.13.283-.029.077-.053.156-.071.236-.035.152-.05.309-.035.465a1.48 1.48 0 0 0 .119.451 1.9 1.9 0 0 0 .113.22l.007.011-.009-.038a1.72 1.72 0 0 1-.018-.758 1.7 1.7 0 0 1 .242-.561 2.03 2.03 0 0 0-.212-.311l-.003-.003zm15.857 1.056a1.1 1.1 0 0 1-.171-.302c-.022-.06-.038-.121-.048-.184v-.003c-.064-.036-.132-.066-.202-.089-.029-.01-.058-.019-.088-.026l-.097-.022.027.095c.01.029.02.058.032.086.055.137.135.266.243.368.082.078.179.137.283.182l.022-.105zm.513.075c.021-.025.04-.051.059-.078.095-.135.167-.29.189-.454a1.05 1.05 0 0 0-.034-.414 1.37 1.37 0 0 0-.027-.088l-.036-.092-.063.076c-.019.024-.037.049-.054.074-.053.079-.099.164-.131.254.022.043.041.087.056.132a1.22 1.22 0 0 1 .048.539l-.007.05zm-.13-.162c.007-.143-.01-.288-.064-.421s-.136-.245-.234-.344a1.43 1.43 0 0 0-.067-.063l-.076-.063-.018.097c-.005.03-.008.061-.011.091-.012.147.001.298.052.437.023.062.053.122.089.177l.028-.066.041-.087-.013.028c-.009-.031-.017-.061-.024-.092-.02-.082-.037-.165-.046-.251h.001c.052.069.096.141.137.215s.078.148.114.224l.014.031.078.085zm-.604-.809c-.072-.075-.134-.159-.182-.251-.029-.056-.053-.115-.071-.176l-.001-.003c-.068-.028-.139-.048-.212-.063a1.48 1.48 0 0 0-.091-.015l-.098-.009.039.091c.013.028.027.055.042.082.072.129.168.247.288.334.083.06.176.104.273.135l.008-.089.005-.035zm-14.416-.075c.078-.066.149-.14.211-.221a1.47 1.47 0 0 0 .217-.415 2 2 0 0 0 .103-.547v-.017c-.103.036-.198.077-.291.126l-.034.018c.005.221-.026.444-.108.65s-.208.39-.36.55l.108-.066c.046-.027.154-.079.154-.079zm14.96.111c.018-.028.034-.056.049-.085.077-.146.129-.309.13-.475a1.05 1.05 0 0 0-.087-.406 1.5 1.5 0 0 0-.038-.083l-.047-.087-.053.083a1.46 1.46 0 0 0-.044.081c-.043.085-.077.175-.097.269a.96.96 0 0 1 .073.124c.081.164.115.347.116.529a1.23 1.23 0 0 1-.001.051zM8.58 12.24c.056-.056.109-.116.158-.179.088-.114.162-.239.213-.373a1.47 1.47 0 0 0 .092-.459 2.01 2.01 0 0 0-.055-.554l-.004-.016c-.088.063-.169.13-.243.202-.059.057-.115.118-.166.183-.1.126-.183.266-.237.417-.051.143-.077.294-.083.445a1.76 1.76 0 0 0 0 .138c.029-.029.059-.058.09-.085l.082-.069.003.005.002-.006a7.48 7.48 0 0 1 .144-.348 4 4 0 0 1 .168-.341h0c-.018.126-.046.25-.076.372a7.26 7.26 0 0 1-.099.364l-.047.15c.003.008.006.015.01.023.017.043.034.087.048.131zm15.216-.077a1.02 1.02 0 0 0-.119-.447c-.068-.122-.166-.226-.276-.311a1.41 1.41 0 0 0-.075-.054l-.084-.052-.005.099a1.28 1.28 0 0 0 .001.092 1.03 1.03 0 0 0 .107.427.86.86 0 0 0 .09.139l.043-.13.009.005-.027-.069a1.79 1.79 0 0 1-.078-.243h.001c.061.062.114.128.164.195s.097.137.142.208l.055.091.053.05zM8.543 10.855a2.06 2.06 0 0 0-.153-.33l-.008-.014a2.11 2.11 0 0 0-.182.272 1.85 1.85 0 0 0-.103.213c-.059.145-.098.298-.109.454s.007.313.046.464a1.88 1.88 0 0 0 .076.235c.005.014.003-.012.002-.027a1.72 1.72 0 0 1 .104-.751 1.7 1.7 0 0 1 .328-.515zm14.548.556c-.105-.066-.201-.147-.279-.244-.04-.05-.075-.103-.105-.158 0 0-.054-.012-.081-.015a1.35 1.35 0 0 0-.112-.008h-.042c-.026 0-.052.001-.078.003l-.098.01c.029.046.061.09.096.132.106.127.236.237.39.302.099.042.205.064.312.072l-.002-.095zm.235-1.128c-.006.018-.069.333-.069.37a1.02 1.02 0 0 1 .096.107c.112.145.181.318.218.495a1.18 1.18 0 0 1 .01.05c.012-.031.022-.061.031-.092.047-.158.065-.328.033-.491a1.05 1.05 0 0 0-.166-.381 1.32 1.32 0 0 0-.054-.075l-.064-.075-.036.092zm.091.953a1.02 1.02 0 0 0-.207-.421 1.05 1.05 0 0 0-.332-.251 1.22 1.22 0 0 0-.084-.038l-.092-.035.014.098c.006.03.012.06.019.09.036.143.097.282.19.397.051.063.111.119.177.167l.018-.105c-.032-.045-.064-.09-.093-.138a1.85 1.85 0 0 1-.125-.223h.001a1.81 1.81 0 0 1 .199.16c.063.056.122.115.18.175l.078.086a1.53 1.53 0 0 1 .058.038zm-14.282-.568c.013.059.037.176.037.176.185-.123.351-.279.469-.469a1.5 1.5 0 0 0 .171-.406c.047-.176.067-.359.064-.541v-.017c-.1.043-.193.09-.282.145a1.91 1.91 0 0 0-.202.142c-.121.098-.23.213-.316.344a1.48 1.48 0 0 0-.186.428c-.008.03-.015.06-.022.091l.105-.071.092-.055.013.039a7.15 7.15 0 0 1 .206-.291c.075-.101.153-.201.238-.296h.001a4 4 0 0 1-.155.346 7.45 7.45 0 0 1-.177.334l-.057.099h0zm.52.099l.002.043a1.35 1.35 0 0 0 .174-.132c.116-.104.212-.228.291-.362.09-.154.158-.321.205-.493l.001-.004c-.111.013-.217.034-.321.063-.009.002-.018.005-.027.008a1.67 1.67 0 0 1-.248.611c-.085.125-.19.237-.306.334.044-.016.089-.031.134-.043l.095-.024zm12.922-.124a1.09 1.09 0 0 1-.24-.199c-.043-.048-.081-.1-.114-.156-.044-.006-.089-.009-.134-.01-.01 0-.02 0-.03 0-.083.001-.165.009-.246.025h-.001c.032.044.066.087.103.127.112.122.248.225.404.282.093.034.19.051.288.056v-.001c-.011-.036-.03-.122-.03-.122zM9.404 9.508c-.003-.021-.006-.043-.009-.064a2.09 2.09 0 0 0-.072-.303l-.001-.004a2.03 2.03 0 0 0-.377.401c-.092.131-.167.275-.212.429a1.49 1.49 0 0 0-.057.463c.002.082.01.165.023.246l.008-.026c.036-.242.115-.479.248-.686a1.7 1.7 0 0 1 .449-.456zm13.761.799a.96.96 0 0 0-.018-.35 1.05 1.05 0 0 0-.185-.372c-.018-.024-.038-.048-.058-.071l-.068-.072-.031.094c-.009.029-.016.059-.023.089a1.13 1.13 0 0 0-.027.284l.002.002c.035.031.068.064.099.1.119.139.197.308.244.484a1.37 1.37 0 0 1 .01.04l.004.003c.002-.006.006-.023.006-.023a1.37 1.37 0 0 1 .044-.206zm-.971-.532a1.42 1.42 0 0 0 .019.096c.007.03.015.06.024.089.043.141.111.276.21.387.032.036.068.069.105.1l-.002-.144.023.005-.03-.042c-.049-.068-.096-.139-.136-.216v-.001c.074.045.142.096.207.149s.128.109.189.166l.014.013c.02.008.039.016.058.024l.052.024a.99.99 0 0 0-.21-.355c-.096-.101-.217-.178-.344-.234a1.21 1.21 0 0 0-.086-.034l-.094-.03v.001zm-.649-.155c-.032 0-.063.002-.095.005l-.123.016a1.33 1.33 0 0 0 .101.128c.11.124.244.229.4.289.099.038.205.057.311.062l-.042-.119a1.1 1.1 0 0 1-.247-.21c-.042-.048-.078-.1-.11-.155l-.001-.003c-.021-.003-.131-.021-.193-.013zm-4.502.262A.75.75 0 0 1 16 9.701a.75.75 0 0 1-1.043.181c-.284-.199-.393-.566-.264-.887.072.383.442.635.826.562.202-.038.378-.162.481-.34.103.178.279.302.481.34.384.073.754-.179.826-.562.129.321.019.688-.265.887zm5.643-.45c-.004-.039-.01-.077-.018-.115a1.05 1.05 0 0 0-.178-.375 1.27 1.27 0 0 0-.057-.072l-.066-.074-.033.093a1.44 1.44 0 0 0-.024.089c-.022.093-.034.189-.032.284.035.032.069.067.1.104.102.124.173.271.218.424l.017.011c.005-.09.02-.179.043-.266.009-.033.031-.102.031-.102zm-.969-.312a1.31 1.31 0 0 0 .017.097c.006.03.014.059.022.089.041.142.106.279.203.391.027.032.057.061.088.088-.004-.029-.008-.058-.01-.087l-.006-.103.012.002a1.75 1.75 0 0 1-.118-.197h0a1.87 1.87 0 0 1 .205.153 2.64 2.64 0 0 1 .093.081l.139.045.043.017a.94.94 0 0 0-.17-.269 1.05 1.05 0 0 0-.34-.239c-.028-.013-.056-.025-.085-.036l-.094-.032h0zm-11.306.547h.01a1.4 1.4 0 0 0 .209-.102 1.47 1.47 0 0 0 .365-.314c.054-.063.103-.13.148-.2a2.09 2.09 0 0 0 .153-.284l.002-.004-.103-.002a2.25 2.25 0 0 0-.114.005 2.06 2.06 0 0 0-.138.013 1.67 1.67 0 0 1-.338.566c-.141.151-.313.271-.498.362l.145-.026a1.71 1.71 0 0 1 .16-.016zm-.392-.077c.052-.025.103-.052.152-.082a1.5 1.5 0 0 0 .326-.26 1.47 1.47 0 0 0 .262-.404 1.87 1.87 0 0 0 .085-.233 2.07 2.07 0 0 0 .067-.315v-.004a2.12 2.12 0 0 0-.301.1 1.91 1.91 0 0 0-.222.11c-.135.078-.26.175-.365.292s-.182.245-.244.384c-.021.047-.04.095-.057.143l.039-.018a1.75 1.75 0 0 1 .149-.06l.043-.014c.083-.089.167-.178.254-.264s.182-.175.281-.256h.001a4.08 4.08 0 0 1-.207.319 7.38 7.38 0 0 1-.226.303l-.039.049a2.1 2.1 0 0 1 .001.075c0 .045-.001.09-.004.135zm11.621-.17c-.131-.071-.251-.164-.345-.279a1.03 1.03 0 0 1-.107-.161c-.026-.005-.053-.009-.08-.011-.037-.004-.075-.006-.112-.007l-.108.003-.111.012c.03.046.062.089.097.131.106.127.238.236.392.3a.99.99 0 0 0 .286.068l.111.004c-.008-.019-.015-.039-.022-.059zM10.431 8.315a2.08 2.08 0 0 0-.022-.363l-.002-.016c-.093.055-.179.114-.26.18a1.91 1.91 0 0 0-.182.168 1.48 1.48 0 0 0-.273.395 1.49 1.49 0 0 0-.122.437 1.88 1.88 0 0 0-.015.26l.012-.038c.076-.243.196-.474.371-.662.14-.15.31-.269.494-.36zm11.399.689a.93.93 0 0 0-.139-.217 1.06 1.06 0 0 0-.334-.249c-.027-.013-.055-.026-.084-.038l-.093-.034.015.097c.005.03.012.06.02.09a1.04 1.04 0 0 0 .192.396c.051.063.111.117.177.165-.01-.053-.018-.106-.021-.16-.019-.027-.037-.054-.055-.081a1.83 1.83 0 0 1-.126-.222h.001a1.89 1.89 0 0 1 .2.158l.044.04s-.006-.001.025.005.071.016.106.027c.024.007.047.015.071.023zm.278.132a1.01 1.01 0 0 0 .018-.446 1.05 1.05 0 0 0-.168-.38c-.017-.025-.035-.05-.055-.074l-.064-.075-.035.092c-.01.029-.019.058-.027.088-.024.092-.039.187-.04.283a2.05 2.05 0 0 0 .097.107c.083.106.143.227.184.354.031.016.061.033.09.051zm-1.011-.37c-.121-.059-.233-.135-.326-.232-.044-.046-.083-.096-.118-.149l-.002-.003-.096-.005c-.008 0-.015 0-.023 0-.098.001-.195.012-.29.034h-.001c.033.043.069.084.107.123.116.118.255.216.414.268.027.009.054.016.082.022a1.6 1.6 0 0 1 .107-.006c.015 0 .031 0 .047 0a1.41 1.41 0 0 1 .119.007l-.02-.059zm.195-.415a.92.92 0 0 0-.153-.202c-.1-.098-.223-.17-.352-.222a1.39 1.39 0 0 0-.087-.031l-.095-.027.022.096c.008.03.017.059.027.088.048.14.12.273.223.38.052.054.11.101.173.14l-.001-.004c-.008-.047-.014-.094-.017-.141v-.003a2.45 2.45 0 0 1-.061-.076c-.051-.067-.1-.136-.143-.211h0a1.85 1.85 0 0 1 .212.142l.004.003.078.017c.036.008.071.018.105.03a1.47 1.47 0 0 1 .064.023zm.283.144c.03-.157.033-.322-.011-.477-.039-.134-.11-.257-.198-.366a1.27 1.27 0 0 0-.06-.07l-.07-.07-.028.095a1.22 1.22 0 0 0-.02.09 1.13 1.13 0 0 0-.018.285c.037.03.072.063.105.099.098.106.17.232.223.366a1.41 1.41 0 0 1 .077.048zm-10.508-.289c-.003.05-.009.101-.017.15-.003.02-.006.039-.01.059a.91.91 0 0 0 .152-.151c.086-.11.145-.24.182-.375a1.32 1.32 0 0 0 .021-.09l.016-.098h-.001a1.58 1.58 0 0 0-.093.033 1.39 1.39 0 0 0-.085.037 1.04 1.04 0 0 0-.354.265.9.9 0 0 0-.096.14l.004-.001c.059-.017.118-.032.178-.044l.027-.005a1.82 1.82 0 0 1 .188-.16h.001a1.8 1.8 0 0 1-.114.22v.019z" fill="#4e4e4e"/></g></svg>