<svg xmlns="http://www.w3.org/2000/svg" width="32" height="32" fill="none" xmlns:v="https://vecta.io/nano"><path d="M0 4a4 4 0 0 1 4-4h24a4 4 0 0 1 4 4v24a4 4 0 0 1-4 4H4a4 4 0 0 1-4-4V4z" fill="#fff"/><path fill-rule="evenodd" d="M16.019 5.469c1.222 0 2.213 1.002 2.213 2.238s-.991 2.238-2.213 2.238-2.215-1.002-2.215-2.238.992-2.238 2.215-2.238zM21.172 4c1.224 0 2.215 1.002 2.215 2.238s-.991 2.238-2.215 2.238-2.213-1.002-2.213-2.238S19.95 4 21.172 4zm-9.876 3.758c1.223 0 2.214 1.002 2.214 2.239s-.991 2.238-2.214 2.238-2.214-1.002-2.214-2.238.991-2.239 2.214-2.239zm4.709 10.462c.147-.007 1.623-.065 2.531.392.332.167.366.383.366.611 0 1.061-2.868 2.577-3.15 2.721C12.121 23.798 7 24.113 7 24.113L7.048 28c2.191-.304 6.144-.75 10.914-3.335 2.359-1.278 4.913-3.383 4.436-6.394-.46-2.906-3.503-3.724-6.369-3.599l-.034 3.536c-.145.007-1.622.065-2.53-.392-.332-.167-.366-.383-.366-.611 0-1.062 2.867-2.577 3.15-2.721C19.88 12.631 25 12.316 25 12.316l-.048-3.887c-2.192.304-6.144.751-10.913 3.335-2.36 1.278-4.912 3.383-4.435 6.395.46 2.906 3.503 3.724 6.368 3.599l.034-3.536z" fill="#d8262c"/></svg>