<svg xmlns="http://www.w3.org/2000/svg" width="32" height="32" fill="none" xmlns:v="https://vecta.io/nano"><path d="M0 4a4 4 0 0 1 4-4h24a4 4 0 0 1 4 4v24a4 4 0 0 1-4 4H4a4 4 0 0 1-4-4V4z" fill="#fff"/><path d="M21.154 6.985l.663.398-10.241 5.974v5.167l3.673 2.135-5.774 3.468-3.725-2.216V9.97L16.019 4l5.135 2.985zm-10.308 18.03l-.663-.398 10.241-5.974v-5.167l-3.673-2.135 5.774-3.468 3.725 2.216v11.94L15.981 28l-5.135-2.985z" fill="#243873"/><path fill-rule="evenodd" d="M16 19.5a3.51 3.51 0 0 0 3.5-3.5 3.51 3.51 0 0 0-3.5-3.5 3.51 3.51 0 0 0-3.5 3.5 3.51 3.51 0 0 0 3.5 3.5z" fill="#dbaf2e"/></svg>