<svg xmlns="http://www.w3.org/2000/svg" width="32" height="32" fill="none" xmlns:v="https://vecta.io/nano"><path d="M0 4a4 4 0 0 1 4-4h24a4 4 0 0 1 4 4v24a4 4 0 0 1-4 4H4a4 4 0 0 1-4-4V4z" fill="#fff"/><path fill-rule="evenodd" d="M24.857 28H7.607v-2.713l.338-.396a12.07 12.07 0 0 1-2.294-2.817l4.461 2.554h.493l-5.392-3.37-.466-1.088 6.407 4.457h.339l-7.007-5.241a11.92 11.92 0 0 1-.311-1.339l7.819 6.58h.354l-8.31-7.671L4 16l.002-.212 8.685 8.84h.246l-8.88-9.763c.042-.447.108-.886.198-1.317l9.008 11.08h.225L4.494 12.585l.387-1.102 8.849 13.145h.209L5.321 10.525a11.99 11.99 0 0 1 .637-1.094l8.218 15.196h.192l-2.11-4.36-.067-.033a1.33 1.33 0 0 1-.304-.211 1.22 1.22 0 0 1-.212-.28c-.074-.131-.13-.27-.196-.405l-.063-.118c-.013-.021-.024-.038-.042-.054l-.089-.068c-.028-.024-.056-.05-.075-.082-.015-.026-.025-.054-.035-.083h-.001c-.021-.012-.039-.024-.052-.044s-.02-.042-.021-.065.003-.019.004-.039c0-.037.002-.039.008-.059l.015-.093c.006-.029.013-.056.028-.083.041-.075.121-.121.197-.157l-1.294-2.673-.042-.013c-.132-.046-.271-.104-.358-.219a.51.51 0 0 1-.057-.092.55.55 0 0 1-.04-.123.87.87 0 0 1-.016-.152l-.005-.149c-.011-.019-.02-.029-.03-.041l-.126-.136c-.033-.039-.064-.079-.089-.124a.44.44 0 0 1-.059-.228c.001-.036.009-.07.019-.105l.057-.158L6.59 8.556l.781-.892.78 1.838a1.03 1.03 0 0 1 .016-.173c.036-.186.175-.341.352-.407.066-.024.141-.039.211-.024.05.011.097.03.143.053s.082.045.12.072l-.791-2.141.883-.687 1.056 3.33.1-.09.341-.335c.079-.074.164-.152.261-.203l-.882-3.267a11.95 11.95 0 0 1 1.112-.574L12.11 9.89l.025-.024c.027-.03.054-.06.076-.094a.46.46 0 0 0 .048-.09.59.59 0 0 0 .029-.225l-.021-.27c-.003-.081-.003-.166.03-.242.05-.114.172-.172.284-.206l.069-.018.108-.019.009-.001-.678-4.047 1.06-.312.522 4.33.192-.007.394-.009.276-.002.05-.004-.332-4.521 1.169-.113.137 5.656c.01.011.02.022.029.035a.41.41 0 0 1 .05.109c.031.092.045.189.053.286l.007.126.008.201.011.126.035.33.006.08.002-.001c.021-.009.042-.02.062-.031.085-.05.16-.112.234-.177l.202-.176.074-.059.118-.083.163-6.421 1.141.112-.448 6.108c.182-.017.366-.029.549-.018a1.45 1.45 0 0 1 .287.043l.713-5.918 1.06.312-1.026 6.124.238-.014.175-.006.292.005.11.012 1.228-5.717c.382.172.753.364 1.112.574l-1.523 5.64.036.017a1.73 1.73 0 0 1 .166.091c.16.099.301.236.391.402l.021.042 1.785-5.628.883.688-2.839 7.688a.4.4 0 0 1 .049.164c.003.038-.002.074-.007.111l-.009.086-.009.125c-.014.36.012.719.052 1.077l3.594-8.469.781.892-3.767 7.784c.111.047.211.117.28.219a.51.51 0 0 1 .06.12c.016.046.024.095.025.143 0 .026-.002.053-.006.078l4.04-7.47c.231.352.444.717.638 1.094l-4.974 8.139c.035.029.073.056.111.081l.267.165.024.016 5.011-7.444.387 1.102-5.042 6.756c.009.027.017.054.024.082.027.114.027.23.037.347.039.019.08.033.12.049l.005.002 5.099-6.272a11.98 11.98 0 0 1 .198 1.317l-6.136 6.747-.002.062.004.177.016-.002.099-.007.101-.002h.023l5.946-6.052.001.053L28 16l-.038.957-5.525 5.1-.007.043c-.005.04-.006.13-.007.169l-.009.24c-.002.036-.007.068-.021.101l5.432-4.561-.015.085c-.077.426-.176.844-.296 1.253l-7.006 5.241h.339l6.407-4.457-.026.07-.44 1.018-5.392 3.37h.493l4.461-2.554-.024.042c-.555.934-1.232 1.786-2.011 2.535l.543.637V28zm-.3-2.413H7.907V27.7h16.65v-2.113zm-5.077 1.451c0 .064-.028.153-.085.264s-.11.19-.167.247a.42.42 0 0 1-.149-.039c-.062-.026-.107-.052-.134-.078.097-.045.184-.097.261-.156.09-.069.143-.132.16-.188-.024-.067-.074-.126-.149-.177l.111-.215c.04.034.075.087.106.156s.046.131.046.185zm4.796.294l-.13.123-.128-.127.132-.121.125.126zm-3.701-.011l-.13.123-.127-.128.132-.121.125.126zm-10.359-1.269h.175v.75c0 .098-.006.173-.019.226-.017.069-.048.124-.093.166s-.104.063-.177.063c-.086 0-.152-.033-.198-.098a.5.5 0 0 1-.07-.288l.165-.026c.002.068.009.116.022.144.019.043.048.064.087.064s.067-.015.083-.046.024-.094.024-.189v-.765zm1.147 1.184h-.191l-.076-.269h-.348l-.072.269h-.186l.339-1.184h.186l.348 1.184zm-1.626-.984h-.469v.262h.437v.2h-.437v.322h.486v.2h-.662v-1.184h.645v.2zm1.896.984h-.176v-1.184h.37c.093 0 .161.011.203.032s.076.059.101.113.038.117.038.187a.39.39 0 0 1-.058.22c-.038.058-.096.094-.172.11.038.03.069.063.094.099a1.41 1.41 0 0 1 .1.192l.106.231h-.21l-.127-.258-.093-.174c-.017-.024-.034-.04-.053-.049s-.048-.013-.088-.013h-.036v.494zm1.486 0h-.191l-.076-.269h-.348l-.072.269h-.186l.339-1.184h.186l.348 1.184zm.632-.984h-.258v.984h-.176v-.984h-.258v-.2h.692v.2zm.748.984h-.296v-1.184h.348c.069 0 .12.004.154.012s.064.024.091.049.049.058.067.099.027.087.027.139a.35.35 0 0 1-.033.153c-.022.046-.052.081-.089.104.053.021.094.057.122.108a.36.36 0 0 1 .043.178.46.46 0 0 1-.028.157c-.018.051-.044.092-.075.122s-.071.049-.118.056c-.029.004-.1.007-.212.008zm1.366 0h-.191l-.076-.269h-.348l-.072.269h-.186l.339-1.184h.186l.348 1.184zm.258 0h-.163v-1.184h.171l.356.791v-.791h.163v1.184h-.176l-.351-.772v.772zm.891 0h-.176v-1.184h.176v.526l.355-.526h.236l-.328.461.345.723h-.227l-.239-.556-.142.198v.358zm-8.035-.984H8.72v.984h-.176v-.984h-.258v-.2h.691v.2zm14.155.821h-.053c-.06 0-.116-.021-.17-.063-.03-.023-.068-.065-.114-.125s-.084-.101-.112-.123a.36.36 0 0 1 .005.061.46.46 0 0 1-.009.087.37.37 0 0 1-.233.14c-.068.016-.161.023-.279.023-.161 0-.269-.011-.325-.034-.082-.033-.123-.102-.123-.208 0-.095.033-.195.099-.298.025-.002.041.007.048.027-.031.051-.047.1-.047.148 0 .068.038.111.115.13.043.011.134.016.272.016.127 0 .22-.005.278-.014.053-.009.098-.026.135-.052a.7.7 0 0 0-.326-.262c.003-.109.012-.201.026-.275a2.41 2.41 0 0 1 .67-.266l-.097.208c-.075.018-.172.052-.292.101l-.206.093c.084.032.181.09.29.174.041.032.091.078.151.139.054.055.093.092.118.11.041.03.084.044.128.044h.082c.117 0 .175-.017.175-.052 0-.024-.03-.077-.091-.16l.124-.169a.42.42 0 0 1 .092.256c-.019.114-.045.191-.077.232-.061.076-.146.114-.255.114zm.818 0h-.052c-.103 0-.17-.043-.201-.127a1.59 1.59 0 0 1-.042-.385l-.012-.205c-.009-.074-.026-.14-.052-.198l.148-.155c.025.039.04.1.046.181.002.03.003.092.003.188v.238a.56.56 0 0 0 .015.155c.018.057.055.086.11.086h.069c.117 0 .175-.017.175-.052 0-.024-.03-.077-.091-.16l.124-.169a.42.42 0 0 1 .092.256c-.019.114-.045.191-.077.232-.061.076-.146.114-.255.114zm-5.067-.38c0 .025-.015.071-.046.136s-.056.106-.075.122a.76.76 0 0 1-.222.071c-.148.034-.285.051-.41.051-.169 0-.285-.033-.348-.099-.04-.042-.061-.104-.061-.186a.57.57 0 0 1 .096-.316c.033-.001.049.008.058.027-.033.077-.049.137-.049.177 0 .119.128.178.384.178.232 0 .414-.028.546-.083-.023-.059-.052-.112-.089-.161l.123-.166a.44.44 0 0 1 .067.133c.018.052.027.091.027.117zm1.139.38h-.11c-.103 0-.17-.043-.201-.127-.021-.058-.035-.186-.042-.385l-.012-.205c-.009-.074-.026-.14-.052-.198l.148-.155c.025.039.04.1.046.181.002.03.003.092.003.188v.238a.56.56 0 0 0 .015.155c.018.057.055.086.11.086h.131c.088 0 .159-.009.215-.027.038-.012.11-.044.215-.097l-.347-.121c-.024 0-.043.008-.057.023s-.031.041-.053.084a.06.06 0 0 1-.023.006c-.015 0-.026-.007-.035-.022l.084-.197c.036-.068.071-.102.104-.102.021 0 .095.028.221.085s.218.085.275.085a1.75 1.75 0 0 0 .297-.039l-.085.195-.174.026c.032.067.095.101.187.101h.171c.117 0 .175-.017.175-.052 0-.024-.03-.077-.091-.16l.124-.169a.42.42 0 0 1 .092.256c-.019.114-.045.191-.077.232-.061.076-.146.114-.255.114h-.067c-.091 0-.163-.027-.217-.081a.54.54 0 0 1-.112-.21l-.307.21a.6.6 0 0 1-.295.081zm-5.503-.354h-.142v.317h.163c.063 0 .104-.002.12-.007.026-.006.047-.022.064-.047s.025-.059.025-.101c0-.035-.006-.066-.019-.09s-.031-.043-.055-.054-.076-.017-.156-.017zm1.021.048l-.12-.44-.117.44h.237zm-4.501 0l-.12-.44-.117.44h.237zm1.756 0l-.12-.44-.117.44h.237zm-1.026-.515h-.137v.3h.13a.5.5 0 0 0 .158-.015c.021-.01.037-.026.049-.05s.018-.053.018-.089-.008-.072-.024-.097-.038-.04-.066-.046c-.014-.003-.057-.004-.128-.004zm2.709-.003h-.101v.274h.115l.128-.004c.03-.005.054-.019.071-.042s.026-.054.026-.093-.008-.066-.022-.089-.037-.037-.066-.042c-.017-.003-.067-.004-.15-.004zm3.809.109l-.119.113-.117-.119.122-.109.114.114zm.295-.015l-.119.112-.117-.118.123-.11.114.115zm4.895-.11l-.13.122-.127-.127.132-.121.125.126zm-2.01.006l-.111.111-.113-.099-.103.104-.119-.104.111-.114.113.101.103-.106.119.106zm-6.713-1.611l-.625-1.694-.015-.002-.045-.008c-.022-.006-.041-.013-.058-.028-.039-.034-.054-.09-.036-.138.008-.022.021-.037.037-.053l.024-.02-.206-.558c-.02.013-.041.024-.064.033a.51.51 0 0 1-.092.026l-.048.007c-.029.003-.06.003-.091 0l1.034 2.436h.186zm.176 0h.159l-.443-1.641-.242-.017.526 1.658zm.345 0h.159l-.273-1.63-.073-.001-.163-.002.351 1.632zm.318 0h.159l-.119-1.627h-.027l-.21-.002.196 1.628zm.492 0l.042-1.644c-.058.037-.124.026-.189.016-.014-.002-.029-.001-.043-.001h-.017l.04 1.629h.168zm.321 0l.272-2.255-.014.035c-.011.025-.023.05-.039.073-.051.077-.125.138-.198.193l-.04.028-.141 1.927h.159zm.318 0l.61-2.838-.043.091-.036.07c-.061.106-.139.219-.265.252l-.02.004-.405 2.42h.159zm.186 0h.159l.696-2.194c-.011-.008-.021-.018-.03-.029-.017-.022-.028-.048-.036-.074a.43.43 0 0 1-.007-.185l.008-.048.02-.098.025-.203.014-.254-.001-.054-.848 3.139zm.335 0h.186l.808-1.905c-.014-.003-.027-.006-.04-.011a.2.2 0 0 1-.117-.126.32.32 0 0 1-.012-.086v-.009l-.034-.004-.791 2.141zm.387 0h.192l.953-1.763a1.18 1.18 0 0 1-.193-.02c-.027-.005-.054-.011-.08-.02l-.872 1.802zm.638 0l1.196-1.776-.322.005-1.083 1.772h.209zm.471 0l1.471-1.809-.009.001-.351.019-1.336 1.789h.224zm.572 0l1.839-1.872-.209.013-.198.014-1.678 1.845h.246zm.694 0l2.325-1.956a.32.32 0 0 1-.116.027l-.027.001c-.017 0-.035 0-.052-.001l-.073-.005-.092-.006-.151.009-.083.007-2.083 1.923h.354zm-6.158-2.818l.05.001.019.003.019.004.022.006.006.002.008.002.006.002.005.002.007.002.007.003.01.004.009.003.009.004.01.004.007.003.011.005c.041.02.081.044.119.07a.82.82 0 0 1 .187.161c.108.135.137.313.089.478-.015.053-.036.102-.069.147v.001l.199.016.009.001.058.003.016.001.06.003.071.002.073.002.054.001.2.002.247.002.241.002.071-.001.129-.002h.005.085c.037.001.037-.001.073.003l.009.002.017-.047c.015-.03.033-.055.058-.076l.082-.06.071-.048.036-.024.035-.025.06-.048.02-.019.01-.009.01-.01.01-.01.004-.005.005-.006.004-.005.005-.006.006-.008.004-.005c.013-.019.021-.042.029-.064l.029-.081.021-.047a.38.38 0 0 1 .059-.085c.046-.048.105-.077.169-.09l.011-.002c.068-.009.124-.003.18-.01.008-.001.016-.003.022-.007l.009-.007.008-.007.003-.003.008-.008.007-.008.007-.008.007-.009.002-.003.006-.009.006-.009.009-.015.007-.012.007-.012.005-.008.02-.037.107-.226.067-.122.077-.147.048-.076a.74.74 0 0 1 .061-.075c.019-.02.04-.039.061-.057l.011-.008.007-.006.008-.006.01-.007.006-.004.013-.009.001-.001.018-.011c.081-.05.181-.1.277-.062.022.009.042.023.059.038h.001c.018.016.034.034.047.054.02.03.034.064.044.099.018.065.021.134.027.201l.008.206-.009.178v.002.002l-.004.04-.005.049-.002.015-.003.023-.001.012-.001.007-.001.01-.002.013-.003.022-.001.009-.007.055c-.007.055-.022.108-.03.163l-.004.045v.003l.112.007.019.002.014.001.016.002.009.001.008.001.012.002a.32.32 0 0 1 .052.014c.061.022.109.068.13.13.009.028.012.058.013.087h.024.005.012.016c.051.004.098.017.139.049.012.009.023.02.034.03s.021.023.034.032l.008.002.008.002.015.003.034.006c.09.014.181.015.273.012l.021-.001.031-.001.126-.006.032-.001.032-.001h.001l.288-.003.199-.006.073-.003.022-.001.093-.004h.009l.086-.004.019-.001.11-.006.361-.023.271-.018.289-.02.235-.016.204-.018.205-.02.023-.002.029-.003.02-.002.023-.002.007-.001.065-.006.15-.009h.013.005.009.009l.018.001.018.001.143.009h.002l.011-.277.004-.088-.071.005-.024.001h-.051-.026a1.1 1.1 0 0 0-.026 0l-.025.001-.024.001-.049.003-.024.002-.028.002-.026.002-.239.025-.098.007-.125.003h-.013-.007-.002c-.066-.006-.111-.019-.154-.038l-.148-.074c-.014-.005-.027-.009-.042-.013l-.012-.002-.013-.002-.005-.001-.008-.001h-.005l-.008-.001-.009-.001-.016-.002-.026-.002-.1-.009-.056-.009a.55.55 0 0 1-.089-.027.79.79 0 0 1-.088-.044l-.002-.001-.024-.014h-.001l-.016-.01-.006-.004-.002-.002-.003-.002-.006-.004-.007-.004-.009-.006-.015-.01-.004-.003-.005-.003-.001-.001-.038-.025-.021-.014-.013-.008-.006-.004-.023-.014-.071-.036-.011-.004-.003-.001-.006-.002-.012-.004-.004-.001c-.034-.01-.068-.016-.104-.021l-.119-.014-.151-.011h-.004l-.028-.001h-.006-.023-.008-.023-.006-.029-.005-.024-.009-.019l-.01.001-.029.002-.029.002-.033.003-.01.001-.024.003-.009.001-.032.004-.048.007-.131.019-.078.008a1.16 1.16 0 0 1-.228-.003.43.43 0 0 1-.167-.052l-.009-.005-.002-.001h-.001l-.002-.001-.003-.002-.002-.002-.005-.003-.008-.005-.002-.001h-.001l-.015-.011-.002-.002-.006-.005-.005-.004-.002-.002-.001-.001-.002-.002-.004-.003-.009-.007-.007-.006-.003-.002-.003-.002-.003-.002-.006-.005-.01-.008-.015-.013-.05-.043-.206-.146-.022-.017-.006-.005-.006-.005-.001-.001-.017-.015-.011-.009-.002-.001-.001-.001-.01-.009-.003-.003-.003-.002-.003-.003-.005-.004-.005-.004-.003-.003-.002-.002-.003-.003-.01-.01-.001-.001-.026-.029-.001-.001-.003-.003-.006-.007-.003-.004-.002-.002-.002-.003-.003-.005-.004-.006-.003-.003-.001-.002-.002-.003-.009-.012v-.001l-.011-.017-.002-.003-.006-.009-.002-.003-.001-.002-.002-.004-.003-.006-.003-.005-.002-.003-.002-.003-.002-.004-.004-.008-.002-.004-.001-.002-.001-.002-.007-.014-.001-.001v-.001l-.007-.014-.001-.002v-.002l-.002-.005-.003-.007-.002-.004-.001-.003-.002-.004-.002-.005-.002-.006-.002-.005-.001-.003-.001-.003-.003-.009-.002-.005v-.001h0l-.018-.058c-.024-.093-.032-.189-.047-.283l-.014-.064c-.009-.03-.019-.059-.039-.083s-.042-.036-.068-.045l-.012-.004h-.001l-.012-.003h-.002l-.011-.003-.015-.003a.41.41 0 0 0-.062-.006h-.012l-.025.001c-.085.007-.165.041-.24.079l-.036.019-.23.131a1.6 1.6 0 0 1-.154.07h-.001-.001l-.007.003-.013.005-.004.001-.004.001-.006.002-.008.003-.007.002-.006.002-.004.002-.004.002-.011.004-.007.002-.002.001-.024.008h-.001l-.006.002-.014.004-.003.001-.004.001-.007.002-.008.002-.006.002-.006.002-.005.001-.005.001-.01.003-.007.002-.003.001h-.002l-.019.005-.004.001-.008.002-.013.003-.003.001-.004.001-.009.002-.007.002h-.003l-.041.01h0-.001l-.021.005-.022.005-.006.001-.334.054-.031.004-.112.014-.05.006h-.001l-.008.001-.013.001h-.002-.002l-.008.001-.012.001h-.003-.003-.008-.01-.003-.004-.008l-.009.001h-.004-.005-.008-.008-.005-.005-.007-.007a.54.54 0 0 1-.214-.04.57.57 0 0 1-.138-.087l-.002-.002-.006-.005-.006-.005-.002-.002-.001-.001-.029-.027-.001-.001-.002-.002-.005-.005-.007-.006-.005-.005-.003-.003-.009-.009-.007-.007-.003-.003-.002-.002-.019-.02-.001-.001-.003-.003-.01-.011-.004-.005-.005-.005-.018-.02-.002-.002-.001-.001h-.001l-.032-.037-.018-.02-.01-.012-.005-.005-.019-.021-.05-.048-.011-.009-.004-.003-.007-.006-.005-.003-.007-.005-.005-.003-.006-.004-.006-.004-.006-.004-.006-.004-.005-.003-.007-.004-.005-.003-.008-.004c-.098-.051-.212-.072-.32-.093l-.072-.014-.007-.001-.065-.013-.125-.03-.022-.007-.002-.001-.005-.002-.011-.003-.005-.002-.003-.001-.005-.002-.007-.002-.007-.002-.005-.002-.003-.001-.004-.002-.01-.004-.006-.002-.002-.001h-.002l-.017-.006-.003-.001-.004-.002-.015-.006h-.002l-.002-.001-.015-.006a1.38 1.38 0 0 1-.204-.111c-.077-.05-.149-.107-.22-.166l-.002-.002-.004-.003-.016-.013-.006-.005-.002-.002-.003-.003-.023-.02-.001-.001-.042-.036-.012-.011-.002-.002h0l-.052-.046-.055-.047-.045-.038-.016-.014-.029-.024-.095-.078-.024-.02-.054-.044-.008-.007-.006-.005-.029-.024-.007-.006-.01-.008-.014-.012-.013-.011-.019-.016-.241-.221c-.047-.047-.094-.093-.132-.147-.065-.092-.107-.2-.138-.308-.041-.143-.063-.291-.076-.439l-.008-.154-.009-.064c-.005-.02-.011-.042-.026-.057-.006-.005-.011-.008-.018-.009-.021-.004-.043 0-.064.003l-.096.017-.035.003h-.002-.005-.003-.001a.4.4 0 0 1-.085-.006c-.031-.006-.062-.018-.092-.029-.078-.027-.155-.065-.206-.132-.032-.042-.046-.094-.068-.141l-.003-.006c-.013-.005-.027-.01-.041-.012l-.006-.001h-.002-.005-.006l-.007.001-.007.002h-.002l-.005.002H12.3l-.007.003-.002.001-.005.003-.002.001-.005.003-.002.001-.006.004-.01.007-.001.001-.009.007-.027.023-.107.117-.155.155-.034.04-.049.074-.008.013-.009.014-.014.023-.007.012-.004.007-.002.002-.002.004-.008.013-.005.009-.001.002-.001.001-.001.002-.006.009-.009.014-.043.055a.45.45 0 0 1-.063.062.66.66 0 0 1-.125.07l-.063.029-.013.006-.031.015-.002.001-.035.018c-.015.008-.03.017-.043.027-.011.024-.014.041-.017.059l-.003.018a.48.48 0 0 1 .024.047l.036.096c.009.011.02.02.031.029l.081.061.033.03.033.038.047.076c.074.133.132.272.197.409l.061.113c.043.071.091.138.149.195l.012.011.003.003.012.011c.091.082.2.141.311.192l.043.019.013.006.025.011.063.027.074.032.002.001.068.029.002.001.086.039.096.048a1.09 1.09 0 0 1 .143.087c.094.072.173.163.245.256l.037.049.007.01.004.006.005.007.006.009.005.007.006.009.015.022.009.015.008.012.013.022.008.013.009.016.005.01.007.013.005.011c.038.08.06.15.075.22l.005.025.004.02.002.008.002.015.002.012.002.011.002.016.004.028.003.025.002.022.013.249.009.225.002.167.006.052a.25.25 0 0 0 .128-.009l.016-.006c.003-.009.007-.017.011-.025.009-.014.018-.028.03-.039l.015-.012.007-.005.008-.005.008-.004.008-.004.008-.004.008-.003.009-.003.009-.003.009-.002.012-.002.008-.001.009-.001.008-.001zm.337.47l.033.105c-.004-.037-.015-.073-.033-.105zm-2.479-11.918c-.035-.015-.074-.024-.11-.03l-.025-.004-.008-.001-.017-.002-.009-.001-.016-.001h-.01l-.016-.001h-.009l-.018-.001h-.008-.025-.006-.019-.01l-.015.001h-.012l-.013.001h-.012l-.025.002-.01.001-.06.006-.023.003-.063.008-.021.003.023-.188.004-.039.004-.041.005-.053.003-.036.002-.02.005-.058.009-.169.003-.114-.001-.112-.006-.105c-.006-.077-.016-.158-.047-.23-.016-.037-.041-.073-.082-.084-.013-.002-.024-.002-.037-.001l-.009.002-.003.001-.006.001-.003.001-.005.002-.003.001-.005.002-.003.001-.005.002-.003.001-.005.002-.003.001-.007.003h-.001l-.013.007-.002.001-.011.006-.01.006-.005.003-.013.009-.001.001-.015.011a1.57 1.57 0 0 0-.142.122l-.296.292-.142.131-.124.101-.102.072-.079.047c-.084.046-.175.083-.27.097l-.055.006-.018.001c-.024 0-.049-.002-.073-.008-.04-.009-.078-.027-.112-.05-.076-.051-.136-.125-.189-.198l-.023-.032-.002-.003-.001-.002-.005-.007-.149-.218-.086-.112c-.071-.083-.15-.159-.247-.212a.64.64 0 0 0-.064-.031c-.011-.005-.023-.01-.036-.012-.025-.003-.052.004-.075.013a.32.32 0 0 0-.132.093.28.28 0 0 0-.058.111c-.006.024-.009.05-.011.075a1.43 1.43 0 0 0-.004.139 2.93 2.93 0 0 0 .045.451l.072.338.002.009.012.044.002.006.012.044.002.006.011.037.003.011.013.042c.028.087.06.172.099.255l.013.028.004.009.009.018.011.021.002.004.013.022.008.013.003.005.02.031.01.014.009.012.009.011.009.011.016.019.014.153.004.046.002.025.007.072c.022.189.048.387.137.559a.89.89 0 0 0 .077.12l.119.153.051.063.01.013.027.032.081.098.011.013.027.033.018.022.051.062.142.183.09.129c.029.044.058.086.075.136a.68.68 0 0 1 .028.188c.002.074-.002.149-.01.223v.005.001.001l-.004.033c-.03.242-.091.481-.164.713l-.07.207c-.014.039-.033.077-.042.117-.001.007-.002.014-.003.021 0 .071.043.128.087.181l.147.161c.017.021.033.042.045.066.019.04.024.084.027.127l.004.164.002.018v.003l.002.017c.004.029.009.057.02.085.014.037.037.067.065.092.011.009.022.018.034.026l.013.008.013.008.013.007.012.006.003.002.015.007.005.002.018.008.018.007.005.002.009.003.019.007.007.003.024.008.072.022.329.091.037.011.033.01.008.003.027.009.013.004.009.003.013.004.009.003.008.003.008.003.01.004.011.004.01.004.007.003.007.003.012.005.012.005.011.004.065.028a1.42 1.42 0 0 1 .192.104c.035.023.068.047.1.073a.44.44 0 0 1 .072.069c.069.088.082.208.084.316v.077l-.004.116-.004.113.002.105c.006.073.02.156.08.206.022.018.048.027.071.041l.024.019c.044.045.071.102.091.161a1.17 1.17 0 0 1 .045.186c.024.146.035.294.038.442l.001.043v.014.012.023.013.008.011.017.028.009.012l-.001.022v.013.007.007l-.001.028v.013.003l-.002.052-.002.047.063.044.029-.047.03-.047.011-.016.012-.015.01-.012.014-.017c.06-.067.128-.126.189-.192l.078-.087.078-.071c.018-.014.037-.026.057-.037l.008-.005.009-.004.009-.004.008-.004.009-.004.008-.003.013-.004.006-.002.008-.002.012-.003.007-.002.008-.002.012-.002.008-.001.007-.001.029-.002h.017a.31.31 0 0 1 .033.003.4.4 0 0 1 .09.023c.031.012.062.026.086.048.035.032.057.076.075.119.009.022.017.047.029.068.006.006.013.011.02.016.022.012.045.021.069.03l.026.009.01.003.013.004c.024.004.033.004.043.004.044-.005.088-.015.132-.022l.062-.005c.03.001.06.004.09.012.02.006.039.013.057.023s.039.024.056.039c.074.066.101.16.114.255l.011.185c.014.14.033.28.074.415a.7.7 0 0 0 .117.237l.044.047.039.04.035.034.035.033.014.013.021.02.015.014.021.019.015.014.021.018.015.013.022.019.014.012.023.02.013.011.021.018.03.025.051.042.013.01.217.179.238.205.192.142.025.016.026.015.026.015.013.007.013.007.014.007.014.006.014.006.014.006.014.006.014.006.014.005.014.005.024.008.024.007.01.003.014.004.01.003.014.003.011.003.013.003.012.003.011.003.014.003.025.005.225.043.1.024.066.02.011.004.019.007.019.007.019.007.013.006.015.007.008.004.007.003.011.006.004.002.014.008.029.016.005.003.009.005.008.005.006.004.011.007.003.002.013.01.01.008.009.007.017.014.005.004.006.005.009.008.005.004.005.005.007.007.006.006.005.005.006.006.008.008.009.01.009.01.008.008.016.018.012.013.117.131.049.046c.028.023.059.045.093.057s.069.015.104.015h.024l.02-.001.02-.001.02-.002.02-.002.02-.002.04-.005.11-.013.044-.006.037-.005.316-.056.037-.009.024-.006.018-.005.022-.006.022-.006.022-.006.021-.007.023-.007.023-.008.01-.003.012-.005.01-.004.012-.005.01-.004.013-.005.009-.004.013-.005.009-.004.013-.006.009-.004.021-.01.021-.01.287-.161a1.24 1.24 0 0 1 .159-.069l.011-.004.018-.005.018-.005.018-.005.018-.004.019-.004.033-.006.015-.002.015-.002.009-.001h.006l.014-.001.035-.001h.001.013.016.009.006l.014.001.036.004.014.002.015.003.015.003.013.003.036.01c.063.021.122.054.169.101.025.025.046.053.063.084a.52.52 0 0 1 .048.117l.002.009.003.012.009.041.004.02.001.008.002.012.003.018.004.024.006.04.002.017.005.039.003.021.002.014.001.007.004.024.017.07.004.012.004.012.005.012.005.012.005.012.006.012.006.012.006.011.006.011.007.011.007.011.008.011.008.01.008.01.008.01.009.01a.67.67 0 0 0 .08.071l.194.137.018.014.018.015.009.008.039.035.005.005.017.015.017.014.018.014c.013.009.026.018.041.024s.036.008.053.01l.013.002.013.001.013.001.013.001h.013.012.024.009c.131-.003.261-.03.391-.047l.081-.007.042-.002h.008l.041-.001h.022.028.043.007l.042.001h.006l.089.005h.003l.046.004.077.008c.09.01.183.021.268.054l.021.009.021.009.008.004.006.003.006.003.012.007.007.004.011.006.008.005.01.006.009.005.009.006.01.006.008.005.018.011.019.013.011.007.038.025.038.025.018.012.019.011.018.01.019.01.034.016c.026.01.052.015.08.019l.168.016a.73.73 0 0 1 .093.02l.011.003.006.002.011.004h.001c.069.028.117.058.169.082l.034.013.02.004.044.001h.044l.15-.011c-.016-.231.001-.465.046-.692l.006-.028.005-.025.006-.026.003-.012.031-.119c.018-.062.038-.124.067-.182.063-.126.157-.233.251-.336l.092-.101.04-.044c.007-.006.014-.01.022-.015.045-.02.096-.013.143-.003l.003.001.162.042c.018.003.039.008.059.008h.007c.013-.001.026-.004.038-.011.018-.011.034-.028.046-.046.028-.04.043-.092.038-.141-.002-.021-.008-.044-.022-.061-.008-.01-.018-.016-.03-.023-.03-.015-.061-.027-.093-.04l-.064-.027-.059-.032c-.019-.013-.038-.028-.051-.047-.021-.03-.028-.069-.033-.105l-.014-.188-.001-.016-.002-.02-.003-.027c-.009-.063-.021-.125-.049-.182l-.005-.011-.002-.003-.004-.007-.002-.004-.004-.006-.002-.004-.004-.006-.002-.004-.004-.006-.002-.003-.006-.008-.001-.002-.007-.009-.002-.003-.005-.006-.003-.004-.005-.006-.003-.004-.005-.005-.003-.004-.003-.003-.013-.014-.001-.001-.014-.014-.002-.001-.014-.013-.002-.002-.009-.008-.011-.009-.008-.007-.01-.008-.009-.007-.01-.008-.009-.007-.009-.007-.046-.032-.004-.003-.042-.027-.244-.15-.123-.09-.002-.001-.004-.003-.008-.007-.005-.004-.003-.003-.003-.002-.005-.004-.008-.007-.004-.003-.001-.001-.018-.016h-.001l-.015-.014-.002-.002-.002-.002-.004-.004-.008-.007-.005-.005-.003-.003-.003-.003-.004-.005-.007-.008-.004-.004-.002-.002-.016-.018c-.054-.062-.1-.13-.136-.204l-.01-.021-.001-.001h0l-.009-.02v-.002-.001l-.008-.02v-.001l-.001-.001-.002-.004-.003-.008-.003-.009-.001-.003-.001-.004-.003-.009-.002-.007-.001-.004-.002-.005-.002-.009-.001-.005-.001-.004-.002-.007-.002-.01v-.003-.002l-.003-.011-.002-.011-.003-.015c-.041-.203-.014-.419.019-.622l.024-.135.011-.045c.029-.088.083-.163.144-.232l.207-.216.04-.046c.058-.073.116-.162.089-.259-.006-.022-.015-.043-.026-.063s-.033-.046-.053-.065c-.031-.028-.067-.051-.105-.069l-.018-.008-.015-.006-.014-.006-.003-.001-.013-.005-.005-.002-.012-.004-.006-.002-.012-.003-.007-.002-.011-.003-.008-.002-.011-.003-.018-.004-.018-.004-.008-.002-.011-.002-.008-.002-.011-.002-.008-.002-.011-.002-.008-.001-.011-.002-.008-.001-.011-.002-.007-.001-.038-.005-.024-.003-.008-.001-.017-.002-.025-.002-.01-.001-.015-.001h-.01l-.014-.001-.011-.001h-.014-.011-.014-.011-.014-.011-.024-.014-.01l-.024.001h-.016-.008l-.017.001h-.006l-.019.001h-.004l-.021.001-.016.001-.026.002h-.009l-.072-.612-.03-.631.001-.097.001-.033.002-.043v-.013l.001-.018.001-.012v-.01l.001-.014.001-.02.001-.016.002-.031.003-.04.011-.096.006-.052a.21.21 0 0 0-.003-.03c-.021-.085-.104-.139-.173-.183l-.044-.028-.087-.056-.04-.029-.014-.012-.003-.002-.006-.005-.003-.003-.003-.002-.004-.004-.001-.001h0l-.01-.01h-.001l-.014-.016h0l-.001-.001-.002-.003-.001-.001-.001-.001-.002-.002-.001-.002h0l-.001-.001c-.01-.014-.018-.029-.024-.046-.013-.04-.006-.083.005-.123a.87.87 0 0 1 .142-.267l.08-.105.086-.107.146-.181.081-.11c.06-.09.119-.184.147-.29.029-.112.044-.226.048-.342l.001-.038v-.012-.026-.015-.023-.015l-.001-.023v-.015l-.001-.024v-.015l-.002-.027-.001-.011-.003-.038-.001-.01-.003-.027-.002-.015-.003-.022-.002-.017-.003-.021-.003-.018-.003-.02-.003-.018-.003-.019-.003-.019-.003-.017-.011-.054-.02-.083a1 1 0 0 0-.129-.313c-.077-.112-.184-.2-.301-.269l-.105-.056-.06-.026a.57.57 0 0 0-.093-.021l-.241-.023c-.055-.008-.125-.015-.164-.06a.25.25 0 0 1-.043-.084l-.043-.148c-.012-.034-.027-.069-.054-.095l-.006-.005-.002-.002-.004-.003-.002-.002-.004-.002-.003-.002-.004-.002-.003-.001-.004-.002-.003-.001-.004-.002-.003-.001-.005-.002-.002-.001-.007-.002-.002-.001-.005-.001-.011-.002-.009-.002-.006-.001-.009-.001-.006-.001-.014-.002a1.55 1.55 0 0 0-.168-.01c-.179-.004-.358.005-.537.018l-.085.006-.094.007-.034.003-.033-.051-.067-.09c-.087-.105-.186-.201-.298-.278-.048-.033-.099-.065-.153-.089l-.013-.005-.004-.002-.009-.004-.004-.002-.009-.003-.003-.001-.013-.004-.003-.001c-.043-.014-.089-.023-.133-.03a1.81 1.81 0 0 0-.279-.018 4.14 4.14 0 0 0-.418.026l-.018.002-.056.006-.075.009-.21.026-.086.01-.055.012c-.122.037-.228.109-.326.189L16.15 11l-.068.054c-.088.066-.179.124-.284.159l-.019.006-.018.005v.005c-.003.072-.01.146-.026.217l-.011.091-.02.134-.019.089-.023.078c-.013.036-.03.072-.053.103l-.004.005-.003.004v.001l-.001.001-.004.005-.002.003-.001.001-.002.002-.004.004-.002.002-.001.001-.003.003-.004.004-.002.002-.001.001-.009.008h-.001l-.014.01h0l-.001.001-.003.002-.002.001h-.001l-.004.002-.002.001-.006.003a.21.21 0 0 1-.049.017c-.011.002-.022.004-.033.005h-.006c-.021 0-.04-.006-.059-.021a.23.23 0 0 1-.051-.06l-.019-.031c-.05.02-.102.036-.154.048-.125.029-.254.038-.382.041-.09.001-.181 0-.271-.001-.078-.001-.155.001-.233-.001l-.185-.016-.135-.02-.082.005h-.021c-.083 0-.165-.01-.241-.046l-.033-.016-.081-.006c-.063-.002-.125.003-.188.003l-.082-.005a.33.33 0 0 1-.098-.026c-.028-.013-.052-.032-.075-.052-.032-.028-.062-.06-.09-.092l-.185-.219-.058-.06c-.061-.057-.129-.11-.215-.117h-.011l-.056-.017-.043.004h-.006l-.024.002-.05.001h-.016a.58.58 0 0 1-.066-.004c-.035-.004-.07-.013-.103-.028-.047-.022-.082-.058-.108-.101l-.166-.05-.092-.202-.03-.083c-.016-.056-.026-.115-.034-.172a.84.84 0 0 1 .002-.325zm1.127 10.175l.437 1.029-.002-.065-.006-.16-.011-.128a.9.9 0 0 0-.058-.229c-.039-.091-.1-.174-.162-.251-.057-.07-.119-.144-.194-.194l-.003-.002zm-.291-7.481c.612.265 1.104.736 1.232 1.622.115.006.215.046.308.119-.058.119-.104.243-.139.371h-.387c-.084.367-.084.748 0 1.114h.387a2.13 2.13 0 0 0 .208.503l-.274.274c.2.319.47.588.788.788l.274-.274a2.13 2.13 0 0 0 .503.208v.387c.367.084.748.084 1.114 0v-.387a2.13 2.13 0 0 0 .503-.208l.617.617c-.478.326-1.055.516-1.676.516-1.645 0-2.981-1.336-2.981-2.981l.031-.715c.01-.218-.062-.587-.262-.786-.349-.349-.703-.581-.703-.581l.457-.588zm6.914 5.338c-.612-.265-1.104-.737-1.232-1.622-.115-.006-.215-.046-.308-.119a2.13 2.13 0 0 0 .139-.371h.387c.084-.367.084-.748 0-1.114h-.387a2.13 2.13 0 0 0-.208-.502l.274-.274c-.2-.319-.469-.588-.788-.788l-.274.274c-.158-.091-.327-.16-.503-.208v-.387c-.367-.084-.748-.084-1.114 0v.387c-.176.048-.345.118-.503.208l-.617-.617c.478-.326 1.055-.516 1.676-.516 1.645 0 2.981 1.336 2.981 2.981l-.031.715c-.009.218.063.587.262.786a4.96 4.96 0 0 0 .703.581l-.457.587zm2.365-1.16l-.2.207-.052.061c-.024.032-.047.064-.059.102s-.014.073-.02.105l-.014.083-.016.111.361-.668zm-5.416-3.551a2.08 2.08 0 0 0-.812 0l.01.317a1.77 1.77 0 0 0-.543.225l-.217-.231c-.227.152-.422.347-.574.574l.231.217a1.77 1.77 0 0 0-.225.543l-.317-.01c-.053.268-.053.544 0 .812l.317-.01a1.77 1.77 0 0 0 .225.543l-.231.217c.152.227.347.422.574.574l.217-.231a1.77 1.77 0 0 0 .543.225l-.01.317c.268.053.544.053.812 0l-.01-.317a1.77 1.77 0 0 0 .543-.225l.217.231c.227-.152.422-.347.574-.574l-.231-.217a1.77 1.77 0 0 0 .225-.543l.317.01c.053-.268.053-.544 0-.812l-.317.01a1.77 1.77 0 0 0-.225-.543l.231-.217a2.08 2.08 0 0 0-.574-.574l-.217.231a1.77 1.77 0 0 0-.543-.225l.01-.317zm-.496.907v-.188h.18v.187c.208-.039.301-.199.299-.186-.034.161-.113.335-.299.379v.386c.371-.042.538-.324.533-.302-.058.269-.197.562-.533.607v.351c.456-.04.661-.364.655-.339-.07.305-.24.638-.655.682v.424c.583-.042.844-.468.837-.436-.093.418-.329.876-.927.879s-.835-.459-.924-.88c-.006-.03.251.398.834.438v-.424c-.418-.04-.588-.376-.655-.684-.005-.023.198.304.655.341v-.351c-.339-.043-.478-.338-.533-.61-.004-.021.161.264.533.303v-.386c-.187-.042-.266-.218-.299-.38-.002-.012.09.15.299.187zm-4.976 1.47l.067.158a.5.5 0 0 0-.007-.063c-.004-.02-.009-.042-.021-.06s-.025-.025-.039-.035zm2.319-4.406l.023.003c.067.003.134-.001.201-.002l.065.002c.18.016.356.05.534.077l.142.017.114.005.444.001c.101-.003.202-.008.301-.028a.8.8 0 0 0 .179-.056c.06-.028.123-.065.164-.117.032-.04.051-.09.064-.139.02-.078.026-.16.027-.24l-.003-.132-.01-.139-.043-.419-.015-.33-.01-.11c-.007-.052-.016-.103-.033-.153-.005-.016-.01-.037-.022-.05a.17.17 0 0 0-.027-.021l-.034-.02-.176-.085a.79.79 0 0 1-.202-.147c-.053-.056-.092-.123-.129-.19a1.41 1.41 0 0 1-.106-.239 1.85 1.85 0 0 1-.057-.231l-.002-.017-.026.002-.017.002h-.005l-.012.001h-.005-.01-.005l-.02.001-.156.001-.259.004-.043.001h-.007-.005l-.074.002-.024.001h-.01-.004l-.049.002h-.001-.004l-.036.001h-.008-.005l-.046.002h-.007-.006-.012l-.035.001h-.001l-.052.002-.251.011c-.152.004-.305-.002-.457.002l-.185.012-.038.005h-.001-.001l-.005.001h-.004-.001-.001-.004l-.004.001h-.001-.001l-.004.001-.004.001h-.002-.002l-.003.001-.003.001h-.002-.002l-.006.001-.003.001h-.002l-.002.001-.003.001h-.003l-.003.001h-.002l-.002.001-.003.001h-.003-.002-.002l-.004.001-.003.001h-.001-.001l-.005.001-.004.001h-.001l-.006.002h-.003a.44.44 0 0 0-.105.043c-.01.006-.023.013-.03.023s-.007.02-.009.031a.62.62 0 0 0-.001.127v.01l.008.095.009.11.001.031c.003.119-.006.238-.053.348-.022.052-.051.1-.084.146-.037.052-.081.098-.127.143l-.007.006-.002.002-.004.004-.011.01-.002.001-.014.012-.013.011-.007.006-.006.005-.008.007-.028.024-.117.102a.4.4 0 0 0-.096.125c-.025.06-.019.135-.013.197l.017.115.021.094c.013.04.031.077.049.115l.01.021.498.15h-.016l.048.005.045.01c.035.01.068.022.101.039.107.054.192.137.271.227l.012.014.012.014.012.014.011.014.01.012.039.048.021.026.019.022.011.013.012.014.011.013.011.012.051.051c.005.004.013.013.02.015zm2.166-7.641L16 4l.61.015-1.191-.001z" fill="#2f4a98"/></svg>