<svg xmlns="http://www.w3.org/2000/svg" width="32" height="32" fill="none" xmlns:v="https://vecta.io/nano"><path d="M0 4a4 4 0 0 1 4-4h24a4 4 0 0 1 4 4v24a4 4 0 0 1-4 4H4a4 4 0 0 1-4-4V4z" fill="#fff"/><path fill-rule="evenodd" d="M19.633 16.501c0-2.017-1.639-3.655-3.63-3.655-2.017 0-3.655 1.613-3.655 3.63s1.639 3.63 3.63 3.655c2.042.025 3.655-1.613 3.655-3.63z" fill="#cdcccc"/><path d="M14.844 11.862c-.328.101-.655-.101-.782-.403l-1.815-4.563a.48.48 0 0 1 .176-.555l2.294-1.664c.782-.58 1.84-.58 2.597 0l2.294 1.689c.177.101.227.328.177.529l-1.815 4.563c-.126.328-.454.504-.807.429a4.3 4.3 0 0 0-1.16-.151 6.05 6.05 0 0 0-1.16.126zm4.034.858a4.57 4.57 0 0 1 1.437 1.815c.151.302.555.479.857.378l4.664-1.412c.202-.05.328-.277.328-.479l-.101-2.849a2.21 2.21 0 0 0-1.613-2.017L21.701 7.4c-.227-.05-.429.025-.529.202l-2.471 4.26a.75.75 0 0 0 .177.857zm-8.067 2.218l-4.689-1.361c-.202-.101-.328-.277-.303-.479l.101-2.849c.025-.958.681-1.765 1.563-2.042l2.748-.782a.49.49 0 0 1 .529.202l2.471 4.235c.176.277.101.681-.151.882a4.69 4.69 0 0 0-1.437 1.84c-.151.303-.529.454-.832.353zm16.991 2.824l-1.134-2.597c-.076-.202-.277-.328-.479-.277l-4.84.781c-.353.05-.605.353-.58.706v.151c0 .756-.176 1.487-.504 2.118a.67.67 0 0 0 .227.857l4.059 2.748a.46.46 0 0 0 .58-.05l2.118-1.891c.731-.655.958-1.664.555-2.546zm-16.588-1.261c0 .756.202 1.487.529 2.118.126.328.05.706-.252.907l-4.034 2.748c-.202.126-.403.101-.58-.05L4.76 20.358c-.731-.63-.958-1.664-.58-2.546l1.134-2.597c.076-.176.277-.277.479-.277l4.84.756c.353.05.605.353.58.706v.101zm8.773 3.63c-.252-.227-.63-.227-.907-.025-.58.504-1.286.857-2.067 1.034-.328.05-.58.378-.555.731l.403 4.891a.48.48 0 0 0 .403.403l2.824.479c.933.176 1.865-.302 2.319-1.16l1.311-2.521a.5.5 0 0 0-.076-.58l-3.655-3.252zm-4.966 1.034c-.781-.177-1.513-.529-2.092-1.008-.252-.227-.655-.177-.882.025l-3.63 3.353a.46.46 0 0 0-.076.555l1.336 2.521a2.22 2.22 0 0 0 2.344 1.109l2.824-.504a.51.51 0 0 0 .378-.429l.353-4.891c.025-.353-.227-.681-.555-.731z" fill="#51b5d1"/></svg>