<svg xmlns="http://www.w3.org/2000/svg" width="32" height="32" fill="none" xmlns:v="https://vecta.io/nano"><path d="M0 4a4 4 0 0 1 4-4h24a4 4 0 0 1 4 4v24a4 4 0 0 1-4 4H4a4 4 0 0 1-4-4V4z" fill="#fff"/><path fill-rule="evenodd" d="M20.971 28h-9.941L4 20.971v-9.941L11.029 4h9.941L28 11.029v9.941L20.971 28zm-1.45-3.5l4.979-4.979v-7.042L19.521 7.5h-7.042L7.5 12.479v7.042l4.979 4.979h7.042zM12.447 16l5.871 5.902-2.348 2.348-5.871-5.871h0L7.75 16l2.906-2.874h4.696L12.447 16zm8.898 2.874h-4.696L19.554 16l-5.871-5.902L16.03 7.75l5.871 5.871h.001L24.25 16l-2.906 2.874z" fill="#006d08"/></svg>