<svg xmlns="http://www.w3.org/2000/svg" width="32" height="32" viewBox="0 0 32 32"><path d="M0,4A4,4,0,0,1,4,0H28a4,4,0,0,1,4,4V28a4,4,0,0,1-4,4H4a4,4,0,0,1-4-4Z" fill="#fff"/><g transform="translate(-164.333 -150.333)"><rect width="25" height="25" transform="translate(168.333 154.333)" fill="none"/><path d="M18.206,21.514H1.5a1.5,1.5,0,0,1-1.5-1.5V19.9a1.5,1.5,0,0,1,1.5-1.5H18.206a1.5,1.5,0,0,1,1.5,1.5v.112A1.5,1.5,0,0,1,18.206,21.514Zm-2.075-5.186H16.02a1.5,1.5,0,0,1-1.5-1.5v-4.26a1.5,1.5,0,0,1,1.5-1.5h.112a1.5,1.5,0,0,1,1.5,1.5v4.26A1.5,1.5,0,0,1,16.132,16.328Zm-6.223,0H9.8a1.5,1.5,0,0,1-1.5-1.5v-4.26a1.5,1.5,0,0,1,1.5-1.5h.112a1.5,1.5,0,0,1,1.5,1.5v4.26A1.5,1.5,0,0,1,9.909,16.328Zm-6.224,0H3.574a1.5,1.5,0,0,1-1.5-1.5v-4.26a1.5,1.5,0,0,1,1.5-1.5h.112a1.5,1.5,0,0,1,1.5,1.5v4.26A1.5,1.5,0,0,1,3.685,16.328ZM18.42,6.993H1.3a1.292,1.292,0,0,1-.6-2.437L8.888.241a2.05,2.05,0,0,1,1.929,0l8.194,4.315a1.291,1.291,0,0,1-.59,2.437Z" transform="translate(170.067 155.297)" fill="#5e35b1"/></g></svg>