<svg id="Layer_1" data-name="Layer 1" xmlns="http://www.w3.org/2000/svg" viewBox="0 0 1000 1000"><defs><style>.cls-1{fill:#e1deff;}.cls-2{fill:#24005b;}.cls-3{fill:#a178fd;}</style></defs><polygon class="cls-1" points="626.37 764.2 834.23 633.07 717.99 392.88 512.83 514.66 626.37 764.2"/><path class="cls-2" d="M668.85,109.87l8.27,17.78,27.21-17.78L820.14,359.05l-63.89,42.19c1.34,2.05,2.61,4.18,3.77,6.4,15.29,29.07,9.84,62-12.18,73.59a34.79,34.79,0,0,1-6.09,2.49l.34.19-1.12,0a38.86,38.86,0,0,1-18,.49l-23.31.63a37.83,37.83,0,0,1-5.74.15h0c-12.75-.56-26.06-7.25-36.8-18.51l-36,23.78H585.59L544,400.62c1.27-.61,2.54-1.27,3.77-2,24.19-14,33.71-42.75,21.28-64.28a41.52,41.52,0,0,0-21.47-18,57.1,57.1,0,0,0-5.92,2.48H506.21L469.77,240Z"/><polygon class="cls-2" points="668.85 109.87 704.33 109.87 677.12 127.65 668.85 109.87"/><path class="cls-3" d="M505.25,240l36.44,78.82c23.48-11.51,51-5,62.87,15.55,12.43,21.53,2.91,50.32-21.28,64.28-1.23.72-2.5,1.38-3.77,2l41.55,89.86,60-39.57c15.5,28.15,45.13,41.73,66.82,30.32,22-11.58,27.47-44.52,12.18-73.59-1.16-2.22-2.43-4.35-3.77-6.4l63.89-42.19L704.33,109.87Z"/><path class="cls-2" d="M165.77,385.38,279.5,635.29l33.87,3.52,56.47-35.15A46.46,46.46,0,1,1,448.2,554.9l64.63-40.24L396.69,264.74l-33.87-3.53Z"/><path class="cls-2" d="M277.42,636.7,391.15,886.61,425,890.13,481.49,855a46.46,46.46,0,1,1,78.36-48.77L624.49,766,508.34,516.06l-33.87-3.53Z"/><path class="cls-3" d="M313.17,638.44,426.92,888.37,626.37,764.2,512.83,514.66l-65.21,39.07A46.45,46.45,0,1,0,369.36,603Z"/><path class="cls-1" d="M396.69,264.74l34.76,74.8a46.46,46.46,0,1,1,39.13,84.21l42.25,90.91L448.2,554.9a46.46,46.46,0,1,0-78.36,48.76l-56.47,35.15L199.63,388.91Z"/></svg>