<svg xmlns="http://www.w3.org/2000/svg" width="41" height="41" stroke="#000" stroke-linecap="round" stroke-linejoin="round" fill="#fff" fill-rule="evenodd"><path d="M32.0519 39.9992c-1.7437 0-4.1919-.6301-7.859-2.6781-4.459-2.5004-7.9086-4.8081-12.3425-9.2308-4.2765-4.2727-6.357-7.0384-9.2689-12.3367C-.7094 9.7714-.148 6.6354.4792 5.2956c.7458-1.6019 1.8482-2.5602 3.2722-3.5107.8095-.53 1.6655-.9844 2.5582-1.3572l.2465-.108c.4418-.1992 1.1117-.5 1.9602-.1786.5662.2126 1.0718.6471 1.8624 1.4286 1.6236 1.6002 3.84 5.1633 4.6589 6.9137.5489 1.1792.9123 1.9576.9136 2.8312 0 1.0224-.5149 1.8109-1.1389 2.6616l-.3456.4607c-.68.8927-.8288 1.1508-.7307 1.6116.1993.9258 1.6843 3.6821 4.1256 6.1169s5.1173 3.8264 6.0469 4.0244c.4812.1028.744-.0528 1.6656-.7564l.4108-.3098c.9519-.7082 1.7028-1.209 2.7013-1.209h.0058c.8688 0 1.6128.377 2.8453.9984 1.6075.8106 5.2783 2.9989 6.8892 4.6229.783.7892 1.2197 1.2929 1.4329 1.858.3216.8508.0188 1.518-.1784 1.9644l-.1084.246c-.3758.89-.8325 1.7446-1.365 2.5517-.9491 1.4196-1.9117 2.5191-3.5171 3.2659a6.022 6.022 0 0 1-2.6385.5779z" stroke="none" fill-rule="nonzero"/></svg>
