<svg xmlns="http://www.w3.org/2000/svg" width="60" height="40" stroke="#000" stroke-linecap="round" stroke-linejoin="round" fill="#fff" fill-rule="evenodd"><path d="M55.3796 0H4.6208C2.0756 0 0 1.846 0 4.1084v31.7832C0 38.154 2.0756 40 4.6208 40h50.7588C57.9244 40 60 38.154 60 35.8916V4.1084C60 1.846 57.9244 0 55.3796 0zm-.6708 3.0388l-24.3924 18.548L5.924 3.0388h48.7848zm1.8732 32.8528c0 .5856-.5436 1.0696-1.2024 1.0696H4.6208c-.6588 0-1.2024-.484-1.2024-1.0696V5.1324L29.2028 24.738c.0123.0114.0384.0231.0504.0344s.0384.0224.0504.0336c.0384.0224.0636.0448.102.056.012.0112.0252.0112.0372.0224l.1524.068c.0124 0 .0248.0112.0384.0112.0372.0112.0756.0336.126.0448.0132 0 .0384.0112.0504.0112.0384.0112.0768.0224.114.0224.0132 0 .0384.0112.0504.0112.0384.0112.0884.0112.1272.0226h.0379c.0509 0 .1134.0116.1649.0116h0 0c.0504 0 .114 0 .1644-.0116h.0372c.0384 0 .0888-.0114.1272-.0226.0122 0 .0384-.0112.0504-.0112.0384-.0112.0756-.0224.114-.0224.0132 0 .0384-.0112.05-.0112.0384-.0112.0768-.0224.1276-.0448.012 0 .0252-.0112.0368-.0112l.1528-.068c.0125-.0112.0252-.0112.0384-.0224l.1008-.056c.0128-.0112.0384-.0224.0504-.0336s.0384-.023.0504-.0344L56.582 5.6164v30.2752z" stroke="none" fill-rule="nonzero"/></svg>
