<svg id="Layer_1" data-name="Layer 1" xmlns="http://www.w3.org/2000/svg" viewBox="0 0 1000 1000"><defs><style>.cls-1{fill:#24005b;}.cls-2{fill:#e1deff;}.cls-3{fill:#fff;}</style></defs><polygon class="cls-1" points="764.28 650.77 771.96 306.47 752.69 290.75 232.84 290.09 228.04 660.73 247.31 676.45 764.28 650.77"/><polygon class="cls-2" points="252.12 305.81 771.96 306.47 764.28 650.77 466.92 667.16 346.74 747.24 358.8 675.07 247.31 676.45 252.12 305.81"/><g id="y4EafG.tif"><path class="cls-1" d="M541.27,570c-8.82-.22-18.28-2.65-27.35-6.59-36-15.65-64-40.69-84.69-73.86-7.53-12.05-13.44-24.88-16.63-38.81-1.53-6.64-2-13.34-.23-20a19.67,19.67,0,0,1,5.16-9c4.8-4.83,9.6-9.66,14.48-14.41,4.07-4,8.81-6,14.43-3.67a18,18,0,0,1,5.5,3.67c7.28,7.11,14.45,14.34,21.61,21.59,3.2,3.24,5.31,7,4.62,11.8-.52,3.65-2.61,6.41-5.11,8.92-4.08,4.09-8.2,8.16-12.29,12.25-2,2-2.08,2.64-.91,5.25,4.68,10.49,11.85,19.23,19.56,27.57A126.1,126.1,0,0,0,505,516.36c3.26,2,6.76,3.68,10.16,5.49,1.59.85,2.74.06,3.82-1q6.38-6.41,12.77-12.8c2.46-2.45,5.19-4.45,8.79-4.94a12.59,12.59,0,0,1,9.75,2.85,24.56,24.56,0,0,1,2.31,2l20.85,20.81a16.21,16.21,0,0,1,4.84,7.9,11.61,11.61,0,0,1-2.8,10.77c-5.37,5.78-10.86,11.46-16.6,16.87C554.52,568.42,549,570.05,541.27,570Z"/><path class="cls-1" d="M504.84,398.87c.63-4.49,1.28-9.17,1.94-13.84,43.81,5.68,88.54,45.28,96.42,91.6L589.4,479C579.63,437.33,547,407.51,504.84,398.87Z"/><path class="cls-1" d="M502.93,436q1-7,1.95-13.89c25.81,2.69,56.66,28.35,60.78,55.78l-13.88,2.39C546.55,457.84,525.75,440.7,502.93,436Z"/></g><g id="y4EafG.tif-2" data-name="y4EafG.tif"><path class="cls-3" d="M548.67,574.94c-8.82-.21-18.28-2.64-27.35-6.58-36-15.66-64-40.7-84.69-73.87-7.53-12-13.43-24.87-16.63-38.81-1.53-6.64-2-13.33-.23-20a19.7,19.7,0,0,1,5.17-9c4.79-4.83,9.59-9.66,14.47-14.41,4.07-4,8.81-6,14.43-3.66a17.93,17.93,0,0,1,5.5,3.66c7.28,7.12,14.45,14.35,21.61,21.59,3.2,3.24,5.31,7,4.62,11.81-.52,3.64-2.61,6.4-5.11,8.91-4.08,4.1-8.2,8.16-12.29,12.25-2,2-2.08,2.64-.91,5.25,4.68,10.5,11.85,19.23,19.56,27.57A126.15,126.15,0,0,0,512.4,521.3c3.26,2,6.77,3.67,10.16,5.49,1.6.85,2.74.06,3.83-1q6.36-6.4,12.76-12.79c2.47-2.46,5.19-4.45,8.79-5a12.63,12.63,0,0,1,9.75,2.85,26.2,26.2,0,0,1,2.31,2q10.44,10.4,20.85,20.81a16.14,16.14,0,0,1,4.84,7.89,11.61,11.61,0,0,1-2.8,10.77c-5.36,5.78-10.86,11.46-16.59,16.87C561.92,573.35,556.35,575,548.67,574.94Z"/><path class="cls-3" d="M512.24,403.8c.63-4.48,1.29-9.16,1.94-13.84,43.81,5.68,81.64,40.43,89.52,86.75l-13.79,2.38C580.13,437.41,554.43,412.45,512.24,403.8Z"/><path class="cls-3" d="M510.33,440.93l1.95-13.88c25.81,2.68,49.73,24.7,53.84,52.14l-13.88,2.38C547,459.13,533.15,445.63,510.33,440.93Z"/></g></svg>