<svg id="Layer_1" data-name="Layer 1" xmlns="http://www.w3.org/2000/svg" viewBox="0 0 1000 1000"><defs><style>.cls-1{fill:#24005b;}.cls-2{fill:#f6edff;}.cls-3{fill:#e1deff;}.cls-4{fill:#fff;}</style></defs><polygon class="cls-1" points="688.59 609.38 695.76 288.29 677.78 273.63 192.96 273 188.48 618.67 206.46 633.33 688.59 609.38"/><polygon class="cls-1" points="805.99 704.77 811.52 457.18 797.66 445.87 423.83 445.39 420.37 711.93 434.23 723.24 805.99 704.77"/><polygon class="cls-2" points="437.69 456.7 811.52 457.18 805.99 704.77 719.12 706.74 722.97 764.33 641.37 712.42 434.23 723.24 437.69 456.7"/><polygon class="cls-3" points="210.94 287.67 695.76 288.29 688.59 609.38 411.27 624.67 299.18 699.35 310.44 632.04 206.45 633.33 210.94 287.67"/><circle class="cls-1" cx="445.98" cy="446.77" r="33.16"/><circle class="cls-1" cx="340.84" cy="446.77" r="33.16"/><circle class="cls-1" cx="542.91" cy="446.77" r="33.16"/><circle class="cls-4" cx="451.11" cy="453.17" r="33.16"/><circle class="cls-4" cx="345.97" cy="453.17" r="33.16"/><circle class="cls-4" cx="548.03" cy="453.17" r="33.16"/></svg>