<svg id="Layer_1" data-name="Layer 1" xmlns="http://www.w3.org/2000/svg" viewBox="0 0 1000 1000"><defs><style>.cls-1{fill:#24005b;}.cls-2{fill:#f6edff;}.cls-3{fill:#e1deff;}.cls-4{fill:#fff;}</style></defs><polygon class="cls-1" points="782.72 555.38 686.06 220.91 662.71 211.57 161 368.07 268.4 727.09 291.75 736.43 782.72 555.38"/><polygon class="cls-2" points="721.76 814.95 899.11 536.8 713.39 423.44 478.34 667.62 512.57 690.6 440.91 736.43 646.47 766.43 721.76 814.95"/><polygon class="cls-3" points="184.35 377.41 686.06 220.91 782.72 555.38 706.89 583.34 729.01 662.78 528.12 649.27 291.75 736.43 184.35 377.41"/><path class="cls-1" d="M506.74,489.19l-.36-1q-5.36-14.82,10.13-39.57,16.14-25.68,5.76-52.89-7.08-18.45-22-26.7-21.36-11.59-46-2.71-46,16.88-28.47,65.48l.45,1.26,20.1-7.25-.41-1.13q-8.88-24.62,16-33.59,14.82-5.34,24.89.53,7.93,4.67,11.64,15,6,16.15-6,38.49Q474.42,479.43,480.74,497l.51,1.38Zm18.14,36.88a17.63,17.63,0,0,0-9.31-10.26,17.89,17.89,0,0,0-24,8.65,18.06,18.06,0,0,0,8.65,24,17.26,17.26,0,0,0,13.81.7,16.83,16.83,0,0,0,9.27-7.75,18,18,0,0,0,2.62-8.47A17.05,17.05,0,0,0,524.88,526.07Z"/><path class="cls-4" d="M511.41,493.85l-.36-1Q505.7,478,521.18,453.28q16.14-25.69,5.76-52.89-7.08-18.45-22-26.7-21.34-11.6-46-2.71-46,16.88-28.46,65.48l.45,1.26,20.09-7.25-.4-1.13q-8.88-24.61,16-33.59,14.82-5.36,24.89.53,7.94,4.67,11.64,15,6,16.15-6,38.49-18.1,34.36-11.78,51.94l.5,1.38Zm18.14,36.89a17.63,17.63,0,0,0-9.31-10.26,17.89,17.89,0,0,0-24,8.65,18.06,18.06,0,0,0,8.65,24,17.22,17.22,0,0,0,13.81.69,16.85,16.85,0,0,0,9.27-7.74,18.06,18.06,0,0,0,2.62-8.47A17.05,17.05,0,0,0,529.55,530.74Z"/></svg>