<svg width="184" height="24" viewBox="0 0 184 24" fill="none" xmlns="http://www.w3.org/2000/svg">
<g clip-path="url(#clip0_85_1305)">
<path d="M19.7449 12.1357C19.7449 13.7748 19.5828 15.2765 19.2531 16.6457C18.9242 18.0093 18.4324 19.1857 17.7784 20.1751C17.1244 21.1645 16.3212 21.9273 15.3604 22.4742C14.6661 22.8677 13.8903 23.1191 13.0285 23.2275C10.8458 21.1203 11.7746 15.2026 14.0883 14.9175C13.0826 17.8173 14.3722 19.5993 15.464 19.7029C17.7464 19.9197 19.8614 15.8675 19.7129 10.9199C19.7358 11.3182 19.7449 11.7222 19.7449 12.1357Z" fill="#7066AD"/>
<path d="M21.0392 20.2088C18.6982 22.9263 15.2615 24.5461 13.6102 23.6595C13.394 23.5463 13.1999 23.3985 13.0286 23.2267C13.8904 23.1183 14.6662 22.8669 15.3605 22.4734C16.3213 21.9273 17.1237 21.1636 17.7785 20.1743C18.4324 19.1849 18.9243 18.0084 19.2532 16.6449C19.582 15.2765 19.745 13.7747 19.745 12.1349C19.745 11.7213 19.7358 11.3174 19.7138 10.9191V10.9046C19.6909 10.1514 19.6148 9.37884 19.4793 8.59587C18.8786 5.12026 17.0339 1.04397 15.2973 0C15.7122 0.11323 16.1135 0.260992 16.5109 0.432845C16.5291 0.432845 16.5466 0.442481 16.5603 0.452921C18.4005 1.28006 21.5805 3.29813 23.2136 7.54226C24.8009 11.6627 23.9399 16.8569 21.0392 20.2088Z" fill="url(#paint0_linear_85_1305)"/>
<path d="M9.91171 9.07868C10.9174 6.18368 9.62773 4.40171 8.53599 4.29812C6.33044 4.08611 4.27867 7.86688 4.27867 12.5832C4.26953 12.4354 4.26953 12.2877 4.26953 12.1351C4.26953 10.4808 4.44083 8.95983 4.77505 7.57135C5.10851 6.17806 5.60489 4.97669 6.26344 3.95762C6.92199 2.93855 7.73356 2.14594 8.68978 1.57497C9.38411 1.16621 10.1515 0.905222 10.9989 0.791992C13.1458 2.9249 12.217 8.79761 9.91171 9.07868Z" fill="#7066AD"/>
<path d="M8.70351 24C8.41954 23.9165 8.13937 23.8274 7.8691 23.7294C7.84626 23.7198 7.82418 23.7101 7.79678 23.6997C7.74272 23.6804 7.6841 23.6555 7.62548 23.6306C7.57142 23.6058 7.5128 23.5817 7.45418 23.5568C5.61863 22.7296 2.42487 20.7059 0.788021 16.4578C-0.416395 13.3315 -0.213121 9.59009 1.22121 6.50316C1.27527 6.3803 1.33389 6.26225 1.39251 6.14339C1.51432 5.9073 1.6407 5.6712 1.78079 5.44474C2.03812 5.01671 2.31752 4.60796 2.6152 4.21366C2.71417 4.08598 2.81847 3.95749 2.92658 3.8298C2.93572 3.81535 2.94942 3.80009 2.96236 3.78564C2.98064 3.76556 2.99815 3.74147 3.01642 3.72139C5.36206 1.04803 8.75833 -0.54201 10.3914 0.334119C10.6167 0.456986 10.82 0.609566 11.0004 0.791859C10.1523 0.905089 9.38566 1.16608 8.69133 1.57483C7.73511 2.1458 6.92354 2.93842 6.26499 3.95749C5.60645 4.97656 5.11006 6.17793 4.7766 7.57122C4.44314 8.9597 4.27108 10.4807 4.27108 12.135C4.27108 12.2875 4.27108 12.4353 4.28022 12.5831C4.28022 12.7164 4.28022 12.8489 4.28935 12.9822C4.29849 13.4793 4.33427 13.9812 4.39746 14.4935C4.41117 14.6557 4.43324 14.8131 4.46065 14.9762C4.47892 15.1191 4.501 15.2564 4.52384 15.3994C4.53298 15.4636 4.54668 15.5271 4.55962 15.5913C4.61825 15.9511 4.69514 16.3004 4.77584 16.6449C4.86187 16.9846 4.95171 17.3146 5.05525 17.6343C5.06438 17.6688 5.07352 17.6985 5.08646 17.733C5.92468 20.5196 7.34988 23.1825 8.70351 24Z" fill="url(#paint1_linear_85_1305)"/>
</g>
<path fill-rule="evenodd" clip-rule="evenodd" d="M63.2209 23.0449C64.7594 23.6793 66.4169 23.9965 68.1932 23.9965C69.3822 23.9965 70.5172 23.8524 71.5981 23.564C72.679 23.2756 73.6915 22.8647 74.6319 22.3348C75.5723 21.8049 76.4226 21.1704 77.1829 20.4315C77.9468 19.6961 78.5989 18.8743 79.1466 17.9767C79.6943 17.0755 80.1122 16.1094 80.4077 15.0785C80.6995 14.0475 80.8472 12.9769 80.8472 11.8703C80.8472 10.7745 80.7031 9.7219 80.4077 8.70537C80.1158 7.69245 79.6943 6.74441 79.1466 5.86846C78.5989 4.98892 77.9431 4.19228 77.1829 3.47133C76.4226 2.75039 75.5723 2.13038 74.6319 1.61851C73.6915 1.10665 72.6826 0.706523 71.5981 0.425356C70.5172 0.140584 69.3786 0 68.1932 0C67.0078 0 65.8728 0.144188 64.7883 0.425356C63.7037 0.706523 62.6949 1.10665 61.7617 1.61851C60.8285 2.13399 59.9781 2.75039 59.2107 3.47133C58.4432 4.19228 57.7875 4.99252 57.247 5.86846C56.7065 6.74441 56.2886 7.69245 55.9931 8.70537C55.7013 9.71829 55.5535 10.7745 55.5535 11.8703C55.5535 13.5429 55.8778 15.1145 56.53 16.5853C57.1821 18.056 58.0757 19.3429 59.2107 20.4423C60.3457 21.5417 61.6824 22.4105 63.2209 23.0449ZM71.6774 22.032C70.6685 22.5799 69.5083 22.8538 68.1932 22.8538C66.8564 22.8538 65.6854 22.5799 64.673 22.032C63.6641 21.4841 62.8174 20.7199 62.1328 19.7394C61.4482 18.7589 60.933 17.5982 60.5871 16.2608C60.2412 14.9235 60.0682 13.4564 60.0682 11.8667C60.0682 10.2842 60.2412 8.83874 60.5871 7.52303C60.933 6.20731 61.4482 5.07543 62.1328 4.12379C62.8174 3.17214 63.6641 2.43678 64.673 1.9105C65.6818 1.38781 66.8564 1.12467 68.1932 1.12467C69.5083 1.12467 70.6685 1.38781 71.6774 1.9105C72.6862 2.43318 73.5366 3.17214 74.2284 4.12379C74.9202 5.07543 75.439 6.20731 75.7921 7.52303C76.1416 8.83874 76.3182 10.2878 76.3182 11.8667C76.3182 13.4564 76.1416 14.9235 75.7921 16.2608C75.4426 17.6018 74.9202 18.7589 74.2284 19.7394C73.5366 20.7199 72.6862 21.4841 71.6774 22.032ZM162.281 23.9964H160.166L170.276 12.1621L161.052 0.00341797H165.844L172.809 9.21345L180.656 0.00341797H182.789L173.782 10.5364L184 24H179.172L171.252 13.485L162.281 23.9964ZM50.156 0.00714111V17.5585H49.9758L35.8193 0.00714111H32V23.9929H33.8268V5.05373H33.9709L49.3705 23.9929H51.9323V0.00714111H50.156ZM84.4755 0.00341797H94.1317C95.4108 0.00341797 96.5818 0.144002 97.6484 0.428773C98.7149 0.713545 99.6301 1.11367 100.398 1.63275C101.165 2.15182 101.756 2.77183 102.177 3.49638C102.599 4.22093 102.812 5.01757 102.812 5.8863C102.812 6.54957 102.747 7.14074 102.613 7.65982C102.48 8.1789 102.246 8.65832 101.907 9.0981C101.569 9.53787 101.122 9.95602 100.56 10.3453C99.9976 10.7382 99.2914 11.1384 98.4338 11.5493V11.6214C99.2878 11.7548 100.062 11.9819 100.751 12.3099C101.439 12.6343 102.026 13.0489 102.513 13.5499C103.003 14.051 103.377 14.6349 103.644 15.3054C103.911 15.9759 104.04 16.7076 104.04 17.5043C104.04 18.4091 103.846 19.2562 103.453 20.0456C103.06 20.835 102.502 21.5235 101.77 22.1075C101.039 22.6915 100.16 23.1529 99.1292 23.4917C98.0988 23.8305 96.9422 24 95.6667 24H84.4719V0.00341797H84.4755ZM88.5145 10.8067H93.6489C94.456 10.8067 95.173 10.6914 95.8 10.4643C96.4269 10.2372 96.9566 9.91997 97.3925 9.51624C97.8249 9.11251 98.1564 8.62948 98.3798 8.06715C98.6032 7.50482 98.7149 6.89922 98.7149 6.24677C98.7149 5.54746 98.5816 4.90943 98.3185 4.33628C98.0519 3.76313 97.6412 3.27289 97.0791 2.86195C96.517 2.45101 95.8072 2.13741 94.946 1.92112C94.0849 1.70484 93.0508 1.5967 91.8438 1.5967H88.5145V10.8067ZM88.5109 22.2409H92.8707C94.0417 22.2409 95.0577 22.1291 95.9189 21.9056C96.78 21.6821 97.4934 21.3685 98.0519 20.9648C98.614 20.5611 99.0284 20.0744 99.2986 19.5085C99.5688 18.9426 99.7057 18.3189 99.7057 17.6449C99.7057 16.8843 99.5832 16.1777 99.3454 15.5289C99.104 14.8764 98.7077 14.3141 98.16 13.8383C97.6123 13.3625 96.8953 12.984 96.009 12.7064C95.1226 12.4288 94.0345 12.2919 92.7446 12.2919H88.5109V22.2409ZM113.142 0.00341797H109.11V23.9964H113.142V0.00341797ZM137.639 0.00341797V1.56065H128.959V23.9964H124.927V1.56065H116.248V0.00341797H137.639ZM157.42 1.56065V0.00341797H140.745V24H157.42V22.4427H144.777V11.6935H153.24V10.1363H144.777V1.56065H157.42Z" fill="#4D3F99"/>
<defs>
<linearGradient id="paint0_linear_85_1305" x1="13.0288" y1="11.9519" x2="24" y2="11.9519" gradientUnits="userSpaceOnUse">
<stop stop-color="#262261"/>
<stop offset="0.3346" stop-color="#372F79"/>
<stop offset="0.7442" stop-color="#473B90"/>
<stop offset="1" stop-color="#4D3F99"/>
</linearGradient>
<linearGradient id="paint1_linear_85_1305" x1="4.98988e-05" y1="12.0464" x2="10.9991" y2="12.0464" gradientUnits="userSpaceOnUse">
<stop stop-color="#262261"/>
<stop offset="0.3346" stop-color="#372F79"/>
<stop offset="0.7442" stop-color="#473B90"/>
<stop offset="1" stop-color="#4D3F99"/>
</linearGradient>
<clipPath id="clip0_85_1305">
<rect width="24" height="24" fill="white"/>
</clipPath>
</defs>
</svg>
