<svg width="200" height="200" viewBox="0 0 200 200" fill="none" xmlns="http://www.w3.org/2000/svg">
<path d="M100 200C155.228 200 200 155.228 200 100C200 44.7715 155.228 0 100 0C44.7715 0 0 44.7715 0 100C0 155.228 44.7715 200 100 200Z" fill="url(#paint0_linear_2216_189155)" fill-opacity="0.8"/>
<path d="M160 200H40V70.6663C45.656 70.66 51.0785 68.4104 55.0779 64.411C59.0773 60.4116 61.327 54.989 61.3333 49.333H138.667C138.661 52.1349 139.21 54.91 140.284 57.498C141.358 60.0861 142.934 62.4355 144.921 64.4103C146.896 66.3985 149.246 67.9751 151.834 69.049C154.422 70.1228 157.198 70.6726 160 70.6663V200Z" fill="white"/>
<path d="M100 136C117.673 136 132 121.673 132 104C132 86.3269 117.673 72 100 72C82.3269 72 68 86.3269 68 104C68 121.673 82.3269 136 100 136Z" fill="#784ED1"/>
<path d="M111.314 119.085L100 107.771L88.6863 119.085L84.9151 115.314L96.2288 104L84.9151 92.6865L88.6863 88.9153L100 100.229L111.314 88.9153L115.085 92.6865L103.771 104L115.085 115.314L111.314 119.085Z" fill="white"/>
<path d="M117.334 144H82.667C80.4579 144 78.667 145.791 78.667 148C78.667 150.209 80.4579 152 82.667 152H117.334C119.543 152 121.334 150.209 121.334 148C121.334 145.791 119.543 144 117.334 144Z" fill="#E0D7F4"/>
<path d="M129.334 160H70.667C68.4579 160 66.667 161.791 66.667 164C66.667 166.209 68.4579 168 70.667 168H129.334C131.543 168 133.334 166.209 133.334 164C133.334 161.791 131.543 160 129.334 160Z" fill="#E0D7F4"/>
<defs>
<linearGradient id="paint0_linear_2216_189155" x1="100" y1="0" x2="100" y2="200" gradientUnits="userSpaceOnUse">
<stop stop-color="#E0D7F4"/>
<stop offset="1" stop-color="#E0D7F4" stop-opacity="0"/>
</linearGradient>
</defs>
</svg>
