<svg xmlns="http://www.w3.org/2000/svg" width="50" height="50" viewBox="0 0 50 50"><g transform="translate(-2150 -439)"><circle cx="25" cy="25" r="25" transform="translate(2150 439)" fill="#2b5ebb"/><g transform="translate(2158.699 448.05)"><circle cx="6.814" cy="6.814" r="6.814" transform="translate(18.936 9.128)" fill="#fff"/><circle cx="3.286" cy="3.286" r="3.286" transform="translate(13.854 0)" fill="#fff"/><circle cx="3.286" cy="3.286" r="3.286" transform="translate(13.854 25.33)" fill="#fff"/><path d="M15.634,37.029a1.956,1.956,0,0,0,.615.1,2.056,2.056,0,1,0-1.732-3.172v.016a.9.9,0,0,0-.146.275c-2.266,4-6.814,1.327-6.814,1.327a4.955,4.955,0,1,0-2.541,9.209A4.921,4.921,0,0,0,9.4,42.111v-.016a5.2,5.2,0,0,0,.356-.874c2.363-5.422,5.875-4.192,5.875-4.192Zm-1.165-7.267a2.243,2.243,0,0,0,.372.5,2.049,2.049,0,1,0,1.02-3.447h-.016a1.128,1.128,0,0,0-.308.1c-4.435,1.23-5.762-3.884-5.762-3.884a4.94,4.94,0,1,0-3.286,5.908h.016a6.74,6.74,0,0,0,.874-.372C12.866,26.395,14.469,29.761,14.469,29.761Z" transform="translate(0 -16.166)" fill="#fff"/></g></g></svg>