<svg xmlns="http://www.w3.org/2000/svg" xmlns:xlink="http://www.w3.org/1999/xlink" width="50" height="50" viewBox="0 0 50 50"><defs><linearGradient id="a" x1="0.542" y1="0.444" x2="0.171" y2="0.933" gradientUnits="objectBoundingBox"><stop offset="0" stop-color="#9f62ff"/><stop offset="1" stop-color="#503180"/></linearGradient></defs><circle cx="25" cy="25" r="25" fill="url(#a)"/><path d="M398.121-62.624a18.59,18.59,0,0,0-3,.323h0a18.221,18.221,0,0,0-3.173.908h0c-.316.122-1.055.444-1.114.471h0a18.915,18.915,0,0,0-2.97,1.72h0a18.163,18.163,0,0,0-1.469,1.156h0a18.461,18.461,0,0,0-2.643,2.853h0a18.084,18.084,0,0,0-1.763,2.876h0a18.668,18.668,0,0,0-1.776,5.886h0a18.127,18.127,0,0,0-.038,4.313h0a18.408,18.408,0,0,0,1.678,5.929h0a18.419,18.419,0,0,0,4.658,6.121h0a.232.232,0,0,0,.125.079h0q3.09-8.262,6.178-16.533h0c.064.025.069.068.085.1h0c.068.144.135.289.2.435h0q1.88,4.123,3.759,8.247h0c.09.2.117.164-.1.263h0q-.911.416-1.823.832h0c-.049.023-.115.029-.138.094h0a.157.157,0,0,0,.017.013h0c.522.2,7.249,2.711,7.545,2.824h0l.021-.024h0l-9.856-21.62h0c-.039.1-.066.161-.089.225h0c-.166.443-6.738,18.044-6.873,18.447-.013.04-.017.109-.081.111h0c-.062,0-.067-.064-.089-.1h0a15.282,15.282,0,0,1-1.027-2.229h0a15.073,15.073,0,0,1-.914-5.6h0a14.888,14.888,0,0,1,.311-2.671h0a15.129,15.129,0,0,1,2.132-5.18h0a14.975,14.975,0,0,1,1.649-2.105h0a15.194,15.194,0,0,1,3.713-2.894h0c.37-.205.752-.387,1.132-.574h0a.286.286,0,0,0,.112-.038h0a14.916,14.916,0,0,1,2.572-.866h0a15.24,15.24,0,0,1,3.84-.412h0a15.108,15.108,0,0,1,3.357.448h0a15.122,15.122,0,0,1,3.133,1.161h0a15.055,15.055,0,0,1,2.4,1.506h0c.024.018.048.036.073.052h0a.045.045,0,0,0,.072-.024h0c.01-.023.018-.046.027-.069h0q.564-1.513,1.129-3.026h0c.044-.118.044-.12-.06-.191h0a18.458,18.458,0,0,0-1.91-1.144h0a18.733,18.733,0,0,0-4.044-1.535h0a18.041,18.041,0,0,0-2.886-.488h0c-.539-.046-1.079-.071-1.619-.071h0c-.157,0-.315,0-.472.007m12.4,4.474c-.006.014-.011.028-.016.042h0c-.337.906-5.949,15.919-6.1,16.321a.167.167,0,0,1-.06.1h0c-.019-.038-.035-.068-.05-.1-.141-.308-2.789-6.115-3.971-8.711h0c-.079-.172-.107-.159.087-.248h0q.933-.425,1.865-.85h0c.042-.019.1-.022.119-.085h0l-.126-.049h0l-5.224-1.953h0q-1.036-.388-2.073-.774h0c-.046-.018-.094-.058-.15-.025h0a.44.44,0,0,0,.063.172h0q.807,1.776,1.616,3.554h0l2.84,6.234h0q1.818,3.989,3.636,7.976h0q.807,1.769,1.617,3.537h0c.017.038.019.091.086.107h0l.7-1.872c.234-.626,5.38-14.416,5.619-15.04h0c.237-.618.454-1.244.7-1.866h0a.312.312,0,0,1,.092.124h0c.195.337.372.683.536,1.036h0a15.053,15.053,0,0,1,1.423,6.565h0a15.289,15.289,0,0,1-.3,2.881h0a14.858,14.858,0,0,1-1.049,3.236h0a15.066,15.066,0,0,1-4.045,5.33h0a15.187,15.187,0,0,1-2.846,1.892h0c-.159.082-.327.149-.478.246h0a.384.384,0,0,0-.056.019h0a15.217,15.217,0,0,1-3.551,1.137h0a14.872,14.872,0,0,1-3.348.254h0a15.677,15.677,0,0,1-1.579-.137h0a15.118,15.118,0,0,1-2.547-.585h0a15.091,15.091,0,0,1-4.585-2.409h0c-.033-.025-.06-.068-.111-.062h0a.451.451,0,0,0-.061.137h0c-.266.665-.48,1.348-.751,2.011h0c-.132.323-.247.653-.368.981h0c-.048.13-.078.111.07.211h0a10.543,10.543,0,0,0,.913.564h0c.452.242.892.506,1.342.749h0c.294.159.6.29.909.42h0a41.011,41.011,0,0,0,5.565,1.439,14.294,14.294,0,0,0,6.477-.57h0a17.764,17.764,0,0,0,2.054-.677h0c.338-.135.675-.271,1-.438h0a4.6,4.6,0,0,0,.648-.306h0a18.377,18.377,0,0,0,4.274-3.018h0a18.257,18.257,0,0,0,3.047-3.752h0a18.743,18.743,0,0,0,2.215-5.291h0a19.3,19.3,0,0,0,.424-2.338h0c.005-.04-.025-.108.057-.114h0q.046-.882.092-1.764h0c-.035-.023-.029-.06-.03-.095h0c-.007-.264-.011-.528-.021-.792h0a18.574,18.574,0,0,0-.274-2.54h0a18.508,18.508,0,0,0-2.108-5.869h0a18.4,18.4,0,0,0-3.831-4.754h0c-.086-.076-.172-.152-.26-.226h0c-.03-.025-.048-.038-.062-.038h0c-.018,0-.03.022-.052.07" transform="translate(-373.612 69.088)" fill="#fff"/></svg>
