<svg xmlns="http://www.w3.org/2000/svg" width="50" height="50" viewBox="0 0 50 50"><circle cx="25" cy="25" r="25" fill="#172852"/><g transform="translate(10.466 10.324)"><path d="M744.516,413.8a14.533,14.533,0,0,1,9.2-.2,14.778,14.778,0,0,1,8.873,7.813,9,9,0,0,1,.97,3.305,33.8,33.8,0,0,0-6.972-2.832c-3.835-1.383-7.85-2.343-11.48-4.243-.845-.505-1.922-1.022-2.152-2.075-.093-.91.87-1.418,1.557-1.77" transform="translate(-734.844 -412.95)" fill="#ffd83d"/><path d="M419.483,566.217a14.279,14.279,0,0,1,4.125-6.017,18.541,18.541,0,0,0,4.935,10.633,17.767,17.767,0,0,0,12.89,5.5,25.887,25.887,0,0,0,5.655-.74c-1.837,6.64-9.115,11.047-15.858,9.987a14.639,14.639,0,0,1-11.747-19.362Z" transform="translate(-418.649 -556.519)" fill="#ffd83d"/></g><path d="M1288.5,770.4a33.793,33.793,0,0,1,6.972,2.833l.148.077a15.021,15.021,0,0,1,.08,4.6,13.666,13.666,0,0,1-2.917-2.005c-1.79-1.49-3.617-3.2-4.282-5.505" transform="translate(-1256.287 -751.14)" fill="#ff6f03"/></svg>