<svg xmlns="http://www.w3.org/2000/svg" width="50" height="50" viewBox="0 0 50 50"><circle cx="25" cy="25" r="25" fill="#67b2e8"/><path d="M6.227,14.741A30.985,30.985,0,0,1,6,11.119,31.528,31.528,0,0,1,22.272,7.007c.887.017,2.172.116,3.147.22a9.383,9.383,0,0,0-4.789,6.547,9.841,9.841,0,0,0-.163,1.544,8.522,8.522,0,0,1-.281,2.114,7.078,7.078,0,0,1-13.233,1.05,2.3,2.3,0,0,1-.156-.469,31.517,31.517,0,0,1-.57-3.272ZM32.184,28.116c-.372.578-.766,1.141-1.175,1.7a9.42,9.42,0,0,0-4.494-8.052l-.141-.086q-.117-.069-.233-.141A6.931,6.931,0,0,1,22.9,16.782,7.075,7.075,0,0,1,32,8.757a25.161,25.161,0,0,1,3.137,1.261c.688.323,1.381.683,2.119,1.1a31.427,31.427,0,0,1-.706,6.481,31.48,31.48,0,0,1-4.359,10.517Zm-4.745,5.739a32.065,32.065,0,0,1-5.813,4.4q-.813-.469-1.589-1A31.836,31.836,0,0,1,8.65,23.624a9.191,9.191,0,0,0,3.781,1.227,9.417,9.417,0,0,0,5.647-1.208,7.216,7.216,0,0,1,2.666-.889A7.063,7.063,0,0,1,28.4,27.763a6.961,6.961,0,0,1-.442,5.167c-.069.144-.128.259-.269.536l-.069.136a.908.908,0,0,1-.184.253Z" transform="translate(3.375 3.937)" fill="#fff" fill-rule="evenodd"/></svg>
