<svg id="Layer_1" data-name="Layer 1" xmlns="http://www.w3.org/2000/svg" viewBox="0 0 64 64"><defs><style>.cls-1{fill:#212121;}</style></defs><g id="U2D0wS.tif"><path class="cls-1" d="M22.82,31.48a18.23,18.23,0,0,1-4.26-3.89A17.11,17.11,0,1,1,33.9,34.06c-1.72.17-3.46.12-5.17.38A23,23,0,0,0,11.29,46.68,22.48,22.48,0,0,0,8.57,57.33,2.16,2.16,0,0,0,11,59.73H31.64a3.55,3.55,0,0,1,1,.11,2.12,2.12,0,0,1,1.5,2.24A2.16,2.16,0,0,1,32.18,64a6,6,0,0,1-.6,0H11.09a6.41,6.41,0,0,1-6.78-6.87A27.73,27.73,0,0,1,22.15,31.77Zm-3.6-14.34A12.78,12.78,0,1,0,31.94,4.36,12.8,12.8,0,0,0,19.22,17.14Z"/><path class="cls-1" d="M50.1,45.89c2.53,0,5,0,7.41,0a2.13,2.13,0,1,1-.08,4.26H50.1v7.2a2.14,2.14,0,1,1-4.26,0c0-2.37,0-4.74,0-7.22H38.59a2.14,2.14,0,1,1,0-4.26h7.24V43.65c0-1.68,0-3.37,0-5a2.13,2.13,0,1,1,4.26,0c0,2.17,0,4.35,0,6.52Z"/></g></svg>