<svg id="Layer_1" data-name="Layer 1" xmlns="http://www.w3.org/2000/svg" viewBox="0 0 64 64"><defs><style>.cls-1{fill:#212121;}</style></defs><g id="nTE1cT.tif"><path class="cls-1" d="M50.09,0A14.26,14.26,0,0,1,63,9.16a15.24,15.24,0,0,1-3.55,16.41C55,29.89,50.57,34.25,46.28,38.72a15,15,0,0,1-21.08.43,2.47,2.47,0,1,1,3.38-3.59,9.89,9.89,0,0,0,13.09.63,18.51,18.51,0,0,0,1.52-1.42C47.58,30.37,52,26,56.35,21.55a9.4,9.4,0,0,0,2.1-10.29A9.08,9.08,0,0,0,50.4,5a9.51,9.51,0,0,0-8.2,2.86c-2.47,2.48-5,4.93-7.42,7.41A2.52,2.52,0,0,1,32,16a2.44,2.44,0,0,1-.81-4.1C33,10,34.85,8.15,36.74,6.34a42,42,0,0,1,4.48-4C43.6.66,46.38,0,50.09,0Z"/><path class="cls-1" d="M15,64A14.63,14.63,0,0,1,1,54.84a15.23,15.23,0,0,1,3.55-16.4c4.46-4.34,8.87-8.72,13.19-13.2a15,15,0,0,1,21-.4,2.47,2.47,0,1,1-3.37,3.61,9.78,9.78,0,0,0-14,.24C16.72,33.29,12,37.88,7.5,42.61a9.29,9.29,0,0,0-2,10.11,9.13,9.13,0,0,0,8,6.27,9.52,9.52,0,0,0,8.29-2.85q3.75-3.77,7.53-7.51a2.5,2.5,0,0,1,3-.52,2.38,2.38,0,0,1,1.25,2.66,2.52,2.52,0,0,1-.62,1.2c-2.74,2.79-5.45,5.6-8.3,8.27A14,14,0,0,1,15,64Z"/></g></svg>