<svg id="Layer_1" data-name="Layer 1" xmlns="http://www.w3.org/2000/svg" viewBox="0 0 64 64"><path d="M55.81,25.07a2,2,0,0,1-.21-.88q0-5.64,0-11.28V7.27a3.31,3.31,0,0,0-.1-.93A1.45,1.45,0,0,0,53.9,5.27,1.43,1.43,0,0,0,52.53,6.6a4.09,4.09,0,0,0,0,.61V20.09C47,13.74,40.07,10.53,32,10.52h0a26.27,26.27,0,0,0-20.51,9.57V7.26c0-.2,0-.4,0-.6a1.48,1.48,0,0,0-1.42-1.39A1.44,1.44,0,0,0,8.47,6.44a3.37,3.37,0,0,0-.07.85v4.76q0,6.07,0,12.16a1.94,1.94,0,0,1-.22.88A26.77,26.77,0,0,0,32,64a27.25,27.25,0,0,0,5.37-.54A26.8,26.8,0,0,0,55.81,25.07ZM32,13.58h0A23.66,23.66,0,0,1,32,60.9h0a23.66,23.66,0,0,1,0-47.32Z"/><path d="M23.12,8.67a1.57,1.57,0,0,0,1.51,1.76h0a1.45,1.45,0,0,0,1-.41,1.87,1.87,0,0,0,.51-1.38V1.82A1.6,1.6,0,0,0,24.67,0a1.47,1.47,0,0,0-1.06.4,2,2,0,0,0-.5,1.39V6.24C23.11,7.05,23.11,7.86,23.12,8.67Z"/><path d="M39.33,10.43h0a1.55,1.55,0,0,0,1.5-1.7c0-.81,0-1.62,0-2.44V4.16c0-.81,0-1.63,0-2.44A1.79,1.79,0,0,0,40.38.4,1.51,1.51,0,0,0,39.31,0a1.57,1.57,0,0,0-1.52,1.7q0,3.5,0,7A1.79,1.79,0,0,0,38.3,10,1.44,1.44,0,0,0,39.33,10.43Z"/><path d="M21.16,40.34a1.44,1.44,0,0,1,.45,1.44c-.34,1.83-.66,3.78-1,6.13a3.73,3.73,0,0,0,1.59,3.87,3.47,3.47,0,0,0,2,.66,4.29,4.29,0,0,0,2-.58l2.28-1.25c1-.55,2-1.09,3-1.65a1,1,0,0,1,1.07,0c2.18,1.23,3.86,2.15,5.46,3a3.68,3.68,0,0,0,3.66-.06,3.85,3.85,0,0,0,1.81-3.37v-.13a2.68,2.68,0,0,0,0-.46l-.21-1.31c-.26-1.63-.53-3.26-.82-4.88a1.32,1.32,0,0,1,.41-1.33c1.5-1.48,3-3,4.37-4.44A3.71,3.71,0,0,0,48,32.05a3.59,3.59,0,0,0-3-2.54l-.82-.14c-1.73-.27-3.46-.55-5.2-.78a1,1,0,0,1-.91-.69c-.44-.94-.89-1.88-1.34-2.82s-.88-1.85-1.31-2.78A3.65,3.65,0,0,0,32,20h0a3.63,3.63,0,0,0-3.39,2.33c-.46,1-.93,2-1.4,2.95S26.32,27,25.9,27.94a1,1,0,0,1-.82.64c-1,.13-1.94.28-2.9.43l-1.06.16-.74.11c-.58.08-1.19.16-1.78.3a3.69,3.69,0,0,0-2.67,2.54,3.9,3.9,0,0,0,.9,3.82C18.31,37.53,19.85,39.06,21.16,40.34Zm11.5-16.66,1.17,2.47c.49,1,1,2.05,1.45,3.08a4,4,0,0,0,3.31,2.42c1.26.16,2.51.36,3.77.56l1.93.29c.58.09.73.26.82.53s.06.55-.33.95-1,1-1.52,1.55c-.9.91-1.8,1.83-2.71,2.73a4.16,4.16,0,0,0-1.22,4c.25,1.39.48,2.78.7,4.18l.31,1.87c.1.59-.08.81-.28,1s-.35.14-.84-.12l-2.37-1.3c-1-.54-2-1.08-3-1.63a3.72,3.72,0,0,0-3.81,0c-1.8,1-3.62,2-5.44,3a.72.72,0,0,1-.71.07.85.85,0,0,1-.31-.76l.9-5.44c.07-.36.13-.72.18-1.09a4,4,0,0,0-1.15-3.56l-2.1-2.14-2.17-2.2c-.41-.41-.51-.67-.39-1s.34-.44,1-.53l.22,0q2.85-.41,5.68-.85a3.67,3.67,0,0,0,2.88-2.22l1.09-2.3c.54-1.14,1.09-2.27,1.62-3.42.25-.53.41-.67.66-.62S32.41,23.14,32.66,23.68Z"/></svg>