<svg id="Layer_1" data-name="Layer 1" xmlns="http://www.w3.org/2000/svg" viewBox="0 0 742.87 682.12"><defs><style>.cls-1{fill:#24005b;}.cls-2{fill:#d1bcff;}.cls-3{fill:#a178fd;}</style></defs><g id="pnCwFz.tif"><path class="cls-1" d="M253.71,264.05c.81,0,1.62,0,2.43,0s1.62,0,2.43,0c68.54-.11,125.67-58.68,125.55-128.74S326.61,8.45,256.14,8.36c-70.47.09-127.87,57-128,127S185.17,263.94,253.71,264.05Z"/><path class="cls-1" d="M512.05,414.48c-.81-44.55-20-79.34-57.4-103.54a347,347,0,0,0-112-47.31,13.63,13.63,0,0,0-9,1.31c-25.85,14.75-51.69,21.77-77.53,21.38-25.84.39-51.68-6.63-77.53-21.38a13.63,13.63,0,0,0-9-1.31,347,347,0,0,0-112,47.31C20.24,335.14,1,369.93.23,414.48c-.45,25-.11,50.06-.06,75.1,0,17.78,8.25,29,25.06,35a686.45,686.45,0,0,0,230.91,40.06,686.45,686.45,0,0,0,230.91-40.06c16.81-6,25-17.2,25.06-35C512.16,464.54,512.5,439.51,512.05,414.48Z"/><path class="cls-2" d="M262.08,255.69c.81,0,1.61,0,2.42,0s1.62,0,2.43,0C335.48,255.58,392.6,197,392.49,127S335,.08,264.5,0c-70.47.08-127.87,57-128,127S193.53,255.58,262.08,255.69Z"/><path class="cls-2" d="M520.42,406.11c-.81-44.55-20-79.34-57.4-103.53a347.16,347.16,0,0,0-112-47.31,13.64,13.64,0,0,0-9,1.31c-25.84,14.75-51.68,21.77-77.53,21.38-25.84.39-51.68-6.63-77.52-21.38a13.66,13.66,0,0,0-9-1.31A347,347,0,0,0,66,302.58c-37.38,24.19-56.59,59-57.4,103.53-.44,25-.11,50.07-.05,75.1,0,17.79,8.25,29,25.06,35a686.44,686.44,0,0,0,230.9,40.06A686.45,686.45,0,0,0,495.41,516.2c16.81-6,25-17.2,25.06-35C520.53,456.18,520.86,431.15,520.42,406.11Z"/><path class="cls-1" d="M293.44,359.19H684.36a20,20,0,0,1,20,20V626.8a20,20,0,0,1-20,20H273.47a0,0,0,0,1,0,0V379.16A20,20,0,0,1,293.44,359.19Z"/><path class="cls-3" d="M304.59,348H695.51a20,20,0,0,1,20,20V615.65a20,20,0,0,1-20,20H284.62a0,0,0,0,1,0,0V368A20,20,0,0,1,304.59,348Z"/><polygon class="cls-1" points="620.74 492 527.67 492 527.67 398.93 489.04 398.93 489.04 492 395.96 492 395.96 530.63 489.04 530.63 489.04 623.71 527.67 623.71 527.67 530.63 620.74 530.63 620.74 492"/><polygon class="cls-2" points="626.32 486.43 533.24 486.43 533.24 393.36 494.61 393.36 494.61 486.43 401.54 486.43 401.54 525.06 494.61 525.06 494.61 618.13 533.24 618.13 533.24 525.06 626.32 525.06 626.32 486.43"/></g></svg>