<svg xmlns="http://www.w3.org/2000/svg" width="185.211" height="198.113" viewBox="0 0 185.211 198.113"><g transform="translate(-3709.78 -195.482)"><g transform="translate(3709.78 208.384)"><circle cx="92.605" cy="92.605" r="92.605" transform="translate(0 0)" fill="#efe7ff"/></g><g transform="translate(3753.11 195.482)"><path d="M3927.535,298.171s19.2-2.658,25.786-34.626c0,0-22,7.2-27.287,19.943s-1.879,16.4-1.879,16.4l-8.377,16.438-2.252,1.426s3.575-16.409-2.073-15.81-8.99,8.444-7.509,19.922l16.387-.1a9.879,9.879,0,0,0-1.178-8l14.351-9.693-10.993,4.3Z" transform="translate(-3854.318 -231.024)" fill="#5d35b1" opacity="0.24"/><path d="M3922.886,280.747s-9.942,2.217-8.562,16.134C3914.324,296.881,3924.2,295.874,3922.886,280.747Z" transform="translate(-3859.853 -240.007)" fill="#5d35b1" opacity="0.63"/><path d="M3858.35,195.482s-11.307,15.946,8.561,33.992C3866.911,229.474,3879.677,215.341,3858.35,195.482Z" transform="translate(-3829.02 -195.482)" fill="#5d35b1"/><path d="M3857.169,369.3s3.608-25.96-13.375-31.255-22.747,21.574-22.747,21.574,18.144-.726,27.181-14C3848.228,345.623,3856.627,342.3,3857.169,369.3Z" transform="translate(-3811.213 -269.566)" fill="#5d35b1" opacity="0.33"/><path d="M3856.551,312.079s3-62.339-56.071-79.361c0,0-2,23.289,42.054,39.68h-33.042l36.787,11.385S3852.546,284.3,3856.551,312.079Z" transform="translate(-3800.466 -214.926)" fill="#5d35b1" opacity="0.68"/><path d="M3893.527,260.525s13.5-17.047,11.569-47.491C3905.1,213.034,3883.244,224.7,3893.527,260.525Z" transform="translate(-3847.625 -204.647)" fill="#5d35b1" opacity="0.68"/></g><g transform="translate(3727.989 231.42)"><path d="M3820.615,528.82v12.407c0,1.85,18.882,3.35,42.176,3.35s42.176-1.5,42.176-3.35V528.82Z" transform="translate(-3785.866 -405.486)" fill="#4a217f"/><ellipse cx="42.176" cy="3.35" rx="42.176" ry="3.35" transform="translate(34.749 119.985)" fill="#14151b"/><path d="M3809.316,499.609v12.407c0,1.85,18.883,3.349,42.176,3.349s42.176-1.5,42.176-3.349V499.609Z" transform="translate(-3779.965 -390.232)" fill="#623890"/><ellipse cx="42.176" cy="3.35" rx="42.176" ry="3.35" transform="translate(29.351 106.027)" fill="#905dfd"/><path d="M3834.678,470.4V482.8c0,1.85,18.883,3.35,42.176,3.35s42.176-1.5,42.176-3.35V470.4Z" transform="translate(-3793.209 -374.978)" fill="#623890"/><ellipse cx="42.176" cy="3.35" rx="42.176" ry="3.35" transform="translate(41.469 92.069)" fill="#4a217f"/><path d="M3824.941,441.185v12.407c0,1.85,18.882,3.35,42.176,3.35s42.176-1.5,42.176-3.35V441.185Z" transform="translate(-3788.125 -359.723)" fill="#905dfd"/><path d="M3975.19,443.57l8.24,11.5c2.164-.281,4.322-.594,4.322-1.478V441.185Z" transform="translate(-3866.583 -359.723)" fill="#4a217f"/><ellipse cx="42.176" cy="3.35" rx="42.176" ry="3.35" transform="translate(36.816 78.112)" fill="#4a217f"/><path d="M3834.678,411.973V424.38c0,1.85,18.883,3.35,42.176,3.35s42.176-1.5,42.176-3.35V411.973Z" transform="translate(-3793.209 -344.469)" fill="#905dfd"/><path d="M3984.445,411.973l1.422,14.694c7.048-.6,11.37-1.4,11.37-2.287V411.973Z" transform="translate(-3871.416 -344.469)" fill="#4a217f"/><path d="M3849.045,411.973v14.238l3.042.325V411.973l29.358,2.109V427.73h2.911V415.323Z" transform="translate(-3800.712 -344.469)" fill="#fff"/><ellipse cx="42.176" cy="3.35" rx="42.176" ry="3.35" transform="translate(41.469 64.154)" fill="#14151b"/><path d="M3828.586,383.411v12.407c0,1.85,18.883,3.349,42.176,3.349s42.176-1.5,42.176-3.349V383.411Z" transform="translate(-3790.028 -329.554)" fill="#905dfd"/><path d="M3842.954,383v14.238l3.042.325V383l7,2.682v12.407h1.729l2.439-15.461Z" transform="translate(-3797.531 -329.148)" fill="#fff"/><ellipse cx="42.176" cy="3.35" rx="42.176" ry="3.35" transform="translate(38.558 50.507)" fill="#b499ff"/><path d="M3986.638,325.847s.79,24.376-14.512,27.28a.366.366,0,0,0-.036.716c5.029,1.319,15.762,6.542,16.06,27.113,0,0-.351-24.211,15.18-26.883a.367.367,0,0,0,.047-.716C3998.254,351.955,3987.309,346.533,3986.638,325.847Z" transform="translate(-3864.822 -299.495)" fill="#fff"/><path d="M3970.242,285.864s.435,13.436-8,15.036a.2.2,0,0,0-.02.4c2.772.727,8.688,3.605,8.853,14.944,0,0-.194-13.344,8.366-14.818a.2.2,0,0,0,.026-.395C3976.644,300.255,3970.611,297.266,3970.242,285.864Z" transform="translate(-3859.734 -278.616)" fill="#fff"/><circle cx="4.973" cy="4.973" r="4.973" transform="translate(32.747)" fill="#fff" opacity="0.42" style="mix-blend-mode:overlay;isolation:isolate"/><circle cx="29.513" cy="29.513" r="29.513" transform="translate(0 37.991)" fill="#fff" opacity="0.42" style="mix-blend-mode:overlay;isolation:isolate"/><circle cx="15.429" cy="15.429" r="15.429" transform="translate(22.291 107.201)" fill="#fff" opacity="0.42" style="mix-blend-mode:overlay;isolation:isolate"/></g></g></svg>