<svg id="Layer_1" data-name="Layer 1" xmlns="http://www.w3.org/2000/svg" viewBox="0 0 64 64"><defs><style>.cls-1{fill:#212121;}</style></defs><path class="cls-1" d="M63.92,23.77a4.56,4.56,0,0,0-3-3.35c-5.4-2-10.8-4-16.19-6q-4-1.51-8.07-3a12.78,12.78,0,0,0-9.19,0Q15.16,16,2.86,20.56A4.67,4.67,0,0,0,1,21.85a4.09,4.09,0,0,0-.89,3.72,4.29,4.29,0,0,0,2.69,3q4.64,1.75,9.3,3.45c.25.09.28.13.27.38,0,1.34,0,2.68,0,4v2.9c0,1.13,0,2.26,0,3.4a9.09,9.09,0,0,0,7.38,9c1,.2,2,.37,3,.54.84.14,1.67.29,2.5.45a35.79,35.79,0,0,0,6.79.72,24.34,24.34,0,0,0,3.34-.22c1.64-.21,3.3-.51,4.9-.79,1.16-.21,2.33-.42,3.5-.6a9.23,9.23,0,0,0,7.89-9.6c0-2,0-4,0-5.91,0-1.28,0-2.56,0-3.83,0-.35,0-.41.35-.52,3-1.08,6-2.2,9-3.33a5.29,5.29,0,0,0,1.7-1A4.13,4.13,0,0,0,63.92,23.77ZM47.14,31.56V34.2q0,4.14,0,8.29a4.57,4.57,0,0,1-4,4.87c-2.38.45-5.15,1-7.88,1.35a27.78,27.78,0,0,1-9.45-.46c-.86-.17-1.74-.33-2.61-.48s-1.66-.29-2.48-.45A4.45,4.45,0,0,1,16.91,43c-.06-2.23-.05-4.5,0-6.7,0-.83,0-1.67,0-2.5l5.21,1.92c1.64.6,3.27,1.2,4.89,1.84a13.43,13.43,0,0,0,10.14,0c.75-.3,1.51-.58,2.26-.85l.79-.3.19-.06v.08c0,.43,0,.82,0,1.21a2.24,2.24,0,0,0,2.17,2.21,2.42,2.42,0,0,0,1.65-.65,2,2,0,0,0,.63-1.42c0-.58,0-1.17,0-1.76a64.06,64.06,0,0,0-.12-6.78A8,8,0,0,0,37.87,22l-4.31-.75-1-.18a2.25,2.25,0,0,0-2.68,1.83,2.21,2.21,0,0,0,1.83,2.57l3.08.55,2.38.43a3.77,3.77,0,0,1,3.23,3.81c0,1.21,0,1.21-1.12,1.63l-1.44.54c-1,.38-2,.77-3.06,1.12a8.28,8.28,0,0,1-5.78-.1L8.81,26,5,24.54l24-8.89a8.52,8.52,0,0,1,6.07,0l21.82,8.09,2.23.83L48.77,28.35A2.36,2.36,0,0,0,47.1,31C47.12,31.18,47.14,31.37,47.14,31.56Z"/></svg>