<svg width="32" height="32" viewBox="0 0 32 32" fill="none" xmlns="http://www.w3.org/2000/svg">
<path d="M17.9998 16.0013C19.1109 16.0013 20.0443 15.6235 20.7998 14.868C21.5554 14.1124 21.9332 13.1791 21.9332 12.068C21.9332 10.9569 21.5554 10.0235 20.7998 9.26797C20.0443 8.51241 19.1109 8.13464 17.9998 8.13464C16.8887 8.13464 15.9554 8.51241 15.1998 9.26797C14.4443 10.0235 14.0665 10.9569 14.0665 12.068C14.0665 13.1791 14.4443 14.1124 15.1998 14.868C15.9554 15.6235 16.8887 16.0013 17.9998 16.0013ZM8.6665 25.3346C8.13317 25.3346 7.6665 25.1346 7.2665 24.7346C6.8665 24.3346 6.6665 23.868 6.6665 23.3346V4.66797C6.6665 4.13464 6.8665 3.66797 7.2665 3.26797C7.6665 2.86797 8.13317 2.66797 8.6665 2.66797H27.3332C27.8665 2.66797 28.3332 2.86797 28.7332 3.26797C29.1332 3.66797 29.3332 4.13464 29.3332 4.66797V23.3346C29.3332 23.868 29.1332 24.3346 28.7332 24.7346C28.3332 25.1346 27.8665 25.3346 27.3332 25.3346H8.6665ZM4.6665 29.3346C4.13317 29.3346 3.6665 29.1346 3.2665 28.7346C2.8665 28.3346 2.6665 27.868 2.6665 27.3346V9.33464C2.6665 9.04575 2.76095 8.80686 2.94984 8.61797C3.13873 8.42908 3.37762 8.33464 3.6665 8.33464C3.95539 8.33464 4.19428 8.42908 4.38317 8.61797C4.57206 8.80686 4.6665 9.04575 4.6665 9.33464V27.3346H22.6665C22.9554 27.3346 23.1943 27.4291 23.3832 27.618C23.5721 27.8069 23.6665 28.0457 23.6665 28.3346C23.6665 28.6235 23.5721 28.8624 23.3832 29.0513C23.1943 29.2402 22.9554 29.3346 22.6665 29.3346H4.6665ZM8.6665 23.3346H27.3332C26.0221 21.6902 24.5221 20.5013 22.8332 19.768C21.1443 19.0346 19.5332 18.668 17.9998 18.668C16.4665 18.668 14.8554 19.0346 13.1665 19.768C11.4776 20.5013 9.97762 21.6902 8.6665 23.3346Z" fill="#784ED1"/>
</svg>
