<svg width="19" height="17" viewBox="0 0 19 17" fill="none" xmlns="http://www.w3.org/2000/svg">
<path d="M2.28419 16.625H16.7167C18.1925 16.625 19.1125 15.0246 18.3746 13.75L11.1584 1.28211C10.4204 0.00752604 8.58044 0.00752604 7.84253 1.28211L0.626275 13.75C-0.111642 15.0246 0.808358 16.625 2.28419 16.625ZM9.50044 9.91669C8.97336 9.91669 8.54211 9.48544 8.54211 8.95836V7.04169C8.54211 6.51461 8.97336 6.08336 9.50044 6.08336C10.0275 6.08336 10.4588 6.51461 10.4588 7.04169V8.95836C10.4588 9.48544 10.0275 9.91669 9.50044 9.91669ZM10.4588 13.75H8.54211V11.8334H10.4588V13.75Z" fill="#FFCE1F"/>
</svg>
