<svg xmlns="http://www.w3.org/2000/svg" xmlns:xlink="http://www.w3.org/1999/xlink" width="181.431" height="61.502" xmlns:v="https://vecta.io/nano"><path d="M181.4 53.179c.077 4.515-3.517 8.239-8.032 8.323H8.032C3.517 61.419-.077 57.694 0 53.179V8.323C-.077 3.808 3.517.084 8.032 0H173.4c4.515.083 8.109 3.808 8.032 8.323V53.18z"/><g fill="#fff"><path d="M45.765 36.991a29.04 29.04 0 0 1-2.386 4.489c-1.57 2.386-3.767 5.336-6.466 5.336-2.417.031-3.045-1.569-6.31-1.569-3.265.031-3.955 1.569-6.372 1.569-2.731-.031-4.8-2.7-6.372-5.054-4.363-6.624-4.8-14.408-2.135-18.552 1.65-2.743 4.557-4.485 7.754-4.646 2.888 0 4.709 1.57 7.094 1.57 2.323 0 3.735-1.57 7.063-1.57 2.8.137 5.397 1.504 7.094 3.735a8.09 8.09 0 0 0 1.036 14.692zm-10.703-21.09a7.99 7.99 0 0 0 1.789-6 8.62 8.62 0 0 0-5.65 3.045 7.57 7.57 0 0 0-1.852 5.839 7.18 7.18 0 0 0 5.713-2.884zm25.957 8.717l-6.978 20.513h3.191l2.069-6.312h6.732l2.139 6.312h3.3l-7.013-20.513zm1.648 3.366l.806 2.91 1.894 5.435h-5.326l1.858-5.47.768-2.875zm17.813 1.964a5.78 5.78 0 0 0-4.944 2.385l-.14-2.034H72.59v.246l.105 4.664v15.814h3.121v-7.364a5.4 5.4 0 0 0 4.243 1.823 6.36 6.36 0 0 0 4.7-2 8.44 8.44 0 0 0 2.069-5.961 8.31 8.31 0 0 0-1.788-5.435c-1.114-1.372-2.793-2.159-4.56-2.138zm-.771 2.56c2.77 0 4 2.56 4 5.119 0 3.261-1.578 5.295-4.138 5.295a3.75 3.75 0 0 1-3.647-2.875 4.14 4.14 0 0 1-.105-1.017v-2.49c.005-.26.04-.519.105-.771 0-.07.035-.175.035-.245.43-1.733 1.964-2.967 3.749-3.016zm16.761-2.56a5.78 5.78 0 0 0-4.944 2.385l-.14-2.034h-2.841v.246l.105 4.664v15.814h3.121v-7.364a5.4 5.4 0 0 0 4.243 1.823 6.36 6.36 0 0 0 4.7-2 8.44 8.44 0 0 0 2.069-5.961 8.31 8.31 0 0 0-1.788-5.435 5.67 5.67 0 0 0-4.525-2.138zm-.771 2.56c2.77 0 4 2.56 4 5.119 0 3.261-1.578 5.295-4.138 5.295a3.78 3.78 0 0 1-3.647-2.875 4.14 4.14 0 0 1-.105-1.017v-2.49a3.36 3.36 0 0 1 .105-.771c0-.07.035-.175.035-.245.421-1.739 1.96-2.978 3.749-3.016zm20.793.806c-2.91-1.122-3.822-2-3.822-3.647 0-1.367 1.087-2.77 3.542-2.77a7.19 7.19 0 0 1 3.647.912l.281.175.877-2.595-.175-.105a8.88 8.88 0 0 0-4.523-1.017c-3.962 0-6.732 2.349-6.732 5.68 0 2.7 1.718 4.594 5.435 5.926 2.63.982 3.612 2 3.612 3.717 0 1.964-1.508 3.156-3.962 3.156a8.57 8.57 0 0 1-4.488-1.262l-.281-.175-.842 2.665.14.105a10.69 10.69 0 0 0 5.26 1.332c5.33 0 7.223-3.261 7.223-6.031.032-2.84-1.475-4.594-5.192-6.066zm10.835-6.592l-3.051.947v2.595h-2.244v2.49h2.244v7.609a5.72 5.72 0 0 0 1.087 3.927c.789.81 1.887 1.244 3.016 1.192a7.1 7.1 0 0 0 2.384-.386l.175-.07-.14-2.49-.281.105a5.16 5.16 0 0 1-1.438.175c-1.192 0-1.718-.771-1.718-2.56v-7.5h3.752v-2.49h-3.751v-3.544zm11.431 3.226c-4.348 0-7.364 3.226-7.364 7.89 0 4.489 2.945 7.644 7.153 7.644h.035c3.542 0 7.364-2.49 7.364-7.925a7.9 7.9 0 0 0-1.964-5.505 7.08 7.08 0 0 0-5.224-2.104zm-.105 2.455c2.805 0 4.068 2.735 4.068 5.26 0 3.121-1.718 5.365-4.138 5.365h-.035c-2.349 0-4.067-2.209-4.067-5.295.034-2.666 1.331-5.33 4.171-5.33zm16.76-2.315l-.175-.035a2.92 2.92 0 0 0-.771-.105c-1.662.033-3.165.995-3.892 2.49l-.105-2.174h-2.771l.035.245.105 4.453-.035 10.134h3.121v-7.925a12.14 12.14 0 0 1 .07-1.192 3.44 3.44 0 0 1 3.261-3.121l.842.035.316.035zm6.978-.176c-4.138 0-7.013 3.3-7.013 8.03 0 4.558 2.875 7.5 7.328 7.5 1.685.034 3.358-.289 4.909-.947l.175-.07-.6-2.314-.245.105a9.45 9.45 0 0 1-3.892.7 4.35 4.35 0 0 1-3.335-1.202c-.891-.856-1.374-2.051-1.329-3.286l10.029.035.035-.21a6.18 6.18 0 0 0 .105-1.3c.004-3.254-1.608-7.041-6.167-7.041zm-.175 2.349c.85-.046 1.679.273 2.279.877a4.36 4.36 0 0 1 1.052 2.875h-7.083c.28-1.788 1.402-3.752 3.752-3.752zM54.041 10.627a24.28 24.28 0 0 1 2.98-.21 6.82 6.82 0 0 1 4.383 1.192 4.26 4.26 0 0 1 1.543 3.506 5.01 5.01 0 0 1-1.543 3.787c-1.372 1.021-3.063 1.517-4.769 1.4-1.017 0-1.823-.035-2.56-.105v-9.57zm1.4 8.591c.464.063.932.086 1.4.07 2.981 0 4.594-1.508 4.594-4.1 0-2.314-1.438-3.752-4.383-3.752a8.96 8.96 0 0 0-1.648.14v7.641zm12.486 1.123a3.5 3.5 0 0 1-3.717-3.577c-.034-1.021.367-2.007 1.102-2.716s1.736-1.072 2.755-1.001a3.46 3.46 0 0 1 3.717 3.577 3.63 3.63 0 0 1-3.857 3.717zm.035-.947a2.48 2.48 0 0 0 2.349-2.735 2.37 2.37 0 1 0-4.7.035c-.065.674.15 1.344.595 1.855s1.078.816 1.754.845zm6.031-6.172l1.052 3.542.561 2.244h.035a22.63 22.63 0 0 1 .7-2.209l1.262-3.542h1.192l1.192 3.471.7 2.279h.035c.14-.7.351-1.437.6-2.279l1.087-3.506h1.4l-2.49 6.978h-1.3l-1.192-3.331-.7-2.314h-.035a14.83 14.83 0 0 1-.7 2.314l-1.262 3.3h-1.3l-2.345-6.982h1.508z"/><use xlink:href="#B"/><path d="M94.085 9.961h1.4V20.2h-1.4zm6.908 10.38a3.5 3.5 0 0 1-3.717-3.577c-.034-1.021.367-2.007 1.102-2.716s1.736-1.072 2.755-1.001a3.46 3.46 0 0 1 3.717 3.577 3.61 3.61 0 0 1-3.857 3.717zm.07-.947a2.48 2.48 0 0 0 2.349-2.735c-.192-1.249-1.329-2.129-2.587-2.001s-2.194 1.219-2.131 2.481 1.105 2.254 2.368 2.255zm11.044-.877a12.46 12.46 0 0 0 .105 1.683h-1.262l-.14-.877h-.035c-.589.701-1.469 1.089-2.384 1.052-.586.076-1.178-.097-1.631-.477s-.726-.932-.753-1.523c0-1.683 1.648-2.595 4.664-2.595v-.14c0-.561-.175-1.613-1.753-1.613a3.9 3.9 0 0 0-2.034.526l-.316-.842c.793-.403 1.671-.609 2.56-.6 2.384 0 2.945 1.438 2.945 2.84v2.566zm-1.4-1.893c-1.543-.035-3.3.21-3.3 1.578-.017.343.118.677.368.913s.59.351.932.314c.813.056 1.572-.408 1.893-1.157a1.76 1.76 0 0 0 .07-.421v-1.227zm10.342-6.663v8.416c-.015.597.008 1.194.07 1.788h-1.262l-.07-1.227h-.035a2.91 2.91 0 0 1-2.63 1.368 3.34 3.34 0 0 1-3.331-3.542 3.49 3.49 0 0 1 3.471-3.752c.911-.072 1.796.324 2.349 1.052h.035V9.926h1.4zm-1.4 6.1c.011-.19-.012-.38-.07-.561-.265-.891-1.105-1.485-2.034-1.438a2.37 2.37 0 0 0-2.314 2.665 2.3 2.3 0 0 0 2.279 2.595c.955.033 1.809-.589 2.069-1.508.043-.184.066-.372.07-.561zm10.272 4.28a3.5 3.5 0 0 1-3.717-3.577c-.034-1.021.367-2.007 1.102-2.716s1.736-1.072 2.755-1.001a3.46 3.46 0 0 1 3.717 3.577 3.61 3.61 0 0 1-3.857 3.717zm.035-.947a2.48 2.48 0 0 0 2.348-2.735 2.37 2.37 0 1 0-4.7.035 2.49 2.49 0 0 0 2.349 2.7z"/><use xlink:href="#B" x="50.353"/><path d="M149.522 11.539v1.683h2.034v.982h-2.034v3.752c0 .876.28 1.368 1.052 1.368a4.26 4.26 0 0 0 .807-.07l.07.982c-.411.113-.836.172-1.262.175a2.11 2.11 0 0 1-1.508-.526 2.53 2.53 0 0 1-.561-1.823v-3.787h-1.193v-.982h1.192v-1.3zm3.612-1.578h1.4v4.348h.035a2.1 2.1 0 0 1 1.017-.877 2.82 2.82 0 0 1 1.438-.351c1.052 0 2.7.561 2.7 2.98v4.138h-1.4v-4c0-1.122-.456-2.069-1.788-2.069a2.02 2.02 0 0 0-1.893 1.262 1.51 1.51 0 0 0-.105.6V20.2h-1.4zm9.675 6.943a2.35 2.35 0 0 0 .759 1.814c.506.465 1.189.686 1.871.605a5.94 5.94 0 0 0 2.139-.351l.245.877c-.826.322-1.708.477-2.595.456-2.384 0-3.822-1.438-3.822-3.507a3.57 3.57 0 0 1 3.647-3.787 3.06 3.06 0 0 1 3.191 3.3 2.85 2.85 0 0 1-.035.6zm4.138-.877c.052-.539-.129-1.074-.498-1.469a1.89 1.89 0 0 0-1.431-.6 2.24 2.24 0 0 0-2.174 2.069z"/></g><defs ><path id="B" d="M85.213 15.116c.014-.632-.009-1.264-.07-1.893h1.262l.07 1.122h.035a3 3 0 0 1 2.56-1.3 2.64 2.64 0 0 1 2.735 2.98v4.173h-1.4v-4.032c0-1.122-.456-2.069-1.788-2.069-.84-.004-1.595.514-1.893 1.3a1.64 1.64 0 0 0-.105.6v4.208h-1.4z"/></defs></svg>