<svg xmlns="http://www.w3.org/2000/svg" width="71.523" height="72.206" viewBox="0 0 71.523 72.206"><g transform="translate(-1250 -435)"><g transform="translate(1254.897 439.898)"><rect width="62.361" height="62.361" transform="translate(0)" fill="rgba(0,0,0,0)"/><path d="M31.88,41.444a2.538,2.538,0,0,1-1.816-.755L24.771,35.3a2.582,2.582,0,0,1,0-3.586l.025-.025a2.523,2.523,0,0,1,1.8-.754,2.454,2.454,0,0,1,1.78.754l3.5,3.532L43.2,23.722a2.529,2.529,0,0,1,3.605,0l.025.025a2.582,2.582,0,0,1,0,3.586L33.694,40.689A2.532,2.532,0,0,1,31.88,41.444Zm-8.871-.187H0V36.1c0-2.112,1.33-5.168,7.666-7.728A37.67,37.67,0,0,1,20.45,25.785a23.177,23.177,0,0,1,2.559.156L20.86,28.055a7.774,7.774,0,0,0-.051,10.984L23,41.253ZM20.45,20.629A10.315,10.315,0,1,1,30.678,10.316,10.281,10.281,0,0,1,20.45,20.629Z" transform="translate(7.89 10.786)" fill="#00aea4"/></g><g transform="translate(1251 436)"><path d="M-8802-909.684v-15.64h16.257" transform="translate(8802 925.324)" fill="none" stroke="#925dff" stroke-linecap="round" stroke-width="2"/><path d="M-8802-925.324v15.64h16.257" transform="translate(8802 979.89)" fill="none" stroke="#925dff" stroke-linecap="round" stroke-width="2"/><path d="M-8785.744-909.684v-15.64H-8802" transform="translate(8855.268 925.324)" fill="none" stroke="#925dff" stroke-linecap="round" stroke-width="2"/><path d="M-8785.744-925.324v15.64H-8802" transform="translate(8855.268 979.89)" fill="none" stroke="#925dff" stroke-linecap="round" stroke-width="2"/></g></g></svg>