<svg width="20" height="20" viewBox="0 0 20 20" fill="none" xmlns="http://www.w3.org/2000/svg">
<path d="M10 0.0195312C4.49002 0.0195312 0.0200195 4.48953 0.0200195 9.99953C0.0200195 15.5095 4.49002 19.9795 10 19.9795C15.51 19.9795 19.98 15.5095 19.98 9.99953C19.98 4.48953 15.51 0.0195312 10 0.0195312ZM9.48002 15.8795V11.7395H6.82002C6.45002 11.7395 6.20002 11.3395 6.38002 11.0095L10.06 3.83953C10.29 3.36953 11 3.53953 11 4.06953V8.25953H13.54C13.91 8.25953 14.15 8.64953 13.99 8.97953L10.43 16.0995C10.19 16.5795 9.48002 16.4095 9.48002 15.8795V15.8795Z" fill="#85888f"/>
</svg>
