<svg width="82" height="82" viewBox="0 0 82 82" fill="none" xmlns="http://www.w3.org/2000/svg">
<circle cx="40.9996" cy="40.6246" r="40.6246" fill="#F6F2FF"/>
<mask id="mask0_277_7146" style="mask-type:alpha" maskUnits="userSpaceOnUse" x="2" y="2" width="78" height="77">
<circle cx="40.9981" cy="40.6241" r="38.2403" fill="white"/>
</mask>
<g mask="url(#mask0_277_7146)">
<path fill-rule="evenodd" clip-rule="evenodd" d="M36.4365 26.364L36.4365 24.3732C36.4365 21.9536 38.398 19.9922 40.8175 19.9922C43.2371 19.9922 45.1985 21.9536 45.1985 24.3732V26.364H47.3487C49.7683 26.364 51.7297 28.3255 51.7297 30.7451C51.7297 33.1646 49.7683 35.1261 47.3487 35.1261H34.2853C31.8657 35.1261 29.9043 33.1646 29.9043 30.7451C29.9043 28.3255 31.8657 26.364 34.2853 26.364H36.4365Z" fill="url(#paint0_linear_277_7146)"/>
<path fill-rule="evenodd" clip-rule="evenodd" d="M28.3074 31.0652C19.2638 32.9839 12.4785 41.0144 12.4785 50.6297V67.1189C12.4785 78.1646 21.4328 87.1189 32.4785 87.1189H49.7014C60.7471 87.1189 69.7014 78.1646 69.7014 67.1189V50.6296C69.7014 40.8137 62.6299 32.6493 53.3034 30.9531C53.3523 31.2352 53.3778 31.5254 53.3778 31.8215C53.3778 34.607 51.1197 36.8652 48.3341 36.8652H33.2948C30.5092 36.8652 28.2511 34.607 28.2511 31.8215C28.2511 31.5645 28.2703 31.3119 28.3074 31.0652Z" fill="url(#paint1_linear_277_7146)"/>
<rect x="22.9316" y="42.367" width="35.9477" height="7.88649" rx="3.94325" fill="white"/>
<rect x="26.2324" y="57.2232" width="27.1442" height="2.20088" rx="1.10044" fill="white"/>
<circle cx="24.0321" cy="58.3236" r="1.10044" fill="white"/>
<rect x="26.2324" y="66.3911" width="18.7075" height="2.20088" rx="1.10044" fill="white"/>
<circle cx="24.0321" cy="67.4915" r="1.10044" fill="white"/>
<circle cx="54.6609" cy="14.3058" r="3.11792" fill="url(#paint2_linear_277_7146)"/>
<circle cx="21.7402" cy="20.9998" r="1.92577" transform="rotate(-90 21.7402 20.9998)" fill="url(#paint3_linear_277_7146)"/>
<circle cx="65.9414" cy="26.3175" r="1.92577" transform="rotate(-90 65.9414 26.3175)" fill="url(#paint4_linear_277_7146)"/>
</g>
<defs>
<linearGradient id="paint0_linear_277_7146" x1="40.817" y1="19.9922" x2="40.817" y2="35.1261" gradientUnits="userSpaceOnUse">
<stop stop-color="#9371DA"/>
<stop offset="1" stop-color="#EFE7FF"/>
</linearGradient>
<linearGradient id="paint1_linear_277_7146" x1="16.8803" y1="35.1473" x2="52.0666" y2="95.6834" gradientUnits="userSpaceOnUse">
<stop stop-color="#EFE7FF"/>
<stop offset="1" stop-color="#9371DA"/>
</linearGradient>
<linearGradient id="paint2_linear_277_7146" x1="54.6609" y1="11.1879" x2="54.6609" y2="17.4237" gradientUnits="userSpaceOnUse">
<stop stop-color="#EFE7FF"/>
<stop offset="1" stop-color="#9371DA"/>
</linearGradient>
<linearGradient id="paint3_linear_277_7146" x1="21.7402" y1="19.074" x2="21.7402" y2="22.9255" gradientUnits="userSpaceOnUse">
<stop stop-color="#EFE7FF"/>
<stop offset="1" stop-color="#9371DA"/>
</linearGradient>
<linearGradient id="paint4_linear_277_7146" x1="65.9414" y1="24.3918" x2="65.9414" y2="28.2433" gradientUnits="userSpaceOnUse">
<stop stop-color="#D3BDFF"/>
<stop offset="1" stop-color="#9371DA"/>
</linearGradient>
</defs>
</svg>
