<svg xmlns="http://www.w3.org/2000/svg" xmlns:xlink="http://www.w3.org/1999/xlink" width="110.011" height="118.469" viewBox="0 0 110.011 118.469"><defs><linearGradient id="a" x1="0.5" x2="0.5" y2="1" gradientUnits="objectBoundingBox"><stop offset="0" stop-color="#f4f0fd"/><stop offset="1" stop-color="#fff"/></linearGradient></defs><g transform="translate(-781 -629)"><g transform="translate(781 629)"><circle cx="55.006" cy="55.006" r="55.006" transform="translate(0 0)" fill="url(#a)"/></g><g transform="translate(799.395 651.946)"><path d="M4757.515-1799.28l40.561-6.208,1.73,1.91-.531,17.875,1.912,1.476.476,28.047-.515,2.2h-2.27l-42.675-7.052-2.826-3.644.393-33.447Z" transform="translate(-4753.36 1848.555)" fill="#d3bdff"/><path d="M4781.328-1797.847l8.829,1.181,3.868,2.379,1.91,5.109s-.031,4.878-.213,5.287-.376,1.117-1.346.216a11.008,11.008,0,0,0-4.22-2.354c-3.489-1.025-8.454-.433-8.454-.433Z" transform="translate(-4736.44 1853.246)" fill="#d3bdff"/><path d="M4754.26-1798.208l2.192,3.485a2.189,2.189,0,0,0,.67.877,2.927,2.927,0,0,0,1.138.408l41.7,7.572a2.862,2.862,0,0,1,1.474,1.073,4.022,4.022,0,0,1,.355,2.006v27.936a1.877,1.877,0,0,1-.783,1.077,3.189,3.189,0,0,1-1.571.194l-41.573-7.239a3.981,3.981,0,0,1-1.9-.773,9.878,9.878,0,0,1-1.805-2.021,2.771,2.771,0,0,1-.49-.9,4.616,4.616,0,0,1-.15-1.192v-30.5a3.533,3.533,0,0,1,.743-2.328,4.667,4.667,0,0,1,2.506-.944l40.66-5.981a2.789,2.789,0,0,1,1.937.541,3.463,3.463,0,0,1,.613,2.073l-.02,16.84" transform="translate(-4753.516 1848.569)" fill="none" stroke="#784ed1" stroke-width="1"/><path d="M4795.215-1785.787s.754-6.03-2.412-9.045-10.251-3.015-10.251-3.015" transform="translate(-4735.688 1853.246)" fill="none" stroke="#784ed1" stroke-linecap="round" stroke-width="1"/><path d="M4755.447-1798.556v19.477" transform="translate(-4752.329 1852.811)" fill="none" stroke="#784ed1" stroke-linecap="round" stroke-width="1"/><path d="M4769.577-1801.027l-22.716,3.878" transform="translate(-4734.079 1849.363)" fill="none" stroke="#784ed1" stroke-linecap="round" stroke-width="1"/><path d="M4769.577-1801.027l-22.716,3.878" transform="translate(-4734.079 1853.241)" fill="none" stroke="#784ed1" stroke-linecap="round" stroke-width="1"/><path d="M4755.447-1783.768v2.9" transform="translate(-4752.329 1861.89)" fill="none" stroke="#784ed1" stroke-linecap="round" stroke-width="1"/><path d="M4759.456-1782.368a2.732,2.732,0,0,0-2.471-1.875c-1.875,0-2.174,2.088-2.174,2.088" transform="translate(-4717.213 1861.896)" fill="none" stroke="#784ed1" stroke-linecap="round" stroke-width="1"/><path d="M4756.151-1783.8l-.725,2.643" transform="translate(-4686.17 1797.313)" fill="none" stroke="#784ed1" stroke-linecap="round" stroke-width="1"/><path d="M4774.756-1776.773s-10.5-9.448-11.32-22.62,1.613-24.5,9.373-29.944,16.8-2.556,21.666,4.5-.608,12.416-.608,12.416" transform="translate(-4747.518 1832.172)" fill="none" stroke="#784ed1" stroke-linecap="round" stroke-width="1"/><path d="M4781.377-1816.387s-5.431,8.895,3.276,12.827,13.766-3.464,16.012-5.805,5.057-10.955,5.057-10.955" transform="translate(-4737.437 1839.449)" fill="none" stroke="#784ed1" stroke-linecap="round" stroke-width="1"/><path d="M0,4.237A11.1,11.1,0,0,0,2.414,2.32,6.812,6.812,0,0,0,3.7,0" transform="translate(69.033 5.764) rotate(-7)" fill="none" stroke="#784ed1" stroke-linecap="round" stroke-width="1.2"/><path d="M4797.575-1825.788c-.952.5-2.518.542-2.9-.126s1.69-1.841,1.69-1.841-1.539-2.85.252-3.455,1.866,3.279,1.866,3.279S4798.526-1826.293,4797.575-1825.788Z" transform="translate(-4728.612 1833.052)" fill="#784ed1" stroke="#784ed1" stroke-width="1"/></g></g></svg>
