<svg xmlns="http://www.w3.org/2000/svg" xmlns:xlink="http://www.w3.org/1999/xlink" width="24" height="24" viewBox="0 0 24 24"><defs><clipPath id="a"><circle cx="12" cy="12" r="12" transform="translate(630)" fill="#fff"/></clipPath></defs><g transform="translate(-630)" clip-path="url(#a)"><g transform="translate(629 -1.333)"><path d="M0,24H24V0H0Z" transform="translate(0 1.333)" fill="#f8f9fd"/><path d="M13.987,7h-1.6l.013.44a4.465,4.465,0,0,1-.813,2.64,2.783,2.783,0,0,1-.787.707V7H9.2v3.787a2.653,2.653,0,0,1-.787-.707A4.427,4.427,0,0,1,7.613,7h-1.6L6,7.44c0,2.76,1.76,4.893,4,4.893s4-2.147,4-4.893Z" transform="translate(2 3.667)" fill="#ef5350"/><path d="M0,21H24V13H0Z" transform="translate(0 5.667)" fill="#ef5350"/><path d="M0,7H24V-1H0Z" transform="translate(0 1)" fill="#4caf50"/></g></g></svg>