<svg xmlns="http://www.w3.org/2000/svg" width="21" height="25" stroke="none" stroke-linecap="round" stroke-linejoin="round" fill="#15d1c6" fill-rule="nonzero"><path d="M19.0322 10.9088H7.175l2.864-3.2287c.3777-.4255.3777-1.1165 0-1.5426s-.9904-.4259-1.3685 0l-4.5159 5.0909c-.378.4257-.378 1.1166 0 1.5427l4.5159 5.0909c.1891.2129.4365.3198.6842.3198s.4955-.1069.6841-.3196c.3779-.4264.3779-1.1169 0-1.5428l-2.8641-3.2286h11.8575c.5344 0 .968-.4888.968-1.0912s-.4336-1.0908-.968-1.0908zM9.3551 21.8179H1.9352V2.1821h7.4199c.5341 0 .9677-.4886.9677-1.091S9.8892 0 9.3551 0H.9677C.4332 0 0 .4881 0 1.0911v21.8184C0 23.5119.4332 24 .9677 24h8.3874c.5341 0 .9677-.4881.9677-1.0905s-.4336-1.0916-.9677-1.0916z"/></svg>

