<svg id="Layer_1" data-name="Layer 1" xmlns="http://www.w3.org/2000/svg" viewBox="0 0 64 64"><defs><style>.cls-1{fill:#212121;}</style></defs><path class="cls-1" d="M57.93,9.76c0-2.12-1-3.1-3.1-3.1H51.25V5.23c0-.9,0-1.8,0-2.7a2.6,2.6,0,0,0-.93-2A2.65,2.65,0,0,0,48.16,0L37.45,1.82,8.64,6.63a2.66,2.66,0,0,0-2.56,3V61c0,2,1,3,3,3H54.84c2.13,0,3.09-1,3.09-3.1Zm-6.68,2.08h1.5v47H40.09l8.85-1.47a2.57,2.57,0,0,0,2.31-2.6,5.61,5.61,0,0,0,0-.58ZM46.11,52.57a1.22,1.22,0,0,1-.25.07c-4.54.73-9.07,1.49-13.6,2.25l-21,3.5v-7q0-19.8,0-39.58c0-.27,0-.32,0-.32s0,0,.29-.09c4.64-.75,9.28-1.53,13.92-2.3L46.11,5.61a.37.37,0,0,1,0,.11v8.87q0,18.86,0,37.71a.72.72,0,0,1,0,.27Z"/><path class="cls-1" d="M39.27,13.89h0l-.15,0-.51.07-9.52,1.47L17.58,17.24a2.54,2.54,0,0,0-2.2,3,2.45,2.45,0,0,0,1,1.66,2.64,2.64,0,0,0,1.51.46,3.73,3.73,0,0,0,.46,0L33.26,20l1.11-.17c1.86-.28,3.72-.57,5.58-.9a2.48,2.48,0,0,0,2-2.85A2.59,2.59,0,0,0,39.27,13.89Z"/></svg>