<svg xmlns="http://www.w3.org/2000/svg" width="44" height="44" viewBox="0 0 44 44"><g transform="translate(-0.5 -0.5)"><rect width="44" height="44" transform="translate(0.5 0.5)" fill="none"/><g transform="translate(4.813 5.5)"><path d="M28.618,21.795a13.16,13.16,0,0,1-.584,3.907,5.322,5.322,0,0,0-1.91-.342,5.705,5.705,0,0,0-5.575,4.518L16.5,21.551V8.65A13.181,13.181,0,0,1,28.618,21.795Z" transform="translate(1.907 -8.65)" fill="#d3bdff"/><path d="M21.928,8.65V20.725H9.853A13.186,13.186,0,0,1,21.928,8.65Z" transform="translate(-5.891 -8.65)" fill="#d3bdff"/><path d="M27.773,26.516a12.894,12.894,0,0,1-4.775.9,13.174,13.174,0,0,1-5.66-1.268,5.582,5.582,0,0,0,.669-2.652,5.7,5.7,0,0,0-5.7-5.7,5.322,5.322,0,0,0-1.91.342A12.345,12.345,0,0,1,9.853,15.3H22.326Z" transform="translate(-5.891 -0.933)" fill="#d3bdff"/><g transform="translate(0 19.069)"><circle cx="3.565" cy="3.565" r="3.565" transform="translate(2.85)" fill="#5e35b1"/><path d="M16.911,21.463H11.92A3.925,3.925,0,0,0,8,25.385V26.1a1.07,1.07,0,0,0,1.069,1.069H19.761A1.07,1.07,0,0,0,20.83,26.1v-.712A3.925,3.925,0,0,0,16.911,21.463Z" transform="translate(-8 -12.91)" fill="#5e35b1"/><circle cx="3.565" cy="3.565" r="3.565" transform="translate(24.465)" fill="#5e35b1"/><path d="M26.909,21.463H21.921A3.923,3.923,0,0,0,18,25.383v.712a1.07,1.07,0,0,0,1.069,1.069H29.762a1.07,1.07,0,0,0,1.069-1.069v-.712A3.928,3.928,0,0,0,26.909,21.463Z" transform="translate(3.616 -12.91)" fill="#5e35b1"/></g></g></g></svg>