<svg xmlns="http://www.w3.org/2000/svg" viewBox="0 0 123.88 117.44"><defs><style>.cls-1{fill:#ccbee6;}.cls-2{fill:#fff;}</style></defs><g id="Layer_2" data-name="Layer 2"><g id="Layer_1-2" data-name="Layer 1"><path class="cls-1" d="M101.92,59.38a89.58,89.58,0,0,1-2.54,22.07,52.73,52.73,0,0,1-7.61,17.27A35.65,35.65,0,0,1,79.29,110a33.51,33.51,0,0,1-12,3.69C56,103.35,60.78,74.39,72.72,73c-5.19,14.19,1.47,22.92,7.1,23.42,11.78,1.06,22.7-18.77,21.93-43C101.87,55.38,101.92,57.36,101.92,59.38Z"/><path class="cls-2" d="M108.6,98.89c-12.09,13.3-29.83,21.23-38.35,16.89a12.24,12.24,0,0,1-3-2.12,33.51,33.51,0,0,0,12-3.69A35.65,35.65,0,0,0,91.77,98.72a52.73,52.73,0,0,0,7.61-17.27,89.58,89.58,0,0,0,2.54-22.07c0-2,0-4-.17-6v-.07a75.53,75.53,0,0,0-1.21-11.3C97.45,25.05,87.92,5.11,79,0a48,48,0,0,1,6.26,2.12.46.46,0,0,1,.26.1,64,64,0,0,1,34.34,34.69C128,57.07,123.57,82.49,108.6,98.89Z"/><path class="cls-1" d="M51.16,44.42C56.35,30.26,49.7,21.54,44.06,21c-11.38-1-22,17.47-22,40.55,0-.73,0-1.45,0-2.2a90.86,90.86,0,0,1,2.6-22.33,55.13,55.13,0,0,1,7.69-17.68A37.27,37.27,0,0,1,44.85,7.71,32.57,32.57,0,0,1,56.77,3.88C67.86,14.31,63.06,43.05,51.16,44.42Z"/><path class="cls-2" d="M44.92,117.44c-1.46-.41-2.91-.84-4.3-1.32l-.38-.15c-.28-.09-.58-.21-.88-.33s-.58-.25-.89-.37A64.31,64.31,0,0,1,4.06,80.54C-2.15,65.24-1.1,46.93,6.3,31.82c.28-.6.58-1.18.88-1.75.63-1.16,1.28-2.32,2-3.43a69.18,69.18,0,0,1,4.3-6c.52-.62,1-1.25,1.61-1.88a1.8,1.8,0,0,1,.19-.21l.27-.32C27.67,5.13,45.2-2.65,53.63,1.64a13.48,13.48,0,0,1,3.14,2.24A32.57,32.57,0,0,0,44.85,7.71,37.27,37.27,0,0,0,32.33,19.37a55.13,55.13,0,0,0-7.69,17.68A90.86,90.86,0,0,0,22,59.38c0,.75,0,1.47,0,2.2s0,1.3.05,2a66.89,66.89,0,0,0,.56,7.39c.07.8.19,1.57.32,2.36s.21,1.38.33,2.08c.05.31.12.62.19.94.3,1.75.7,3.46,1.11,5.15s.91,3.28,1.45,4.84a2.7,2.7,0,0,0,.16.48C30.58,100.41,37.94,113.44,44.92,117.44Z"/></g></g></svg>