<svg xmlns="http://www.w3.org/2000/svg" width="46" height="46" viewBox="0 0 46 46"><rect width="46" height="46" fill="none"/><g transform="translate(7.416 7.416)"><path d="M23.967,15.333A8.633,8.633,0,1,0,32.6,23.967,8.644,8.644,0,0,0,23.967,15.333Zm4.319,6.52-4.648,5.313a1.324,1.324,0,0,1-.956.452h-.044a1.329,1.329,0,0,1-.938-.388l-2.656-2.656A1.328,1.328,0,1,1,20.923,22.7l1.652,1.651L26.288,20.1a1.328,1.328,0,1,1,2,1.751Z" transform="translate(-0.724 -0.724)" fill="#5e35b1"/><path d="M30.153,12.024,19.527,8.04a.729.729,0,0,0-.478,0L8.422,12.024A.665.665,0,0,0,8,12.648v8.54C8,33.3,19.037,35.851,19.144,35.876a.765.765,0,0,0,.291,0,9.177,9.177,0,0,0,1.341-.424,11.139,11.139,0,0,1-.823-4.209A11.3,11.3,0,0,1,30.579,19.967V12.65a.669.669,0,0,0-.426-.626Z" transform="translate(-8 -8)" fill="#d3bdff"/></g></svg>