<svg xmlns="http://www.w3.org/2000/svg" width="43" height="43" viewBox="0 0 43 43"><g transform="translate(-0.242 -0.242)"><rect width="43" height="43" transform="translate(0.242 0.242)" fill="none"/><path d="M14,15h-.667A.335.335,0,0,1,13,14.67V11.332A.335.335,0,0,1,13.334,11H14a.335.335,0,0,1,.334.334v3.337A.335.335,0,0,1,14,15Z" transform="translate(2.445 0.442)" fill="#5e35b1"/><path d="M31.017,18H29.349V15a.988.988,0,0,0-.615-.921c-.843-.36-1.489.609-2.148,1.267a6.32,6.32,0,0,1-6.246,5.325h-5.82l-1.187,1.187v8.488A3.668,3.668,0,0,0,17,34.016H31.017a3.665,3.665,0,0,0,3.67-3.668V21.674A3.668,3.668,0,0,0,31.017,18ZM26.679,29.013a1,1,0,1,1-2,0v-1H23.342v1a1,1,0,1,1-2,0V24.675a2.67,2.67,0,0,1,5.339,0Z" transform="translate(2.78 3.449)" fill="#d3bdff"/><path d="M19,19a.666.666,0,0,0-.667.667V21h1.333V19.667A.666.666,0,0,0,19,19Z" transform="translate(7.789 8.458)" fill="#d3bdff"/><path d="M25.683,8H11.67A3.673,3.673,0,0,0,8,11.67v8.674a3.673,3.673,0,0,0,3.67,3.672h1.668v3a1,1,0,0,0,1.71.709l3.712-3.712h6.927a3.673,3.673,0,0,0,3.67-3.67V11.67A3.675,3.675,0,0,0,25.683,8Zm-4.336,9.675a2.287,2.287,0,0,1-.16.829.973.973,0,0,1-1.347,1.347,2.287,2.287,0,0,1-.829.16h-.667a2.338,2.338,0,0,1-2.336-2.336V14.338A2.337,2.337,0,0,1,18.344,12h.667a2.339,2.339,0,0,1,2.336,2.336Z" transform="translate(-2.565 -2.564)" fill="#5e35b1"/></g></svg>