<svg width="24" height="24" viewBox="0 0 24 24" fill="none" xmlns="http://www.w3.org/2000/svg">
<g clip-path="url(#clip0_80_1146)">
<path d="M19.7449 12.1357C19.7449 13.7748 19.5828 15.2765 19.2531 16.6457C18.9242 18.0093 18.4324 19.1857 17.7784 20.1751C17.1244 21.1645 16.3212 21.9273 15.3604 22.4742C14.6661 22.8677 13.8903 23.1191 13.0285 23.2275C10.8458 21.1203 11.7746 15.2026 14.0883 14.9175C13.0826 17.8173 14.3722 19.5993 15.464 19.7029C17.7464 19.9197 19.8614 15.8675 19.7129 10.9199C19.7358 11.3182 19.7449 11.7222 19.7449 12.1357Z" fill="#7066AD"/>
<path d="M21.0392 20.2088C18.6982 22.9263 15.2615 24.5461 13.6102 23.6595C13.394 23.5463 13.1999 23.3985 13.0286 23.2267C13.8904 23.1183 14.6662 22.8669 15.3605 22.4734C16.3213 21.9273 17.1237 21.1636 17.7785 20.1743C18.4324 19.1849 18.9243 18.0084 19.2532 16.6449C19.582 15.2765 19.745 13.7747 19.745 12.1349C19.745 11.7213 19.7358 11.3174 19.7138 10.9191V10.9046C19.6909 10.1514 19.6148 9.37884 19.4793 8.59587C18.8786 5.12026 17.0339 1.04397 15.2973 0C15.7122 0.11323 16.1135 0.260992 16.5109 0.432845C16.5291 0.432845 16.5466 0.442481 16.5603 0.452921C18.4005 1.28006 21.5805 3.29813 23.2136 7.54226C24.8009 11.6627 23.9399 16.8569 21.0392 20.2088Z" fill="url(#paint0_linear_80_1146)"/>
<path d="M9.91171 9.07868C10.9174 6.18368 9.62773 4.40171 8.53599 4.29812C6.33044 4.08611 4.27867 7.86688 4.27867 12.5832C4.26953 12.4354 4.26953 12.2877 4.26953 12.1351C4.26953 10.4808 4.44083 8.95983 4.77505 7.57135C5.10851 6.17806 5.60489 4.97669 6.26344 3.95762C6.92199 2.93855 7.73356 2.14594 8.68978 1.57497C9.38411 1.16621 10.1515 0.905222 10.9989 0.791992C13.1458 2.9249 12.217 8.79761 9.91171 9.07868Z" fill="#7066AD"/>
<path d="M8.70351 24C8.41954 23.9165 8.13937 23.8274 7.8691 23.7294C7.84626 23.7198 7.82418 23.7101 7.79678 23.6997C7.74272 23.6804 7.6841 23.6555 7.62548 23.6306C7.57142 23.6058 7.5128 23.5817 7.45418 23.5568C5.61863 22.7296 2.42487 20.7059 0.788021 16.4578C-0.416395 13.3315 -0.213121 9.59009 1.22121 6.50316C1.27527 6.3803 1.33389 6.26225 1.39251 6.14339C1.51432 5.9073 1.6407 5.6712 1.78079 5.44474C2.03812 5.01671 2.31752 4.60796 2.6152 4.21366C2.71417 4.08598 2.81847 3.95749 2.92658 3.8298C2.93572 3.81535 2.94942 3.80009 2.96236 3.78564C2.98064 3.76556 2.99815 3.74147 3.01642 3.72139C5.36206 1.04803 8.75833 -0.54201 10.3914 0.334119C10.6167 0.456986 10.82 0.609566 11.0004 0.791859C10.1523 0.905089 9.38566 1.16608 8.69133 1.57483C7.73511 2.1458 6.92354 2.93842 6.26499 3.95749C5.60645 4.97656 5.11006 6.17793 4.7766 7.57122C4.44314 8.9597 4.27108 10.4807 4.27108 12.135C4.27108 12.2875 4.27108 12.4353 4.28022 12.5831C4.28022 12.7164 4.28022 12.8489 4.28935 12.9822C4.29849 13.4793 4.33427 13.9812 4.39746 14.4935C4.41117 14.6557 4.43324 14.8131 4.46065 14.9762C4.47892 15.1191 4.501 15.2564 4.52384 15.3994C4.53298 15.4636 4.54668 15.5271 4.55962 15.5913C4.61825 15.9511 4.69514 16.3004 4.77584 16.6449C4.86187 16.9846 4.95171 17.3146 5.05525 17.6343C5.06438 17.6688 5.07352 17.6985 5.08646 17.733C5.92468 20.5196 7.34988 23.1825 8.70351 24Z" fill="url(#paint1_linear_80_1146)"/>
</g>
<defs>
<linearGradient id="paint0_linear_80_1146" x1="13.0288" y1="11.9519" x2="24" y2="11.9519" gradientUnits="userSpaceOnUse">
<stop stop-color="#262261"/>
<stop offset="0.3346" stop-color="#372F79"/>
<stop offset="0.7442" stop-color="#473B90"/>
<stop offset="1" stop-color="#4D3F99"/>
</linearGradient>
<linearGradient id="paint1_linear_80_1146" x1="4.98988e-05" y1="12.0464" x2="10.9991" y2="12.0464" gradientUnits="userSpaceOnUse">
<stop stop-color="#262261"/>
<stop offset="0.3346" stop-color="#372F79"/>
<stop offset="0.7442" stop-color="#473B90"/>
<stop offset="1" stop-color="#4D3F99"/>
</linearGradient>
<clipPath id="clip0_80_1146">
<rect width="24" height="24" fill="white"/>
</clipPath>
</defs>
</svg>
