<svg xmlns="http://www.w3.org/2000/svg" width="48" height="48" viewBox="0 0 48 48">
  <g id="_people_outline" data-name=" people_outline" transform="translate(0.17 0.483)">
    <rect id="Path" width="48" height="48" transform="translate(-0.17 -0.483)" fill="rgba(0,0,0,0)"/>
    <path id="Icon" d="M38,28H32V24.5c0-2.678-1.319-4.994-3.92-6.88C32.873,18.146,40,20.416,40,24.5V26A2,2,0,0,1,38,28ZM26,28H2a2,2,0,0,1-2-2V24.5c0-4.6,9.114-7,14-7s14,2.4,14,7V26A2,2,0,0,1,26,28ZM14,21.5A19.206,19.206,0,0,0,4.68,24H23.32A19.207,19.207,0,0,0,14,21.5ZM26,14a6.978,6.978,0,0,1-3-.7A10.924,10.924,0,0,0,23,.7,6.917,6.917,0,0,1,26,0a7,7,0,1,1,0,14ZM14,14a7,7,0,1,1,7-7A7.007,7.007,0,0,1,14,14ZM14,4a3,3,0,1,0,3,3A3,3,0,0,0,14,4Z" transform="translate(3.83 9.517)" fill="#d3bdff"/>
  </g>
</svg>
