<svg xmlns="http://www.w3.org/2000/svg" width="40" height="40" viewBox="0 0 40 40">
  <path id="questions" d="M20,40A20,20,0,1,1,40,20,20.023,20.023,0,0,1,20,40ZM18,30h0v4h4V30Zm2-20a4.259,4.259,0,0,1,1.143.159,3.989,3.989,0,0,1,2.779,3.06,3.946,3.946,0,0,1-1.1,3.6l-2.48,2.52A8.024,8.024,0,0,0,18,25v1h4a9.185,9.185,0,0,1,.259-2.281A7.017,7.017,0,0,1,24.34,20.34l1.8-1.84a6.6,6.6,0,0,0,.38-8.8,8.384,8.384,0,0,0-6.648-3.686,7.012,7.012,0,0,0-1.092.086,8.036,8.036,0,0,0-6.46,5.659,1.771,1.771,0,0,0,.283,1.566A1.684,1.684,0,0,0,13.96,14h.6a1.756,1.756,0,0,0,1.64-1.3A4.024,4.024,0,0,1,20,10Z" transform="translate(0 0)" fill="#d3bdff"/>
</svg>
