<svg xmlns="http://www.w3.org/2000/svg" width="14.514" height="19.125" viewBox="0 0 14.514 19.125"><path d="M7.257,19.125h0C3.12,18.026,0,13.5,0,8.6V4.482a1.769,1.769,0,0,1,.959-1.6L6.6.151a1.489,1.489,0,0,1,1.306,0l5.644,2.727a1.769,1.769,0,0,1,.959,1.6V8.6c0,4.9-3.12,9.423-7.257,10.522Zm-3.7-9.647a.768.768,0,0,0-.569.257.928.928,0,0,0,0,1.236l2.089,2.271a.773.773,0,0,0,.572.256.752.752,0,0,0,.565-.256l5.313-5.778a.932.932,0,0,0,0-1.237.759.759,0,0,0-1.137,0L5.644,11.382,4.12,9.735A.767.767,0,0,0,3.552,9.478Z" fill="#85888f"/></svg>