<svg width="56" height="56" viewBox="0 0 56 56" fill="none" xmlns="http://www.w3.org/2000/svg">
<path d="M48 12H16C13.8 12 12.02 13.8 12.02 16L12 52L20 44H48C50.2 44 52 42.2 52 40V16C52 13.8 50.2 12 48 12ZM42 36H22C20.9 36 20 35.1 20 34C20 32.9 20.9 32 22 32H42C43.1 32 44 32.9 44 34C44 35.1 43.1 36 42 36ZM42 30H22C20.9 30 20 29.1 20 28C20 26.9 20.9 26 22 26H42C43.1 26 44 26.9 44 28C44 29.1 43.1 30 42 30ZM42 24H22C20.9 24 20 23.1 20 22C20 20.9 20.9 20 22 20H42C43.1 20 44 20.9 44 22C44 23.1 43.1 24 42 24Z" fill="#999999"/>
<rect width="24" height="24" rx="12" fill="#784ED1"/>
<path d="M13.4561 15.5H11.4805V7.88477L9.12207 8.61621V7.00977L13.2441 5.5332H13.4561V15.5Z" fill="white"/>
</svg>
