<svg xmlns="http://www.w3.org/2000/svg" width="18.146" height="17.366" viewBox="0 0 18.146 17.366">
  <path id="star" d="M13.226,16.366a.993.993,0,0,1-.519-.148l-4.15-2.511-4.15,2.5a.99.99,0,0,1-.518.148,1.014,1.014,0,0,1-.786-.384.976.976,0,0,1-.186-.844l1.1-4.72L.348,7.227a1,1,0,0,1,.57-1.75l4.83-.411L7.638.607a1,1,0,0,1,1.84,0l1.89,4.45,4.84.42a.972.972,0,0,1,.859.676.99.99,0,0,1-.3,1.073L13.1,10.408l1.1,4.729a.976.976,0,0,1-.185.844A1.014,1.014,0,0,1,13.226,16.366ZM8.557,11.838h0l3.769,2.28-1-4.281,3.32-2.879-4.38-.38-1.71-4.04-1.7,4.029-4.38.38L5.8,9.828l-1,4.28,3.76-2.27Z" transform="translate(0.514 0.5)" fill="#a3a5a8" stroke="rgba(0,0,0,0)" stroke-width="1"/>
</svg>
