<svg xmlns="http://www.w3.org/2000/svg" width="24" height="24" viewBox="0 0 24 24"><g transform="translate(-271 -462)"><rect width="24" height="24" transform="translate(271 462)" fill="rgba(0,0,0,0)"/><path d="M286.005,482.782a.515.515,0,0,1-.355-.142l-2.79-2.78a.485.485,0,0,1-.115-.54.492.492,0,0,1,.465-.311H285V473a1,1,0,0,1,2,0v6.01h1.8a.491.491,0,0,1,.462.313.483.483,0,0,1-.112.537l-2.79,2.78A.515.515,0,0,1,286.005,482.782ZM280,476a1,1,0,0,1-1-1v-6.01h-1.79a.492.492,0,0,1-.464-.311.485.485,0,0,1,.114-.539l2.79-2.791a.5.5,0,0,1,.7,0l2.79,2.791a.484.484,0,0,1,.115.538.492.492,0,0,1-.465.311H281V475A1,1,0,0,1,280,476Z" fill="#1d1d1d"/></g></svg>