<svg width="19" height="19" viewBox="0 0 19 19" fill="none" xmlns="http://www.w3.org/2000/svg">
<path d="M13.973 5.02714C12.6826 3.73673 10.8538 2.99256 8.843 3.19839C5.93759 3.49131 3.54675 5.85048 3.22217 8.75589C2.78675 12.5955 5.7555 15.8334 9.50009 15.8334C12.0255 15.8334 14.1947 14.353 15.208 12.2234C15.4613 11.693 15.0813 11.0834 14.4955 11.0834C14.2026 11.0834 13.9255 11.2417 13.7988 11.503C12.9043 13.4267 10.7588 14.6459 8.4155 14.1234C6.658 13.7355 5.24092 12.3026 4.86884 10.5451C4.20384 7.47339 6.53925 4.75006 9.50009 4.75006C10.8143 4.75006 11.9859 5.29631 12.8409 6.15923L11.6455 7.35464C11.1468 7.85339 11.4951 8.70839 12.1997 8.70839H15.0418C15.4772 8.70839 15.8334 8.35214 15.8334 7.91673V5.07464C15.8334 4.37006 14.9784 4.01381 14.4797 4.51256L13.973 5.02714Z" fill="#A3A5A8" fill-opacity="0.6"/>
</svg>
